<?xml version="1.0" encoding="UTF-8" standalone="no"?>
<!-- Created with Inkscape (http://www.inkscape.org/) -->

<svg
   xmlns:dc="http://purl.org/dc/elements/1.1/"
   xmlns:cc="http://creativecommons.org/ns#"
   xmlns:rdf="http://www.w3.org/1999/02/22-rdf-syntax-ns#"
   xmlns:svg="http://www.w3.org/2000/svg"
   xmlns="http://www.w3.org/2000/svg"
   xmlns:sodipodi="http://sodipodi.sourceforge.net/DTD/sodipodi-0.dtd"
   xmlns:inkscape="http://www.inkscape.org/namespaces/inkscape"
   width="174.83292mm"
   height="53.559681mm"
   viewBox="0 0 174.83292 53.559681"
   version="1.1"
   id="svg628"
   inkscape:version="0.92.1 r15371"
   sodipodi:docname="aeroplane.svg">
  <defs
     id="defs622" />
  <sodipodi:namedview
     id="base"
     pagecolor="#ffffff"
     bordercolor="#666666"
     borderopacity="1.0"
     inkscape:pageopacity="0.0"
     inkscape:pageshadow="2"
     inkscape:zoom="0.7"
     inkscape:cx="811.05803"
     inkscape:cy="-20.91774"
     inkscape:document-units="mm"
     inkscape:current-layer="master-artboard"
     showgrid="false"
     fit-margin-top="0"
     fit-margin-left="0"
     fit-margin-right="0"
     fit-margin-bottom="0"
     inkscape:window-width="1600"
     inkscape:window-height="877"
     inkscape:window-x="1358"
     inkscape:window-y="-8"
     inkscape:window-maximized="1" />
  <metadata
     id="metadata625">
    <rdf:RDF>
      <cc:Work
         rdf:about="">
        <dc:format>image/svg+xml</dc:format>
        <dc:type
           rdf:resource="http://purl.org/dc/dcmitype/StillImage" />
        <dc:title></dc:title>
      </cc:Work>
    </rdf:RDF>
  </metadata>
  <g
     inkscape:label="Layer 1"
     inkscape:groupmode="layer"
     id="layer1"
     transform="translate(-38.033074,-62.23015)">
    <g
       transform="matrix(0.14240809,0,0,0.14240809,26.558385,57.886703)"
       id="master-artboard"
       viewBox="0 0 1400 980"
       version="1.1"
       x="0px"
       y="0px"
       enable-background="new 0 0 1400 980">
      <metadata
         id="metadata13">
        <!--?xpacket begin="﻿" id="W5M0MpCehiHzreSzNTczkc9d"?-->
        <!--?xpacket end="w"?-->
      </metadata>
      <g
         id="XMLID_673_">
        <g
           id="XMLID_506_">
          <path
             style="fill:#c1c2c1"
             inkscape:connector-curvature="0"
             id="XMLID_440_"
             d="m 686.3,393.5 -0.9,-1.2 12.9,-9.7 -12.9,-9.3 0.9,-1.2 13.7,9.9 c 0.2,0.1 0.3,0.4 0.3,0.6 0,0.2 -0.1,0.5 -0.3,0.6 z" />
        </g>
        <path
           style="fill:#c1c2c1"
           inkscape:connector-curvature="0"
           d="m 682.09998,369.10001 h 7.5 v 23.8 h -7.5 z"
           id="XMLID_429_" />
        <path
           style="fill:#cecfcf"
           inkscape:connector-curvature="0"
           id="XMLID_428_"
           d="m 1060.2,215 -121.2,36.6 283.9,11.7 58.6,-226.1 c 0.9,-3.4 -1.7,-6.7 -5.2,-6.7 h -33.4 c -6.6,0 -12.9,2.9 -17.2,8 L 1098,190.2 c -10,11.7 -23.1,20.4 -37.8,24.8 z" />
        <path
           style="fill:#d8d9d8"
           inkscape:connector-curvature="0"
           id="XMLID_438_"
           d="m 948,250.4 112.7,-34 c 15,-4.5 28.3,-13.3 38.5,-25.3 L 1226.9,39.4 c 4,-4.7 9.8,-7.5 16,-7.5 h 33.4 c 1.2,0 2.3,0.5 3,1.5 0.7,0.9 1,2.2 0.7,3.3 l -58.3,225 z" />
        <g
           id="XMLID_499_">
          <path
             style="fill:#bfbfbe"
             inkscape:connector-curvature="0"
             id="XMLID_435_"
             d="m 207.8,393.5 -0.8,-1.3 12,-7.6 -9.5,-8.1 1,-1.1 10.2,8.8 c 0.2,0.2 0.3,0.4 0.3,0.6 0,0.2 -0.1,0.5 -0.3,0.6 z" />
        </g>
        <g
           id="XMLID_497_">
          <path
             style="fill:#c1c2c1"
             inkscape:connector-curvature="0"
             d="m 207.3,365.60001 h 4.5 v 27.5 h -4.5 z"
             id="XMLID_500_"
             transform="matrix(0.988,0.1543,-0.1543,0.988,61.0434,-27.7877)" />
        </g>
        <path
           style="fill:#cecfcf"
           inkscape:connector-curvature="0"
           id="XMLID_426_"
           d="m 427.3,244.2 c -36.7,0 -189.1,1.8 -232.4,14.2 -43.4,12.4 -54.2,20.6 -58.3,24.1 -4.1,3.5 -10.1,10.7 -10.1,10.7 0,0 -2.9,0.1 -5.3,1.4 -2.4,1.3 -24.6,11.9 -30.5,15.4 -5.9,3.5 -22,16.8 5.2,29.3 27.2,12.5 65.1,29.9 142.8,29.9 77.7,0 549.1,0 614,0 64.9,0 133.8,-4.8 216.7,-26.7 82.9,-21.9 154.9,-44 163.7,-47.8 8.8,-3.8 13.3,-20.1 15.8,-27.9 2.5,-7.8 -0.5,-10.8 -15.3,-12.1 -14.8,-1.3 -230.1,-10.6 -301.5,-10.6 -82.2,0.1 -504.8,0.1 -504.8,0.1 z" />
        <path
           style="fill:#e5e6e4"
           inkscape:connector-curvature="0"
           id="XMLID_727_"
           d="m 238.7,366.1 c -76.6,0 -113.9,-17 -141.1,-29.4 l -0.5,-0.2 c -8.7,-4 -13.4,-8.3 -13.6,-12.5 -0.2,-4.8 5.3,-9.4 8.6,-11.4 4.2,-2.5 16.9,-8.7 24.4,-12.4 3,-1.5 5.3,-2.6 6,-2.9 1.7,-0.9 4,-1 4,-1 l 1.3,-0.1 0.9,-1 c 0.1,-0.1 5.8,-7 9.7,-10.3 3.1,-2.7 12.7,-10.8 57.2,-23.5 40.3,-11.6 180.8,-14.1 231.6,-14.1 h 504.9 c 72.3,0 286.8,9.3 301.2,10.5 7.5,0.6 11.9,1.8 13,3.5 0.2,0.3 0.8,1.2 -0.3,4.7 l -0.6,2 c -2.3,7.4 -6.7,21.2 -13.5,24.1 -8.5,3.6 -79,25.4 -163.3,47.6 -88.7,23.4 -159,26.6 -216,26.6 H 238.7 Z" />
        <g
           id="XMLID_427_">
          <path
             style="fill:#6a91b0"
             inkscape:connector-curvature="0"
             id="XMLID_430_"
             d="M 151.7,299.3 176,291.2 V 282 h -38.9 c -0.2,0.2 -0.4,0.3 -0.6,0.5 -4.1,3.5 -10.1,10.7 -10.1,10.7 H 138 Z" />
        </g>
        <g
           id="XMLID_805_">
          <path
             style="fill:#6a91b0"
             inkscape:connector-curvature="0"
             id="XMLID_806_"
             d="m 268.2,287.3 h -5.1 c -1.1,0 -1.9,0.9 -1.9,1.9 v 8.2 c 0,1.1 0.9,1.9 1.9,1.9 h 5.1 c 1.1,0 1.9,-0.9 1.9,-1.9 v -8.2 c 0.1,-1.1 -0.8,-1.9 -1.9,-1.9 z" />
          <path
             style="fill:#6a91b0"
             inkscape:connector-curvature="0"
             id="XMLID_807_"
             d="m 283.8,287.3 h -5.1 c -1.1,0 -1.9,0.9 -1.9,1.9 v 8.2 c 0,1.1 0.9,1.9 1.9,1.9 h 5.1 c 1.1,0 1.9,-0.9 1.9,-1.9 v -8.2 c 0,-1.1 -0.8,-1.9 -1.9,-1.9 z" />
          <path
             style="fill:#6a91b0"
             inkscape:connector-curvature="0"
             id="XMLID_808_"
             d="m 299.4,287.3 h -5.1 c -1.1,0 -1.9,0.9 -1.9,1.9 v 8.2 c 0,1.1 0.9,1.9 1.9,1.9 h 5.1 c 1.1,0 1.9,-0.9 1.9,-1.9 v -8.2 c 0,-1.1 -0.8,-1.9 -1.9,-1.9 z" />
          <path
             style="fill:#6a91b0"
             inkscape:connector-curvature="0"
             id="XMLID_809_"
             d="m 315,287.3 h -5.1 c -1.1,0 -1.9,0.9 -1.9,1.9 v 8.2 c 0,1.1 0.9,1.9 1.9,1.9 h 5.1 c 1.1,0 1.9,-0.9 1.9,-1.9 v -8.2 c 0,-1.1 -0.8,-1.9 -1.9,-1.9 z" />
          <path
             style="fill:#6a91b0"
             inkscape:connector-curvature="0"
             id="XMLID_810_"
             d="m 330.6,287.3 h -5.1 c -1.1,0 -1.9,0.9 -1.9,1.9 v 8.2 c 0,1.1 0.9,1.9 1.9,1.9 h 5.1 c 1.1,0 1.9,-0.9 1.9,-1.9 v -8.2 c 0,-1.1 -0.9,-1.9 -1.9,-1.9 z" />
          <path
             style="fill:#6a91b0"
             inkscape:connector-curvature="0"
             id="XMLID_811_"
             d="m 346.2,287.3 h -5.1 c -1.1,0 -1.9,0.9 -1.9,1.9 v 8.2 c 0,1.1 0.9,1.9 1.9,1.9 h 5.1 c 1.1,0 1.9,-0.9 1.9,-1.9 v -8.2 c 0,-1.1 -0.9,-1.9 -1.9,-1.9 z" />
          <path
             style="fill:#6a91b0"
             inkscape:connector-curvature="0"
             id="XMLID_812_"
             d="m 361.8,287.3 h -5.1 c -1.1,0 -1.9,0.9 -1.9,1.9 v 8.2 c 0,1.1 0.9,1.9 1.9,1.9 h 5.1 c 1.1,0 1.9,-0.9 1.9,-1.9 v -8.2 c 0,-1.1 -0.9,-1.9 -1.9,-1.9 z" />
          <path
             style="fill:#6a91b0"
             inkscape:connector-curvature="0"
             id="XMLID_813_"
             d="m 377.3,287.3 h -5.1 c -1.1,0 -1.9,0.9 -1.9,1.9 v 8.2 c 0,1.1 0.9,1.9 1.9,1.9 h 5.1 c 1.1,0 1.9,-0.9 1.9,-1.9 v -8.2 c 0.1,-1.1 -0.8,-1.9 -1.9,-1.9 z" />
          <path
             style="fill:#6a91b0"
             inkscape:connector-curvature="0"
             id="XMLID_814_"
             d="m 392.9,287.3 h -5.1 c -1.1,0 -1.9,0.9 -1.9,1.9 v 8.2 c 0,1.1 0.9,1.9 1.9,1.9 h 5.1 c 1.1,0 1.9,-0.9 1.9,-1.9 v -8.2 c 0.1,-1.1 -0.8,-1.9 -1.9,-1.9 z" />
          <path
             style="fill:#6a91b0"
             inkscape:connector-curvature="0"
             id="XMLID_815_"
             d="m 408.5,287.3 h -5.1 c -1.1,0 -1.9,0.9 -1.9,1.9 v 8.2 c 0,1.1 0.9,1.9 1.9,1.9 h 5.1 c 1.1,0 1.9,-0.9 1.9,-1.9 v -8.2 c 0.1,-1.1 -0.8,-1.9 -1.9,-1.9 z" />
          <path
             style="fill:#6a91b0"
             inkscape:connector-curvature="0"
             id="XMLID_816_"
             d="M 424.1,287.3 H 419 c -1.1,0 -1.9,0.9 -1.9,1.9 v 8.2 c 0,1.1 0.9,1.9 1.9,1.9 h 5.1 c 1.1,0 1.9,-0.9 1.9,-1.9 v -8.2 c 0,-1.1 -0.8,-1.9 -1.9,-1.9 z" />
          <path
             style="fill:#6a91b0"
             inkscape:connector-curvature="0"
             id="XMLID_817_"
             d="m 439.7,287.3 h -5.1 c -1.1,0 -1.9,0.9 -1.9,1.9 v 8.2 c 0,1.1 0.9,1.9 1.9,1.9 h 5.1 c 1.1,0 1.9,-0.9 1.9,-1.9 v -8.2 c 0,-1.1 -0.8,-1.9 -1.9,-1.9 z" />
          <path
             style="fill:#6a91b0"
             inkscape:connector-curvature="0"
             id="XMLID_818_"
             d="m 455.3,287.3 h -5.1 c -1.1,0 -1.9,0.9 -1.9,1.9 v 8.2 c 0,1.1 0.9,1.9 1.9,1.9 h 5.1 c 1.1,0 1.9,-0.9 1.9,-1.9 v -8.2 c 0,-1.1 -0.8,-1.9 -1.9,-1.9 z" />
          <path
             style="fill:#6a91b0"
             inkscape:connector-curvature="0"
             id="XMLID_819_"
             d="m 470.9,287.3 h -5.1 c -1.1,0 -1.9,0.9 -1.9,1.9 v 8.2 c 0,1.1 0.9,1.9 1.9,1.9 h 5.1 c 1.1,0 1.9,-0.9 1.9,-1.9 v -8.2 c 0,-1.1 -0.9,-1.9 -1.9,-1.9 z" />
          <path
             style="fill:#6a91b0"
             inkscape:connector-curvature="0"
             id="XMLID_820_"
             d="m 486.5,287.3 h -5.1 c -1.1,0 -1.9,0.9 -1.9,1.9 v 8.2 c 0,1.1 0.9,1.9 1.9,1.9 h 5.1 c 1.1,0 1.9,-0.9 1.9,-1.9 v -8.2 c 0,-1.1 -0.9,-1.9 -1.9,-1.9 z" />
          <path
             style="fill:#6a91b0"
             inkscape:connector-curvature="0"
             id="XMLID_821_"
             d="m 552.6,287.3 h -5.1 c -1.1,0 -1.9,0.9 -1.9,1.9 v 8.2 c 0,1.1 0.9,1.9 1.9,1.9 h 5.1 c 1.1,0 1.9,-0.9 1.9,-1.9 v -8.2 c 0,-1.1 -0.8,-1.9 -1.9,-1.9 z" />
          <path
             style="fill:#6a91b0"
             inkscape:connector-curvature="0"
             id="XMLID_822_"
             d="m 568.2,287.3 h -5.1 c -1.1,0 -1.9,0.9 -1.9,1.9 v 8.2 c 0,1.1 0.9,1.9 1.9,1.9 h 5.1 c 1.1,0 1.9,-0.9 1.9,-1.9 v -8.2 c 0,-1.1 -0.9,-1.9 -1.9,-1.9 z" />
          <path
             style="fill:#6a91b0"
             inkscape:connector-curvature="0"
             id="XMLID_823_"
             d="m 583.8,287.3 h -5.1 c -1.1,0 -1.9,0.9 -1.9,1.9 v 8.2 c 0,1.1 0.9,1.9 1.9,1.9 h 5.1 c 1.1,0 1.9,-0.9 1.9,-1.9 v -8.2 c 0,-1.1 -0.9,-1.9 -1.9,-1.9 z" />
          <path
             style="fill:#6a91b0"
             inkscape:connector-curvature="0"
             id="XMLID_824_"
             d="m 599.4,287.3 h -5.1 c -1.1,0 -1.9,0.9 -1.9,1.9 v 8.2 c 0,1.1 0.9,1.9 1.9,1.9 h 5.1 c 1.1,0 1.9,-0.9 1.9,-1.9 v -8.2 c 0,-1.1 -0.9,-1.9 -1.9,-1.9 z" />
          <path
             style="fill:#6a91b0"
             inkscape:connector-curvature="0"
             id="XMLID_825_"
             d="m 614.9,287.3 h -5.1 c -1.1,0 -1.9,0.9 -1.9,1.9 v 8.2 c 0,1.1 0.9,1.9 1.9,1.9 h 5.1 c 1.1,0 1.9,-0.9 1.9,-1.9 v -8.2 c 0.1,-1.1 -0.8,-1.9 -1.9,-1.9 z" />
          <path
             style="fill:#6a91b0"
             inkscape:connector-curvature="0"
             id="XMLID_826_"
             d="m 630.5,287.3 h -5.1 c -1.1,0 -1.9,0.9 -1.9,1.9 v 8.2 c 0,1.1 0.9,1.9 1.9,1.9 h 5.1 c 1.1,0 1.9,-0.9 1.9,-1.9 v -8.2 c 0.1,-1.1 -0.8,-1.9 -1.9,-1.9 z" />
          <path
             style="fill:#6a91b0"
             inkscape:connector-curvature="0"
             id="XMLID_827_"
             d="M 646.1,287.3 H 641 c -1.1,0 -1.9,0.9 -1.9,1.9 v 8.2 c 0,1.1 0.9,1.9 1.9,1.9 h 5.1 c 1.1,0 1.9,-0.9 1.9,-1.9 v -8.2 c 0.1,-1.1 -0.8,-1.9 -1.9,-1.9 z" />
          <path
             style="fill:#6a91b0"
             inkscape:connector-curvature="0"
             id="XMLID_828_"
             d="m 661.7,287.3 h -5.1 c -1.1,0 -1.9,0.9 -1.9,1.9 v 8.2 c 0,1.1 0.9,1.9 1.9,1.9 h 5.1 c 1.1,0 1.9,-0.9 1.9,-1.9 v -8.2 c 0,-1.1 -0.8,-1.9 -1.9,-1.9 z" />
          <path
             style="fill:#6a91b0"
             inkscape:connector-curvature="0"
             id="XMLID_829_"
             d="m 677.3,287.3 h -5.1 c -1.1,0 -1.9,0.9 -1.9,1.9 v 8.2 c 0,1.1 0.9,1.9 1.9,1.9 h 5.1 c 1.1,0 1.9,-0.9 1.9,-1.9 v -8.2 c 0,-1.1 -0.8,-1.9 -1.9,-1.9 z" />
          <path
             style="fill:#6a91b0"
             inkscape:connector-curvature="0"
             id="XMLID_830_"
             d="m 692.9,287.3 h -5.1 c -1.1,0 -1.9,0.9 -1.9,1.9 v 8.2 c 0,1.1 0.9,1.9 1.9,1.9 h 5.1 c 1.1,0 1.9,-0.9 1.9,-1.9 v -8.2 c 0,-1.1 -0.8,-1.9 -1.9,-1.9 z" />
          <path
             style="fill:#6a91b0"
             inkscape:connector-curvature="0"
             id="XMLID_831_"
             d="m 708.5,287.3 h -5.1 c -1.1,0 -1.9,0.9 -1.9,1.9 v 8.2 c 0,1.1 0.9,1.9 1.9,1.9 h 5.1 c 1.1,0 1.9,-0.9 1.9,-1.9 v -8.2 c 0,-1.1 -0.9,-1.9 -1.9,-1.9 z" />
          <path
             style="fill:#6a91b0"
             inkscape:connector-curvature="0"
             id="XMLID_832_"
             d="M 724.1,287.3 H 719 c -1.1,0 -1.9,0.9 -1.9,1.9 v 8.2 c 0,1.1 0.9,1.9 1.9,1.9 h 5.1 c 1.1,0 1.9,-0.9 1.9,-1.9 v -8.2 c 0,-1.1 -0.9,-1.9 -1.9,-1.9 z" />
          <path
             style="fill:#6a91b0"
             inkscape:connector-curvature="0"
             id="XMLID_833_"
             d="m 739.7,287.3 h -5.1 c -1.1,0 -1.9,0.9 -1.9,1.9 v 8.2 c 0,1.1 0.9,1.9 1.9,1.9 h 5.1 c 1.1,0 1.9,-0.9 1.9,-1.9 v -8.2 c 0,-1.1 -0.9,-1.9 -1.9,-1.9 z" />
          <path
             style="fill:#6a91b0"
             inkscape:connector-curvature="0"
             id="XMLID_834_"
             d="m 755.2,287.3 h -5.1 c -1.1,0 -1.9,0.9 -1.9,1.9 v 8.2 c 0,1.1 0.9,1.9 1.9,1.9 h 5.1 c 1.1,0 1.9,-0.9 1.9,-1.9 v -8.2 c 0.1,-1.1 -0.8,-1.9 -1.9,-1.9 z" />
          <path
             style="fill:#6a91b0"
             inkscape:connector-curvature="0"
             id="XMLID_835_"
             d="m 770.8,287.3 h -5.1 c -1.1,0 -1.9,0.9 -1.9,1.9 v 8.2 c 0,1.1 0.9,1.9 1.9,1.9 h 5.1 c 1.1,0 1.9,-0.9 1.9,-1.9 v -8.2 c 0.1,-1.1 -0.8,-1.9 -1.9,-1.9 z" />
          <path
             style="fill:#6a91b0"
             inkscape:connector-curvature="0"
             id="XMLID_836_"
             d="m 786.4,287.3 h -5.1 c -1.1,0 -1.9,0.9 -1.9,1.9 v 8.2 c 0,1.1 0.9,1.9 1.9,1.9 h 5.1 c 1.1,0 1.9,-0.9 1.9,-1.9 v -8.2 c 0,-1.1 -0.8,-1.9 -1.9,-1.9 z" />
          <path
             style="fill:#6a91b0"
             inkscape:connector-curvature="0"
             id="XMLID_837_"
             d="m 802,287.3 h -5.1 c -1.1,0 -1.9,0.9 -1.9,1.9 v 8.2 c 0,1.1 0.9,1.9 1.9,1.9 h 5.1 c 1.1,0 1.9,-0.9 1.9,-1.9 v -8.2 c 0,-1.1 -0.8,-1.9 -1.9,-1.9 z" />
          <path
             style="fill:#6a91b0"
             inkscape:connector-curvature="0"
             id="XMLID_838_"
             d="m 817.6,287.3 h -5.1 c -1.1,0 -1.9,0.9 -1.9,1.9 v 8.2 c 0,1.1 0.9,1.9 1.9,1.9 h 5.1 c 1.1,0 1.9,-0.9 1.9,-1.9 v -8.2 c 0,-1.1 -0.8,-1.9 -1.9,-1.9 z" />
          <path
             style="fill:#6a91b0"
             inkscape:connector-curvature="0"
             id="XMLID_839_"
             d="m 833.2,287.3 h -5.1 c -1.1,0 -1.9,0.9 -1.9,1.9 v 8.2 c 0,1.1 0.9,1.9 1.9,1.9 h 5.1 c 1.1,0 1.9,-0.9 1.9,-1.9 v -8.2 c 0,-1.1 -0.9,-1.9 -1.9,-1.9 z" />
          <path
             style="fill:#6a91b0"
             inkscape:connector-curvature="0"
             id="XMLID_840_"
             d="m 848.8,287.3 h -5.1 c -1.1,0 -1.9,0.9 -1.9,1.9 v 8.2 c 0,1.1 0.9,1.9 1.9,1.9 h 5.1 c 1.1,0 1.9,-0.9 1.9,-1.9 v -8.2 c 0,-1.1 -0.9,-1.9 -1.9,-1.9 z" />
          <path
             style="fill:#6a91b0"
             inkscape:connector-curvature="0"
             id="XMLID_841_"
             d="m 864.4,287.3 h -5.1 c -1.1,0 -1.9,0.9 -1.9,1.9 v 8.2 c 0,1.1 0.9,1.9 1.9,1.9 h 5.1 c 1.1,0 1.9,-0.9 1.9,-1.9 v -8.2 c 0,-1.1 -0.9,-1.9 -1.9,-1.9 z" />
          <path
             style="fill:#6a91b0"
             inkscape:connector-curvature="0"
             id="XMLID_842_"
             d="m 879.9,287.3 h -5.1 c -1.1,0 -1.9,0.9 -1.9,1.9 v 8.2 c 0,1.1 0.9,1.9 1.9,1.9 h 5.1 c 1.1,0 1.9,-0.9 1.9,-1.9 v -8.2 c 0.1,-1.1 -0.8,-1.9 -1.9,-1.9 z" />
          <path
             style="fill:#6a91b0"
             inkscape:connector-curvature="0"
             id="XMLID_843_"
             d="m 895.5,287.3 h -5.1 c -1.1,0 -1.9,0.9 -1.9,1.9 v 8.2 c 0,1.1 0.9,1.9 1.9,1.9 h 5.1 c 1.1,0 1.9,-0.9 1.9,-1.9 v -8.2 c 0.1,-1.1 -0.8,-1.9 -1.9,-1.9 z" />
          <path
             style="fill:#6a91b0"
             inkscape:connector-curvature="0"
             id="XMLID_844_"
             d="M 911.1,287.3 H 906 c -1.1,0 -1.9,0.9 -1.9,1.9 v 8.2 c 0,1.1 0.9,1.9 1.9,1.9 h 5.1 c 1.1,0 1.9,-0.9 1.9,-1.9 v -8.2 c 0.1,-1.1 -0.8,-1.9 -1.9,-1.9 z" />
          <path
             style="fill:#6a91b0"
             inkscape:connector-curvature="0"
             id="XMLID_845_"
             d="m 926.7,287.3 h -5.1 c -1.1,0 -1.9,0.9 -1.9,1.9 v 8.2 c 0,1.1 0.9,1.9 1.9,1.9 h 5.1 c 1.1,0 1.9,-0.9 1.9,-1.9 v -8.2 c 0,-1.1 -0.8,-1.9 -1.9,-1.9 z" />
          <path
             style="fill:#6a91b0"
             inkscape:connector-curvature="0"
             id="XMLID_846_"
             d="m 942.3,287.3 h -5.1 c -1.1,0 -1.9,0.9 -1.9,1.9 v 8.2 c 0,1.1 0.9,1.9 1.9,1.9 h 5.1 c 1.1,0 1.9,-0.9 1.9,-1.9 v -8.2 c 0,-1.1 -0.8,-1.9 -1.9,-1.9 z" />
          <path
             style="fill:#6a91b0"
             inkscape:connector-curvature="0"
             id="XMLID_847_"
             d="m 957.9,287.3 h -5.1 c -1.1,0 -1.9,0.9 -1.9,1.9 v 8.2 c 0,1.1 0.9,1.9 1.9,1.9 h 5.1 c 1.1,0 1.9,-0.9 1.9,-1.9 v -8.2 c 0,-1.1 -0.8,-1.9 -1.9,-1.9 z" />
          <path
             style="fill:#6a91b0"
             inkscape:connector-curvature="0"
             id="XMLID_848_"
             d="m 973.5,287.3 h -5.1 c -1.1,0 -1.9,0.9 -1.9,1.9 v 8.2 c 0,1.1 0.9,1.9 1.9,1.9 h 5.1 c 1.1,0 1.9,-0.9 1.9,-1.9 v -8.2 c 0,-1.1 -0.9,-1.9 -1.9,-1.9 z" />
          <path
             style="fill:#6a91b0"
             inkscape:connector-curvature="0"
             id="XMLID_849_"
             d="M 989.1,287.3 H 984 c -1.1,0 -1.9,0.9 -1.9,1.9 v 8.2 c 0,1.1 0.9,1.9 1.9,1.9 h 5.1 c 1.1,0 1.9,-0.9 1.9,-1.9 v -8.2 c 0,-1.1 -0.9,-1.9 -1.9,-1.9 z" />
        </g>
        <path
           style="fill:#cccccb"
           inkscape:connector-curvature="0"
           id="XMLID_434_"
           d="m 239.6,320.8 h -14.8 c -3,0 -5.4,-2.4 -5.4,-5.4 v -46 c 0,-3 2.4,-5.4 5.4,-5.4 h 14.8 c 3,0 5.4,2.4 5.4,5.4 v 46 c 0,3 -2.4,5.4 -5.4,5.4 z" />
        <path
           style="fill:#d8d9d8"
           inkscape:connector-curvature="0"
           id="XMLID_436_"
           d="m 224.8,319.3 c -2.1,0 -3.9,-1.7 -3.9,-3.9 v -46 c 0,-2.1 1.7,-3.9 3.9,-3.9 h 14.8 c 2.1,0 3.9,1.7 3.9,3.9 v 46 c 0,2.1 -1.7,3.9 -3.9,3.9 z" />
        <path
           style="fill:#bfbfbe"
           inkscape:connector-curvature="0"
           id="XMLID_502_"
           d="m 204.8,367.9 c -19,-1.4 -35.1,-4 -49,-7.2 l -2.1,10.3 c 0,0 26,6.1 49.6,7.9 z" />
        <path
           style="fill:#333333"
           inkscape:connector-curvature="0"
           d="m 218.19999,392.89999 a 10.8,10.8 0 0 1 -10.8,10.8 10.8,10.8 0 0 1 -10.8,-10.8 10.8,10.8 0 0 1 10.8,-10.8 10.8,10.8 0 0 1 10.8,10.8 z"
           id="XMLID_496_" />
        <path
           style="fill:#b2b3b3"
           inkscape:connector-curvature="0"
           d="m 213.49999,392.89999 a 6.1,6.1 0 0 1 -6.1,6.1 6.1,6.1 0 0 1 -6.1,-6.1 6.1,6.1 0 0 1 6.1,-6.1 6.1,6.1 0 0 1 6.1,6.1 z"
           id="XMLID_498_" />
        <path
           style="fill:#333333"
           inkscape:connector-curvature="0"
           d="m 699.60002,392.89999 a 13.7,13.7 0 0 1 -13.7,13.7 13.7,13.7 0 0 1 -13.7,-13.7 13.7,13.7 0 0 1 13.7,-13.7 13.7,13.7 0 0 1 13.7,13.7 z"
           id="XMLID_505_" />
        <path
           style="fill:#b2b3b3"
           inkscape:connector-curvature="0"
           d="m 693.70002,392.89999 a 7.8,7.8 0 0 1 -7.8,7.8 7.8,7.8 0 0 1 -7.8,-7.8 7.8,7.8 0 0 1 7.8,-7.8 7.8,7.8 0 0 1 7.8,7.8 z"
           id="XMLID_501_" />
        <path
           style="fill:#cecfcf"
           inkscape:connector-curvature="0"
           id="XMLID_507_"
           d="m 1149.1,267.3 120.6,-17.6 c 3.4,-0.5 6.9,-0.8 10.3,-0.8 h 25.7 c 3.1,0 3.5,4.4 0.6,5.1 l -111.2,25.1 c 0.1,0 -29.9,1 -46,-11.8 z" />
        <path
           style="fill:#d8d9d8"
           inkscape:connector-curvature="0"
           id="XMLID_437_"
           d="m 1193.6,277.6 c -6.3,0 -26.9,-0.7 -40.5,-9.4 L 1270,251.1 c 3.3,-0.5 6.7,-0.7 10.1,-0.7 h 25.7 c 0.8,0 1,0.7 1,0.9 0,0.3 0,1 -0.8,1.1 l -111,25.2 c -0.2,0 -0.7,0 -1.4,0 z" />
        <path
           style="fill:#cecfcf"
           inkscape:connector-curvature="0"
           id="XMLID_433_"
           d="m 513.2,337.9 32.6,-11.1 c 9.1,-3.1 18.7,-4.7 28.3,-4.7 h 31.3 c 3.4,0 6.8,-0.2 10.1,-0.6 L 850.3,292 c 10.5,-1.3 20.2,-6.7 26.7,-15.1 l 56.2,-71.1 c 1.2,-1.6 3,-2.6 5,-2.9 l 11.8,-1.8 c 1.3,-0.2 2.4,1.1 1.8,2.4 l -32.4,76.1 c -3.7,8.7 -11.4,15 -20.6,16.9 L 789.2,319.1 V 338 L 644.8,359.9 H 513.2 Z" />
        <path
           style="fill:#e5e6e4"
           inkscape:connector-curvature="0"
           id="XMLID_439_"
           d="m 516.2,356.8 v -16.7 l 30.6,-10.4 c 8.8,-3 18,-4.5 27.3,-4.5 h 31.3 c 3.5,0 7,-0.2 10.5,-0.7 L 850.7,295 c 11.4,-1.4 21.6,-7.2 28.7,-16.2 l 57.4,-72.5 11.3,-1.8 -31.5,73.9 c -3.3,7.8 -10.2,13.4 -18.4,15.1 l -112,23.1 v 18.7 l -141.7,21.5 z" />
        <path
           style="fill:#bfbfbe"
           inkscape:connector-curvature="0"
           d="m 643.5,375.70001 -31.09998,6.9 v -37.70002 l 31.09998,6.9 z"
           id="XMLID_503_" />
        <path
           style="fill:#bfbfbe"
           inkscape:connector-curvature="0"
           d="m 490.10001,391.39999 9.79998,3.9 v -63 l -9.79998,3.90002 z"
           id="XMLID_431_" />
        <path
           style="fill:#c54e5a"
           inkscape:connector-curvature="0"
           id="XMLID_504_"
           d="m 521.1,327.4 c -14.1,0 -21.1,4.9 -21.1,4.9 v 31.5 31.5 c 0,0 7,4.9 21.1,4.9 18.5,0 61,-4.8 82.9,-7.4 7.7,-0.9 13.5,-7.4 13.5,-15.2 V 363.8 350 c 0,-7.7 -5.8,-14.3 -13.5,-15.2 -21.9,-2.6 -64.4,-7.4 -82.9,-7.4 z" />
        <g
           id="XMLID_490_">
          <path
             style="fill:#ffffff"
             inkscape:connector-curvature="0"
             id="XMLID_545_"
             d="m 521.1,327.4 c -1.3,0 -2.6,0.1 -3.8,0.1 V 400 c 1.2,0.1 2.4,0.1 3.8,0.1 1.2,0 2.4,0 3.8,-0.1 v -72.6 c -1.4,0 -2.7,0 -3.8,0 z" />
          <path
             style="fill:#ffffff"
             inkscape:connector-curvature="0"
             id="XMLID_600_"
             d="m 535.8,328 v 71.6 c 2.4,-0.2 4.9,-0.3 7.5,-0.5 v -70.5 c -2.6,-0.3 -5.1,-0.5 -7.5,-0.6 z" />
        </g>
      </g>
    </g>
  </g>
</svg>
