<svg id="svg" preserveAspectRatio="none" width="1366px" height="768px" viewBox="0 0 1366 768">
        <g id="world" transform="matrix(0.29411766066843337, 0, 0, 0.29411766066843337, 363.8823477593172, 13.88235754129829)">
          <rect id="background-overlay" x="0" y="0" width="1400" height="980" style="fill: url(#ee-checkboard-pattern);"></rect>

          <pattern id="ee-checkboard-pattern" viewBox="0 0 10 10" width="10" height="10" patternUnits="userSpaceOnUse" patternTransform="scale(3.399999513626168)">
            <rect x="0" y="0" width="5" height="5" fill="#d6d6d6"></rect>
            <rect x="5" y="0" width="5" height="5" fill="white"></rect>
            <rect x="0" y="5" width="5" height="5" fill="white"></rect>
            <rect x="5" y="5" width="5" height="5" fill="#d6d6d6"></rect>
          </pattern>

          <g id="artboards">
            <rect id="matte" x="-1000000" y="-1000000" width="2000000" height="2000000" style="fill: rgba(0,0,0,0);"></rect>
            <g id="master-artboard" viewBox="0 0 1400 980" version="1.1" xmlns="http://www.w3.org/2000/svg" x="0px" y="0px" style="enable-background:new 0 0 1400 980;">

<path d="M 0 -3 H 1400 V 980 H 0 V -3 Z" class="st0" style="fill: rgb(255, 252, 235);"></path>
<g>
	<g>
		<path class="st1" d="M93.1,725.3c-1.5,9.1-10.1,15.2-19.2,13.7l-0.5-0.1c-9.1-1.5-15.2-10.1-13.7-19.2l3.7-21.9
			c1.5-9.1,10.1-15.2,19.2-13.7l0.5,0.1c9.1,1.5,15.2,10.1,13.7,19.2L93.1,725.3z" style="fill: rgb(247, 168, 114);"></path>
	</g>
	<g>
		<path class="st1" d="M394.1,579.3c-1.5,9.1-10.1,15.2-19.2,13.7l-0.5-0.1c-9.1-1.5-15.2-10.1-13.7-19.2l3.7-21.9
			c1.5-9.1,10.1-15.2,19.2-13.7l0.5,0.1c9.1,1.5,15.2,10.1,13.7,19.2L394.1,579.3z" style="fill: rgb(247, 168, 114);"></path>
	</g>
	<g>
		<path class="st2" d="M361.9,560.2c-3,18.7-15.3,53.8-31.3,53.8c0,0-0.1,0-0.1,0c-4.7-3-17.8-10.3-34.1-46.9
			c-11.9-26.8-19.4-54.7-19.4-55.2c0,0,0,0,0,0l-0.4,0.3c-2.8-12.2-13.6-21.2-26.3-21.2H148.9c-9.9,0-18.5,5.5-23,13.8
			c-5.1,5.7-41.6,51.1-66.1,206.7l35.8,5.5c8.3-53,17.4-92.3,27.4-120.8v122.6c0,15.1,11.3,25.2,25.9,25.2h101.4
			c14.6,0,26.7-10.2,26.7-25.2V608.6c17,26.9,33.7,40.3,52.8,40.5c0.2,0,0.6,0,0.8,0c51.6,0,65.4-74.8,66.8-83.4L361.9,560.2z" style="fill: rgb(249, 186, 93);"></path>
	</g>
	<g>
		<g>
			<path d="M 272 686 H 277 V 700 H 272 V 686 Z" class="st3" style="fill: none;"></path>
		</g>
		<g>
			<path class="st3" d="M83,700h15.2c0.8-4,1.6-11,2.4-14H83V700z" style="fill: none;"></path>
		</g>
		<g>
			<path class="st3" d="M83,669v9h18.9c0.1,0-0.9,0.1-0.9-0.6V669H83z" style="fill: none;"></path>
		</g>
		<g>
			<path d="M 239 686 H 260 V 700 H 239 V 686 Z" class="st3" style="fill: none;"></path>
		</g>
		<g>
			<path d="M 145 550 H 165 V 561 H 145 V 550 Z" class="st3" style="fill: none;"></path>
		</g>
		<g>
			<path d="M 145 669 H 165 V 678 H 145 V 669 Z" class="st3" style="fill: none;"></path>
		</g>
		<g>
			<path d="M 145 686 H 165 V 700 H 145 V 686 Z" class="st3" style="fill: none;"></path>
		</g>
		<g>
			<path d="M 177 669 H 195 V 678 H 177 V 669 Z" class="st3" style="fill: none;"></path>
		</g>
		<g>
			<path d="M 208 686 H 228 V 700 H 208 V 686 Z" class="st3" style="fill: none;"></path>
		</g>
		<g>
			<path d="M 208 550 H 228 V 561 H 208 V 550 Z" class="st3" style="fill: none;"></path>
		</g>
		<g>
			<path d="M 239 528 H 260 V 543 H 239 V 528 Z" class="st3" style="fill: none;"></path>
		</g>
		<g>
			<path d="M 177 550 H 195 V 561 H 177 V 550 Z" class="st3" style="fill: none;"></path>
		</g>
		<g>
			<path d="M 177 686 H 195 V 700 H 177 V 686 Z" class="st3" style="fill: none;"></path>
		</g>
		<g>
			<path d="M 145 648 H 165 V 661 H 145 V 648 Z" class="st3" style="fill: none;"></path>
		</g>
		<g>
			<path class="st3" d="M83,714.9l12.8,2.4c0.6-3.6,0.7-7.3,1.2-10.3H83V714.9z" style="fill: none;"></path>
		</g>
		<g>
			<path class="st3" d="M272,721h5.4c0-2-0.4-1.8-0.4-2.2V707h-5V721z" style="fill: none;"></path>
		</g>
		<g>
			<path d="M 113 550 H 134 V 561 H 113 V 550 Z" class="st3" style="fill: none;"></path>
		</g>
		<g>
			<path d="M 177 648 H 195 V 661 H 177 V 648 Z" class="st3" style="fill: none;"></path>
		</g>
		<g>
			<path d="M 208 648 H 228 V 661 H 208 V 648 Z" class="st3" style="fill: none;"></path>
		</g>
		<g>
			<path d="M 239 588 H 260 V 602 H 239 V 588 Z" class="st3" style="fill: none;"></path>
		</g>
		<g>
			<path class="st3" d="M71,669h-3.6c-0.7,3-1.4,7-2.1,9H71V669z" style="fill: none;"></path>
		</g>
		<g>
			<path class="st3" d="M272,543h14.8c-1.7-5-3.2-11-4.5-15H272V543z" style="fill: none;"></path>
		</g>
		<g>
			<path d="M 208 669 H 228 V 678 H 208 V 669 Z" class="st3" style="fill: none;"></path>
		</g>
		<g>
			<path d="M 239 669 H 260 V 678 H 239 V 669 Z" class="st3" style="fill: none;"></path>
		</g>
		<g>
			<path d="M 272 669 H 277 V 678 H 272 V 669 Z" class="st3" style="fill: none;"></path>
		</g>
		<g>
			<path d="M 239 648 H 260 V 661 H 239 V 648 Z" class="st3" style="fill: none;"></path>
		</g>
		<g>
			<path class="st3" d="M71,686h-7c-0.8,3-1.6,10-2.3,14H71V686z" style="fill: none;"></path>
		</g>
		<g>
			<path class="st3" d="M60.6,707c-0.3,1-0.4,3.1-0.7,4.8l11.1,1.4V707H60.6z" style="fill: none;"></path>
		</g>
		<g>
			<path d="M 123 686 H 134 V 700 H 123 V 686 Z" class="st3" style="fill: none;"></path>
		</g>
		<g>
			<path d="M 177 588 H 195 V 602 H 177 V 588 Z" class="st3" style="fill: none;"></path>
		</g>
		<g>
			<path d="M 272 588 H 290 V 602 H 272 V 588 Z" class="st3" style="fill: none;"></path>
		</g>
		<g>
			<path d="M 123 669 H 134 V 678 H 123 V 669 Z" class="st3" style="fill: none;"></path>
		</g>
		<g>
			<path d="M 113 528 H 134 V 543 H 113 V 528 Z" class="st3" style="fill: none;"></path>
		</g>
		<g>
			<path d="M 123 648 H 134 V 661 H 123 V 648 Z" class="st3" style="fill: none;"></path>
		</g>
		<g>
			<path d="M 123 628 H 134 V 641 H 123 V 628 Z" class="st3" style="fill: none;"></path>
		</g>
		<g>
			<path class="st3" d="M260,726h-21v18h11.3c3.2,0,6.7,0,9.7-0.9V726z" style="fill: none;"></path>
		</g>
		<g>
			<path class="st3" d="M123.6,726c1.7,5,6.4,10.9,10.4,14.1V726H123.6z" style="fill: none;"></path>
		</g>
		<g>
			<path class="st3" d="M145,726v18.3c1,0.2,2.5-0.3,3.9-0.3H165v-18H145z" style="fill: none;"></path>
		</g>
		<g>
			<path class="st3" d="M272,523h8.3c-1.8-7-3.3-10.9-3.3-11.1c0,0,0,0,0,0l-0.4,0.3c-0.3-1.2-0.4-2.3-0.8-3.3H272V523z" style="fill: none;"></path>
		</g>
		<g>
			<path class="st3" d="M134,707h-11v11.8c0,0.4-0.5,0.2-0.5,2.2H134V707z" style="fill: none;"></path>
		</g>
		<g>
			<path d="M 177 528 H 195 V 543 H 177 V 528 Z" class="st3" style="fill: none;"></path>
		</g>
		<g>
			<path d="M 208 707 H 228 V 721 H 208 V 707 Z" class="st3" style="fill: none;"></path>
		</g>
		<g>
			<path d="M 177 707 H 195 V 721 H 177 V 707 Z" class="st3" style="fill: none;"></path>
		</g>
		<g>
			<path d="M 208 528 H 228 V 543 H 208 V 528 Z" class="st3" style="fill: none;"></path>
		</g>
		<g>
			<path d="M 145 707 H 165 V 721 H 145 V 707 Z" class="st3" style="fill: none;"></path>
		</g>
		<g>
			<path class="st3" d="M113,621h2.2c1.3-4,2.5-10,3.8-14h-6V621z" style="fill: none;"></path>
		</g>
		<g>
			<path class="st3" d="M272,561h18v-7.5c0-1.5-0.2-2.5-0.7-3.5H272V561z" style="fill: none;"></path>
		</g>
		<g>
			<path d="M 239 707 H 260 V 721 H 239 V 707 Z" class="st3" style="fill: none;"></path>
		</g>
		<g>
			<path d="M 239 550 H 260 V 561 H 239 V 550 Z" class="st3" style="fill: none;"></path>
		</g>
		<g>
			<path d="M 208 726 H 228 V 744 H 208 V 726 Z" class="st3" style="fill: none;"></path>
		</g>
		<g>
			<path d="M 177 726 H 195 V 744 H 177 V 726 Z" class="st3" style="fill: none;"></path>
		</g>
		<g>
			<path d="M 123 607 H 134 V 621 H 123 V 607 Z" class="st3" style="fill: none;"></path>
		</g>
		<g>
			<path class="st3" d="M134,588h-21v14h8c0.5-2,2-4.3,2-5.8v5.8h11V588z" style="fill: none;"></path>
		</g>
		<g>
			<path class="st3" d="M272,735.9c1-2.6,3.1-5.9,4.2-9.9H272V735.9z" style="fill: none;"></path>
		</g>
		<g>
			<path d="M 145 528 H 165 V 543 H 145 V 528 Z" class="st3" style="fill: none;"></path>
		</g>
		<g>
			<path class="st3" d="M366,635.2c1-2.3,3.8-5.2,6-7.2h-6V635.2z" style="fill: none;"></path>
		</g>
		<g>
			<path class="st3" d="M366,621h10.9c2.9-4,5.4-10,7.5-14H366V621z" style="fill: none;"></path>
		</g>
		<g>
			<path d="M 145 568 H 165 V 580 H 145 V 568 Z" class="st3" style="fill: none;"></path>
		</g>
		<g>
			<path d="M 366 588 H 384 V 602 H 366 V 588 Z" class="st3" style="fill: none;"></path>
		</g>
		<g>
			<path class="st3" d="M396,570.6c0-1.4,1-2.6,1.2-2.6H396V570.6z" style="fill: none;"></path>
		</g>
		<g>
			<path class="st3" d="M71,651.7c-1,3.2-1.6,6.3-2.2,9.3H71V651.7z" style="fill: none;"></path>
		</g>
		<g>
			<path d="M 208 509 H 228 V 523 H 208 V 509 Z" class="st3" style="fill: none;"></path>
		</g>
		<g>
			<path d="M 208 588 H 228 V 602 H 208 V 588 Z" class="st3" style="fill: none;"></path>
		</g>
		<g>
			<path d="M 177 568 H 195 V 580 H 177 V 568 Z" class="st3" style="fill: none;"></path>
		</g>
		<g>
			<path class="st3" d="M322,628h-20v10.5c1,1,2.7,1.5,4,2.5h16V628z" style="fill: none;"></path>
		</g>
		<g>
			<path class="st3" d="M321.2,648c0.4,0.1,0.8,0.2,1.2,0.3V648H321.2z" style="fill: none;"></path>
		</g>
		<g>
			<path class="st3" d="M134,509h-11.4c-2.1,3-5,7-8.5,14H134V509z" style="fill: none;"></path>
		</g>
		<g>
			<path class="st3" d="M334,649c3-0.1,4.7-1,7.1-1H334V649z" style="fill: none;"></path>
		</g>
		<g>
			<path class="st3" d="M134,495.7c-3,1.7-4.8,3.3-6.5,6.3h6.5V495.7z" style="fill: none;"></path>
		</g>
		<g>
			<path class="st3" d="M272.1,502c-0.4-0.6-0.9-1.2-1.4-1.7v1.7H272.1z" style="fill: none;"></path>
		</g>
		<g>
			<path class="st3" d="M165,502v-11h-16.1c-1.3,0-2.9-0.1-3.9,0.1V502H165z" style="fill: none;"></path>
		</g>
		<g>
			<path class="st3" d="M302,621h20v-12.5c0-0.3-0.2-1.5-0.6-1.5H302V621z" style="fill: none;"></path>
		</g>
		<g>
			<path d="M 208 491 H 228 V 502 H 208 V 491 Z" class="st3" style="fill: none;"></path>
		</g>
		<g>
			<path class="st3" d="M303,580.6c-0.3-0.5-0.6-1.1-0.8-1.7v1.7H303z" style="fill: none;"></path>
		</g>
		<g>
			<path d="M 145 588 H 165 V 602 H 145 V 588 Z" class="st3" style="fill: none;"></path>
		</g>
		<g>
			<path class="st3" d="M260,502v-9.6c-3-1.1-6.5-1.4-9.7-1.4H239v11H260z" style="fill: none;"></path>
		</g>
		<g>
			<path d="M 239 509 H 260 V 523 H 239 V 509 Z" class="st3" style="fill: none;"></path>
		</g>
		<g>
			<path d="M 177 491 H 195 V 502 H 177 V 491 Z" class="st3" style="fill: none;"></path>
		</g>
		<g>
			<path d="M 113 568 H 134 V 580 H 113 V 568 Z" class="st3" style="fill: none;"></path>
		</g>
		<g>
			<path class="st3" d="M354,621v-14h-11.3c-2.8,3-5.7,6-8.7,6.9v7.1H354z" style="fill: none;"></path>
		</g>
		<g>
			<path class="st3" d="M354,588.2c-2,4.5-4.1,7.8-6.4,13.8h6.4V588.2z" style="fill: none;"></path>
		</g>
		<g>
			<path d="M 366 568 H 384 V 580 H 366 V 568 Z" class="st3" style="fill: none;"></path>
		</g>
		<g>
			<path d="M 208 628 H 228 V 641 H 208 V 628 Z" class="st3" style="fill: none;"></path>
		</g>
		<g>
			<path d="M 83 628 H 101 V 641 H 83 V 628 Z" class="st3" style="fill: none;"></path>
		</g>
		<g>
			<path d="M 272 568 H 290 V 580 H 272 V 568 Z" class="st3" style="fill: none;"></path>
		</g>
		<g>
			<path d="M 239 628 H 260 V 641 H 239 V 628 Z" class="st3" style="fill: none;"></path>
		</g>
		<g>
			<path d="M 145 607 H 165 V 621 H 145 V 607 Z" class="st3" style="fill: none;"></path>
		</g>
		<g>
			<path d="M 83 607 H 101 V 621 H 83 V 607 Z" class="st3" style="fill: none;"></path>
		</g>
		<g>
			<path d="M 272 628 H 277 V 641 H 272 V 628 Z" class="st3" style="fill: none;"></path>
		</g>
		<g>
			<path class="st3" d="M302,602h13.6c-2.7-6-5.7-10-8.9-14H302V602z" style="fill: none;"></path>
		</g>
		<g>
			<path d="M 145 628 H 165 V 641 H 145 V 628 Z" class="st3" style="fill: none;"></path>
		</g>
		<g>
			<path d="M 145 509 H 165 V 523 H 145 V 509 Z" class="st3" style="fill: none;"></path>
		</g>
		<g>
			<path d="M 272 648 H 277 V 661 H 272 V 648 Z" class="st3" style="fill: none;"></path>
		</g>
		<g>
			<path d="M 177 628 H 195 V 641 H 177 V 628 Z" class="st3" style="fill: none;"></path>
		</g>
		<g>
			<path d="M 334 628 H 354 V 641 H 334 V 628 Z" class="st3" style="fill: none;"></path>
		</g>
		<g>
			<path d="M 177 509 H 195 V 523 H 177 V 509 Z" class="st3" style="fill: none;"></path>
		</g>
		<g>
			<path d="M 83 648 H 101 V 661 H 83 V 648 Z" class="st3" style="fill: none;"></path>
		</g>
		<g>
			<path class="st3" d="M101,550h0.2c-1.5,3-2.9,7-4.5,11h4.3V550z" style="fill: none;"></path>
		</g>
		<g>
			<path class="st3" d="M290,607h-18v14h5v-12.4c3,4.5,5.9,9.4,8.7,12.4h4.3V607z" style="fill: none;"></path>
		</g>
		<g>
			<path class="st3" d="M101,568h-6.8c-1.5,4-3.1,8-4.6,12H101V568z" style="fill: none;"></path>
		</g>
		<g>
			<path d="M 239 568 H 260 V 580 H 239 V 568 Z" class="st3" style="fill: none;"></path>
		</g>
		<g>
			<path d="M 239 607 H 260 V 621 H 239 V 607 Z" class="st3" style="fill: none;"></path>
		</g>
		<g>
			<path d="M 208 568 H 228 V 580 H 208 V 568 Z" class="st3" style="fill: none;"></path>
		</g>
		<g>
			<path d="M 177 607 H 195 V 621 H 177 V 607 Z" class="st3" style="fill: none;"></path>
		</g>
		<g>
			<path d="M 208 607 H 228 V 621 H 208 V 607 Z" class="st3" style="fill: none;"></path>
		</g>
		<g>
			<path class="st3" d="M101,588H87.5c-1.3,4-2.7,7-4,14H101V588z" style="fill: none;"></path>
		</g>
		<g>
			<path class="st4" d="M384,602h3.4c1.9-7,3.5-10,4.8-14H384V602z" style="fill: rgb(234, 143, 75);"></path>
		</g>
		<g>
			<path class="st4" d="M384,568v12h10.1c1.1-4,1.9-6.8,1.9-9.4V568H384z" style="fill: rgb(234, 143, 75);"></path>
		</g>
		<g>
			<path class="st4" d="M354,628v13h3.3c2.8-1,5.7-3.6,8.7-5.8V628H354z" style="fill: rgb(234, 143, 75);"></path>
		</g>
		<g>
			<path d="M 354 607 H 366 V 621 H 354 V 607 Z" class="st4" style="fill: rgb(234, 143, 75);"></path>
		</g>
		<g>
			<path class="st4" d="M361.9,560.3C361.9,560.3,361.9,560.4,361.9,560.3l0.5,0.1L361.9,560.3z" style="fill: rgb(234, 143, 75);"></path>
		</g>
		<g>
			<path class="st4" d="M366,602v-14h-11.8c-0.1,0-0.2-0.1-0.2,0.2V602H366z" style="fill: rgb(234, 143, 75);"></path>
		</g>
		<g>
			<path class="st4" d="M366,568h-5.4c-1,4-2.3,8-3.9,12h9.3V568z" style="fill: rgb(234, 143, 75);"></path>
		</g>
		<g>
			<path class="st4" d="M322,648v0.3c3,0.5,5.2,0.8,7.8,0.8c0.2,0,0.7,0,1,0c1,0,2.2-0.1,3.2-0.1v-1H322z" style="fill: rgb(234, 143, 75);"></path>
		</g>
		<g>
			<path class="st4" d="M334,621v-7.1c-1,0.3-2.4,0.1-3.4,0.1c0,0-0.1,0-0.1,0c-1.7,0-5.5-2.1-8.5-5.5V621H334z" style="fill: rgb(234, 143, 75);"></path>
		</g>
		<g>
			<path d="M 322 628 H 334 V 641 H 322 V 628 Z" class="st4" style="fill: rgb(234, 143, 75);"></path>
		</g>
		<g>
			<path class="st4" d="M290,580h12v-1.1c-2-3.5-3.6-6.9-5.5-11.2c0-0.1,0,0.3,0,0.3H290V580z" style="fill: rgb(234, 143, 75);"></path>
		</g>
		<g>
			<path d="M 290 607 H 302 V 621 H 290 V 607 Z" class="st4" style="fill: rgb(234, 143, 75);"></path>
		</g>
		<g>
			<path d="M 290 588 H 302 V 602 H 290 V 588 Z" class="st4" style="fill: rgb(234, 143, 75);"></path>
		</g>
		<g>
			<path class="st4" d="M291.1,628c3.6,4,7.9,7.5,10.9,10.5V628H291.1z" style="fill: rgb(234, 143, 75);"></path>
		</g>
		<g>
			<path class="st4" d="M293.7,561c-0.9-3-2.7-5.2-3.7-7.5v7.5H293.7z" style="fill: rgb(234, 143, 75);"></path>
		</g>
		<g>
			<path d="M 260 588 H 272 V 602 H 260 V 588 Z" class="st4" style="fill: rgb(234, 143, 75);"></path>
		</g>
		<g>
			<path d="M 260 550 H 272 V 561 H 260 V 550 Z" class="st4" style="fill: rgb(234, 143, 75);"></path>
		</g>
		<g>
			<path d="M 260 568 H 272 V 580 H 260 V 568 Z" class="st4" style="fill: rgb(234, 143, 75);"></path>
		</g>
		<g>
			<path d="M 260 509 H 272 V 523 H 260 V 509 Z" class="st4" style="fill: rgb(234, 143, 75);"></path>
		</g>
		<g>
			<path class="st4" d="M272,502v-1.8c-4-3.5-8-6.2-12-7.8v9.6H272z" style="fill: rgb(234, 143, 75);"></path>
		</g>
		<g>
			<path d="M 260 669 H 272 V 678 H 260 V 669 Z" class="st4" style="fill: rgb(234, 143, 75);"></path>
		</g>
		<g>
			<path d="M 260 707 H 272 V 721 H 260 V 707 Z" class="st4" style="fill: rgb(234, 143, 75);"></path>
		</g>
		<g>
			<path d="M 260 528 H 272 V 543 H 260 V 528 Z" class="st4" style="fill: rgb(234, 143, 75);"></path>
		</g>
		<g>
			<path d="M 260 648 H 272 V 661 H 260 V 648 Z" class="st4" style="fill: rgb(234, 143, 75);"></path>
		</g>
		<g>
			<path class="st4" d="M260,726v17.1c4-1.4,8-3.9,12-7.1V726H260z" style="fill: rgb(234, 143, 75);"></path>
		</g>
		<g>
			<path d="M 260 686 H 272 V 700 H 260 V 686 Z" class="st4" style="fill: rgb(234, 143, 75);"></path>
		</g>
		<g>
			<path d="M 260 628 H 272 V 641 H 260 V 628 Z" class="st4" style="fill: rgb(234, 143, 75);"></path>
		</g>
		<g>
			<path d="M 260 607 H 272 V 621 H 260 V 607 Z" class="st4" style="fill: rgb(234, 143, 75);"></path>
		</g>
		<g>
			<path d="M 228 528 H 239 V 543 H 228 V 528 Z" class="st4" style="fill: rgb(234, 143, 75);"></path>
		</g>
		<g>
			<path d="M 228 726 H 239 V 744 H 228 V 726 Z" class="st4" style="fill: rgb(234, 143, 75);"></path>
		</g>
		<g>
			<path d="M 228 669 H 239 V 678 H 228 V 669 Z" class="st4" style="fill: rgb(234, 143, 75);"></path>
		</g>
		<g>
			<path d="M 228 648 H 239 V 661 H 228 V 648 Z" class="st4" style="fill: rgb(234, 143, 75);"></path>
		</g>
		<g>
			<path d="M 228 550 H 239 V 561 H 228 V 550 Z" class="st4" style="fill: rgb(234, 143, 75);"></path>
		</g>
		<g>
			<path d="M 228 707 H 239 V 721 H 228 V 707 Z" class="st4" style="fill: rgb(234, 143, 75);"></path>
		</g>
		<g>
			<path d="M 228 686 H 239 V 700 H 228 V 686 Z" class="st4" style="fill: rgb(234, 143, 75);"></path>
		</g>
		<g>
			<path d="M 228 509 H 239 V 523 H 228 V 509 Z" class="st4" style="fill: rgb(234, 143, 75);"></path>
		</g>
		<g>
			<path d="M 228 607 H 239 V 621 H 228 V 607 Z" class="st4" style="fill: rgb(234, 143, 75);"></path>
		</g>
		<g>
			<path d="M 228 588 H 239 V 602 H 228 V 588 Z" class="st4" style="fill: rgb(234, 143, 75);"></path>
		</g>
		<g>
			<path d="M 228 568 H 239 V 580 H 228 V 568 Z" class="st4" style="fill: rgb(234, 143, 75);"></path>
		</g>
		<g>
			<path d="M 228 628 H 239 V 641 H 228 V 628 Z" class="st4" style="fill: rgb(234, 143, 75);"></path>
		</g>
		<g>
			<path d="M 228 491 H 239 V 502 H 228 V 491 Z" class="st4" style="fill: rgb(234, 143, 75);"></path>
		</g>
		<g>
			<path d="M 195 509 H 208 V 523 H 195 V 509 Z" class="st4" style="fill: rgb(234, 143, 75);"></path>
		</g>
		<g>
			<path d="M 195 491 H 208 V 502 H 195 V 491 Z" class="st4" style="fill: rgb(234, 143, 75);"></path>
		</g>
		<g>
			<path d="M 195 686 H 208 V 700 H 195 V 686 Z" class="st4" style="fill: rgb(234, 143, 75);"></path>
		</g>
		<g>
			<path d="M 195 528 H 208 V 543 H 195 V 528 Z" class="st4" style="fill: rgb(234, 143, 75);"></path>
		</g>
		<g>
			<path d="M 195 648 H 208 V 661 H 195 V 648 Z" class="st4" style="fill: rgb(234, 143, 75);"></path>
		</g>
		<g>
			<path d="M 195 669 H 208 V 678 H 195 V 669 Z" class="st4" style="fill: rgb(234, 143, 75);"></path>
		</g>
		<g>
			<path d="M 195 707 H 208 V 721 H 195 V 707 Z" class="st4" style="fill: rgb(234, 143, 75);"></path>
		</g>
		<g>
			<path d="M 195 607 H 208 V 621 H 195 V 607 Z" class="st4" style="fill: rgb(234, 143, 75);"></path>
		</g>
		<g>
			<path d="M 195 726 H 208 V 744 H 195 V 726 Z" class="st4" style="fill: rgb(234, 143, 75);"></path>
		</g>
		<g>
			<path d="M 195 568 H 208 V 580 H 195 V 568 Z" class="st4" style="fill: rgb(234, 143, 75);"></path>
		</g>
		<g>
			<path d="M 195 628 H 208 V 641 H 195 V 628 Z" class="st4" style="fill: rgb(234, 143, 75);"></path>
		</g>
		<g>
			<path d="M 195 588 H 208 V 602 H 195 V 588 Z" class="st4" style="fill: rgb(234, 143, 75);"></path>
		</g>
		<g>
			<path d="M 195 550 H 208 V 561 H 195 V 550 Z" class="st4" style="fill: rgb(234, 143, 75);"></path>
		</g>
		<g>
			<path d="M 165 707 H 177 V 721 H 165 V 707 Z" class="st4" style="fill: rgb(234, 143, 75);"></path>
		</g>
		<g>
			<path d="M 165 509 H 177 V 523 H 165 V 509 Z" class="st4" style="fill: rgb(234, 143, 75);"></path>
		</g>
		<g>
			<path d="M 165 528 H 177 V 543 H 165 V 528 Z" class="st4" style="fill: rgb(234, 143, 75);"></path>
		</g>
		<g>
			<path d="M 165 726 H 177 V 744 H 165 V 726 Z" class="st4" style="fill: rgb(234, 143, 75);"></path>
		</g>
		<g>
			<path d="M 165 491 H 177 V 502 H 165 V 491 Z" class="st4" style="fill: rgb(234, 143, 75);"></path>
		</g>
		<g>
			<path d="M 165 550 H 177 V 561 H 165 V 550 Z" class="st4" style="fill: rgb(234, 143, 75);"></path>
		</g>
		<g>
			<path d="M 165 607 H 177 V 621 H 165 V 607 Z" class="st4" style="fill: rgb(234, 143, 75);"></path>
		</g>
		<g>
			<path d="M 165 588 H 177 V 602 H 165 V 588 Z" class="st4" style="fill: rgb(234, 143, 75);"></path>
		</g>
		<g>
			<path d="M 165 568 H 177 V 580 H 165 V 568 Z" class="st4" style="fill: rgb(234, 143, 75);"></path>
		</g>
		<g>
			<path d="M 165 628 H 177 V 641 H 165 V 628 Z" class="st4" style="fill: rgb(234, 143, 75);"></path>
		</g>
		<g>
			<path d="M 165 648 H 177 V 661 H 165 V 648 Z" class="st4" style="fill: rgb(234, 143, 75);"></path>
		</g>
		<g>
			<path d="M 165 686 H 177 V 700 H 165 V 686 Z" class="st4" style="fill: rgb(234, 143, 75);"></path>
		</g>
		<g>
			<path d="M 165 669 H 177 V 678 H 165 V 669 Z" class="st4" style="fill: rgb(234, 143, 75);"></path>
		</g>
		<g>
			<path d="M 134 607 H 145 V 621 H 134 V 607 Z" class="st4" style="fill: rgb(234, 143, 75);"></path>
		</g>
		<g>
			<path d="M 134 528 H 145 V 543 H 134 V 528 Z" class="st4" style="fill: rgb(234, 143, 75);"></path>
		</g>
		<g>
			<path d="M 134 509 H 145 V 523 H 134 V 509 Z" class="st4" style="fill: rgb(234, 143, 75);"></path>
		</g>
		<g>
			<path d="M 134 669 H 145 V 678 H 134 V 669 Z" class="st4" style="fill: rgb(234, 143, 75);"></path>
		</g>
		<g>
			<path d="M 134 707 H 145 V 721 H 134 V 707 Z" class="st4" style="fill: rgb(234, 143, 75);"></path>
		</g>
		<g>
			<path class="st4" d="M145,502v-10.9c-4,0.6-8,2.3-11,4.7v6.3H145z" style="fill: rgb(234, 143, 75);"></path>
		</g>
		<g>
			<path d="M 134 588 H 145 V 602 H 134 V 588 Z" class="st4" style="fill: rgb(234, 143, 75);"></path>
		</g>
		<g>
			<path d="M 134 568 H 145 V 580 H 134 V 568 Z" class="st4" style="fill: rgb(234, 143, 75);"></path>
		</g>
		<g>
			<path d="M 134 550 H 145 V 561 H 134 V 550 Z" class="st4" style="fill: rgb(234, 143, 75);"></path>
		</g>
		<g>
			<path d="M 134 648 H 145 V 661 H 134 V 648 Z" class="st4" style="fill: rgb(234, 143, 75);"></path>
		</g>
		<g>
			<path d="M 134 628 H 145 V 641 H 134 V 628 Z" class="st4" style="fill: rgb(234, 143, 75);"></path>
		</g>
		<g>
			<path d="M 134 686 H 145 V 700 H 134 V 686 Z" class="st4" style="fill: rgb(234, 143, 75);"></path>
		</g>
		<g>
			<path class="st4" d="M134,726v14.1c3,2.2,7,3.6,11,4.2V726H134z" style="fill: rgb(234, 143, 75);"></path>
		</g>
		<g>
			<path d="M 101 588 H 113 V 602 H 101 V 588 Z" class="st4" style="fill: rgb(234, 143, 75);"></path>
		</g>
		<g>
			<path d="M 101 568 H 113 V 580 H 101 V 568 Z" class="st4" style="fill: rgb(234, 143, 75);"></path>
		</g>
		<g>
			<path d="M 101 550 H 113 V 561 H 101 V 550 Z" class="st4" style="fill: rgb(234, 143, 75);"></path>
		</g>
		<g>
			<path class="st4" d="M101,677.4c2-3.1,2.5-6.4,3.1-8.4H101V677.4z" style="fill: rgb(234, 143, 75);"></path>
		</g>
		<g>
			<path class="st4" d="M101,641h9.1c1.1-4,2.2-9,3.4-13H101V641z" style="fill: rgb(234, 143, 75);"></path>
		</g>
		<g>
			<path class="st4" d="M101,661h4.5c1-4,2-9,3-13H101V661z" style="fill: rgb(234, 143, 75);"></path>
		</g>
		<g>
			<path class="st4" d="M113,528h-2.5c-2,4-4.2,10-6.4,15h8.9V528z" style="fill: rgb(234, 143, 75);"></path>
		</g>
		<g>
			<path d="M 101 607 H 113 V 621 H 101 V 607 Z" class="st4" style="fill: rgb(234, 143, 75);"></path>
		</g>
		<g>
			<path class="st4" d="M83,628h-6.7c-1.1,4-2.1,9-3.2,13H83V628z" style="fill: rgb(234, 143, 75);"></path>
		</g>
		<g>
			<path d="M 71 707 L 71 713.2000122070312 L 83 714.9000244140625 L 83 707 Z" class="st4" style="fill: rgb(234, 143, 75);"></path>
		</g>
		<g>
			<path d="M 71 686 H 83 V 700 H 71 V 686 Z" class="st4" style="fill: rgb(234, 143, 75);"></path>
		</g>
		<g>
			<path class="st4" d="M83,607h-1.5c-1.2,4-2.4,10-3.6,14h5V607z" style="fill: rgb(234, 143, 75);"></path>
		</g>
		<g>
			<path class="st4" d="M83,661v-13H71.6c-0.3,2-0.6,2.4-0.6,3.7v9.3H83z" style="fill: rgb(234, 143, 75);"></path>
		</g>
		<g>
			<path d="M 71 669 H 83 V 678 H 71 V 669 Z" class="st4" style="fill: rgb(234, 143, 75);"></path>
		</g>
		<g>
			<path class="st5" d="M144.9,509h20.2h11.2h20.2h11.2H228h11.2h20.2h11.2h5c-0.9-3-2.1-6-3.6-7h-1.4h-11.2h-20.2H228h-20.2h-11.2
				h-20.2h-11.2h-20.2h-11.2h-6.2c-0.6,0-1.2,1.9-1.7,2.8c-0.6,0.7-1.7,1.2-3.2,4.2h11.1H144.9z" style="fill: rgb(247, 119, 79);"></path>
		</g>
		<g>
			<path class="st5" d="M133.7,528h11.2h20.2h11.2h20.2h11.2H228h11.2h20.2h11.2h11.6c-0.8-1-1.5-3-2.1-5h-9.5h-11.2h-20.2H228
				h-20.2h-11.2h-20.2h-11.2h-20.2h-11.2h-19.6c-1.1,2-2.3,4-3.6,5h3H133.7z" style="fill: rgb(247, 119, 79);"></path>
		</g>
		<g>
			<path class="st5" d="M113.5,550h20.2h11.2h20.2h11.2h20.2h11.2H228h11.2h20.2h11.2h18.5c-0.9-3-1.7-6-2.4-7h-16.1h-11.2h-20.2
				H228h-20.2h-11.2h-20.2h-11.2h-20.2h-11.2h-20.2h-9.4c-0.9,1-1.9,4-2.9,7h1.1H113.5z" style="fill: rgb(247, 119, 79);"></path>
		</g>
		<g>
			<path class="st5" d="M385.3,568h11.2h0.7c0.1-2,0.2-1.1,0.2-1.5l-35-5.5h-0.5c-0.3,1-0.8,4-1.4,7h4.5H385.3z" style="fill: rgb(247, 119, 79);"></path>
		</g>
		<g>
			<path class="st5" d="M113.5,568h20.2h11.2h20.2h11.2h20.2h11.2H228h11.2h20.2h11.2h20.2h5.6c-1-3-2-6-2.9-7h-2.7h-20.2h-11.2
				h-20.2H228h-20.2h-11.2h-20.2h-11.2h-20.2h-11.2h-20.2h-11.2h-5.5c-0.8,1-1.7,4-2.5,7h8H113.5z" style="fill: rgb(247, 119, 79);"></path>
		</g>
		<g>
			<path class="st5" d="M385.3,588h6.9c0.7-4,1.4-5,1.9-8h-8.9h-20.2h-8.4c-0.8,3-1.6,4-2.5,8h10.9H385.3z" style="fill: rgb(247, 119, 79);"></path>
		</g>
		<g>
			<path class="st5" d="M113.5,588h20.2h11.2h20.2h11.2h20.2h11.2H228h11.2h20.2h11.2h20.2h11.2h4.5c-1.2-3-2.4-5-3.7-8h-0.8h-11.2
				h-20.2h-11.2h-20.2H228h-20.2h-11.2h-20.2h-11.2h-20.2h-11.2h-20.2h-11.2H89.6c-0.7,3-1.4,4-2.2,8h14.8H113.5z" style="fill: rgb(247, 119, 79);"></path>
		</g>
		<g>
			<path class="st5" d="M365.1,607h19.3c1.1-1,2.1-4,3-5h-2.1h-20.2h-11.2h-6.3c-1.5,2-3.2,4-4.9,5h11.2H365.1z" style="fill: rgb(247, 119, 79);"></path>
		</g>
		<g>
			<path class="st5" d="M144.9,607h20.2h11.2h20.2h11.2H228h11.2h20.2h11.2h20.2h11.2h19.3c-1.8-1-3.7-3-5.9-5h-13.4h-11.2h-20.2
				h-11.2h-20.2H228h-20.2h-11.2h-20.2h-11.2h-20.2h-11.2H123v5h10.7H144.9z" style="fill: rgb(247, 119, 79);"></path>
		</g>
		<g>
			<path class="st5" d="M102.3,602H83.4c-0.6,1-1.3,4-1.9,5H82h20.2h11.2h5.5c0.7-1,1.4-4,2-5h-7.5H102.3z" style="fill: rgb(247, 119, 79);"></path>
		</g>
		<g>
			<path class="st5" d="M353.8,621h-20.2h-11.2h-20.2h-11.2h-5.2c1.8,2,3.6,5,5.4,7h11h20.2h11.2h20.2h11.2h6.9c1.7-2,3.4-5,4.9-7
				h-11.8H353.8z" style="fill: rgb(247, 119, 79);"></path>
		</g>
		<g>
			<path d="M 144.89999389648438 628 L 165.10000610351562 628 L 176.39999389648438 628 L 196.60000610351562 628 L 207.8000030517578 628 L 228 628 L 239.3000030517578 628 L 259.5 628 L 270.70001220703125 628 L 277 628 L 277 621 L 270.70001220703125 621 L 259.5 621 L 239.3000030517578 621 L 228 621 L 207.8000030517578 621 L 196.60000610351562 621 L 176.39999389648438 621 L 165.10000610351562 621 L 144.89999389648438 621 L 133.6999969482422 621 L 123 621 L 123 628 L 133.6999969482422 628 Z" class="st5" style="fill: rgb(247, 119, 79);"></path>
		</g>
		<g>
			<path class="st5" d="M102.3,621H82H78c-0.6,2-1.1,5-1.7,7H82h20.2h11.2c0.6-2,1.2-5,1.8-7h-1.7H102.3z" style="fill: rgb(247, 119, 79);"></path>
		</g>
		<g>
			<path class="st5" d="M82,641h-8.9c-0.5,2-1,4-1.5,7H82h20.2h6.2c0.5-3,1.1-5,1.6-7h-7.8H82z" style="fill: rgb(247, 119, 79);"></path>
		</g>
		<g>
			<path class="st5" d="M333.6,641h-11.2H306c4.9,3,10,6,15.2,7h1.2h11.2h7.5c6-1,11.3-4,16.1-7h-3.4H333.6z" style="fill: rgb(247, 119, 79);"></path>
		</g>
		<g>
			<path d="M 144.89999389648438 648 L 165.10000610351562 648 L 176.39999389648438 648 L 196.60000610351562 648 L 207.8000030517578 648 L 228 648 L 239.3000030517578 648 L 259.5 648 L 270.70001220703125 648 L 277 648 L 277 641 L 270.70001220703125 641 L 259.5 641 L 239.3000030517578 641 L 228 641 L 207.8000030517578 641 L 196.60000610351562 641 L 176.39999389648438 641 L 165.10000610351562 641 L 144.89999389648438 641 L 133.6999969482422 641 L 123 641 L 123 648 L 133.6999969482422 648 Z" class="st5" style="fill: rgb(247, 119, 79);"></path>
		</g>
		<g>
			<path class="st5" d="M82,661H70.8h-2c-0.5,2-0.9,6-1.3,8h3.4H82h20.2h1.8c0.5-2,0.9-6,1.4-8h-3.2H82z" style="fill: rgb(247, 119, 79);"></path>
		</g>
		<g>
			<path d="M 144.89999389648438 669 L 165.10000610351562 669 L 176.39999389648438 669 L 196.60000610351562 669 L 207.8000030517578 669 L 228 669 L 239.3000030517578 669 L 259.5 669 L 270.70001220703125 669 L 277 669 L 277 661 L 270.70001220703125 661 L 259.5 661 L 239.3000030517578 661 L 228 661 L 207.8000030517578 661 L 196.60000610351562 661 L 176.39999389648438 661 L 165.10000610351562 661 L 144.89999389648438 661 L 133.6999969482422 661 L 123 661 L 123 669 L 133.6999969482422 669 Z" class="st5" style="fill: rgb(247, 119, 79);"></path>
		</g>
		<g>
			<path d="M 144.89999389648438 686 L 165.10000610351562 686 L 176.39999389648438 686 L 196.60000610351562 686 L 207.8000030517578 686 L 228 686 L 239.3000030517578 686 L 259.5 686 L 270.70001220703125 686 L 277 686 L 277 678 L 270.70001220703125 678 L 259.5 678 L 239.3000030517578 678 L 228 678 L 207.8000030517578 678 L 196.60000610351562 678 L 176.39999389648438 678 L 165.10000610351562 678 L 144.89999389648438 678 L 133.6999969482422 678 L 123 678 L 123 686 L 133.6999969482422 686 Z" class="st5" style="fill: rgb(247, 119, 79);"></path>
		</g>
		<g>
			<path class="st5" d="M70.8,678h-5.5c-0.4,4-0.8,7-1.2,8h6.8H82h18.5c0.4-1,0.8-4,1.3-8H82H70.8z" style="fill: rgb(247, 119, 79);"></path>
		</g>
		<g>
			<path d="M 144.89999389648438 707 L 165.10000610351562 707 L 176.39999389648438 707 L 196.60000610351562 707 L 207.8000030517578 707 L 228 707 L 239.3000030517578 707 L 259.5 707 L 270.70001220703125 707 L 277 707 L 277 700 L 270.70001220703125 700 L 259.5 700 L 239.3000030517578 700 L 228 700 L 207.8000030517578 700 L 196.60000610351562 700 L 176.39999389648438 700 L 165.10000610351562 700 L 144.89999389648438 700 L 133.6999969482422 700 L 123 700 L 123 707 L 133.6999969482422 707 Z" class="st5" style="fill: rgb(247, 119, 79);"></path>
		</g>
		<g>
			<path class="st5" d="M70.8,700h-9.1c-0.4,2-0.7,3-1.1,7h10.2H82h15c0.4-4,0.8-5,1.1-7H82H70.8z" style="fill: rgb(247, 119, 79);"></path>
		</g>
		<g>
			<path class="st5" d="M144.9,726h20.2h11.2h20.2h11.2H228h11.2h20.2h11.2h5.5c0.7-1,1.1-4,1.2-5h-6.7h-11.2h-20.2H228h-20.2h-11.2
				h-20.2h-11.2h-20.2h-11.2h-11.2c0.1,1,0.4,4,1.1,5h10.1H144.9z" style="fill: rgb(247, 119, 79);"></path>
		</g>
	</g>
	<g>
		<g>
			<g>
				<path d="M 184.1999969482422 772 L 177.1999969482422 913 L 222.8000030517578 913 L 215.6999969482422 772 Z" class="st3" style="fill: none;"></path>
			</g>
			<g>
				<path d="M 184.1999969482422 772 L 215.6999969482422 772 L 214.60000610351562 750 L 277 750 L 277 619 L 123 619 L 123 750 L 185.39999389648438 750 Z" class="st6" style="fill: rgb(76, 92, 127);"></path>
			</g>
			<g>
				<path d="M 123 772 L 123 913 L 177.1999969482422 913 L 184.1999969482422 772 Z" class="st6" style="fill: rgb(76, 92, 127);"></path>
			</g>
			<g>
				<path d="M 123 928 L 176.39999389648438 928 L 177.1999969482422 913 L 123 913 Z" class="st7" style="fill: rgb(57, 72, 99);"></path>
			</g>
			<g>
				<path d="M 185.39999389648438 750 L 123 750 L 123 772 L 184.1999969482422 772 Z" class="st6" style="fill: rgb(76, 92, 127);"></path>
			</g>
			<g>
				<path d="M 222.8000030517578 913 L 223.5 928 L 277 928 L 277 913 Z" class="st7" style="fill: rgb(57, 72, 99);"></path>
			</g>
			<g>
				<path d="M 277 772 L 215.6999969482422 772 L 222.8000030517578 913 L 277 913 Z" class="st6" style="fill: rgb(76, 92, 127);"></path>
			</g>
			<g>
				<path d="M 215.6999969482422 772 L 277 772 L 277 750 L 214.60000610351562 750 Z" class="st6" style="fill: rgb(76, 92, 127);"></path>
			</g>
		</g>
		<g>
			<path d="M 241.5 579 L 228 579 L 167.39999389648438 579 L 159 579 L 133.6999969482422 623 L 153.89999389648438 623 L 228 623 L 266.79998779296875 623 Z" class="st6" style="fill: rgb(76, 92, 127);"></path>
		</g>
		<g>
			<path d="M 225 491 L 242 491 L 242 600.7999877929688 L 233.5 609.7999877929688 L 225 600.7999877929688 Z" class="st7" style="fill: rgb(57, 72, 99);"></path>
		</g>
		<g>
			<path d="M 158 491 L 175 491 L 175 600.7999877929688 L 166.5 609.7999877929688 L 158 600.7999877929688 Z" class="st7" style="fill: rgb(57, 72, 99);"></path>
		</g>
		<g>
			<g>
				<path class="st7" d="M219,675v-16h-39v16c0,6.2-4.1,11-10.3,11H161v29h78v-29h-8.8C224.1,686,219,681.2,219,675z" style="fill: rgb(57, 72, 99);"></path>
			</g>
		</g>
		<g>
			<path d="M 238.900006 592.599976 A 5.3 5.3 0 0 1 233.600006 597.899976 A 5.3 5.3 0 0 1 228.300006 592.599976 A 5.3 5.3 0 0 1 233.600006 587.299975 A 5.3 5.3 0 0 1 238.900006 592.599976 Z" class="st8" style="fill: rgb(89, 108, 142);"></path>
		</g>
		<g>
			<path d="M 171.499997 592.599976 A 5.3 5.3 0 0 1 166.199997 597.899976 A 5.3 5.3 0 0 1 160.899997 592.599976 A 5.3 5.3 0 0 1 166.199997 587.299975 A 5.3 5.3 0 0 1 171.499997 592.599976 Z" class="st8" style="fill: rgb(89, 108, 142);"></path>
		</g>
	</g>
	<g>
		<path class="st9" d="M261,454c0,34.8-27.2,62.9-62,62.9l0,0c-34.8,0-62-28.2-62-62.9v-50.8c0-34.8,28.3-38.2,62-38.2l0,0
			c33.7,0,62,3.5,62,38.2V454z" style="fill: rgb(86, 38, 24);"></path>
	</g>
	<g>
		<path d="M 250 445 L 200.3000030517578 445 L 148 445 L 148 381 L 250 381 Z" class="st1" style="fill: rgb(247, 168, 114);"></path>
	</g>
	<g>
		<path class="st1" d="M166,454.2c0,4.9-3.9,8.8-8.8,8.8h-0.4c-4.9,0-8.8-3.9-8.8-8.8v-36.4c0-4.9,3.9-8.8,8.8-8.8h0.4
			c4.9,0,8.8,3.9,8.8,8.8V454.2z" style="fill: rgb(247, 168, 114);"></path>
	</g>
	<g>
		<path class="st1" d="M250,454.2c0,4.9-3.9,8.8-8.8,8.8h-0.4c-4.9,0-8.8-3.9-8.8-8.8v-36.4c0-4.9,3.9-8.8,8.8-8.8h0.4
			c4.9,0,8.8,3.9,8.8,8.8V454.2z" style="fill: rgb(247, 168, 114);"></path>
	</g>
	<g>
		<path class="st9" d="M232.5,444.8c0-6.8-5.5-7.8-12.4-7.8h-42.7c-6.8,0-12.4,0.9-12.4,7.8l0,0c0,6.8,5.5,12.2,12.4,12.2h42.7
			C227,457,232.5,451.6,232.5,444.8L232.5,444.8z" style="fill: rgb(86, 38, 24);"></path>
	</g>
	<g>
		<path class="st1" d="M171.9,451.7L171.9,451.7c0,6.8,0.7,19.3,12.1,19.3h29.7c11.4,0,12.1-12.4,12.1-19.2l0,0" style="fill: rgb(247, 168, 114);"></path>
	</g>
	<g>
		<g>
			<path class="st10" d="M256.1,371H143.8c0,0,0.5-26.2,7.5-31.9c18.9-15.3,78.4-15.6,97.4-0.3C255.6,344.5,256.1,371,256.1,371z" style="fill: rgb(246, 183, 54);"></path>
		</g>
		<g>
			<g>
				<path class="st11" d="M303,381.2c0,4.3-3.5,7.8-7.8,7.8H103.8c-4.3,0-7.8-3.5-7.8-7.8v-2.4c0-4.3,3.5-7.8,7.8-7.8h191.4
					c4.3,0,7.8,3.5,7.8,7.8V381.2z" style="fill: rgb(214, 144, 22);"></path>
			</g>
		</g>
	</g>
	<g>
		<g>
			<path class="st9" d="M184.2,411c0,5.3-4.3,7.3-9.5,7.3c-5.3,0-9.5-2-9.5-7.3c0-5.3,4.3-9.5,9.5-9.5
				C180,401.5,184.2,405.7,184.2,411z" style="fill: rgb(86, 38, 24);"></path>
		</g>
		<g>
			<path class="st12" d="M175.2,408c0,1.5-1.2,2.1-2.8,2.1c-1.5,0-2.8-0.6-2.8-2.1c0-1.5,1.2-2.8,2.8-2.8
				C174,405.2,175.2,406.4,175.2,408z" style="fill: rgb(255, 255, 255);"></path>
		</g>
	</g>
	<g>
		<g>
			<path class="st9" d="M233.7,411c0,5.3-4.3,7.3-9.5,7.3c-5.3,0-9.5-2-9.5-7.3c0-5.3,4.3-9.5,9.5-9.5
				C229.4,401.5,233.7,405.7,233.7,411z" style="fill: rgb(86, 38, 24);"></path>
		</g>
		<g>
			<path class="st12" d="M224.6,408c0,1.5-1.2,2.1-2.8,2.1c-1.5,0-2.8-0.6-2.8-2.1c0-1.5,1.2-2.8,2.8-2.8
				C223.4,405.2,224.6,406.4,224.6,408z" style="fill: rgb(255, 255, 255);"></path>
		</g>
	</g>
</g>
<g>
	<g>
		<g>
			<path class="st13" d="M1053,685h-15v-90.4c0-10.6-6.9-16.6-17.5-16.6H986v-17h34.5c19.6,0,32.5,14,32.5,33.6V685z" style="fill: rgb(145, 90, 41);"></path>
		</g>
		<g>
			<g>
				<path class="st14" d="M960.4,551h-244c-32.2,0-58.4,26.2-58.4,58.6v82.8c0,23.2,14,43.3,32,52.8v152.7c0-0.3,11,16.1,23.5,16.1
					h0.4c12.5,0,23.1-16.4,23.1-16.1V751h22v146.9c0-0.3,9.4,16.1,21.9,16.1h0.4c12.5,0,22.7-16.4,22.7-16.1V751h79.4l39.7,47.5
					l-3.8,86c0,12.5,10.1,22.6,22.6,22.6c12.5,0,22.6-10.1,22.6-22.5l3.8-86.1L960,751h0.4c32.2,0,58.6-26.1,58.6-58.6v-82.8
					C1019,577.2,992.6,551,960.4,551z" style="fill: rgb(233, 220, 173);"></path>
			</g>
			<g>
				<g>
					<path class="st3" d="M977.5,608c-10.4,0-19.5-7.3-19.5-17.8v-29.5c0-3.6,1.3-6.9,3-9.7c-0.3,0-0.3,0-0.6,0H902v41.3
						c0,9.3-7.4,15.7-16.7,15.7h-71.9c-9.3,0-17.4-6.4-17.4-15.7V551h-79.6c-32.2,0-58.4,26.2-58.4,58.6v82.8
						c0,23.2,14,43.3,32,52.8v152.7c0-0.3,11,16.1,23.5,16.1h0.4c12.5,0,23.1-16.4,23.1-16.1V751h22v146.9c0-0.3,9.4,16.1,21.9,16.1
						h0.4c12.5,0,22.7-16.4,22.7-16.1V751h79.4l39.7,47.5l-3.8,86c0,12.5,10.1,22.6,22.6,22.6c12.5,0,22.6-10.1,22.6-22.5l3.8-86.1
						L960,751h0.4c32.2,0,58.6-26.1,58.6-58.6v-82.8c0-0.2-0.3,0.4-0.3-1.6H977.5z M816,688.1c0,8.2-6.7,14.9-14.9,14.9h-34.2
						c-8.2,0-14.9-6.7-14.9-14.9v-14.2c0-8.2,6.7-14.9,14.9-14.9h34.2c8.2,0,14.9,6.7,14.9,14.9V688.1z M958,690.1
						c0,8.2-6.7,14.9-14.9,14.9h-46.2c-8.2,0-14.9-6.7-14.9-14.9v-23.2c0-8.2,6.7-14.9,14.9-14.9h46.2c8.2,0,14.9,6.7,14.9,14.9
						V690.1z" style="fill: none;"></path>
				</g>
				<g>
					<path class="st13" d="M813.4,608h71.9c9.3,0,16.7-6.4,16.7-15.7V551H796v41.3C796,601.6,804.1,608,813.4,608z" style="fill: rgb(145, 90, 41);"></path>
				</g>
				<g>
					<path class="st13" d="M958,666.9c0-8.2-6.7-14.9-14.9-14.9h-46.2c-8.2,0-14.9,6.7-14.9,14.9v23.2c0,8.2,6.7,14.9,14.9,14.9
						h46.2c8.2,0,14.9-6.7,14.9-14.9V666.9z" style="fill: rgb(145, 90, 41);"></path>
				</g>
				<g>
					<path class="st13" d="M816,673.9c0-8.2-6.7-14.9-14.9-14.9h-34.2c-8.2,0-14.9,6.7-14.9,14.9v14.2c0,8.2,6.7,14.9,14.9,14.9
						h34.2c8.2,0,14.9-6.7,14.9-14.9V673.9z" style="fill: rgb(145, 90, 41);"></path>
				</g>
				<g>
					<path class="st13" d="M958,590.2c0,10.4,9.1,17.8,19.5,17.8h41.2c-0.3-31-26-57.2-57.6-57.7c-1.7,2.9-3,6.8-3,10.4V590.2z" style="fill: rgb(145, 90, 41);"></path>
				</g>
			</g>
			<g>
				<path class="st13" d="M1044.2,678.9c0,0-42.5,8.5,0,69.2C1044.2,748.1,1090.3,688.6,1044.2,678.9z" style="fill: rgb(145, 90, 41);"></path>
			</g>
			<g>
				<g>
					<path class="st15" d="M969.5,747.5c0,22.1-22.3,40.1-49.8,40.1c-27.5,0-49.8-17.9-49.8-40.1" style="fill: rgb(249, 145, 142);"></path>
				</g>
				<g>
					<path class="st14" d="M1004,675c-12.5,0-69.5,40.2-69.5,52.6l56.4,70.9l-3.8,86c0,12.5,10.1,22.6,22.6,22.6
						c12.5,0,22.6-10.1,22.6-22.6l3.8-86l-16.9-97.3C1019,688.8,1016.5,675,1004,675z" style="fill: rgb(233, 220, 173);"></path>
				</g>
				<g>
					<g>
						<path class="st15" d="M892,790.3c0,3.5-3,6.4-6.5,6.4l0,0c-3.5,0-6.5-2.9-6.5-6.4v-25.5c0-3.5,3-6.4,6.5-6.4l0,0
							c3.5,0,6.5,2.9,6.5,6.4V790.3z" style="fill: rgb(249, 145, 142);"></path>
					</g>
					<g>
						<path class="st15" d="M914,798.1c0,3.5-2.8,6.4-6.5,6.4l0,0c-3.7,0-6.5-2.9-6.5-6.4v-25.5c0-3.5,2.8-6.4,6.5-6.4l0,0
							c3.7,0,6.5,2.9,6.5,6.4V798.1z" style="fill: rgb(249, 145, 142);"></path>
					</g>
					<g>
						<path class="st15" d="M932,798.1c0,3.5-2.6,6.4-6,6.4l0,0c-3.4,0-6-2.9-6-6.4v-25.5c0-3.5,2.6-6.4,6-6.4l0,0
							c3.4,0,6,2.9,6,6.4V798.1z" style="fill: rgb(249, 145, 142);"></path>
					</g>
					<g>
						<path class="st15" d="M953,799c0,3.3-2.7,6-6,6l0,0c-3.3,0-6-2.7-6-6v-27c0-3.3,2.7-6,6-6l0,0c3.3,0,6,2.7,6,6V799z" style="fill: rgb(249, 145, 142);"></path>
					</g>
				</g>
			</g>
			<g>
				<g>
					<g>
						<path class="st16" d="M692,530.2c0,0,33.2,5.7,67.2-34.8c0,0-11.5,48.9-59.3,61.2" style="fill: rgb(182, 166, 151);"></path>
					</g>
					<g>
						<path class="st16" d="M606.3,530.2c0,0-33.2,5.7-67.2-34.8c0,0,11.5,48.9,59.3,61.2" style="fill: rgb(182, 166, 151);"></path>
					</g>
				</g>
				<g>
					<path class="st13" d="M596.3,582.1c0,0,4.1-36.7-65.5-44.9c0,0,2,79,64.5,55.9" style="fill: rgb(145, 90, 41);"></path>
				</g>
				<g>
					<path class="st13" d="M701.9,582.1c0,0-4.1-36.7,65.5-44.9c0,0-2,79-64.5,55.9" style="fill: rgb(145, 90, 41);"></path>
				</g>
				<g>
					<g>
						<path class="st17" d="M629,631v14.3c3-1,5.9-2.3,9.1-2.3h23.7c3.9,0,7.2,1.5,11.2,3v-15c0-15.1,12-27,27-27h13v-47.7
							c0-15.1-12.4-27.3-27.5-27.3h-71c-15.1,0-27.5,12.2-27.5,27.3V604h14.7C616.8,604,629,615.9,629,631z" style="fill: rgb(221, 207, 162);"></path>
					</g>
					<g>
						<path class="st13" d="M673,631v15c10,4.2,16,13.8,16,25v3.6c0,10.1-5.4,19.3-13.6,24.3h10.1c15.1,0,27.5-12.9,27.5-28v-67h-13
							C685,604,673,615.9,673,631z" style="fill: rgb(145, 90, 41);"></path>
					</g>
					<g>
						<path class="st13" d="M614.5,699h10.1c-8.2-5-14.6-14.2-14.6-24.3V671c0-11.9,9-22,19-25.7V631c0-15.1-12.2-27-27.3-27H587v67
							C587,686.1,599.4,699,614.5,699z" style="fill: rgb(145, 90, 41);"></path>
					</g>
					<g>
						<path class="st17" d="M661.8,643h-23.7c-3.2,0-6.1,1.3-9.1,2.3V699h44v-53C669,644.5,665.7,643,661.8,643z" style="fill: rgb(221, 207, 162);"></path>
					</g>
					<g>
						<path class="st17" d="M689,674.7V671c0-11.2-6-20.8-16-25v53h2.4C683.6,694,689,684.8,689,674.7z" style="fill: rgb(221, 207, 162);"></path>
					</g>
					<g>
						<path class="st17" d="M610,671v3.6c0,10.1,6.4,19.3,14.6,24.3h4.4v-53.7C619,649.1,610,659.2,610,671z" style="fill: rgb(221, 207, 162);"></path>
					</g>
				</g>
				<g>
					<g>
						<path d="M 640.400012 672.599976 A 5.7 5.7 0 0 1 634.700012 678.299975 A 5.7 5.7 0 0 1 629.000012 672.599976 A 5.7 5.7 0 0 1 634.700012 666.899976 A 5.7 5.7 0 0 1 640.400012 672.599976 Z"></path>
					</g>
					<g>
						<path d="M 671.400012 672.599976 A 5.7 5.7 0 0 1 665.700012 678.299975 A 5.7 5.7 0 0 1 660.000012 672.599976 A 5.7 5.7 0 0 1 665.700012 666.899976 A 5.7 5.7 0 0 1 671.400012 672.599976 Z"></path>
					</g>
				</g>
				<g>
					<g>
						<path d="M 633.200025 590.700012 A 9.8 9.8 0 0 1 623.400024 600.500012 A 9.8 9.8 0 0 1 613.600024 590.700012 A 9.8 9.8 0 0 1 623.400024 580.900012 A 9.8 9.8 0 0 1 633.200025 590.700012 Z"></path>
					</g>
					<g>
						<path d="M 686.8 590.700012 A 9.8 9.8 0 0 1 677 600.500012 A 9.8 9.8 0 0 1 667.2 590.700012 A 9.8 9.8 0 0 1 677 580.900012 A 9.8 9.8 0 0 1 686.8 590.700012 Z"></path>
					</g>
				</g>
			</g>
		</g>
	</g>
	<g>
		<path d="M 624.000024 590.599976 A 3.1 3.1 0 0 1 620.900024 593.699975 A 3.1 3.1 0 0 1 617.800025 590.599976 A 3.1 3.1 0 0 1 620.900024 587.499976 A 3.1 3.1 0 0 1 624.000024 590.599976 Z" class="st12" style="fill: rgb(255, 255, 255);"></path>
	</g>
	<g>
		<path d="M 676.800012 590.599976 A 3.1 3.1 0 0 1 673.700012 593.699975 A 3.1 3.1 0 0 1 670.600012 590.599976 A 3.1 3.1 0 0 1 673.700012 587.499976 A 3.1 3.1 0 0 1 676.800012 590.599976 Z" class="st12" style="fill: rgb(255, 255, 255);"></path>
	</g>
</g>
<g>
	<g>
		<path class="st18" d="M561,905.9c0,4.5-3.6,8.1-8.1,8.1H398.1c-4.5,0-8.1-3.6-8.1-8.1V751.1c0-4.5,3.6-8.1,8.1-8.1h154.8
			c4.5,0,8.1,3.6,8.1,8.1V905.9z" style="fill: rgb(255, 204, 89);"></path>
	</g>
	<g>
		<path d="M 466 743 H 484 V 914 H 466 V 743 Z" class="st19" style="fill: rgb(238, 170, 70);"></path>
	</g>
	<g>
		<path d="M 390 820 H 561 V 837 H 390 V 820 Z" class="st19" style="fill: rgb(238, 170, 70);"></path>
	</g>
</g>
<g>
	<g>
		<path class="st18" d="M300.4,213.5c1.3,4.3-1,8.8-5.3,10.2l-147.6,46.7c-4.3,1.3-8.8-1-10.2-5.3L90.6,117.5
			c-1.3-4.3,1-8.8,5.3-10.2l147.6-46.7c4.3-1.3,8.8,1,10.2,5.3L300.4,213.5z" style="fill: rgb(255, 204, 89);"></path>
	</g>
	<g>
		<path d="M 186 80.199997 H 204 V 251.199997 H 186 V 80.199997 Z" transform="matrix(0.9535 -0.3014 0.3014 0.9535 -40.8619 66.492)" class="st19" style="fill: rgb(238, 170, 70);"></path>
	</g>
	<g>
		
			<path d="M 187 80 H 204 V 251 H 187 V 80 Z" transform="matrix(-0.3014 -0.9535 0.9535 -0.3014 96.6314 401.7954)" class="st19" style="fill: rgb(238, 170, 70);"></path>
	</g>
</g>
<g>
	<g>
		<path class="st20" d="M522,329h-11v-35.3c0-28.4-22-49.7-50.4-49.7h-3.9c-29.2,0-53.7,21.9-53.7,49.7V329h-8v-35.3
			c0-33.1,27.2-60.7,61.7-60.7h3.9c33.7,0,61.4,27,61.4,60.7V329z" style="fill: rgb(194, 200, 199);"></path>
	</g>
	<g>
		<path d="M 508.79998779296875 458 L 406.1000061035156 458 L 391.79998779296875 321 L 523.0999755859375 321 Z" class="st21" style="fill: rgb(160, 160, 160);"></path>
	</g>
	<g>
		<path class="st20" d="M527.2,324.5c0,4.1-3.2,7.5-7.2,7.5H394.2c-4,0-7.2-3.4-7.2-7.5l0,0c0-4.1,3.2-7.5,7.2-7.5h125.9
			C524,317,527.2,320.4,527.2,324.5L527.2,324.5z" style="fill: rgb(194, 200, 199);"></path>
	</g>
	<g>
		<path class="st21" d="M391,317v-9.3c0-4,3.5-7.2,7.5-7.2l0,0c4,0,7.5,3.2,7.5,7.2v9.3" style="fill: rgb(160, 160, 160);"></path>
	</g>
	<g>
		<path class="st21" d="M509,317v-9.3c0-4,3-7.2,7-7.2l0,0c4,0,7,3.2,7,7.2v9.3" style="fill: rgb(160, 160, 160);"></path>
	</g>
</g>
<g>
	<g>
		<path class="st22" d="M1305,873.2c0,14.8-12,26.8-26.8,26.8h-65.4c-14.8,0-26.8-12-26.8-26.8V658.8c0-14.8,12-26.8,26.8-26.8h65.4
			c14.8,0,26.8,12,26.8,26.8V873.2z" style="fill: rgb(181, 232, 247);"></path>
	</g>
	<g>
		<path class="st22" d="M1272,589v121.4c0,14.8-12.2,26.8-27,26.8l0,0c-14.8,0-27-12-27-26.8V589" style="fill: rgb(181, 232, 247);"></path>
	</g>
	<g>
		<path class="st15" d="M1276,609.9c0,3.9-3.2,7.1-7.1,7.1h-49.7c-3.9,0-7.1-3.2-7.1-7.1v-28.7c0-3.9,3.2-7.1,7.1-7.1h49.7
			c3.9,0,7.1,3.2,7.1,7.1V609.9z" style="fill: rgb(249, 145, 142);"></path>
	</g>
	<path class="st12" d="M1198,666v196.6c0,11.6,9.7,21.4,21.3,21.4h52.5c11.6,0,21.2-9.7,21.2-21.4V666H1198z" style="fill: rgb(255, 255, 255);"></path>
</g>
<g>
	<g>
		<path class="st23" d="M1276.6,229h-62.2c-10.5,0-19.3-8.8-19.3-19.3V105.1c0-10.5,8.8-19.1,19.3-19.1h62.2
			c10.5,0,19.4,8.6,19.4,19.1v104.5C1296,220.2,1287.1,229,1276.6,229z M1281,105.1c0-2.7-1.7-5.1-4.4-5.1h-61.8
			c-2.7,0-4.7,2.4-4.7,5.1v104.4c0,2.7,2,5.5,4.7,5.5h61.8c2.7,0,4.4-2.7,4.4-5.5V105.1z" style="fill: rgb(193, 199, 199);"></path>
	</g>
	<g>
		<g>
			<path class="st23" d="M1304.6,190.8l-1.4-51.8h-114.4l-1.4,51.8c0,32.1-10.4,55.4-37.4,68.7v169c0,15.1,11.8,27.4,26.9,27.4
				h137.6c15.1,0,27.5-12.3,27.5-27.4V258.9C1316,245.3,1304.6,222.4,1304.6,190.8z" style="fill: rgb(193, 199, 199);"></path>
		</g>
	</g>
	<g>
		<path d="M 1185 128 H 1307 V 155 H 1185 V 128 Z" class="st24" style="fill: rgb(73, 84, 103);"></path>
	</g>
	<g>
		<path d="M 1185 290 H 1310 V 336 H 1185 V 290 Z" class="st21" style="fill: rgb(160, 160, 160);"></path>
	</g>
</g>
<g>
	<g>
		<g>
			<path class="st25" d="M1023,243h-16v-90.8c0-10.6-6.1-17.2-16.7-17.2H955v-16h35.3c19.6,0,32.7,13.6,32.7,33.2V243z" style="fill: rgb(28, 28, 27);"></path>
		</g>
		<g>
			<g>
				<path class="st14" d="M930.3,109h-244c-32.2,0-58.2,25.9-58.2,58.3v82.8c0,23.2,14,43.3,32,52.8v152.7
					c0-0.3,10.9,16.4,23.3,16.4h0.4c12.5,0,23.3-16.7,23.3-16.4V309h22v146.6c0-0.3,9.2,16.4,21.7,16.4h0.4
					c12.5,0,22.9-16.7,22.9-16.4V309h79.3l39.7,47.3l-3.8,85.9c0,12.5,10.1,22.5,22.6,22.5c12.5,0,22.6-10.1,22.6-22.6l3.8-85.9
					l-8.2-47.3h0.4c32.2,0,58.7-26.5,58.7-58.9v-82.8C989,134.9,962.4,109,930.3,109z" style="fill: rgb(233, 220, 173);"></path>
			</g>
			<g>
				<g>
					<path class="st3" d="M947.3,166c-10.4,0-19.3-7.7-19.3-18.1v-29.5c0-3.6,1.2-6.7,3-9.6c-0.3,0-0.4,0.2-0.7,0.2H872v41
						c0,9.3-7.5,16-16.8,16h-71.9c-9.3,0-17.2-6.7-17.2-16v-41h-79.8c-32.2,0-58.2,25.9-58.2,58.3v82.8c0,23.2,14,43.3,32,52.8
						v152.7c0-0.3,10.9,16.4,23.3,16.4h0.4c12.5,0,23.3-16.7,23.3-16.4V309h22v146.6c0-0.3,9.2,16.4,21.7,16.4h0.4
						c12.5,0,22.9-16.7,22.9-16.4V309h79.3l39.7,47.3l-3.8,85.9c0,12.5,10.1,22.5,22.6,22.5c12.5,0,22.6-10.1,22.6-22.6l3.8-85.9
						l-8.2-47.3h0.4c32.2,0,58.7-26.5,58.7-58.9v-82.8c0-0.2-0.5,0.7-0.5-1.3H947.3z M786,245.1c0,8.2-6.7,14.9-14.9,14.9h-34.2
						c-8.2,0-14.9-6.7-14.9-14.9v-14.2c0-8.2,6.7-14.9,14.9-14.9h34.2c8.2,0,14.9,6.7,14.9,14.9V245.1z M928,248.1
						c0,8.2-6.7,14.9-14.9,14.9h-46.2c-8.2,0-14.9-6.7-14.9-14.9v-23.2c0-8.2,6.7-14.9,14.9-14.9h46.2c8.2,0,14.9,6.7,14.9,14.9
						V248.1z" style="fill: none;"></path>
				</g>
				<g>
					<path class="st25" d="M783.2,166h71.9c9.3,0,16.8-6.7,16.8-16v-41H766v41C766,159.3,773.9,166,783.2,166z" style="fill: rgb(28, 28, 27);"></path>
				</g>
				<g>
					<path class="st25" d="M928,224.9c0-8.2-6.7-14.9-14.9-14.9h-46.2c-8.2,0-14.9,6.7-14.9,14.9v23.2c0,8.2,6.7,14.9,14.9,14.9
						h46.2c8.2,0,14.9-6.7,14.9-14.9V224.9z" style="fill: rgb(28, 28, 27);"></path>
				</g>
				<g>
					<path class="st25" d="M786,230.9c0-8.2-6.7-14.9-14.9-14.9h-34.2c-8.2,0-14.9,6.7-14.9,14.9v14.2c0,8.2,6.7,14.9,14.9,14.9
						h34.2c8.2,0,14.9-6.7,14.9-14.9V230.9z" style="fill: rgb(28, 28, 27);"></path>
				</g>
				<g>
					<path class="st25" d="M928,147.9c0,10.4,8.9,18.1,19.3,18.1h41.2c-0.3-32-26-57.3-57.5-57.8c-1.7,2.9-3,6.6-3,10.2V147.9z" style="fill: rgb(28, 28, 27);"></path>
				</g>
			</g>
			<g>
				<path class="st25" d="M1014,236.6c0,0-42.5,8.5,0,69.2C1014,305.8,1060.1,246.3,1014,236.6z" style="fill: rgb(28, 28, 27);"></path>
			</g>
			<g>
				<g>
					<path class="st15" d="M939.4,305.2c0,22.1-22.3,40.1-49.8,40.1c-27.5,0-49.8-17.9-49.8-40.1" style="fill: rgb(249, 145, 142);"></path>
				</g>
				<g>
					<path class="st14" d="M973.8,232.7c-12.5,0-69.5,40.2-69.5,52.6l56.4,70.9l-3.8,86c0,12.5,10.1,22.6,22.6,22.6
						c12.5,0,22.6-10.1,22.6-22.6l3.8-86l-16.9-97.3C988.9,246.5,986.3,232.7,973.8,232.7z" style="fill: rgb(233, 220, 173);"></path>
				</g>
				<g>
					<g>
						<path class="st15" d="M862,348c0,3.5-3,6.4-6.5,6.4l0,0c-3.5,0-6.5-2.9-6.5-6.4v-25.5c0-3.5,3-6.4,6.5-6.4l0,0
							c3.5,0,6.5,2.9,6.5,6.4V348z" style="fill: rgb(249, 145, 142);"></path>
					</g>
					<g>
						<path class="st15" d="M883,355.8c0,3.5-2.8,6.4-6.5,6.4l0,0c-3.7,0-6.5-2.9-6.5-6.4v-25.5c0-3.5,2.8-6.4,6.5-6.4l0,0
							c3.7,0,6.5,2.9,6.5,6.4V355.8z" style="fill: rgb(249, 145, 142);"></path>
					</g>
					<g>
						<path class="st15" d="M902,355.8c0,3.5-2.6,6.4-6,6.4l0,0c-3.4,0-6-2.9-6-6.4v-25.5c0-3.5,2.6-6.4,6-6.4l0,0
							c3.4,0,6,2.9,6,6.4V355.8z" style="fill: rgb(249, 145, 142);"></path>
					</g>
					<g>
						<path class="st15" d="M923,357c0,3.3-2.7,6-6,6l0,0c-3.3,0-6-2.7-6-6v-27c0-3.3,2.7-6,6-6l0,0c3.3,0,6,2.7,6,6V357z" style="fill: rgb(249, 145, 142);"></path>
					</g>
				</g>
			</g>
			<g>
				<g>
					<g>
						<path class="st16" d="M661.9,87.9c0,0,33.2,5.7,67.2-34.8c0,0-11.5,48.9-59.3,61.2" style="fill: rgb(182, 166, 151);"></path>
					</g>
					<g>
						<path class="st16" d="M576.2,87.9c0,0-33.2,5.7-67.2-34.8c0,0,11.5,48.9,59.3,61.2" style="fill: rgb(182, 166, 151);"></path>
					</g>
				</g>
				<g>
					<path class="st25" d="M566.1,139.8c0,0,4.1-36.7-65.5-44.9c0,0,2,79,64.5,55.9" style="fill: rgb(28, 28, 27);"></path>
				</g>
				<g>
					<path class="st25" d="M671.8,139.8c0,0-4.1-36.7,65.5-44.9c0,0-2,79-64.5,55.9" style="fill: rgb(28, 28, 27);"></path>
				</g>
				<g>
					<g>
						<path class="st17" d="M599,188.7V203c3-1,5.8-2,9-2h23.7c3.9,0,7.3,1.2,11.3,2.7v-15c0-15.1,11.8-26.7,26.9-26.7H683v-48
							c0-15.1-12.6-27-27.7-27h-71c-15.1,0-27.3,11.9-27.3,27v48h14.6C586.7,162,599,173.6,599,188.7z" style="fill: rgb(221, 207, 162);"></path>
					</g>
					<g>
						<path class="st25" d="M643,188.7v15c10,4.2,16,13.8,16,25v3.6c0,10.1-5.6,19.6-13.8,24.6h10.1c15.1,0,27.7-13.2,27.7-28.3V162
							h-13.1C654.8,162,643,173.6,643,188.7z" style="fill: rgb(28, 28, 27);"></path>
					</g>
					<g>
						<path class="st25" d="M584.3,257h10.1c-8.2-5-14.4-14.5-14.4-24.6v-3.6c0-11.9,9-22,19-25.7v-14.3c0-15.1-12.3-26.7-27.4-26.7
							H557v66.7C557,243.8,569.2,257,584.3,257z" style="fill: rgb(28, 28, 27);"></path>
					</g>
					<g>
						<path class="st17" d="M631.7,201H608c-3.2,0-6,1-9,2v54h44v-53.3C639,202.2,635.5,201,631.7,201z" style="fill: rgb(221, 207, 162);"></path>
					</g>
					<g>
						<path class="st17" d="M659,232.4v-3.6c0-11.2-6-20.8-16-25V257h2.2C653.4,252,659,242.5,659,232.4z" style="fill: rgb(221, 207, 162);"></path>
					</g>
					<g>
						<path class="st17" d="M580,228.7v3.6c0,10.1,6.2,19.6,14.4,24.6h4.6v-54C589,206.7,580,216.8,580,228.7z" style="fill: rgb(221, 207, 162);"></path>
					</g>
				</g>
				<g>
					<g>
						<path d="M 610.299975 230.300003 A 5.7 5.7 0 0 1 604.599976 236.000003 A 5.7 5.7 0 0 1 598.899976 230.300003 A 5.7 5.7 0 0 1 604.599976 224.600003 A 5.7 5.7 0 0 1 610.299975 230.300003 Z"></path>
					</g>
					<g>
						<path d="M 641.2 230.300003 A 5.7 5.7 0 0 1 635.5 236.000003 A 5.7 5.7 0 0 1 629.8 230.300003 A 5.7 5.7 0 0 1 635.5 224.600003 A 5.7 5.7 0 0 1 641.2 230.300003 Z"></path>
					</g>
				</g>
				<g>
					<g>
						<path d="M 603.099988 148.399994 A 9.8 9.8 0 0 1 593.299988 158.199994 A 9.8 9.8 0 0 1 583.499988 148.399994 A 9.8 9.8 0 0 1 593.299988 138.599994 A 9.8 9.8 0 0 1 603.099988 148.399994 Z"></path>
					</g>
					<g>
						<path d="M 656.599988 148.399994 A 9.8 9.8 0 0 1 646.799988 158.199994 A 9.8 9.8 0 0 1 636.999988 148.399994 A 9.8 9.8 0 0 1 646.799988 138.599994 A 9.8 9.8 0 0 1 656.599988 148.399994 Z"></path>
					</g>
				</g>
			</g>
		</g>
	</g>
	<g>
		<path d="M 593.800012 148.300003 A 3.1 3.1 0 0 1 590.700012 151.400003 A 3.1 3.1 0 0 1 587.600012 148.300003 A 3.1 3.1 0 0 1 590.700012 145.200003 A 3.1 3.1 0 0 1 593.800012 148.300003 Z" class="st12" style="fill: rgb(255, 255, 255);"></path>
	</g>
	<g>
		<path d="M 646.6 148.300003 A 3.1 3.1 0 0 1 643.5 151.400003 A 3.1 3.1 0 0 1 640.4 148.300003 A 3.1 3.1 0 0 1 643.5 145.200003 A 3.1 3.1 0 0 1 646.6 148.300003 Z" class="st12" style="fill: rgb(255, 255, 255);"></path>
	</g>
</g>
</g>
          </g>

          <path id="foreground-overlay" style="fill: #ebeced; opacity: 0.96; pointer-events: none;" d="
        M -1000000, -1000000
        L 2000000, -1000000
        L 2000000, 2000000
        L -1000000, 2000000
        Z
        M 0, 0
        L 0, 980
        L 1400, 980
        L 1400, 0
        Z
      "></path>

          <g id="huds">
            <g is="ee-outlinehud" id="outline-hud"></g>
            <g is="ve-viewboxhud" id="view-box-hud" enabled=""></g>
            <g is="ee-transformhud" id="transform-hud" enabled="" style="display: none;"></g>
            <g is="ee-lineargradienthud" id="linear-gradient-hud" tabindex="-1"></g>
            <g is="ee-radialgradienthud" id="radial-gradient-hud" tabindex="-1"></g>
            <g is="ee-penseghud" id="pen-seg-hud"></g>
            <g is="ee-penhud" id="pen-hud" tabindex="-1"></g>
            <g is="ee-rubberbandhud" id="rubber-band-hud" enabled=""></g>
            <g is="ee-texthud" id="text-hud" tabindex="-1"></g>
          </g>
        </g>
      </svg>