<svg id="svg" preserveAspectRatio="none" width="1366px" height="768px" viewBox="0 0 1366 768">
        <g id="world" transform="matrix(0.6044913292537055, 0, 0, 0.6044913292537055, 28.08982658507411, 28.08982658507411)">
          <rect id="background-overlay" x="0" y="0" width="1360.5699462890625" height="952.5700073242188" style="fill: url(#ee-checkboard-pattern);"></rect>

          <pattern id="ee-checkboard-pattern" viewBox="0 0 10 10" width="10" height="10" patternUnits="userSpaceOnUse" patternTransform="scale(1.654283382184533)">
            <rect x="0" y="0" width="5" height="5" fill="#d6d6d6"></rect>
            <rect x="5" y="0" width="5" height="5" fill="white"></rect>
            <rect x="0" y="5" width="5" height="5" fill="white"></rect>
            <rect x="5" y="5" width="5" height="5" fill="#d6d6d6"></rect>
          </pattern>

          <g id="artboards">
            <rect id="matte" x="-1000000" y="-1000000" width="2000000" height="2000000" style="fill: rgba(0,0,0,0);"></rect>
            <g id="master-artboard" viewBox="0 0 1360.57 952.57" data-name="Layer 1" xmlns="http://www.w3.org/2000/svg"><defs><clipPath id="clip-path" transform="translate(-19 -14.6)"><path class="cls-1" d="M436.26,300.43c3.48.15-8.87,169.32-8.87,169.32L222,466.52s-20.56-175-20.49-172.28,234.71,6.19,234.71,6.19Z" style="fill: none; clip-rule: evenodd;"></path></clipPath><clipPath id="clip-path-2" transform="translate(-19 -14.6)"><path class="cls-1" d="M194.13,302.49c0,2.59,241.53,10.73,242.24,6.4s-.94,19.18-.94,19.18L198.66,332.6l.42,10.32,234.7-.42.83,8.25L212.69,361.06l-.25,7.54,220.1.71-1.23,18.15-210-1.24-.23,15L431.31,399v10.32l-205.68,7.36-1,14.89s202-8,205.88-7.82-2.06,14.85-2.06,14.85l-203,6.85.44,11.71L428.83,451l.78,18.67L232.7,467.07,194.13,302.49Z" style="fill: none; clip-rule: evenodd;"></path></clipPath><clipPath id="clip-path-3" transform="translate(-19 -14.6)"><path class="cls-1" d="M138.85,303.32c-2.81.6,79.82,3.29,79.82,3.29L236,467.48S166.7,463,170,463s-31.15-159.63-31.15-159.63Z" style="fill: none; clip-rule: evenodd;"></path></clipPath><clipPath id="clip-path-4" transform="translate(-19 -14.6)"><path class="cls-1" d="M139.27,308.68l4.54,16.09,72.39,1.85L219.09,339l-74.25-5.16s3.43,13.94,2.06,14.23,74,4.13,74,4.13l.83,16.7-69.51-2.27,5,21.45,65-4.95,3.92,18.15-65.8-1,2.89,15.67,66.83.83.82,15.26-66-4.54s2.74,11.48,1.45,11.76,69.09,7.22,69.09,7.22l.62,21L170,463,139.27,308.68Z" style="fill: none; clip-rule: evenodd;"></path></clipPath><clipPath id="clip-path-5" transform="translate(-19 -14.6)"><path class="cls-1" d="M284.37,170.5S389.14,225,421.31,242.27s60.43,54.86,65,61.46-4.12-1-4.12-1,2.26,5.77.41,5.36-4.33-3.71-4.33-3.71,2.06,6.19-1.45,3.3-7.22-5.57-7.22-5.57,4.75,8,2.48,8-4.95-4.95-4.95-4.95,2.27,6.4-.62,5.37-5.57-5.78-5.57-5.78,1.65,6-1.44,5.36-3.92-5.36-3.92-5.36-.41,7.84-2.89,6.6a11.6,11.6,0,0,1-4.12-4.33s.2,7.42-2.48,5.77a6.05,6.05,0,0,1-2.89-4.33s-1,4.95-3.3,3.92a8.43,8.43,0,0,1-3.5-3.5s-2.27,7.21-7.22,4.95-5.16-4.95-5.16-4.95-.41,5.56-3.91,4.95-5.16-4.54-5.16-4.54-.62,6.6-3.3,4.95a10.39,10.39,0,0,1-3.71-3.71s-.42,3.5-2.89,3.5a2.87,2.87,0,0,1-2.89-2.27s-2.68,5.37-4.95,3.3-2.27-2.47-2.27-2.47-.41,4.33-3.09,2.47-2.89-2.88-2.89-2.88-2.68,7.42-6,3.92-3.09-3.51-3.09-3.51.82,5.77-1.86,4.54a5.29,5.29,0,0,1-3.09-3.51s-1,6.4-3.51,3.71-2.88-4.74-2.68-3.5.21,5.77-1.85,5-3.3-4.33-3.3-4.33-1.24,5-3.1,4.12a10.6,10.6,0,0,1-3.5-3.3s0,5.57-3.72,3.1-3.91-3.72-3.91-3.72-1.65,4.95-3.51,3.92-3.71-4.12-3.71-4.12-2.06,4.12-4.54,3.71a4.62,4.62,0,0,1-3.3-1.86s-1.65,8.05-7.42,6-3.51-4.33-3.51-4.33-1.65,4.13-4.74,2.07l-3.1-2.07s-2.68,5.36-5.57,3.92-3.5-2.68-3.5-2.68-.21,4.54-3.51,2.89a9.69,9.69,0,0,1-4.33-3.71s-.82,5.15-3.92,4.74a14.42,14.42,0,0,1-6-2.68s-6.19,6.18-9.69,2.27S275.5,319,275.5,319s-1,4.33-4.74,2.68-3.71-2.06-3.71-2.06,1,3.92-2.27,2.89-3.3-2.89-3.3-2.89-2.68,3.92-4.33,1.86-1.45-2.68-1.45-2.68-2.88,4.53-6.18,1.85l-3.3-2.68s-4.34,4.85-7.22,4.13-1.24-4.33-1.24-4.33-1.44,4.74-3.61,4.43-3.2-3.09-3.2-3.09-3,3.91-5.36,2.57-2.06-3.09-2.06-3.09-3.51,3.61-4.95,3A7,7,0,0,1,216,319s-3.4,5.16-5.26,3.3a9.53,9.53,0,0,1-2.37-3.61s-2,6.09-5.88,3.61-3.92-3.61-3.92-3.61-2.78,4-6.18,3.1-1.24-4.64-1.24-4.64-3.51,3.61-6.81.93-3.19-3.1-3.19-3.1-4.23,6.91-6.3,4.75a4.72,4.72,0,0,1-.82-5s-3.61,6.29-7,4-2.07-5-2.07-5-4.33,5.36-6.7,3.2-2.37-4.13-2.37-4.13-3.72,3.92-5.06,2.37a5.73,5.73,0,0,1-1.33-3.4s-4.64,4.23-8.56,2-3.92-3.4-3.92-3.4-2.37,4.84-4.13,3.81-1.13-4.64-1.13-4.64-7.84,5.78-11.76,3.2-3-4.85-3-4.85-2.58,3.4-5.36,2.27a3.45,3.45,0,0,1-2.06-4s-3.82,4.74-5.47,3.09.1-5.05.1-5.05-1.23,4-4.84,2.58-1.14-5.67-1.14-5.67,15.68-20.63,64.76-56.93,98.58-69.71,121.38-73.73Z" style="fill: none; clip-rule: evenodd;"></path></clipPath><clipPath id="clip-path-6" transform="translate(-19 -14.6)"><path class="cls-1" d="M581.78,301.82c2.05,3.12,16.67,154.25,16.67,154.25l253.38-3.24-5.31-139-264.74-12Z" style="fill: none; clip-rule: evenodd;"></path></clipPath><clipPath id="clip-path-7" transform="translate(-19 -14.6)"><path class="cls-1" d="M846.73,332.86s-255.53,11.66-259.39,12,2.31,9.73,2.31,9.73l257.54-2.78.93,17.6-251.85-1.1,1.06,11.6,254.5,5.71-3.25,16.22L592.89,391.22l2.32,13.9,253.84,9.26,4.63,19s-255.94-13.77-259.4-13.43,2.32,10.65,2.32,10.65l256.15,12.05-.92,10.19s-249.31,2.84-253.38,3.24-15-148.49-13.89-143.59,250-20.66,250-20.66l12.15,41Z" style="fill: none; clip-rule: evenodd;"></path></clipPath><clipPath id="clip-path-8" transform="translate(-19 -14.6)"><path d="M 1243.5400390625 351.3699951171875 L 1238.5400390625 458.44000244140625 L 1047.260009765625 462.5 L 1015.8900146484375 349.44000244140625 L 1243.5400390625 351.3699951171875 L 1243.5400390625 351.3699951171875 Z" class="cls-1" style="fill: none; clip-rule: evenodd;"></path></clipPath><clipPath id="clip-path-9" transform="translate(-19 -14.6)"><path class="cls-1" d="M1019.76,354.47l4.65,24.4s215.62-6.8,219.16-6.59-.77,11.23-.77,11.23L1028.67,387l2.71,10.84,210.26-5-.39,8.13-208.71,6.58,2.32,10.45,205.23-8.51s-4.09,11.37,0,11.61-206,6.8-202.9,6.2-1.31,11.47,1.93,10.84,197.28-7.05,197.28-7.05l2.91,7.44-197.48,13.16,1.94,9.49,194.77-2.71,5.42-116-224.2,12Z" style="fill: none; clip-rule: evenodd;"></path></clipPath><clipPath id="clip-path-10" transform="translate(-19 -14.6)"><path class="cls-1" d="M1303.42,350c4.46,9.3-3.6-1.56-3.6-1.56s2,8.72.36,8.09-3.78-5.6-3.78-5.6,1.8,9.34-1.26,5-6.3-8.4-6.3-8.4,4.14,12.13,2.16,12.13-4.32-7.46-4.32-7.46,2,9.64-.54,8.09-4.86-8.71-4.86-8.71,1.44,9-1.26,8.08-3.42-8.08-3.42-8.08-.36,11.82-2.52,10-3.6-6.53-3.6-6.53.18,11.2-2.16,8.71-2.52-6.53-2.52-6.53-.9,7.46-2.88,5.91-3.06-5.29-3.06-5.29-2,10.89-6.3,7.47-4.5-7.47-4.5-7.47-.36,8.4-3.42,7.47-4.5-6.85-4.5-6.85-.54,10-2.88,7.47a15.45,15.45,0,0,1-3.24-5.6s-.36,5.29-2.52,5.29-2.52-3.42-2.52-3.42-2.34,8.09-4.32,5-2-3.73-2-3.73-.36,6.53-2.7,3.73-2.52-4.35-2.52-4.35-2.34,11.2-5.22,5.91-2.7-5.29-2.7-5.29.72,8.71-1.62,6.85a8.69,8.69,0,0,1-2.7-5.29s-.9,9.64-3.06,5.6-2.52-7.16-2.34-5.29.18,8.71-1.62,7.46-2.88-6.53-2.88-6.53-1.08,7.47-2.7,6.22-3.06-5-3.06-5,0,8.4-3.24,4.66-3.42-5.6-3.42-5.6-1.44,7.47-3.06,5.91-3.24-6.22-3.24-6.22-1.8,6.22-4,5.6a4.63,4.63,0,0,1-2.88-2.8s-1.44,12.13-6.48,9-3.06-6.53-3.06-6.53-1.44,6.22-4.14,3.11l-2.7-3.11s-2.34,8.09-4.86,5.91a9.69,9.69,0,0,1-3.06-4s-.18,6.84-3.07,4.35a13.05,13.05,0,0,1-3.77-5.6s-.72,7.78-3.42,7.16-5.22-4-5.22-4-5.41,9.34-8.47,3.42-3.06-5.6-3.06-5.6-.9,6.54-4.14,4.05-3.24-3.11-3.24-3.11.9,5.91-2,4.36a5.29,5.29,0,0,1-2.88-4.36s-2.34,5.91-3.78,2.8-1.26-4.05-1.26-4.05-2.52,6.85-5.4,2.8l-2.88-4s-3.78,7.31-6.3,6.22-1.08-6.53-1.08-6.53-1.26,7.16-3.15,6.69-2.79-4.67-2.79-4.67-2.61,5.91-4.68,3.89a6.16,6.16,0,0,1-1.8-4.67s-3.06,5.45-4.32,4.51-2.25-3.89-2.25-3.89-3,7.78-4.59,5a18.24,18.24,0,0,1-2.07-5.44s-1.71,9.18-5.13,5.44-3.42-5.44-3.42-5.44-2.43,6.06-5.4,4.67-1.08-7-1.08-7-3.06,5.44-5.94,1.4-2.79-4.67-2.79-4.67-3.69,10.42-5.49,7.16-.72-7.47-.72-7.47-3.15,9.49-6.12,6.06a8.49,8.49,0,0,1-1.8-7.46s-3.79,8.09-5.85,4.82a12.74,12.74,0,0,1-2.08-6.22s-3.24,5.91-4.41,3.58a13.21,13.21,0,0,1-1.16-5.14s-4.05,6.38-7.47,3-3.43-5.13-3.43-5.13-2.07,7.31-3.6,5.75-1-7-1-7-6.84,8.72-10.26,4.83-2.61-7.31-2.61-7.31-2.25,5.13-4.68,3.42-1.8-6.07-1.8-6.07-3.33,7.16-4.77,4.67.09-7.62.09-7.62-1.07,6.06-4.23,3.88-1-8.55-1-8.55,17.34-23.47,56.52-85.86c84.19-134,180.08-123,282.17,89.74Z" style="fill: none; clip-rule: evenodd;"></path></clipPath><clipPath id="clip-path-11" transform="translate(-19 -14.6)"><path d="M 1058.030029296875 686.260009765625 L 1089.1800537109375 808.8699951171875 L 1245.2900390625 811.5900268554688 L 1249.6400146484375 691.3300170898438 L 1058.030029296875 686.260009765625 L 1058.030029296875 686.260009765625 Z" class="cls-1" style="fill: none; clip-rule: evenodd;"></path></clipPath><clipPath id="clip-path-12" transform="translate(-19 -14.6)"><path class="cls-1" d="M1077.06,702.35l12.12,106.52-51.07-6.16s-24.61-111.54-21.74-112.1,60.69,11.74,60.69,11.74Z" style="fill: none; clip-rule: evenodd;"></path></clipPath><clipPath id="clip-path-13" transform="translate(-19 -14.6)"><path class="cls-1" d="M1017.1,703.47c-2.05.42,5.25,17,5.25,17l54.51,4.35,1.09,5.43s-54.51-4.35-54.69-3.26.9,9.06.9,9.06l56.33.54-.18,4.35h-55.06l2.35,7.06s53.56-.85,55.06-1.09,0,4.71,0,4.71l-54.7,2,.91,4.89,53.06-.72-.36,4.89-50,.72-.91,7.43,53.43-2.54,3.08,7.61-53.61,1.45-.18,4.35,52,1.08,1.63,4.89h-51.44l.91,4.89,51.79,2.72v3.08l-51.43-1.09,1.27,5.43,51.07,6.16,1.08-8.69,151.77-2,.36-7.25s-155.22.32-153.22,0-7-5.06-3-5.7,158.38-4.8,158.38-4.8,2.64-7.05-.37-7.25-157,2.72-157,2.72l-3.08-7.61,162.27-6.7-.36-6.88-164.27,5.52.18-2.44-3-6s165.75-5.24,169.21-5-.73-10.86-.73-10.86L1080.31,741,1078,730.27,1248.19,725l.72-9.42-172.05,9.24,1.26-15.9s-56.69-7.69-61-5.47Z" style="fill: none; clip-rule: evenodd;"></path></clipPath><clipPath id="clip-path-14" transform="translate(-19 -14.6)"><path class="cls-1" d="M1286.25,695.87c4.18,8.7-3.37-1.45-3.37-1.45s1.86,8.15.34,7.57-3.54-5.24-3.54-5.24,1.69,8.73-1.18,4.65-5.89-7.85-5.89-7.85,3.87,11.35,2,11.35-4-7-4-7,1.85,9-.5,7.57-4.55-8.15-4.55-8.15,1.34,8.44-1.18,7.57-3.2-7.57-3.2-7.57-.34,11.06-2.36,9.31-3.37-6.11-3.37-6.11.17,10.48-2,8.15-2.36-6.11-2.36-6.11-.84,7-2.7,5.53-2.86-5-2.86-5-1.85,10.19-5.89,7-4.21-7-4.21-7-.34,7.86-3.2,7-4.21-6.4-4.21-6.4-.51,9.31-2.7,7a14.61,14.61,0,0,1-3-5.24s-.33,4.95-2.35,4.95-2.36-3.21-2.36-3.21-2.19,7.57-4,4.66-1.86-3.49-1.86-3.49-.33,6.11-2.52,3.49-2.36-4.07-2.36-4.07-2.19,10.47-4.88,5.53-2.53-5-2.53-5,.68,8.15-1.51,6.4a8.12,8.12,0,0,1-2.53-4.95s-.84,9-2.86,5.24-2.36-6.69-2.19-4.94.17,8.15-1.52,7-2.69-6.11-2.69-6.11-1,7-2.52,5.82-2.87-4.66-2.87-4.66,0,7.86-3,4.37-3.2-5.24-3.2-5.24-1.35,7-2.86,5.53-3-5.82-3-5.82-1.69,5.82-3.71,5.24a4.32,4.32,0,0,1-2.69-2.62s-1.35,11.35-6.06,8.44-2.87-6.11-2.87-6.11-1.34,5.82-3.87,2.91l-2.52-2.91s-2.19,7.56-4.55,5.53a9,9,0,0,1-2.86-3.79s-.17,6.41-2.87,4.08a12.18,12.18,0,0,1-3.53-5.24s-.67,7.28-3.2,6.69-4.88-3.78-4.88-3.78-5.06,8.73-7.92,3.2-2.86-5.24-2.86-5.24-.84,6.11-3.87,3.78-3-2.9-3-2.9.84,5.53-1.86,4.07a4.94,4.94,0,0,1-2.69-4.07s-2.19,5.53-3.54,2.61-1.18-3.78-1.18-3.78-2.35,6.4-5,2.62l-2.69-3.78s-3.54,6.84-5.9,5.82-1-6.11-1-6.11-1.17,6.69-2.94,6.25-2.61-4.36-2.61-4.36-2.45,5.53-4.38,3.63a5.75,5.75,0,0,1-1.69-4.36s-2.86,5.09-4,4.22-2.1-3.64-2.1-3.64-2.78,7.28-4.3,4.66a17.12,17.12,0,0,1-1.93-5.09s-1.6,8.58-4.8,5.09-3.2-5.09-3.2-5.09-2.28,5.67-5,4.36-1-6.55-1-6.55-2.87,5.1-5.56,1.31-2.61-4.36-2.61-4.36-3.45,9.75-5.14,6.69-.67-7-.67-7-3,8.87-5.73,5.67a7.93,7.93,0,0,1-1.68-7s-3.54,7.56-5.47,4.51a12,12,0,0,1-1.94-5.82s-3,5.53-4.13,3.34a12.25,12.25,0,0,1-1.09-4.8s-3.79,6-7,2.77-3.2-4.8-3.2-4.8-1.93,6.84-3.37,5.38-.92-6.55-.92-6.55-6.4,8.15-9.6,4.51-2.44-6.83-2.44-6.83-2.11,4.8-4.38,3.2-1.68-5.68-1.68-5.68-3.12,6.7-4.47,4.37.09-7.13.09-7.13-1,5.67-4,3.64-.93-8-.93-8,30.56-6.79,59.4-77.06c45.73-111.44,146.84-122.78,192.63-7.68,12.82,32.22,46.72,50.71,64.8,88.37Z" style="fill: none; clip-rule: evenodd;"></path></clipPath><clipPath id="clip-path-15" transform="translate(-19 -14.6)"><path d="M 570.8800048828125 704.010009765625 L 591.9299926757812 822.010009765625 L 841.4000244140625 812.8800048828125 L 846.6500244140625 697 L 570.8800048828125 704.010009765625 L 570.8800048828125 704.010009765625 Z" class="cls-1" style="fill: none; clip-rule: evenodd;"></path></clipPath><clipPath id="clip-path-16" transform="translate(-19 -14.6)"><path class="cls-1" d="M567.28,704.17l13.52,31.56L845.23,725l-1.15,9.21-262.9,9.6v11.12s259.34-4.39,262.52-4.22-1.54,8.45-1.54,8.45l-259.06,10s3.7,5.54.39,6.14,259.06-2.69,259.06-2.69L841,781.79l-253.68,8.83,2.68,8.44,252.54-3.84,1.59,7.38-255.28,2.22,2.3,10.36,250.24-2.3,5.5-121.4L567.28,704.17Z" style="fill: none; clip-rule: evenodd;"></path></clipPath><clipPath id="clip-path-17" transform="translate(-19 -14.6)"><path class="cls-1" d="M865.79,704.48c4.42,9.21-3.57-1.55-3.57-1.55s2,8.64.36,8-3.75-5.55-3.75-5.55,1.79,9.25-1.25,4.93-6.24-8.32-6.24-8.32,4.1,12,2.14,12-4.28-7.4-4.28-7.4,2,9.56-.54,8-4.81-8.63-4.81-8.63,1.42,8.94-1.25,8-3.39-8-3.39-8-.36,11.72-2.5,9.87-3.57-6.48-3.57-6.48.18,11.1-2.14,8.63-2.5-6.47-2.5-6.47-.89,7.4-2.85,5.86-3-5.25-3-5.25-2,10.8-6.24,7.41-4.46-7.41-4.46-7.41-.36,8.33-3.39,7.41-4.46-6.79-4.46-6.79-.54,9.87-2.86,7.4a15.22,15.22,0,0,1-3.21-5.55s-.36,5.24-2.5,5.24-2.5-3.39-2.5-3.39-2.31,8-4.28,4.94-2-3.7-2-3.7-.36,6.47-2.68,3.7-2.49-4.32-2.49-4.32-2.32,11.1-5.18,5.86-2.67-5.24-2.67-5.24.71,8.63-1.61,6.78a8.61,8.61,0,0,1-2.68-5.24s-.89,9.56-3,5.55-2.5-7.09-2.32-5.24.18,8.63-1.61,7.4-2.85-6.48-2.85-6.48-1.07,7.4-2.68,6.17-3-4.93-3-4.93,0,8.32-3.21,4.62-3.39-5.55-3.39-5.55-1.43,7.4-3,5.86-3.21-6.17-3.21-6.17-1.79,6.17-3.93,5.55a4.57,4.57,0,0,1-2.85-2.77s-1.43,12-6.43,8.94-3-6.47-3-6.47-1.43,6.16-4.1,3.08l-2.68-3.08s-2.32,8-4.82,5.85a9.48,9.48,0,0,1-3-4s-.18,6.79-3,4.32a12.82,12.82,0,0,1-3.75-5.55s-.71,7.71-3.39,7.09-5.17-4-5.17-4-5.36,9.25-8.39,3.39-3-5.55-3-5.55-.89,6.47-4.11,4-3.21-3.08-3.21-3.08.89,5.86-2,4.32a5.23,5.23,0,0,1-2.86-4.32s-2.32,5.86-3.74,2.78-1.25-4-1.25-4-2.5,6.78-5.36,2.77l-2.85-4s-3.75,7.24-6.25,6.16-1.07-6.47-1.07-6.47-1.24,7.09-3.12,6.63-2.76-4.63-2.76-4.63-2.59,5.86-4.64,3.85a6.11,6.11,0,0,1-1.79-4.62s-3,5.4-4.28,4.47S632,727.3,632,727.3s-2.94,7.71-4.55,4.93a18.18,18.18,0,0,1-2-5.4s-1.69,9.1-5.09,5.4-3.39-5.4-3.39-5.4-2.41,6-5.35,4.63-1.07-6.94-1.07-6.94-3,5.4-5.89,1.39-2.76-4.63-2.76-4.63-3.66,10.34-5.44,7.1-.72-7.4-.72-7.4-3.12,9.4-6.07,6a8.43,8.43,0,0,1-1.78-7.4s-3.75,8-5.8,4.78a12.69,12.69,0,0,1-2-6.17s-3.21,5.86-4.37,3.55a13,13,0,0,1-1.16-5.09s-4,6.32-7.41,2.93-3.39-5.09-3.39-5.09-2,7.25-3.57,5.71-1-6.94-1-6.94-6.78,8.63-10.17,4.78-2.59-7.25-2.59-7.25-2.22,5.09-4.63,3.39-1.79-6-1.79-6-3.3,7.09-4.73,4.63.09-7.56.09-7.56-1.06,6-4.19,3.86-1-8.48-1-8.48S562.47,693.43,593,619c48.46-118.08,155.59-130.11,204.11-8.14,13.58,34.14,49.51,53.73,68.66,93.64Z" style="fill: none; clip-rule: evenodd;"></path></clipPath><clipPath id="clip-path-18" transform="translate(-19 -14.6)"><path class="cls-1" d="M896.09,678.19c5.14,9.22-4.14-1.54-4.14-1.54s2.28,8.63.41,8-4.35-5.55-4.35-5.55,2.07,9.25-1.45,4.94-7.25-8.33-7.25-8.33,4.76,12,2.49,12-5-7.4-5-7.4,2.28,9.56-.62,8-5.6-8.63-5.6-8.63,1.66,8.94-1.45,8-3.93-8-3.93-8-.42,11.72-2.9,9.87-4.15-6.48-4.15-6.48.21,11.1-2.48,8.64a10.48,10.48,0,0,1-2.91-6.48s-1,7.4-3.31,5.86S846,685.9,846,685.9s-2.28,10.79-7.26,7.4-5.18-7.4-5.18-7.4-.41,8.32-3.93,7.4-5.19-6.79-5.19-6.79-.62,9.87-3.31,7.4a14.81,14.81,0,0,1-3.73-5.55s-.42,5.25-2.9,5.25-2.9-3.4-2.9-3.4-2.69,8-5,4.94-2.28-3.7-2.28-3.7-.41,6.47-3.1,3.7-2.9-4.32-2.9-4.32-2.7,11.1-6,5.86-3.11-5.24-3.11-5.24.83,8.63-1.87,6.78a8.13,8.13,0,0,1-3.1-5.24s-1,9.56-3.53,5.55-2.9-7.09-2.69-5.24.21,8.63-1.87,7.4-3.31-6.48-3.31-6.48-1.24,7.41-3.11,6.17-3.52-4.93-3.52-4.93,0,8.32-3.73,4.62-3.94-5.55-3.94-5.55-1.66,7.4-3.52,5.86-3.73-6.16-3.73-6.16-2.08,6.16-4.56,5.55a5,5,0,0,1-3.32-2.78s-1.65,12-7.46,8.94-3.52-6.47-3.52-6.47-1.66,6.17-4.77,3.08l-3.1-3.08s-2.7,8-5.6,5.86-3.52-4-3.52-4-.21,6.78-3.53,4.32a12.78,12.78,0,0,1-4.34-5.56s-.83,7.71-3.94,7.1-6-4-6-4-6.22,9.25-9.74,3.39-3.52-5.55-3.52-5.55-1,6.47-4.77,4-3.73-3.09-3.73-3.09,1,5.86-2.28,4.32a5.14,5.14,0,0,1-3.32-4.32s-2.69,5.86-4.35,2.78-1.45-4-1.45-4-2.9,6.78-6.22,2.78l-3.31-4s-4.35,7.24-7.25,6.17-1.25-6.48-1.25-6.48-1.45,7.09-3.62,6.63-3.22-4.63-3.22-4.63-3,5.86-5.38,3.86a5.63,5.63,0,0,1-2.08-4.63s-3.52,5.4-5,4.47-2.59-3.85-2.59-3.85-3.42,7.71-5.28,4.93a16.45,16.45,0,0,1-2.39-5.39s-2,9.09-5.9,5.39-3.94-5.39-3.94-5.39-2.8,6-6.22,4.62-1.24-6.94-1.24-6.94-3.52,5.4-6.84,1.39-3.21-4.62-3.21-4.62-4.25,10.33-6.32,7.09-.83-7.4-.83-7.4-3.63,9.4-7.05,6a7.5,7.5,0,0,1-2.07-7.4s-4.35,8-6.73,4.78a11.41,11.41,0,0,1-2.39-6.17s-3.73,5.86-5.07,3.55a11.39,11.39,0,0,1-1.35-5.09s-4.66,6.32-8.6,2.93-3.94-5.09-3.94-5.09-2.38,7.25-4.14,5.71-1.14-6.94-1.14-6.94-7.88,8.64-11.81,4.78-3-7.24-3-7.24-2.59,5.08-5.39,3.39-2.07-6-2.07-6-3.83,7.1-5.49,4.63.1-7.56.1-7.56-1.24,6-4.87,3.86-1.14-8.48-1.14-8.48,37.61-7.2,73.09-81.65c56.28-118.08,180.71-130.1,237.06-8.14,15.77,34.14,57.5,53.73,79.74,93.64Z" style="fill: none; clip-rule: evenodd;"></path></clipPath><clipPath id="clip-path-19" transform="translate(-19 -14.6)"><path d="M 238.72000122070312 683.9600219726562 L 255.85000610351562 780.260009765625 L 349.30999755859375 781 L 365.3599853515625 674.3300170898438 L 238.72000122070312 683.9600219726562 L 238.72000122070312 683.9600219726562 Z" class="cls-1" style="fill: none; clip-rule: evenodd;"></path></clipPath><clipPath id="clip-path-20" transform="translate(-19 -14.6)"><path d="M 252.94000244140625 709.6099853515625 L 361.79998779296875 695.3800048828125 L 360.3699951171875 706.4299926757812 L 259.67999267578125 717.8300170898438 L 259.489990234375 726.4199829101562 L 358.2300109863281 725.3400268554688 L 355.0199890136719 734.969970703125 L 261.7300109863281 737.0399780273438 L 261.9800109863281 748.1699829101562 L 350.44000244140625 745.3900146484375 L 352.1700134277344 752.4500122070312 L 257.2699890136719 759.9500122070312 L 257.45001220703125 764.5800170898438 L 347.260009765625 764.4199829101562 L 346.0299987792969 771.8200073242188 L 258.7900085449219 774.1199951171875 L 258.4200134277344 776.3800048828125 L 349.30999755859375 781 L 365.0299987792969 680.6199951171875 L 256.20001220703125 675.75 L 252.94000244140625 709.6099853515625 L 252.94000244140625 709.6099853515625 Z" class="cls-1" style="fill: none; clip-rule: evenodd;"></path></clipPath><clipPath id="clip-path-21" transform="translate(-19 -14.6)"><path d="M 133.47999572753906 662.2000122070312 L 149.52999877929688 783.3099975585938 L 259.04998779296875 783.9500122070312 L 256.20001220703125 675.75 L 133.47999572753906 662.2000122070312 L 133.47999572753906 662.2000122070312 Z" class="cls-1" style="fill: none; clip-rule: evenodd;"></path></clipPath><clipPath id="clip-path-22" transform="translate(-19 -14.6)"><path d="M 136.14999389648438 671.469970703125 L 139.5399932861328 698.22998046875 L 257.7200012207031 698.969970703125 L 258.70001220703125 709.6400146484375 L 141.67999267578125 708.9299926757812 L 137.99000549316406 718.4099731445312 L 253.02000427246094 717.1300048828125 L 257.6300048828125 727.8400268554688 L 142.75 729.6199951171875 L 141.17999267578125 742.5800170898438 L 253.2899932861328 741.3300170898438 L 256.9100036621094 748.530029296875 L 144.5399932861328 752.8099975585938 L 146.32000732421875 761.72998046875 L 257.2699890136719 759.9500122070312 L 257.6300048828125 769.219970703125 L 147.02999877929688 770.2899780273438 L 146.0500030517578 779.4299926757812 L 258.3399963378906 780.280029296875 L 260.4800109863281 680.3900146484375 L 136.14999389648438 671.469970703125 L 136.14999389648438 671.469970703125 Z" class="cls-1" style="fill: none; clip-rule: evenodd;"></path></clipPath><clipPath id="clip-path-23" transform="translate(-19 -14.6)"><path class="cls-1" d="M405.16,673.45c4.66,7.68-3.32-1.43-3.32-1.43s1.83,8,.34,7.45-3.49-5.16-3.49-5.16,1.66,8.6-1.16,4.59-5.8-7.74-5.8-7.74,3.81,11.18,2,11.18-4-6.88-4-6.88,1.82,8.88-.5,7.45-4.48-8-4.48-8,1.33,8.32-1.16,7.46-3.15-7.46-3.15-7.46-.33,10.9-2.32,9.18-3.32-6-3.32-6,.17,10.32-2,8-2.32-6-2.32-6-.83,6.87-2.66,5.44-2.81-4.87-2.81-4.87-1.83,10-5.81,6.88-4.15-6.88-4.15-6.88-.33,7.74-3.15,6.88-4.14-6.31-4.14-6.31-.5,9.17-2.66,6.88a14.25,14.25,0,0,1-3-5.16s-.33,4.87-2.32,4.87-2.32-3.15-2.32-3.15-2.16,7.46-4,4.59-1.82-3.44-1.82-3.44-.33,6-2.49,3.44-2.32-4-2.32-4-2.16,10.31-4.81,5.44-2.49-4.87-2.49-4.87.67,8-1.49,6.31a8.05,8.05,0,0,1-2.49-4.88s-.83,8.89-2.82,5.16-2.32-6.59-2.15-4.87.16,8-1.49,6.88-2.66-6-2.66-6-1,6.88-2.48,5.73-2.82-4.58-2.82-4.58,0,7.73-3,4.3-3.15-5.16-3.15-5.16-1.33,6.88-2.82,5.44-3-5.73-3-5.73-1.65,5.73-3.64,5.16a4.29,4.29,0,0,1-2.66-2.58s-1.32,11.18-6,8.31-2.82-6-2.82-6-1.32,5.74-3.81,2.87l-2.49-2.87s-2.16,7.46-4.48,5.45a9,9,0,0,1-2.82-3.73s-.16,6.31-2.82,4a12,12,0,0,1-3.48-5.16s-.66,7.16-3.15,6.59-4.81-3.73-4.81-3.73-5,8.6-7.8,3.15-2.81-5.15-2.81-5.15-.83,6-3.82,3.72-3-2.86-3-2.86.83,5.44-1.83,4a4.87,4.87,0,0,1-2.65-4s-2.16,5.44-3.48,2.57-1.16-3.72-1.16-3.72-2.33,6.3-5,2.58l-2.65-3.73s-3.49,6.74-5.81,5.74-1-6-1-6-1.17,6.59-2.91,6.16-2.57-4.3-2.57-4.3-2.4,5.44-4.31,3.58a5.66,5.66,0,0,1-1.66-4.3s-2.82,5-4,4.16-2.07-3.58-2.07-3.58-2.74,7.16-4.23,4.58a17,17,0,0,1-1.91-5s-1.57,8.46-4.72,5-3.16-5-3.16-5-2.24,5.59-5,4.3-1-6.44-1-6.44-2.82,5-5.47,1.28-2.57-4.29-2.57-4.29-3.4,9.6-5.06,6.59-.66-6.88-.66-6.88-2.91,8.74-5.64,5.59a7.82,7.82,0,0,1-1.66-6.88s-3.48,7.45-5.39,4.44a11.76,11.76,0,0,1-1.91-5.73s-3,5.45-4.06,3.3a12,12,0,0,1-1.08-4.73s-3.73,5.87-6.88,2.72-3.15-4.73-3.15-4.73-1.91,6.74-3.32,5.3-.91-6.44-.91-6.44-6.31,8-9.46,4.44-2.4-6.74-2.4-6.74-2.08,4.73-4.31,3.16-1.66-5.59-1.66-5.59-3.07,6.59-4.4,4.3.09-7,.09-7-2.82-1.49-3.9,3.59C87.48,708.53,221.65,371,405.16,673.45Z" style="fill: none; clip-rule: evenodd;"></path></clipPath></defs><_title>ShackVectors2145</_title><path d="M 906.9600219726562 476.239990234375 L 453.6000061035156 476.239990234375 L 453.6000061035156 952.1900024414062 L 906.9600219726562 952.1900024414062 L 906.9600219726562 476.239990234375 L 906.9600219726562 476.239990234375 Z" class="cls-2" style="fill: rgb(255, 255, 255); stroke: rgb(255, 255, 255); stroke-miterlimit: 22.93; stroke-width: 0.57px; fill-rule: evenodd;"></path><path d="M 453.6400146484375 476.2300109863281 L 0.2800000011920929 476.2300109863281 L 0.2800000011920929 0.2800000011920929 L 453.6400146484375 0.2800000011920929 L 453.6400146484375 476.2300109863281 L 453.6400146484375 476.2300109863281 Z" class="cls-2" style="fill: rgb(255, 255, 255); stroke: rgb(255, 255, 255); stroke-miterlimit: 22.93; stroke-width: 0.57px; fill-rule: evenodd;"></path><path d="M 906.9600219726562 476.239990234375 L 453.6000061035156 476.239990234375 L 453.6000061035156 0.2800000011920929 L 906.9600219726562 0.2800000011920929 L 906.9600219726562 476.239990234375 L 906.9600219726562 476.239990234375 Z" class="cls-2" style="fill: rgb(255, 255, 255); stroke: rgb(255, 255, 255); stroke-miterlimit: 22.93; stroke-width: 0.57px; fill-rule: evenodd;"></path><path d="M 1360.280029296875 0.2900000214576721 L 906.9199829101562 0.2900000214576721 L 906.9199829101562 476.239990234375 L 1360.280029296875 476.239990234375 L 1360.280029296875 0.2900000214576721 L 1360.280029296875 0.2900000214576721 Z" class="cls-2" style="fill: rgb(255, 255, 255); stroke: rgb(255, 255, 255); stroke-miterlimit: 22.93; stroke-width: 0.57px; fill-rule: evenodd;"></path><path d="M 0.2800000011920929 476.3299865722656 L 453.6400146484375 476.3299865722656 L 453.6400146484375 952.280029296875 L 0.2800000011920929 952.280029296875 L 0.2800000011920929 476.3299865722656 L 0.2800000011920929 476.3299865722656 Z" class="cls-2" style="fill: rgb(255, 255, 255); stroke: rgb(255, 255, 255); stroke-miterlimit: 22.93; stroke-width: 0.57px; fill-rule: evenodd;"></path><path d="M 1360.280029296875 476.3299865722656 L 906.9600219726562 476.3299865722656 L 906.9600219726562 952.1799926757812 L 1360.280029296875 952.1799926757812 L 1360.280029296875 476.3299865722656 L 1360.280029296875 476.3299865722656 Z" class="cls-2" style="fill: rgb(255, 255, 255); stroke: rgb(255, 255, 255); stroke-miterlimit: 22.93; stroke-width: 0.57px; fill-rule: evenodd;"></path><path class="cls-3" d="M436.26,300.43c3.48.15-8.87,169.32-8.87,169.32L222,466.52s-20.56-175-20.49-172.28,234.71,6.19,234.71,6.19Z" transform="translate(-19 -14.6)" style="fill-rule: evenodd; fill: rgb(130, 77, 30);"></path><g class="cls-4" style="clip-path: url(&quot;#clip-path&quot;);"><path class="cls-5" d="M201.55,294.24s85.2,35.74,158,105.52S355.41,496,422.23,519.05s97.16-161.29,49.82-208.93-162-55.06-270.5-15.88Z" transform="translate(-19 -14.6)" style="stroke-miterlimit: 22.93; stroke-width: 0.57px; fill-rule: evenodd; fill: rgb(85, 50, 21); stroke: rgb(85, 50, 21);"></path></g><path class="cls-6" d="M194.13,302.49c0,2.59,241.53,10.73,242.24,6.4s-.94,19.18-.94,19.18L198.66,332.6l.42,10.32,234.7-.42.83,8.25L212.69,361.06l-.25,7.54,220.1.71-1.23,18.15-210-1.24-.23,15L431.31,399v10.32l-205.68,7.36-1,14.89s202-8,205.88-7.82-2.06,14.85-2.06,14.85l-203,6.85.44,11.71L428.83,451l.78,18.67L232.7,467.07,194.13,302.49Z" transform="translate(-19 -14.6)" style="fill-rule: evenodd; fill: rgb(180, 109, 34);"></path><g class="cls-7" style="clip-path: url(&quot;#clip-path-2&quot;);"><path class="cls-8" d="M201.55,294.24s85.2,35.74,158,105.52S355.41,496,422.23,519.05s97.16-161.29,49.82-208.93-162-55.06-270.5-15.88Z" transform="translate(-19 -14.6)" style="stroke-miterlimit: 22.93; stroke-width: 0.57px; fill-rule: evenodd; fill: rgb(130, 77, 30); stroke: rgb(130, 77, 30);"></path></g><path class="cls-6" d="M138.85,303.32c-2.81.6,79.82,3.29,79.82,3.29L236,467.48S166.7,463,170,463s-31.15-159.63-31.15-159.63Z" transform="translate(-19 -14.6)" style="fill-rule: evenodd; fill: rgb(180, 109, 34);"></path><g class="cls-9" style="clip-path: url(&quot;#clip-path-3&quot;);"><path class="cls-10" d="M144.27,298.53S180,320.19,204,377.15s3.4,88.44,3.4,88.44L170,463,136.79,291l7.48,7.58Z" transform="translate(-19 -14.6)" style="stroke-miterlimit: 22.93; stroke-width: 0.57px; fill-rule: evenodd; fill: rgb(247, 148, 29); stroke: rgb(247, 148, 29);"></path></g><path class="cls-11" d="M139.27,308.68l4.54,16.09,72.39,1.85L219.09,339l-74.25-5.16s3.43,13.94,2.06,14.23,74,4.13,74,4.13l.83,16.7-69.51-2.27,5,21.45,65-4.95,3.92,18.15-65.8-1,2.89,15.67,66.83.83.82,15.26-66-4.54s2.74,11.48,1.45,11.76,69.09,7.22,69.09,7.22l.62,21L170,463,139.27,308.68Z" transform="translate(-19 -14.6)" style="fill-rule: evenodd; fill: rgb(251, 181, 104);"></path><g class="cls-12" style="clip-path: url(&quot;#clip-path-4&quot;);"><path class="cls-13" d="M144.27,298.53S180,320.19,204,377.15s3.4,88.44,3.4,88.44L170,463,136.79,291l7.48,7.58Z" transform="translate(-19 -14.6)" style="stroke-miterlimit: 22.93; stroke-width: 0.57px; fill-rule: evenodd; fill: rgb(253, 198, 137); stroke: rgb(253, 198, 137);"></path></g><path d="M 115.94000244140625 284.17999267578125 L 151 448.3500061035156 L 157.60000610351562 448.3500061035156 L 125.01000213623047 289.5400085449219 L 191.00999450683594 290.7799987792969 L 213.6999969482422 452.4700012207031 L 220.3000030517578 453.29998779296875 L 199.6699981689453 292.010009765625 L 412.1000061035156 287.07000732421875 L 403.44000244140625 455.3599853515625 L 413.3399963378906 454.95001220703125 L 421.17999267578125 275.92999267578125 L 115.94000244140625 284.17999267578125 L 115.94000244140625 284.17999267578125 Z" class="cls-14" style="fill-rule: evenodd; fill: rgb(48, 24, 5);"></path><path class="cls-15" d="M284.37,170.5S389.14,225,421.31,242.27s60.43,54.86,65,61.46-4.12-1-4.12-1,2.26,5.77.41,5.36-4.33-3.71-4.33-3.71,2.06,6.19-1.45,3.3-7.22-5.57-7.22-5.57,4.75,8,2.48,8-4.95-4.95-4.95-4.95,2.27,6.4-.62,5.37-5.57-5.78-5.57-5.78,1.65,6-1.44,5.36-3.92-5.36-3.92-5.36-.41,7.84-2.89,6.6a11.6,11.6,0,0,1-4.12-4.33s.2,7.42-2.48,5.77a6.05,6.05,0,0,1-2.89-4.33s-1,4.95-3.3,3.92a8.43,8.43,0,0,1-3.5-3.5s-2.27,7.21-7.22,4.95-5.16-4.95-5.16-4.95-.41,5.56-3.91,4.95-5.16-4.54-5.16-4.54-.62,6.6-3.3,4.95a10.39,10.39,0,0,1-3.71-3.71s-.42,3.5-2.89,3.5a2.87,2.87,0,0,1-2.89-2.27s-2.68,5.37-4.95,3.3-2.27-2.47-2.27-2.47-.41,4.33-3.09,2.47-2.89-2.88-2.89-2.88-2.68,7.42-6,3.92-3.09-3.51-3.09-3.51.82,5.77-1.86,4.54a5.29,5.29,0,0,1-3.09-3.51s-1,6.4-3.51,3.71-2.88-4.74-2.68-3.5.21,5.77-1.85,5-3.3-4.33-3.3-4.33-1.24,5-3.1,4.12a10.6,10.6,0,0,1-3.5-3.3s0,5.57-3.72,3.1-3.91-3.72-3.91-3.72-1.65,4.95-3.51,3.92-3.71-4.12-3.71-4.12-2.06,4.12-4.54,3.71a4.62,4.62,0,0,1-3.3-1.86s-1.65,8.05-7.42,6-3.51-4.33-3.51-4.33-1.65,4.13-4.74,2.07l-3.1-2.07s-2.68,5.36-5.57,3.92-3.5-2.68-3.5-2.68-.21,4.54-3.51,2.89a9.69,9.69,0,0,1-4.33-3.71s-.82,5.15-3.92,4.74a14.42,14.42,0,0,1-6-2.68s-6.19,6.18-9.69,2.27S275.5,319,275.5,319s-1,4.33-4.74,2.68-3.71-2.06-3.71-2.06,1,3.92-2.27,2.89-3.3-2.89-3.3-2.89-2.68,3.92-4.33,1.86-1.45-2.68-1.45-2.68-2.88,4.53-6.18,1.85l-3.3-2.68s-4.34,4.85-7.22,4.13-1.24-4.33-1.24-4.33-1.44,4.74-3.61,4.43-3.2-3.09-3.2-3.09-3,3.91-5.36,2.57-2.06-3.09-2.06-3.09-3.51,3.61-4.95,3A7,7,0,0,1,216,319s-3.4,5.16-5.26,3.3a9.53,9.53,0,0,1-2.37-3.61s-2,6.09-5.88,3.61-3.92-3.61-3.92-3.61-2.78,4-6.18,3.1-1.24-4.64-1.24-4.64-3.51,3.61-6.81.93-3.19-3.1-3.19-3.1-4.23,6.91-6.3,4.75a4.72,4.72,0,0,1-.82-5s-3.61,6.29-7,4-2.07-5-2.07-5-4.33,5.36-6.7,3.2-2.37-4.13-2.37-4.13-3.72,3.92-5.06,2.37a5.73,5.73,0,0,1-1.33-3.4s-4.64,4.23-8.56,2-3.92-3.4-3.92-3.4-2.37,4.84-4.13,3.81-1.13-4.64-1.13-4.64-7.84,5.78-11.76,3.2-3-4.85-3-4.85-2.58,3.4-5.36,2.27a3.45,3.45,0,0,1-2.06-4s-3.82,4.74-5.47,3.09.1-5.05.1-5.05-1.23,4-4.84,2.58-1.14-5.67-1.14-5.67,15.68-20.63,64.76-56.93,98.58-69.71,121.38-73.73Z" transform="translate(-19 -14.6)" style="fill-rule: evenodd; fill: rgb(129, 70, 29);"></path><g class="cls-16" style="clip-path: url(&quot;#clip-path-5&quot;);"><path class="cls-17" d="M290.24,167.92S354,216.18,362,229.59s-22.27-15.88-34.24-26.81,8.26,12.37,30.53,33.41,12,21.24-13.82-6-16.91-15.47,2.68,8.45,19,34,.83,10.94-34.45-43.93-23.51-25.78,36.71,47.84,28.87,49.91-20.42-33.21-31.76-47,31.76,60.43,19,49.71-19.38-45.17-27-48.06,21,54.66,15.88,58.57S315,250.42,310,238.66s1.86,14.44,6.6,34.45,2.06,23.72-3.51,21.65-5.77-38.77-11.75-49.08,1.12,41.55-37.33,58.78,1.44-8.87,9.48-15.89,15.47-15.46,16.09-27.22-6.6,13.82-26.81,29.7-34,19.18-13.61,3.09,28.67-23.3,31.55-32.38S267.14,275.17,249,289.19s-30.32,24.75-37.33,23.31,17.12-11.35,35.47-28.46,19.8-23.1,3.31-10.32-38.21,36.31-53,39.6,14.44-12.58,26.81-23.71,8.53-16.38-6.6-.21-26.81,19.39-32.79,19.39,19.18-12.58,29.7-21.86,1.86-8.67-11.14,2.47-37.95,26-30.73,19,21.25-21.66,9.7-15.47a97.53,97.53,0,0,0-26.5,20c-7.74,8-16.2,18.36-33.31,15.68s-56.93-15.26-33-48.68S223.62,157,290.24,167.92Z" transform="translate(-19 -14.6)" style="fill-rule: evenodd; fill: rgb(179, 96, 34);"></path><path class="cls-18" d="M268.28,173s-15.37,13.51-9.49,13.4,23.1-17.84,20.11-10-12.79,18.87-5.16,13.51,14.33-19.28,14.75-11.76-6.19,23.31-.93,24.13,3.3-17.32,6.19-14,1,22.38-17.53,34.54-9.49,7.33-1,2.69,12.16-6.19,20-14.23,1.65,12.68-34,30.21-18.15,6.39-8.45-.62-5.57-1-29.08,16.71-22.9,15.26-5.37.62,38.57-29.7,21.87-21.45-41.67,36.3-66.62,50.73,9.69-11.55,32-28.67,31.14-28.87,10.31-14.43S171,282.9,151.44,292.19s10.73-11.35,37.74-32,25.58-28.05,7.43-14.85-43.72,42.9-61.67,48.67,10.11-13.61,41.87-38.15,19-24.13-5.57-2.89-38,33.62-47,36.51,38.15-38.78,63.31-54.66-6.6-2.27-27.84,16.71-16.91,6.39,8.66-16.3,80.44-67,99.93-62.28Z" transform="translate(-19 -14.6)" style="fill-rule: evenodd; fill: rgb(245, 130, 32);"></path><path class="cls-19" d="M377.48,225s24.34,48.68,14.64,56.72-7.83-35.06-14.43-39.6,4.12,22.48,4.53,42.07-7.21,3.51-9.28-9.9-5.15-12.16-3.3,6.81-.62,27-8,18.77-8.25-25.16-20.42-9.28S296.43,338,272.91,335.09s2.89,14.85,93.23,21S537.73,358.6,499,291,364.9,175.87,377.48,225Z" transform="translate(-19 -14.6)" style="fill-rule: evenodd; fill: rgb(85, 45, 20);"></path></g><path d="M 382.80999755859375 341.92999267578125 L 306.0899963378906 336.9800109863281 L 321.55999755859375 453.8900146484375 L 379.30999755859375 454.69000244140625 L 382.80999755859375 341.92999267578125 L 382.80999755859375 341.92999267578125 Z" class="cls-20" style="fill-rule: evenodd; fill: rgb(7, 0, 0);"></path><path d="M 316.20001220703125 453.70001220703125 L 302.5799865722656 333.2699890136719 L 386.3399963378906 337.510009765625 L 382.20001220703125 454.739990234375 L 376.4200134277344 454.6499938964844 L 378.8900146484375 345.239990234375 L 311.5799865722656 340.989990234375 L 324.4200134277344 453.8299865722656 L 316.20001220703125 453.70001220703125 L 316.20001220703125 453.70001220703125 Z" class="cls-14" style="fill-rule: evenodd; fill: rgb(48, 24, 5);"></path><path d="M 156.0500030517578 440.7799987792969 L 122.73999786376953 453.30999755859375 L 211.00999450683594 468.57000732421875 L 434.5799865722656 456.6099853515625 L 413.6600036621094 447.57000732421875 L 213.63999938964844 452.0899963378906 L 156.0500030517578 440.7799987792969 L 156.0500030517578 440.7799987792969 Z" class="cls-14" style="fill-rule: evenodd; fill: rgb(48, 24, 5);"></path><path class="cls-21" d="M267.47,185.32s-25.34,11.54-86.85,53-62.54,61.15-38,43.31,155-99.59,124.84-96.34Z" transform="translate(-19 -14.6)" style="fill: rgb(255, 255, 255); fill-rule: evenodd;"></path><path class="cls-21" d="M156.49,325.09s17.61,120.67,26,127-17.52-138.28-26-127Z" transform="translate(-19 -14.6)" style="fill: rgb(255, 255, 255); fill-rule: evenodd;"></path><path class="cls-21" d="M225.2,473.08s-50-13.66-57.67-11,17.6,7.3,57.67,11Z" transform="translate(-19 -14.6)" style="fill: rgb(255, 255, 255); fill-rule: evenodd;"></path><path class="cls-6" d="M581.78,301.82c2.05,3.12,16.67,154.25,16.67,154.25l253.38-3.24-5.31-139-264.74-12Z" transform="translate(-19 -14.6)" style="fill-rule: evenodd; fill: rgb(180, 109, 34);"></path><g class="cls-22" style="clip-path: url(&quot;#clip-path-6&quot;);"><path class="cls-10" d="M618,290.18s28.12,32,83.25,58,83.84,107.93,83.84,107.93H598.45L584.79,319.44,618,290.18Z" transform="translate(-19 -14.6)" style="stroke-miterlimit: 22.93; stroke-width: 0.57px; fill-rule: evenodd; fill: rgb(247, 148, 29); stroke: rgb(247, 148, 29);"></path></g><path class="cls-3" d="M846.73,332.86s-255.53,11.66-259.39,12,2.31,9.73,2.31,9.73l257.54-2.78.93,17.6-251.85-1.1,1.06,11.6,254.5,5.71-3.25,16.22L592.89,391.22l2.32,13.9,253.84,9.26,4.63,19s-255.94-13.77-259.4-13.43,2.32,10.65,2.32,10.65l256.15,12.05-.92,10.19s-249.31,2.84-253.38,3.24-15-148.49-13.89-143.59,250-20.66,250-20.66l12.15,41Z" transform="translate(-19 -14.6)" style="fill-rule: evenodd; fill: rgb(130, 77, 30);"></path><g class="cls-23" style="clip-path: url(&quot;#clip-path-7&quot;);"><path class="cls-24" d="M618,290.18s28.12,32,83.25,58,83.84,107.93,83.84,107.93H598.45L584.79,319.44,618,290.18Z" transform="translate(-19 -14.6)" style="stroke-miterlimit: 22.93; stroke-width: 0.57px; fill-rule: evenodd; fill: rgb(180, 109, 34); stroke: rgb(180, 109, 34);"></path></g><path class="cls-14" d="M580.85,318.5l14.36,146.37,10.65,1.39s-15.37-147.61-12.51-145.45,207.06-27.33,207.06-27.33L841.78,303,844,464.41l12,1.85,1.5-154.86s-126.76-28.33-276.64,7.1Z" transform="translate(-19 -14.6)" style="fill-rule: evenodd; fill: rgb(48, 24, 5);"></path><path class="cls-14" d="M632.26,454.68l-8.33-101.44,73.65,1.85-2.32,98.66-9.26-.92,3.24-88.94L633.65,362l8.8,91.25s-10.23.84-10.19,1.39Z" transform="translate(-19 -14.6)" style="fill-rule: evenodd; fill: rgb(48, 24, 5);"></path><path d="M 733.7000122070312 327.989990234375 L 732.77001953125 398.3900146484375 L 804.1099853515625 401.1700134277344 L 805.489990234375 329.3800048828125 L 733.7000122070312 327.989990234375 L 733.7000122070312 327.989990234375 Z" class="cls-14" style="fill-rule: evenodd; fill: rgb(48, 24, 5);"></path><path class="cls-25" d="M575.38,311.43s-14,28.64-.34,28.1,25.64-29.66,34.87-4.16,23.93-33.31,38.63-10.41,19.83-4.16,33.85.52,13.9,6.21,24.05-6,14.24,13.29,23.82,19.53,14.13-34.32,26-22.88,13.18,11.54,17.38-4.18,12.65,5.73,21.88,16.13-1.71-18.73,12.65-15.09,27.89,20.1,31.79,9,10.6-.66,21.54,3.5,24.29-9.42,4.45-23.93-229.41-45.28-290.61,9.88Z" transform="translate(-19 -14.6)" style="fill-rule: evenodd; fill: rgb(49, 21, 5);"></path><path class="cls-25" d="M722.77,211S552,309.72,528.81,332.11s40.15,0,69.42-21.24S572.37,347.61,588.7,339s49.67-45.92,51-21.24,1.36,44.2,22.46,2.87,5.44-3.44,10.89,15.5S684,335,689.42,311.45s10.21-20.09,17,8,8.84,32.72,11.56,8,4.77-41.9,17.7-8,19,20.09,14.29,4.59-6.8-46.49,17.69-9.18,30.63,25.26,17.7,3.44-10.21-37.88,12.93-5.74,33.35,27,18.37,5.74-10.2-29.85,18.38-1.14,21.09,6.31,8.85-6.32-.69-12.05,31.3,13.78,42.2,10.9-9.53-31S740.46,224.2,722.77,211Z" transform="translate(-19 -14.6)" style="fill-rule: evenodd; fill: rgb(49, 21, 5);"></path><path class="cls-19" d="M710.44,189.14s-133,85.23-151,104.56,31.25,0,54-18.33-20.13,31.71-7.41,24.28,38.66-39.65,39.72-18.34,1.06,38.16,17.49,2.48,4.23-3,8.47,13.38,8.48-1,12.71-21.31,7.95-17.34,13.25,6.94,6.89,28.24,9,6.94,3.71-36.18,13.78-6.94,14.83,17.34,11.12,4-5.29-40.14,13.78-7.93,23.83,21.81,13.77,3-7.95-32.71,10.06-5,26,23.29,14.31,5-7.95-25.77,14.3-1,16.42,5.45,6.88-5.45S804.2,265,829.1,287.26s32.85,9.41-7.42-26.76-97.47-60-111.24-71.36Z" transform="translate(-19 -14.6)" style="fill-rule: evenodd; fill: rgb(85, 45, 20);"></path><path class="cls-15" d="M702.68,177.41s-99,71.74-112.44,88,23.28,0,40.24-15.43-15,26.69-5.52,20.43,28.8-33.36,29.59-15.43.79,32.12,13,2.09,3.15-2.5,6.31,11.26,6.31-.84,9.47-17.94,5.92-14.59,9.86,5.84,5.13,23.78,6.71,5.84,2.76-30.44,10.26-5.84,11,14.6,8.28,3.34-3.94-33.79,10.26-6.67,17.75,18.35,10.26,2.5-5.92-27.53,7.49-4.17,19.34,19.6,10.66,4.17-5.92-21.69,10.65-.84,12.22,4.59,5.13-4.58-.4-8.76,18.14,10,24.46,7.92-5.52-22.53S712.94,187,702.68,177.41Z" transform="translate(-19 -14.6)" style="fill-rule: evenodd; fill: rgb(129, 70, 29);"></path><path class="cls-17" d="M699.48,162.18s-69,58.24-78.35,71.45,16.22,0,28-12.53-10.45,21.67-3.85,16.59,20.07-27.09,20.62-12.53.55,26.08,9.07,1.7,2.2-2,4.4,9.14,4.4-.68,6.6-14.56,4.12-11.85,6.87,4.74,3.58,19.3,4.68,4.74,1.92-24.72,7.15-4.74,7.69,11.85,5.77,2.71-2.75-27.43,7.15-5.42,12.37,14.9,7.15,2-4.13-22.35,5.22-3.38,13.47,15.91,7.42,3.38-4.12-17.61,7.43-.67,8.52,3.72,3.57-3.73-.28-7.11,12.65,8.13,17,6.43-3.85-18.29-50.59-41-57.74-48.76Z" transform="translate(-19 -14.6)" style="fill-rule: evenodd; fill: rgb(179, 96, 34);"></path><path class="cls-18" d="M700.85,148.55s-42.91,44.75-48.72,54.9,10.09,0,17.44-9.63-6.5,16.66-2.4,12.75S679.65,185.76,680,197s.35,20,5.65,1.3,1.36-1.56,2.73,7,2.74-.52,4.1-11.18,2.57-9.11,4.28,3.64,2.22,14.83,2.9,3.64,1.2-19,4.45-3.64,4.78,9.1,3.59,2.08-1.71-21.08,4.44-4.16,7.69,11.45,4.45,1.56S714,180,719.82,194.6s8.38,12.23,4.62,2.61-2.56-13.53,4.62-.52,5.3,2.86,2.22-2.87-.17-5.46,7.86,6.25,10.6,4.94-2.39-14-31.46-31.49-35.9-37.47Z" transform="translate(-19 -14.6)" style="fill-rule: evenodd; fill: rgb(245, 130, 32);"></path><path d="M 741.1099853515625 336.7900085449219 L 740.6500244140625 392.8299865722656 L 793.9099731445312 393.29998779296875 L 794.3800048828125 338.6400146484375 L 741.1099853515625 336.7900085449219 L 741.1099853515625 336.7900085449219 Z" class="cls-20" style="fill-rule: evenodd; fill: rgb(7, 0, 0);"></path><path class="cls-20" d="M693.41,361.11c4,.1-64.39-1.85-64.39-2.31s9.62,94.84,9.62,94.84l52-.35s3-92.17,2.78-92.18Z" transform="translate(-19 -14.6)" style="fill-rule: evenodd; fill: rgb(7, 0, 0);"></path><path d="M 577.1500244140625 432.1300048828125 L 553.0499877929688 453.04998779296875 L 848.1099853515625 455.8299865722656 L 833.2899780273438 433.1300048828125 L 577.1500244140625 432.1300048828125 L 577.1500244140625 432.1300048828125 Z" class="cls-14" style="fill-rule: evenodd; fill: rgb(48, 24, 5);"></path><path class="cls-21" d="M692.34,182s-100.71,105.2-104,109.11,9.72,9.26,45.27-28.39,75.61-83,58.7-80.72Z" transform="translate(-19 -14.6)" style="fill: rgb(255, 255, 255); fill-rule: evenodd;"></path><path class="cls-21" d="M600.39,346.16c-.09-1.92,2.78,93.8,11.81,96.58s-3.42-118.47-11.81-96.58Z" transform="translate(-19 -14.6)" style="fill: rgb(255, 255, 255); fill-rule: evenodd;"></path><path class="cls-21" d="M703,454.59S600.43,450,597.48,454s13.57,2.46,57.11,4.77,56.28.47,48.41-4.13Z" transform="translate(-19 -14.6)" style="fill: rgb(255, 255, 255); fill-rule: evenodd;"></path><path d="M 1224.5400390625 336.7699890136719 L 1219.5400390625 443.8399963378906 L 1028.260009765625 447.9100036621094 L 996.8900146484375 334.8399963378906 L 1224.5400390625 336.7699890136719 L 1224.5400390625 336.7699890136719 Z" class="cls-6" style="fill-rule: evenodd; fill: rgb(180, 109, 34);"></path><g class="cls-26" style="clip-path: url(&quot;#clip-path-8&quot;);"><path class="cls-10" d="M1041.06,335.89c.07,3.18,50,38.2,107.26,62.34s67.38,60.53,67.38,60.53l-171.93,2.39-24.39-111.68,21.68-13.58Z" transform="translate(-19 -14.6)" style="stroke-miterlimit: 22.93; stroke-width: 0.57px; fill-rule: evenodd; fill: rgb(247, 148, 29); stroke: rgb(247, 148, 29);"></path></g><path class="cls-3" d="M1019.76,354.47l4.65,24.4s215.62-6.8,219.16-6.59-.77,11.23-.77,11.23L1028.67,387l2.71,10.84,210.26-5-.39,8.13-208.71,6.58,2.32,10.45,205.23-8.51s-4.09,11.37,0,11.61-206,6.8-202.9,6.2-1.31,11.47,1.93,10.84,197.28-7.05,197.28-7.05l2.91,7.44-197.48,13.16,1.94,9.49,194.77-2.71,5.42-116-224.2,12Z" transform="translate(-19 -14.6)" style="fill-rule: evenodd; fill: rgb(130, 77, 30);"></path><g class="cls-27" style="clip-path: url(&quot;#clip-path-9&quot;);"><path class="cls-24" d="M1041.06,335.89c.07,3.18,50,38.2,107.26,62.34s67.38,60.53,67.38,60.53l-171.93,2.39-24.39-111.68,21.68-13.58Z" transform="translate(-19 -14.6)" style="stroke-miterlimit: 22.93; stroke-width: 0.57px; fill-rule: evenodd; fill: rgb(180, 109, 34); stroke: rgb(180, 109, 34);"></path></g><path d="M 1149.010009765625 453.8599853515625 L 1152.93994140625 375.1099853515625 L 1087.1099853515625 375.5 L 1099.1199951171875 459.1300048828125 L 1149.010009765625 453.8599853515625 L 1149.010009765625 453.8599853515625 Z" class="cls-20" style="fill-rule: evenodd; fill: rgb(7, 0, 0);"></path><path d="M 989.1500244140625 325.1600036621094 L 1021.2899780273438 445.19000244140625 L 1028.260009765625 447.9100036621094 L 1005.02001953125 329.0299987792969 L 1221.8599853515625 321.2900085449219 L 1216.050048828125 445.19000244140625 L 1223.02001953125 442.4800109863281 L 1230.3800048828125 320.1300048828125 L 989.1500244140625 325.1600036621094 L 989.1500244140625 325.1600036621094 Z" class="cls-14" style="fill-rule: evenodd; fill: rgb(48, 24, 5);"></path><path class="cls-14" d="M1113.85,463.28c-.54-2.35-10.45-77.83-10.45-77.83l73.57-1.94s-6.47,78.13-8.13,81.32-5,1.55-5,1.55l4.2-72.8-56.14,1.94,6,64.48-4.1,3.28Z" transform="translate(-19 -14.6)" style="fill-rule: evenodd; fill: rgb(48, 24, 5);"></path><path class="cls-15" d="M1303.42,350c4.46,9.3-3.6-1.56-3.6-1.56s2,8.72.36,8.09-3.78-5.6-3.78-5.6,1.8,9.34-1.26,5-6.3-8.4-6.3-8.4,4.14,12.13,2.16,12.13-4.32-7.46-4.32-7.46,2,9.64-.54,8.09-4.86-8.71-4.86-8.71,1.44,9-1.26,8.08-3.42-8.08-3.42-8.08-.36,11.82-2.52,10-3.6-6.53-3.6-6.53.18,11.2-2.16,8.71-2.52-6.53-2.52-6.53-.9,7.46-2.88,5.91-3.06-5.29-3.06-5.29-2,10.89-6.3,7.47-4.5-7.47-4.5-7.47-.36,8.4-3.42,7.47-4.5-6.85-4.5-6.85-.54,10-2.88,7.47a15.45,15.45,0,0,1-3.24-5.6s-.36,5.29-2.52,5.29-2.52-3.42-2.52-3.42-2.34,8.09-4.32,5-2-3.73-2-3.73-.36,6.53-2.7,3.73-2.52-4.35-2.52-4.35-2.34,11.2-5.22,5.91-2.7-5.29-2.7-5.29.72,8.71-1.62,6.85a8.69,8.69,0,0,1-2.7-5.29s-.9,9.64-3.06,5.6-2.52-7.16-2.34-5.29.18,8.71-1.62,7.46-2.88-6.53-2.88-6.53-1.08,7.47-2.7,6.22-3.06-5-3.06-5,0,8.4-3.24,4.66-3.42-5.6-3.42-5.6-1.44,7.47-3.06,5.91-3.24-6.22-3.24-6.22-1.8,6.22-4,5.6a4.63,4.63,0,0,1-2.88-2.8s-1.44,12.13-6.48,9-3.06-6.53-3.06-6.53-1.44,6.22-4.14,3.11l-2.7-3.11s-2.34,8.09-4.86,5.91a9.69,9.69,0,0,1-3.06-4s-.18,6.84-3.07,4.35a13.05,13.05,0,0,1-3.77-5.6s-.72,7.78-3.42,7.16-5.22-4-5.22-4-5.41,9.34-8.47,3.42-3.06-5.6-3.06-5.6-.9,6.54-4.14,4.05-3.24-3.11-3.24-3.11.9,5.91-2,4.36a5.29,5.29,0,0,1-2.88-4.36s-2.34,5.91-3.78,2.8-1.26-4.05-1.26-4.05-2.52,6.85-5.4,2.8l-2.88-4s-3.78,7.31-6.3,6.22-1.08-6.53-1.08-6.53-1.26,7.16-3.15,6.69-2.79-4.67-2.79-4.67-2.61,5.91-4.68,3.89a6.16,6.16,0,0,1-1.8-4.67s-3.06,5.45-4.32,4.51-2.25-3.89-2.25-3.89-3,7.78-4.59,5a18.24,18.24,0,0,1-2.07-5.44s-1.71,9.18-5.13,5.44-3.42-5.44-3.42-5.44-2.43,6.06-5.4,4.67-1.08-7-1.08-7-3.06,5.44-5.94,1.4-2.79-4.67-2.79-4.67-3.69,10.42-5.49,7.16-.72-7.47-.72-7.47-3.15,9.49-6.12,6.06a8.49,8.49,0,0,1-1.8-7.46s-3.79,8.09-5.85,4.82a12.74,12.74,0,0,1-2.08-6.22s-3.24,5.91-4.41,3.58a13.21,13.21,0,0,1-1.16-5.14s-4.05,6.38-7.47,3-3.43-5.13-3.43-5.13-2.07,7.31-3.6,5.75-1-7-1-7-6.84,8.72-10.26,4.83-2.61-7.31-2.61-7.31-2.25,5.13-4.68,3.42-1.8-6.07-1.8-6.07-3.33,7.16-4.77,4.67.09-7.62.09-7.62-1.07,6.06-4.23,3.88-1-8.55-1-8.55,17.34-23.47,56.52-85.86c84.19-134,180.08-123,282.17,89.74Z" transform="translate(-19 -14.6)" style="fill-rule: evenodd; fill: rgb(129, 70, 29);"></path><g class="cls-28" style="clip-path: url(&quot;#clip-path-10&quot;);"><path class="cls-17" d="M1132.32,145.18s55.62,72.8,62.64,93-19.44-24-29.88-40.44,7.2,18.66,26.64,50.39,10.44,32-12.06-9-14.76-23.33,2.34,12.76,16.56,51.33.72,16.48-30.06-66.26-20.52-38.88,32,72.17,25.2,75.28-17.82-50.08-27.72-70.93,27.72,91.16,16.56,75-16.92-68.13-23.58-72.49,18.36,82.44,13.86,88.35-12.6-55.06-16.92-72.8,1.62,21.78,5.76,52,1.8,35.78-3.06,32.66-5-58.48-10.26-74,1,62.69-32.58,88.67,1.26-13.38,8.28-24,13.5-23.33,14-41.06S1126,307,1108.37,330.9s-29.7,28.94-11.88,4.67,25-35.15,27.55-48.84-11.88,20.22-27.73,41.37-26.46,37.34-32.58,35.16,14.94-17.11,31-42.93,17.29-34.85,2.89-15.56-33.35,54.76-46.27,59.73,12.6-19,23.4-35.77,7.45-24.7-5.76-.31-23.4,29.24-28.62,29.24,16.74-19,25.92-33,1.62-13.06-9.72,3.74-33.12,39.2-26.82,28.62,18.54-32.67,8.46-23.33-16.37,18-23.13,30.17-14.13,27.69-29.07,23.65-49.68-23-28.8-73.42,117-185.42,175.15-168.93Z" transform="translate(-19 -14.6)" style="fill-rule: evenodd; fill: rgb(179, 96, 34);"></path><path class="cls-18" d="M1113.15,152.8s-13.42,20.38-8.28,20.22,20.16-26.91,17.55-15.08-11.16,28.46-4.5,20.37,12.51-29.09,12.87-17.73-5.4,35.15-.81,36.4,2.88-26.14,5.4-21.16.9,33.76-15.3,52.11-8.28,11-.9,4,10.62-9.33,17.46-21.47,1.44,19.13-29.7,45.58-15.84,9.64-7.38-.93-4.86-1.56-25.38,25.19-20,23-4.68.94,33.66-44.8,19.08-32.36-36.37,54.76-58.15,76.53,8.47-17.42,27.91-43.24,27.18-43.55,9-21.78-39.06,58.18-56.17,72.18,9.36-17.11,32.94-48.22,22.33-42.31,6.48-22.4-38.16,64.71-53.82,73.42,8.82-20.54,36.54-57.56,16.57-36.39-4.86-4.35-33.12,50.71-41,55.07,33.3-58.49,55.26-82.45-5.76-3.42-24.3,25.2-14.76,9.65,7.56-24.57,70.21-101.11,87.22-94Z" transform="translate(-19 -14.6)" style="fill-rule: evenodd; fill: rgb(245, 130, 32);"></path><path class="cls-19" d="M1208.46,231.2s21.24,73.42,12.78,85.56-6.84-52.89-12.6-59.74,3.6,33.91,4,63.47-6.3,5.29-8.1-14.93-4.5-18.36-2.88,10.26-.54,40.76-7,28.31-7.2-37.95-17.82-14-39.06,71.55-59.58,67.2,2.52,22.4,81.36,31.73,149.77,3.74,115.93-98.3-117-173.6-106-99.56Z" transform="translate(-19 -14.6)" style="fill-rule: evenodd; fill: rgb(85, 45, 20);"></path></g><path d="M 1025.8699951171875 439.29998779296875 L 1006.5700073242188 451.7799987792969 L 1005.02001953125 458.75 L 1234.25 454.8800048828125 L 1233.8599853515625 447.9100036621094 L 1223.02001953125 442.4800109863281 L 1025.8699951171875 439.29998779296875 L 1025.8699951171875 439.29998779296875 Z" class="cls-29" style="stroke-miterlimit: 22.93; stroke-width: 0.57px; fill-rule: evenodd; fill: rgb(48, 24, 5); stroke: rgb(48, 24, 5);"></path><path class="cls-21" d="M1115.7,187.29s-19-1.86-63,52.8-65.31,92.18-56.51,101,23.85-41.92,48.86-75.27,76.9-70.41,70.64-78.51Z" transform="translate(-19 -14.6)" style="fill: rgb(255, 255, 255); fill-rule: evenodd;"></path><path class="cls-21" d="M1039.73,380.21c0-1.82,4.87,64.62,14.13,68.56s-8.62-74.74-14.13-68.56Z" transform="translate(-19 -14.6)" style="fill: rgb(255, 255, 255); fill-rule: evenodd;"></path><path class="cls-21" d="M1089.77,461.6s-48-1-54.2,3.38,71.79,1.16,54.2-3.38Z" transform="translate(-19 -14.6)" style="fill: rgb(255, 255, 255); fill-rule: evenodd;"></path><path d="M 1039.030029296875 671.6599731445312 L 1070.1800537109375 794.27001953125 L 1226.2900390625 796.989990234375 L 1230.6400146484375 676.72998046875 L 1039.030029296875 671.6599731445312 L 1039.030029296875 671.6599731445312 Z" class="cls-30" style="fill-rule: evenodd; fill: rgb(85, 50, 21);"></path><g class="cls-31" style="clip-path: url(&quot;#clip-path-11&quot;);"><path class="cls-29" d="M1228.63,684.81s-19.88,51.76-65.18,80.22-39.16,44.45-39.16,44.45l121.09-.4,4.26-117.75-21-6.52Z" transform="translate(-19 -14.6)" style="stroke-miterlimit: 22.93; stroke-width: 0.57px; fill-rule: evenodd; fill: rgb(48, 24, 5); stroke: rgb(48, 24, 5);"></path></g><path class="cls-6" d="M1077.06,702.35l12.12,106.52-51.07-6.16s-24.61-111.54-21.74-112.1,60.69,11.74,60.69,11.74Z" transform="translate(-19 -14.6)" style="fill-rule: evenodd; fill: rgb(180, 109, 34);"></path><g class="cls-32" style="clip-path: url(&quot;#clip-path-12&quot;);"><path class="cls-10" d="M1024.34,693.87c.37-2.09,15.61,62,40.23,88.49s26.79,26.55,26.79,26.55l-51.81-2.75-23.39-113.77,8.18,1.48Z" transform="translate(-19 -14.6)" style="stroke-miterlimit: 22.93; stroke-width: 0.57px; fill-rule: evenodd; fill: rgb(247, 148, 29); stroke: rgb(247, 148, 29);"></path></g><path class="cls-3" d="M1017.1,703.47c-2.05.42,5.25,17,5.25,17l54.51,4.35,1.09,5.43s-54.51-4.35-54.69-3.26.9,9.06.9,9.06l56.33.54-.18,4.35h-55.06l2.35,7.06s53.56-.85,55.06-1.09,0,4.71,0,4.71l-54.7,2,.91,4.89,53.06-.72-.36,4.89-50,.72-.91,7.43,53.43-2.54,3.08,7.61-53.61,1.45-.18,4.35,52,1.08,1.63,4.89h-51.44l.91,4.89,51.79,2.72v3.08l-51.43-1.09,1.27,5.43,51.07,6.16,1.08-8.69,151.77-2,.36-7.25s-155.22.32-153.22,0-7-5.06-3-5.7,158.38-4.8,158.38-4.8,2.64-7.05-.37-7.25-157,2.72-157,2.72l-3.08-7.61,162.27-6.7-.36-6.88-164.27,5.52.18-2.44-3-6s165.75-5.24,169.21-5-.73-10.86-.73-10.86L1080.31,741,1078,730.27,1248.19,725l.72-9.42-172.05,9.24,1.26-15.9s-56.69-7.69-61-5.47Z" transform="translate(-19 -14.6)" style="fill-rule: evenodd; fill: rgb(130, 77, 30);"></path><g class="cls-33" style="clip-path: url(&quot;#clip-path-13&quot;);"><path class="cls-5" d="M1228.63,684.81s-19.88,51.76-65.18,80.22-39.16,44.45-39.16,44.45l121.09-.4,4.26-117.75-21-6.52Z" transform="translate(-19 -14.6)" style="stroke-miterlimit: 22.93; stroke-width: 0.57px; fill-rule: evenodd; fill: rgb(85, 50, 21); stroke: rgb(85, 50, 21);"></path><path class="cls-24" d="M1024.34,693.87c.37-2.09,15.61,62,40.23,88.49s26.79,26.55,26.79,26.55l-51.81-2.75-23.39-113.77,8.18,1.48Z" transform="translate(-19 -14.6)" style="stroke-miterlimit: 22.93; stroke-width: 0.57px; fill-rule: evenodd; fill: rgb(180, 109, 34); stroke: rgb(180, 109, 34);"></path></g><path class="cls-14" d="M1010.58,682.46l25,119.89-22.82,6.88v5.36l255,3.34-1.08-10.51-18.48-8.33s8-114.1,6.16-113.37-7.61.72-7.61.72l-7.6,118.81-13,1.45,1.45-84-58.32,2.9,3.62,76.43-79.32,3.26-17.39-108.67-5.07,1.45,15.57,105.77L1041,801.26l-23.18-118.44-7.24-.36Z" transform="translate(-19 -14.6)" style="fill-rule: evenodd; fill: rgb(48, 24, 5);"></path><path d="M 1079.9599609375 715.6699829101562 L 1082.8599853515625 754.0700073242188 L 1139 754.4299926757812 L 1137.18994140625 713.1300048828125 L 1079.9599609375 715.6699829101562 L 1079.9599609375 715.6699829101562 Z" class="cls-14" style="fill-rule: evenodd; fill: rgb(48, 24, 5);"></path><path class="cls-15" d="M1286.25,695.87c4.18,8.7-3.37-1.45-3.37-1.45s1.86,8.15.34,7.57-3.54-5.24-3.54-5.24,1.69,8.73-1.18,4.65-5.89-7.85-5.89-7.85,3.87,11.35,2,11.35-4-7-4-7,1.85,9-.5,7.57-4.55-8.15-4.55-8.15,1.34,8.44-1.18,7.57-3.2-7.57-3.2-7.57-.34,11.06-2.36,9.31-3.37-6.11-3.37-6.11.17,10.48-2,8.15-2.36-6.11-2.36-6.11-.84,7-2.7,5.53-2.86-5-2.86-5-1.85,10.19-5.89,7-4.21-7-4.21-7-.34,7.86-3.2,7-4.21-6.4-4.21-6.4-.51,9.31-2.7,7a14.61,14.61,0,0,1-3-5.24s-.33,4.95-2.35,4.95-2.36-3.21-2.36-3.21-2.19,7.57-4,4.66-1.86-3.49-1.86-3.49-.33,6.11-2.52,3.49-2.36-4.07-2.36-4.07-2.19,10.47-4.88,5.53-2.53-5-2.53-5,.68,8.15-1.51,6.4a8.12,8.12,0,0,1-2.53-4.95s-.84,9-2.86,5.24-2.36-6.69-2.19-4.94.17,8.15-1.52,7-2.69-6.11-2.69-6.11-1,7-2.52,5.82-2.87-4.66-2.87-4.66,0,7.86-3,4.37-3.2-5.24-3.2-5.24-1.35,7-2.86,5.53-3-5.82-3-5.82-1.69,5.82-3.71,5.24a4.32,4.32,0,0,1-2.69-2.62s-1.35,11.35-6.06,8.44-2.87-6.11-2.87-6.11-1.34,5.82-3.87,2.91l-2.52-2.91s-2.19,7.56-4.55,5.53a9,9,0,0,1-2.86-3.79s-.17,6.41-2.87,4.08a12.18,12.18,0,0,1-3.53-5.24s-.67,7.28-3.2,6.69-4.88-3.78-4.88-3.78-5.06,8.73-7.92,3.2-2.86-5.24-2.86-5.24-.84,6.11-3.87,3.78-3-2.9-3-2.9.84,5.53-1.86,4.07a4.94,4.94,0,0,1-2.69-4.07s-2.19,5.53-3.54,2.61-1.18-3.78-1.18-3.78-2.35,6.4-5,2.62l-2.69-3.78s-3.54,6.84-5.9,5.82-1-6.11-1-6.11-1.17,6.69-2.94,6.25-2.61-4.36-2.61-4.36-2.45,5.53-4.38,3.63a5.75,5.75,0,0,1-1.69-4.36s-2.86,5.09-4,4.22-2.1-3.64-2.1-3.64-2.78,7.28-4.3,4.66a17.12,17.12,0,0,1-1.93-5.09s-1.6,8.58-4.8,5.09-3.2-5.09-3.2-5.09-2.28,5.67-5,4.36-1-6.55-1-6.55-2.87,5.1-5.56,1.31-2.61-4.36-2.61-4.36-3.45,9.75-5.14,6.69-.67-7-.67-7-3,8.87-5.73,5.67a7.93,7.93,0,0,1-1.68-7s-3.54,7.56-5.47,4.51a12,12,0,0,1-1.94-5.82s-3,5.53-4.13,3.34a12.25,12.25,0,0,1-1.09-4.8s-3.79,6-7,2.77-3.2-4.8-3.2-4.8-1.93,6.84-3.37,5.38-.92-6.55-.92-6.55-6.4,8.15-9.6,4.51-2.44-6.83-2.44-6.83-2.11,4.8-4.38,3.2-1.68-5.68-1.68-5.68-3.12,6.7-4.47,4.37.09-7.13.09-7.13-1,5.67-4,3.64-.93-8-.93-8,30.56-6.79,59.4-77.06c45.73-111.44,146.84-122.78,192.63-7.68,12.82,32.22,46.72,50.71,64.8,88.37Z" transform="translate(-19 -14.6)" style="fill-rule: evenodd; fill: rgb(129, 70, 29);"></path><g class="cls-34" style="clip-path: url(&quot;#clip-path-14&quot;);"><path class="cls-17" d="M1126.19,504.24s52,68.1,58.6,87-18.18-22.41-28-37.83,6.73,17.46,24.92,47.14,9.77,30-11.28-8.44-13.81-21.82,2.19,11.94,15.49,48,.67,15.42-28.12-62-19.2-36.38,30,67.52,23.58,70.43-16.67-46.86-25.93-66.35,25.93,85.26,15.49,70.13-15.83-63.73-22.06-67.81,17.18,77.12,13,82.65-11.79-51.51-15.83-68.1,1.51,20.38,5.39,48.6,1.68,33.47-2.87,30.56-4.71-54.71-9.6-69.26.92,58.64-30.47,82.94,1.17-12.52,7.74-22.41,12.63-21.83,13.14-38.41-5.39,19.49-21.89,41.9-27.79,27.07-11.12,4.37,23.41-32.89,25.77-45.69-11.12,18.91-25.94,38.7-24.75,34.92-30.47,32.89,14-16,29-40.16,16.16-32.6,2.69-14.55-31.19,51.22-43.27,55.87,11.78-17.75,21.89-33.47,7-23.1-5.39-.29S1045,703,1040.15,703s15.65-17.75,24.24-30.85,1.52-12.22-9.09,3.5-31,36.66-25.09,26.77,17.35-30.56,7.92-21.83-15.32,16.87-21.64,28.23-13.22,25.9-27.2,22.12-46.47-21.54-26.94-68.68,109.45-173.45,163.84-158Z" transform="translate(-19 -14.6)" style="fill-rule: evenodd; fill: rgb(179, 96, 34);"></path><path class="cls-18" d="M1108.26,511.38s-12.55,19.06-7.75,18.91,18.86-25.17,16.42-14.11-10.44,26.63-4.21,19.06,11.7-27.21,12-16.59-5,32.89-.76,34.05,2.7-24.45,5.06-19.79.84,31.58-14.32,48.75-7.74,10.33-.84,3.78,9.94-8.73,16.33-20.08,1.35,17.9-27.78,42.63-14.82,9-6.9-.87-4.55-1.45-23.75,23.57-18.69,21.54-4.37.88,31.49-41.91,17.85-30.27-34,51.22-54.39,71.59,7.91-16.29,26.1-40.45,25.42-40.74,8.41-20.37-36.54,54.42-52.53,67.52,8.75-16,30.81-45.11,20.88-39.58,6.07-21-35.7,60.53-50.35,68.68,8.25-19.21,34.18-53.84,15.49-34-4.55-4.08-31,47.44-38.39,51.51,31.15-54.71,51.7-77.12-5.39-3.2-22.74,23.58-13.8,9,7.08-23,65.67-94.58,81.58-87.89Z" transform="translate(-19 -14.6)" style="fill-rule: evenodd; fill: rgb(245, 130, 32);"></path><path class="cls-19" d="M1197.42,584.72s19.87,68.68,12,80-6.4-49.48-11.79-55.88,3.37,31.72,3.7,59.37-5.89,5-7.57-14-4.21-17.17-2.7,9.6-.5,38.13-6.57,26.48-6.73-35.5-16.67-13.09-36.54,66.93-55.73,62.86,2.35,21,76.11,29.68,140.1,3.49,108.44-92-109.45-162.39-99.18-93.12Z" transform="translate(-19 -14.6)" style="fill-rule: evenodd; fill: rgb(85, 45, 20);"></path></g><path d="M 1085.1300048828125 718.8400268554688 L 1087.52001953125 750.510009765625 L 1133.8299560546875 750.8099975585938 L 1132.3399658203125 716.75 L 1085.1300048828125 718.8400268554688 L 1085.1300048828125 718.8400268554688 Z" class="cls-20" style="fill-rule: evenodd; fill: rgb(7, 0, 0);"></path><path d="M 1160.72998046875 786.2999877929688 L 1156.3900146484375 716.760009765625 L 1202.75 714.5800170898438 L 1201.300048828125 788.8400268554688 L 1160.72998046875 786.2999877929688 L 1160.72998046875 786.2999877929688 Z" class="cls-20" style="fill-rule: evenodd; fill: rgb(7, 0, 0);"></path><path class="cls-21" d="M1105,546.74s-26.4-9.73-56.51,43.54-34.27,86.62-20.38,74.11,15.29-63.92,40.3-84.3,41.23-24.55,36.59-33.35Z" transform="translate(-19 -14.6)" style="fill: rgb(255, 255, 255); fill-rule: evenodd;"></path><path class="cls-21" d="M1031.34,727s8.86,73.31,17,73.31-13.1-84.13-17-73.31Z" transform="translate(-19 -14.6)" style="fill: rgb(255, 255, 255); fill-rule: evenodd;"></path><path class="cls-21" d="M1067.53,808c.2-1.7-30.81-2.78-38.45,1.16s38.45-1.16,38.45-1.16Z" transform="translate(-19 -14.6)" style="fill: rgb(255, 255, 255); fill-rule: evenodd;"></path><path d="M 551.8800048828125 689.4099731445312 L 572.9299926757812 807.4099731445312 L 822.4000244140625 798.280029296875 L 827.6500244140625 682.4000244140625 L 551.8800048828125 689.4099731445312 L 551.8800048828125 689.4099731445312 Z" class="cls-6" style="fill-rule: evenodd; fill: rgb(180, 109, 34);"></path><g class="cls-35" style="clip-path: url(&quot;#clip-path-15&quot;);"><path class="cls-10" d="M595.67,683.18s12.27,29,70.66,70.32,92.57,60.14,92.57,60.14l-167,8.32L567.75,689.3l27.92-6.12Z" transform="translate(-19 -14.6)" style="stroke-miterlimit: 22.93; stroke-width: 0.57px; fill-rule: evenodd; fill: rgb(247, 148, 29); stroke: rgb(247, 148, 29);"></path></g><path class="cls-3" d="M567.28,704.17l13.52,31.56L845.23,725l-1.15,9.21-262.9,9.6v11.12s259.34-4.39,262.52-4.22-1.54,8.45-1.54,8.45l-259.06,10s3.7,5.54.39,6.14,259.06-2.69,259.06-2.69L841,781.79l-253.68,8.83,2.68,8.44,252.54-3.84,1.59,7.38-255.28,2.22,2.3,10.36,250.24-2.3,5.5-121.4L567.28,704.17Z" transform="translate(-19 -14.6)" style="fill-rule: evenodd; fill: rgb(130, 77, 30);"></path><g class="cls-36" style="clip-path: url(&quot;#clip-path-16&quot;);"><path class="cls-24" d="M595.67,683.18s12.27,29,70.66,70.32,92.57,60.14,92.57,60.14l-167,8.32L567.75,689.3l27.92-6.12Z" transform="translate(-19 -14.6)" style="stroke-miterlimit: 22.93; stroke-width: 0.57px; fill-rule: evenodd; fill: rgb(180, 109, 34); stroke: rgb(180, 109, 34);"></path></g><path d="M 542.97998046875 660.0999755859375 L 569.47998046875 807.4099731445312 L 824.3200073242188 803.6500244140625 L 831.0399780273438 676.75 L 824.760009765625 677.02001953125 L 816.6400146484375 798.6599731445312 L 794.760009765625 796.3599853515625 L 802.0599975585938 712.3099975585938 L 731.8200073242188 716.530029296875 L 737.2000122070312 794.4400024414062 L 576.77001953125 799.8099975585938 L 556.4299926757812 667.02001953125 L 569.8599853515625 670.0900268554688 L 587.510009765625 781.3900146484375 L 661.969970703125 778.3200073242188 L 651.219970703125 687.3400268554688 L 542.97998046875 660.0999755859375 L 542.97998046875 660.0999755859375 Z" class="cls-14" style="fill-rule: evenodd; fill: rgb(48, 24, 5);"></path><path d="M 746.02001953125 794.0599975585938 L 739.8800048828125 721.52001953125 L 793.22998046875 719.989990234375 L 787.0900268554688 792.9000244140625 L 746.02001953125 794.0599975585938 L 746.02001953125 794.0599975585938 Z" class="cls-20" style="fill-rule: evenodd; fill: rgb(7, 0, 0);"></path><path d="M 642.780029296875 704.25 L 651.6099853515625 771.4099731445312 L 594.0399780273438 775.6300048828125 L 583.6799926757812 697.3400268554688 L 642.780029296875 704.25 L 642.780029296875 704.25 Z" class="cls-20" style="fill-rule: evenodd; fill: rgb(7, 0, 0);"></path><path class="cls-15" d="M865.79,704.48c4.42,9.21-3.57-1.55-3.57-1.55s2,8.64.36,8-3.75-5.55-3.75-5.55,1.79,9.25-1.25,4.93-6.24-8.32-6.24-8.32,4.1,12,2.14,12-4.28-7.4-4.28-7.4,2,9.56-.54,8-4.81-8.63-4.81-8.63,1.42,8.94-1.25,8-3.39-8-3.39-8-.36,11.72-2.5,9.87-3.57-6.48-3.57-6.48.18,11.1-2.14,8.63-2.5-6.47-2.5-6.47-.89,7.4-2.85,5.86-3-5.25-3-5.25-2,10.8-6.24,7.41-4.46-7.41-4.46-7.41-.36,8.33-3.39,7.41-4.46-6.79-4.46-6.79-.54,9.87-2.86,7.4a15.22,15.22,0,0,1-3.21-5.55s-.36,5.24-2.5,5.24-2.5-3.39-2.5-3.39-2.31,8-4.28,4.94-2-3.7-2-3.7-.36,6.47-2.68,3.7-2.49-4.32-2.49-4.32-2.32,11.1-5.18,5.86-2.67-5.24-2.67-5.24.71,8.63-1.61,6.78a8.61,8.61,0,0,1-2.68-5.24s-.89,9.56-3,5.55-2.5-7.09-2.32-5.24.18,8.63-1.61,7.4-2.85-6.48-2.85-6.48-1.07,7.4-2.68,6.17-3-4.93-3-4.93,0,8.32-3.21,4.62-3.39-5.55-3.39-5.55-1.43,7.4-3,5.86-3.21-6.17-3.21-6.17-1.79,6.17-3.93,5.55a4.57,4.57,0,0,1-2.85-2.77s-1.43,12-6.43,8.94-3-6.47-3-6.47-1.43,6.16-4.1,3.08l-2.68-3.08s-2.32,8-4.82,5.85a9.48,9.48,0,0,1-3-4s-.18,6.79-3,4.32a12.82,12.82,0,0,1-3.75-5.55s-.71,7.71-3.39,7.09-5.17-4-5.17-4-5.36,9.25-8.39,3.39-3-5.55-3-5.55-.89,6.47-4.11,4-3.21-3.08-3.21-3.08.89,5.86-2,4.32a5.23,5.23,0,0,1-2.86-4.32s-2.32,5.86-3.74,2.78-1.25-4-1.25-4-2.5,6.78-5.36,2.77l-2.85-4s-3.75,7.24-6.25,6.16-1.07-6.47-1.07-6.47-1.24,7.09-3.12,6.63-2.76-4.63-2.76-4.63-2.59,5.86-4.64,3.85a6.11,6.11,0,0,1-1.79-4.62s-3,5.4-4.28,4.47S632,727.3,632,727.3s-2.94,7.71-4.55,4.93a18.18,18.18,0,0,1-2-5.4s-1.69,9.1-5.09,5.4-3.39-5.4-3.39-5.4-2.41,6-5.35,4.63-1.07-6.94-1.07-6.94-3,5.4-5.89,1.39-2.76-4.63-2.76-4.63-3.66,10.34-5.44,7.1-.72-7.4-.72-7.4-3.12,9.4-6.07,6a8.43,8.43,0,0,1-1.78-7.4s-3.75,8-5.8,4.78a12.69,12.69,0,0,1-2-6.17s-3.21,5.86-4.37,3.55a13,13,0,0,1-1.16-5.09s-4,6.32-7.41,2.93-3.39-5.09-3.39-5.09-2,7.25-3.57,5.71-1-6.94-1-6.94-6.78,8.63-10.17,4.78-2.59-7.25-2.59-7.25-2.22,5.09-4.63,3.39-1.79-6-1.79-6-3.3,7.09-4.73,4.63.09-7.56.09-7.56-1.06,6-4.19,3.86-1-8.48-1-8.48S562.47,693.43,593,619c48.46-118.08,155.59-130.11,204.11-8.14,13.58,34.14,49.51,53.73,68.66,93.64Z" transform="translate(-19 -14.6)" style="fill-rule: evenodd; fill: rgb(129, 70, 29);"></path><g class="cls-37" style="clip-path: url(&quot;#clip-path-17&quot;);"><path class="cls-17" d="M696.19,501.43s55.14,72.16,62.1,92.2S739,569.89,728.67,553.54s7.14,18.5,26.4,50,10.35,31.76-12-9-14.63-23.12,2.32,12.65,16.41,50.88.71,16.34S716.36,557.86,725.81,585s31.76,71.53,25,74.62S733.13,610,723.32,589.31s27.47,90.35,16.41,74.32S723,596.09,716.36,591.78s18.2,81.71,13.73,87.57-12.48-54.58-16.77-72.16,1.61,21.59,5.71,51.5,1.79,35.46-3,32.38-5-58-10.17-73.39,1,62.13-32.29,87.88,1.24-13.26,8.2-23.74,13.38-23.13,13.92-40.71-5.71,20.66-23.19,44.41-29.44,28.67-11.78,4.62,24.8-34.84,27.3-48.41-11.78,20-27.48,41-26.23,37-32.29,34.84,14.81-17,30.69-42.55,17.12-34.53,2.85-15.41-33,54.27-45.85,59.2S628.4,700,639.1,683.36s7.38-24.48-5.71-.31S610.2,712,605,712s16.6-18.81,25.7-32.69,1.6-13-9.64,3.7-32.83,38.86-26.58,28.37,18.37-32.38,8.38-23.13S586.65,706.17,580,718.2s-14,27.45-28.82,23.44-49.25-22.82-28.55-72.77,116-183.78,173.6-167.44Z" transform="translate(-19 -14.6)" style="fill-rule: evenodd; fill: rgb(179, 96, 34);"></path><path class="cls-18" d="M677.19,509s-13.29,20.19-8.2,20,20-26.67,17.39-15-11.06,28.22-4.46,20.2,12.4-28.83,12.76-17.57-5.35,34.84-.8,36.07,2.85-25.9,5.35-21,.89,33.46-15.17,51.65-8.2,10.95-.89,4,10.53-9.25,17.31-21.27,1.43,19-29.44,45.17-15.7,9.56-7.31-.92-4.82-1.55-25.16,25-19.81,22.82-4.64.93,33.36-44.4,18.91-32.07-36,54.27-57.63,75.85,8.39-17.26,27.66-42.86,26.94-43.17,8.92-21.58-38.72,57.66-55.67,71.54,9.28-17,32.65-47.8,22.13-41.93,6.42-22.2S577.37,681.36,561.85,690s8.74-20.35,36.22-57,16.41-36.08-4.82-4.32-32.83,50.26-40.68,54.58,33-58,54.77-81.72-5.71-3.39-24.08,25-14.63,9.56,7.49-24.36S660.34,501.9,677.19,509Z" transform="translate(-19 -14.6)" style="fill-rule: evenodd; fill: rgb(245, 130, 32);"></path><path class="cls-19" d="M771.67,586.7s21.05,72.77,12.67,84.79-6.78-52.42-12.49-59.2,3.57,33.61,3.92,62.9-6.24,5.24-8-14.8-4.46-18.19-2.85,10.18-.54,40.39-7,28.06-7.14-37.62-17.67-13.88-38.71,70.92-59,66.61,2.5,22.2,80.64,31.45,148.45,3.7,114.91-97.44-116-172.06-105.09-98.67Z" transform="translate(-19 -14.6)" style="fill-rule: evenodd; fill: rgb(85, 45, 20);"></path></g><path class="cls-15" d="M896.09,678.19c5.14,9.22-4.14-1.54-4.14-1.54s2.28,8.63.41,8-4.35-5.55-4.35-5.55,2.07,9.25-1.45,4.94-7.25-8.33-7.25-8.33,4.76,12,2.49,12-5-7.4-5-7.4,2.28,9.56-.62,8-5.6-8.63-5.6-8.63,1.66,8.94-1.45,8-3.93-8-3.93-8-.42,11.72-2.9,9.87-4.15-6.48-4.15-6.48.21,11.1-2.48,8.64a10.48,10.48,0,0,1-2.91-6.48s-1,7.4-3.31,5.86S846,685.9,846,685.9s-2.28,10.79-7.26,7.4-5.18-7.4-5.18-7.4-.41,8.32-3.93,7.4-5.19-6.79-5.19-6.79-.62,9.87-3.31,7.4a14.81,14.81,0,0,1-3.73-5.55s-.42,5.25-2.9,5.25-2.9-3.4-2.9-3.4-2.69,8-5,4.94-2.28-3.7-2.28-3.7-.41,6.47-3.1,3.7-2.9-4.32-2.9-4.32-2.7,11.1-6,5.86-3.11-5.24-3.11-5.24.83,8.63-1.87,6.78a8.13,8.13,0,0,1-3.1-5.24s-1,9.56-3.53,5.55-2.9-7.09-2.69-5.24.21,8.63-1.87,7.4-3.31-6.48-3.31-6.48-1.24,7.41-3.11,6.17-3.52-4.93-3.52-4.93,0,8.32-3.73,4.62-3.94-5.55-3.94-5.55-1.66,7.4-3.52,5.86-3.73-6.16-3.73-6.16-2.08,6.16-4.56,5.55a5,5,0,0,1-3.32-2.78s-1.65,12-7.46,8.94-3.52-6.47-3.52-6.47-1.66,6.17-4.77,3.08l-3.1-3.08s-2.7,8-5.6,5.86-3.52-4-3.52-4-.21,6.78-3.53,4.32a12.78,12.78,0,0,1-4.34-5.56s-.83,7.71-3.94,7.1-6-4-6-4-6.22,9.25-9.74,3.39-3.52-5.55-3.52-5.55-1,6.47-4.77,4-3.73-3.09-3.73-3.09,1,5.86-2.28,4.32a5.14,5.14,0,0,1-3.32-4.32s-2.69,5.86-4.35,2.78-1.45-4-1.45-4-2.9,6.78-6.22,2.78l-3.31-4s-4.35,7.24-7.25,6.17-1.25-6.48-1.25-6.48-1.45,7.09-3.62,6.63-3.22-4.63-3.22-4.63-3,5.86-5.38,3.86a5.63,5.63,0,0,1-2.08-4.63s-3.52,5.4-5,4.47-2.59-3.85-2.59-3.85-3.42,7.71-5.28,4.93a16.45,16.45,0,0,1-2.39-5.39s-2,9.09-5.9,5.39-3.94-5.39-3.94-5.39-2.8,6-6.22,4.62-1.24-6.94-1.24-6.94-3.52,5.4-6.84,1.39-3.21-4.62-3.21-4.62-4.25,10.33-6.32,7.09-.83-7.4-.83-7.4-3.63,9.4-7.05,6a7.5,7.5,0,0,1-2.07-7.4s-4.35,8-6.73,4.78a11.41,11.41,0,0,1-2.39-6.17s-3.73,5.86-5.07,3.55a11.39,11.39,0,0,1-1.35-5.09s-4.66,6.32-8.6,2.93-3.94-5.09-3.94-5.09-2.38,7.25-4.14,5.71-1.14-6.94-1.14-6.94-7.88,8.64-11.81,4.78-3-7.24-3-7.24-2.59,5.08-5.39,3.39-2.07-6-2.07-6-3.83,7.1-5.49,4.63.1-7.56.1-7.56-1.24,6-4.87,3.86-1.14-8.48-1.14-8.48,37.61-7.2,73.09-81.65c56.28-118.08,180.71-130.1,237.06-8.14,15.77,34.14,57.5,53.73,79.74,93.64Z" transform="translate(-19 -14.6)" style="fill-rule: evenodd; fill: rgb(129, 70, 29);"></path><g class="cls-38" style="clip-path: url(&quot;#clip-path-18&quot;);"><path class="cls-17" d="M699.12,475.14s64,72.16,72.11,92.2-22.37-23.74-34.39-40.08,8.29,18.5,30.67,50,12,31.76-13.89-8.94-17-23.13,2.7,12.64,19.06,50.88.82,16.34-34.6-65.68-23.62-38.54,36.89,71.53,29,74.62S742,583.68,730.62,563s31.91,90.35,19.06,74.32-19.48-67.53-27.14-71.85,21.14,81.71,16,87.57S724,598.48,719,580.91s1.86,21.58,6.63,51.49,2.07,35.46-3.52,32.38-5.81-58-11.82-73.39,1.13,62.14-37.51,87.88,1.46-13.26,9.54-23.74,15.54-23.13,16.16-40.7-6.63,20.66-26.94,44.4-34.19,28.68-13.67,4.63,28.8-34.85,31.7-48.42-13.68,20-31.91,41-30.46,37-37.51,34.85,17.2-17,35.64-42.55,19.9-34.54,3.32-15.42-38.39,54.27-53.26,59.2,14.51-18.81,26.94-35.46,8.57-24.48-6.63-.31-26.94,29-32.95,29,19.27-18.81,29.84-32.68,1.87-13-11.19,3.7S573.75,695.62,581,685.13s21.34-32.37,9.74-23.12-18.85,17.87-26.63,29.9-16.27,27.45-33.47,23.44-57.19-22.82-33.15-72.77S632.19,458.8,699.12,475.14Z" transform="translate(-19 -14.6)" style="fill-rule: evenodd; fill: rgb(179, 96, 34);"></path><path class="cls-18" d="M677.05,482.7s-15.43,20.2-9.53,20,23.21-26.67,20.21-14.95S674.88,516,682.55,508s14.4-28.84,14.81-17.58-6.21,34.84-.93,36.07,3.32-25.9,6.22-21,1,33.45-17.62,51.65-9.53,10.94-1,4,12.22-9.25,20.1-21.28,1.66,19-34.19,45.17-18.24,9.56-8.5-.92-5.6-1.54-29.22,25-23,22.81-5.38.92,38.74-44.4,22-32.07-41.86,54.27-66.93,75.86S591.58,636.57,614,611s31.29-43.17,10.36-21.59-45,57.66-64.65,71.54,10.77-17,37.92-47.8,25.69-41.93,7.46-22.2-43.93,64.14-62,72.77,10.15-20.35,42.06-57,19.07-36.08-5.59-4.32-38.13,50.26-47.25,54.58,38.34-58,63.62-81.71-6.63-3.39-28,25-17,9.56,8.71-24.36,80.82-100.21,100.39-93.12Z" transform="translate(-19 -14.6)" style="fill-rule: evenodd; fill: rgb(245, 130, 32);"></path><path class="cls-19" d="M786.78,560.41s24.45,72.77,14.71,84.8S793.61,592.78,787,586s4.15,33.61,4.56,62.91-7.25,5.24-9.32-14.8-5.18-18.2-3.32,10.17-.62,40.39-8.08,28.06-8.29-37.62-20.51-13.88-45,70.93-68.59,66.61,2.9,22.2,93.66,31.45,172.41,3.7,133.45-97.44S774.14,487,786.78,560.41Z" transform="translate(-19 -14.6)" style="fill-rule: evenodd; fill: rgb(85, 45, 20);"></path></g><path d="M 576.77001953125 799.8099975585938 L 562.5700073242188 807.4099731445312 L 562.5700073242188 818.6199951171875 L 838.1300048828125 815.5499877929688 L 838.1300048828125 807.4099731445312 L 822.47998046875 796.4000244140625 L 576.77001953125 799.8099975585938 L 576.77001953125 799.8099975585938 Z" class="cls-14" style="fill-rule: evenodd; fill: rgb(48, 24, 5);"></path><path class="cls-21" d="M665.23,515.93s-37.06,19-76,81.52-40.81,68.34-18.52,44.93,48-85.4,94.49-126.45Z" transform="translate(-19 -14.6)" style="fill: rgb(255, 255, 255); fill-rule: evenodd;"></path><path class="cls-21" d="M587.87,730.85s7,79.44,13.9,79.68-7.87-76.9-13.9-79.68Z" transform="translate(-19 -14.6)" style="fill: rgb(255, 255, 255); fill-rule: evenodd;"></path><path class="cls-21" d="M675.42,816.55c0-2.15-77.79-.14-81.16,5.37s87.87-1.29,81.16-5.37Z" transform="translate(-19 -14.6)" style="fill: rgb(255, 255, 255); fill-rule: evenodd;"></path><path d="M 219.72000122070312 669.3599853515625 L 236.85000610351562 765.6599731445312 L 330.30999755859375 766.4000244140625 L 346.3699951171875 659.72998046875 L 219.72000122070312 669.3599853515625 L 219.72000122070312 669.3599853515625 Z" class="cls-3" style="fill-rule: evenodd; fill: rgb(130, 77, 30);"></path><g class="cls-39" style="clip-path: url(&quot;#clip-path-19&quot;);"><path class="cls-5" d="M344,665.76S296.48,776.84,284,780.48s65.29.51,65.29.51l19.44-117L344,665.76Z" transform="translate(-19 -14.6)" style="stroke-miterlimit: 22.93; stroke-width: 0.57px; fill-rule: evenodd; fill: rgb(85, 50, 21); stroke: rgb(85, 50, 21);"></path></g><path d="M 233.94000244140625 695.010009765625 L 342.79998779296875 680.780029296875 L 341.3699951171875 691.8300170898438 L 240.67999267578125 703.22998046875 L 240.49000549316406 711.8200073242188 L 339.2300109863281 710.739990234375 L 336.0199890136719 720.3800048828125 L 242.72999572753906 722.4400024414062 L 242.97999572753906 733.5700073242188 L 331.45001220703125 730.7899780273438 L 333.1700134277344 737.8599853515625 L 238.27000427246094 745.3499755859375 L 238.4499969482422 749.989990234375 L 328.260009765625 749.8200073242188 L 327.0299987792969 757.22998046875 L 239.7899932861328 759.52001953125 L 239.4199981689453 761.780029296875 L 330.30999755859375 766.4000244140625 L 346.0299987792969 666.02001953125 L 237.1999969482422 661.1500244140625 L 233.94000244140625 695.010009765625 L 233.94000244140625 695.010009765625 Z" class="cls-30" style="fill-rule: evenodd; fill: rgb(85, 50, 21);"></path><g class="cls-40" style="clip-path: url(&quot;#clip-path-20&quot;);"><path class="cls-29" d="M344,665.76S296.48,776.84,284,780.48s65.29.51,65.29.51l19.44-117L344,665.76Z" transform="translate(-19 -14.6)" style="stroke-miterlimit: 22.93; stroke-width: 0.57px; fill-rule: evenodd; fill: rgb(48, 24, 5); stroke: rgb(48, 24, 5);"></path></g><path d="M 114.4800033569336 647.5999755859375 L 130.52999877929688 768.7100219726562 L 240.0500030517578 769.3499755859375 L 237.1999969482422 661.1500244140625 L 114.4800033569336 647.5999755859375 L 114.4800033569336 647.5999755859375 Z" class="cls-6" style="fill-rule: evenodd; fill: rgb(180, 109, 34);"></path><g class="cls-41" style="clip-path: url(&quot;#clip-path-21&quot;);"><path class="cls-10" d="M140.61,672.19s33.7,51.17,56.63,69.76,45,38.21,45,38.21l-93.27-.7L134.67,671.24l5.94,1Z" transform="translate(-19 -14.6)" style="stroke-miterlimit: 22.93; stroke-width: 0.57px; fill-rule: evenodd; fill: rgb(247, 148, 29); stroke: rgb(247, 148, 29);"></path></g><path d="M 117.1500015258789 656.8699951171875 L 120.54000091552734 683.6300048828125 L 238.72000122070312 684.3699951171875 L 239.6999969482422 695.0499877929688 L 122.68000030517578 694.3300170898438 L 118.98999786376953 703.8099975585938 L 234.02999877929688 702.530029296875 L 238.6300048828125 713.239990234375 L 123.75 715.02001953125 L 122.18000030517578 727.97998046875 L 234.2899932861328 726.72998046875 L 237.91000366210938 733.9299926757812 L 125.54000091552734 738.2100219726562 L 127.31999969482422 747.1300048828125 L 238.27000427246094 745.3499755859375 L 238.6300048828125 754.6199951171875 L 128.02999877929688 755.6900024414062 L 127.05000305175781 764.8400268554688 L 239.33999633789062 765.6799926757812 L 241.47999572753906 665.7899780273438 L 117.1500015258789 656.8699951171875 L 117.1500015258789 656.8699951171875 Z" class="cls-3" style="fill-rule: evenodd; fill: rgb(130, 77, 30);"></path><g class="cls-42" style="clip-path: url(&quot;#clip-path-22&quot;);"><path class="cls-24" d="M140.61,672.19s33.7,51.17,56.63,69.76,45,38.21,45,38.21l-93.27-.7L134.67,671.24l5.94,1Z" transform="translate(-19 -14.6)" style="stroke-miterlimit: 22.93; stroke-width: 0.57px; fill-rule: evenodd; fill: rgb(180, 109, 34); stroke: rgb(180, 109, 34);"></path></g><path d="M 112.69000244140625 656.1599731445312 L 127.68000030517578 769.6099853515625 L 133.3800048828125 767.8200073242188 L 332.80999755859375 770.6799926757812 L 354.2099914550781 650.8099975585938 L 345.2900085449219 647.9600219726562 L 325.6700134277344 765.3300170898438 L 243.6199951171875 762.469970703125 L 241.47999572753906 665.7899780273438 L 233.6300048828125 667.219970703125 L 234.6999969482422 763.1799926757812 L 205.4499969482422 763.9000244140625 L 206.8800048828125 693.97998046875 L 151.22000122070312 693.97998046875 L 157.2899932861328 763.5399780273438 L 132.30999755859375 762.8300170898438 L 121.61000061035156 657.5900268554688 L 112.69000244140625 656.1599731445312 L 112.69000244140625 656.1599731445312 Z" class="cls-14" style="fill-rule: evenodd; fill: rgb(48, 24, 5);"></path><path d="M 160.5 701.1099853515625 L 163.7100067138672 761.0399780273438 L 196.52999877929688 761.0399780273438 L 201.52000427246094 699.3300170898438 L 160.5 701.1099853515625 L 160.5 701.1099853515625 Z" class="cls-20" style="fill-rule: evenodd; fill: rgb(7, 0, 0);"></path><path class="cls-15" d="M405.16,673.45c4.66,7.68-3.32-1.43-3.32-1.43s1.83,8,.34,7.45-3.49-5.16-3.49-5.16,1.66,8.6-1.16,4.59-5.8-7.74-5.8-7.74,3.81,11.18,2,11.18-4-6.88-4-6.88,1.82,8.88-.5,7.45-4.48-8-4.48-8,1.33,8.32-1.16,7.46-3.15-7.46-3.15-7.46-.33,10.9-2.32,9.18-3.32-6-3.32-6,.17,10.32-2,8-2.32-6-2.32-6-.83,6.87-2.66,5.44-2.81-4.87-2.81-4.87-1.83,10-5.81,6.88-4.15-6.88-4.15-6.88-.33,7.74-3.15,6.88-4.14-6.31-4.14-6.31-.5,9.17-2.66,6.88a14.25,14.25,0,0,1-3-5.16s-.33,4.87-2.32,4.87-2.32-3.15-2.32-3.15-2.16,7.46-4,4.59-1.82-3.44-1.82-3.44-.33,6-2.49,3.44-2.32-4-2.32-4-2.16,10.31-4.81,5.44-2.49-4.87-2.49-4.87.67,8-1.49,6.31a8.05,8.05,0,0,1-2.49-4.88s-.83,8.89-2.82,5.16-2.32-6.59-2.15-4.87.16,8-1.49,6.88-2.66-6-2.66-6-1,6.88-2.48,5.73-2.82-4.58-2.82-4.58,0,7.73-3,4.3-3.15-5.16-3.15-5.16-1.33,6.88-2.82,5.44-3-5.73-3-5.73-1.65,5.73-3.64,5.16a4.29,4.29,0,0,1-2.66-2.58s-1.32,11.18-6,8.31-2.82-6-2.82-6-1.32,5.74-3.81,2.87l-2.49-2.87s-2.16,7.46-4.48,5.45a9,9,0,0,1-2.82-3.73s-.16,6.31-2.82,4a12,12,0,0,1-3.48-5.16s-.66,7.16-3.15,6.59-4.81-3.73-4.81-3.73-5,8.6-7.8,3.15-2.81-5.15-2.81-5.15-.83,6-3.82,3.72-3-2.86-3-2.86.83,5.44-1.83,4a4.87,4.87,0,0,1-2.65-4s-2.16,5.44-3.48,2.57-1.16-3.72-1.16-3.72-2.33,6.3-5,2.58l-2.65-3.73s-3.49,6.74-5.81,5.74-1-6-1-6-1.17,6.59-2.91,6.16-2.57-4.3-2.57-4.3-2.4,5.44-4.31,3.58a5.66,5.66,0,0,1-1.66-4.3s-2.82,5-4,4.16-2.07-3.58-2.07-3.58-2.74,7.16-4.23,4.58a17,17,0,0,1-1.91-5s-1.57,8.46-4.72,5-3.16-5-3.16-5-2.24,5.59-5,4.3-1-6.44-1-6.44-2.82,5-5.47,1.28-2.57-4.29-2.57-4.29-3.4,9.6-5.06,6.59-.66-6.88-.66-6.88-2.91,8.74-5.64,5.59a7.82,7.82,0,0,1-1.66-6.88s-3.48,7.45-5.39,4.44a11.76,11.76,0,0,1-1.91-5.73s-3,5.45-4.06,3.3a12,12,0,0,1-1.08-4.73s-3.73,5.87-6.88,2.72-3.15-4.73-3.15-4.73-1.91,6.74-3.32,5.3-.91-6.44-.91-6.44-6.31,8-9.46,4.44-2.4-6.74-2.4-6.74-2.08,4.73-4.31,3.16-1.66-5.59-1.66-5.59-3.07,6.59-4.4,4.3.09-7,.09-7-2.82-1.49-3.9,3.59C87.48,708.53,221.65,371,405.16,673.45Z" transform="translate(-19 -14.6)" style="fill-rule: evenodd; fill: rgb(129, 70, 29);"></path><g class="cls-43" style="clip-path: url(&quot;#clip-path-23&quot;);"><path class="cls-17" d="M247.52,484.71s51.24,67.08,57.71,85.71-17.91-22.07-27.53-37.26,6.63,17.19,24.55,46.43,9.62,29.52-11.12-8.31-13.6-21.5,2.16,11.75,15.26,47.29.66,15.19-27.69-61.05-18.9-35.83,29.52,66.5,23.22,69.36-16.42-46.14-25.54-65.35,25.54,84,15.25,69.08-15.59-62.77-21.72-66.78,16.91,75.95,12.77,81.4S267.42,599.36,263.44,583s1.49,20.06,5.31,47.86,1.65,33-2.82,30.1-4.65-53.89-9.46-68.22.91,57.76-30,81.69,1.16-12.32,7.63-22.07,12.44-21.5,12.94-37.83-5.31,19.2-21.56,41.27-27.37,26.66-11,4.3,23.06-32.39,25.38-45-10.95,18.63-25.54,38.12-24.38,34.39-30,32.39,13.76-15.77,28.53-39.56,15.92-32.1,2.65-14.33-30.73,50.46-42.63,55,11.61-17.48,21.56-33,6.86-22.75-5.3-.28-21.56,26.94-26.37,26.94S178.19,663,186.65,650.1s1.49-12-9,3.44S147.18,689.65,153,679.91s17.09-30.1,7.8-21.5-15.09,16.62-21.31,27.8-13,25.51-26.79,21.79-45.77-21.21-26.53-67.65S194,469.53,247.52,484.71Z" transform="translate(-19 -14.6)" style="fill-rule: evenodd; fill: rgb(179, 96, 34);"></path><path class="cls-18" d="M229.85,491.74s-12.35,18.77-7.62,18.63,18.57-24.79,16.17-13.9-10.29,26.22-4.15,18.77,11.53-26.8,11.86-16.34-5,32.39-.75,33.54,2.66-24.08,5-19.49.83,31.1-14.1,48-7.63,10.18-.83,3.73,9.79-8.6,16.09-19.78,1.33,17.63-27.37,42-14.59,8.88-6.8-.86-4.47-1.43-23.38,23.22-18.41,21.21-4.31.86,31-41.28,17.58-29.81-33.5,50.44-53.57,70.51,7.79-16.05,25.7-39.84,25.05-40.13,8.3-20.07-36,53.6-51.75,66.5,8.63-15.76,30.35-44.43,20.57-39,6-20.63S137.06,652,122.63,660s8.13-18.92,33.67-53,15.26-33.53-4.48-4S121.31,649.67,114,653.68s30.68-53.88,50.92-75.95-5.31-3.16-22.39,23.22-13.6,8.88,7-22.65,64.68-93.15,80.35-86.56Z" transform="translate(-19 -14.6)" style="fill-rule: evenodd; fill: rgb(245, 130, 32);"></path><path class="cls-19" d="M317.67,564s19.57,67.64,11.78,78.82-6.31-48.72-11.61-55,3.31,31.24,3.65,58.47-5.81,4.88-7.47-13.76-4.14-16.91-2.65,9.46-.5,37.55-6.47,26.09-6.63-35-16.42-12.9-36,65.92-54.9,61.91,2.33,20.64,75,29.24,138,3.43,106.8-90.58S307.55,495.76,317.67,564Z" transform="translate(-19 -14.6)" style="fill-rule: evenodd; fill: rgb(85, 45, 20);"></path></g><path d="M 127.54000091552734 760.260009765625 L 114.83000183105469 773.530029296875 L 237.55999755859375 784.9500122070312 L 349.5799865722656 778.8800048828125 L 330.7900085449219 763.2000122070312 L 127.54000091552734 760.260009765625 L 127.54000091552734 760.260009765625 Z" class="cls-14" style="fill-rule: evenodd; fill: rgb(48, 24, 5);"></path><path class="cls-21" d="M222.64,558.31s-50,16.67-82,62.07-19,49.1-5.56,35.2,15.11-55.74,87.55-97.27Z" transform="translate(-19 -14.6)" style="fill: rgb(255, 255, 255); fill-rule: evenodd;"></path><path class="cls-21" d="M149,698.29s0,68.88,7.18,71.91S153.85,709,149,698.29Z" transform="translate(-19 -14.6)" style="fill: rgb(255, 255, 255); fill-rule: evenodd;"></path><path class="cls-21" d="M180.25,786s-39.12,1.1-31-4.93,39.82,1.91,31,4.93Z" transform="translate(-19 -14.6)" style="fill: rgb(255, 255, 255); fill-rule: evenodd;"></path></g>
          </g>

          <path id="foreground-overlay" style="fill: #ebeced; opacity: 0.96; pointer-events: none;" d="
        M -1000000, -1000000
        L 2000000, -1000000
        L 2000000, 2000000
        L -1000000, 2000000
        Z
        M 0, 0
        L 0, 952.5700073242188
        L 1360.5699462890625, 952.5700073242188
        L 1360.5699462890625, 0
        Z
      "></path>

          <g id="huds">
            <g is="ee-outlinehud" id="outline-hud"></g>
            <g is="ve-viewboxhud" id="view-box-hud" enabled=""></g>
            <g is="ee-transformhud" id="transform-hud" enabled="" style="display: none;"></g>
            <g is="ee-lineargradienthud" id="linear-gradient-hud" tabindex="-1"></g>
            <g is="ee-radialgradienthud" id="radial-gradient-hud" tabindex="-1"></g>
            <g is="ee-penseghud" id="pen-seg-hud"></g>
            <g is="ee-penhud" id="pen-hud" tabindex="-1"></g>
            <g is="ee-rubberbandhud" id="rubber-band-hud" enabled=""></g>
            <g is="ee-texthud" id="text-hud" tabindex="-1"></g>
          </g>
        </g>
      </svg>