<?xml version="1.0" encoding="UTF-8" standalone="no"?>
<!-- Created with Inkscape (http://www.inkscape.org/) -->

<svg
   xmlns:dc="http://purl.org/dc/elements/1.1/"
   xmlns:cc="http://creativecommons.org/ns#"
   xmlns:rdf="http://www.w3.org/1999/02/22-rdf-syntax-ns#"
   xmlns:svg="http://www.w3.org/2000/svg"
   xmlns="http://www.w3.org/2000/svg"
   xmlns:sodipodi="http://sodipodi.sourceforge.net/DTD/sodipodi-0.dtd"
   xmlns:inkscape="http://www.inkscape.org/namespaces/inkscape"
   width="37.419487mm"
   height="97.440552mm"
   viewBox="0 0 37.419488 97.440553"
   version="1.1"
   id="svg590"
   inkscape:version="0.92.1 r15371"
   sodipodi:docname="lifeskills.svg">
  <defs
     id="defs584" />
  <sodipodi:namedview
     id="base"
     pagecolor="#ffffff"
     bordercolor="#666666"
     borderopacity="1.0"
     inkscape:pageopacity="0.0"
     inkscape:pageshadow="2"
     inkscape:zoom="0.35"
     inkscape:cx="-312.14314"
     inkscape:cy="498.42533"
     inkscape:document-units="mm"
     inkscape:current-layer="layer1"
     showgrid="false"
     fit-margin-top="0"
     fit-margin-left="0"
     fit-margin-right="0"
     fit-margin-bottom="0"
     inkscape:window-width="1366"
     inkscape:window-height="745"
     inkscape:window-x="-8"
     inkscape:window-y="57"
     inkscape:window-maximized="1" />
  <metadata
     id="metadata587">
    <rdf:RDF>
      <cc:Work
         rdf:about="">
        <dc:format>image/svg+xml</dc:format>
        <dc:type
           rdf:resource="http://purl.org/dc/dcmitype/StillImage" />
        <dc:title></dc:title>
      </cc:Work>
    </rdf:RDF>
  </metadata>
  <g
     inkscape:label="Layer 1"
     inkscape:groupmode="layer"
     id="layer1"
     transform="translate(-188.42121,-183.26782)">
    <g
       transform="translate(67.899666,152.44469)"
       id="g479">
      <path
         d="m 139.77779,85.918039 c 0,0 -0.45202,0 -1.14932,0 -2.36816,0 -6.98182,0 -6.98595,0 0,0.29563 1.51652,16.606311 1.61618,18.199031 0.33651,5.36759 1.41937,16.53509 1.44859,17.00636 0,0 0.60355,0.24945 1.93173,0 l 1.07651,-16.85738 1.09624,-12.906761 c 0,0 0.2067,-0.35631 0.39177,-0.37148 0.18425,0.0152 0.35097,0.40887 0.35097,0.40887 l 1.2809,12.907121 0.8406,16.82888 c 1.62791,0.30166 2.13114,-0.009 2.13114,-0.009 0.0296,-0.47128 0.73105,-10.27741 1.05833,-17.14952 0.41617,-8.729841 1.87139,-17.890421 1.87139,-18.055871 -0.004,0 -4.59024,0 -6.95907,0"
         style="fill:#9a6747;fill-opacity:1;fill-rule:nonzero;stroke:none;stroke-width:0.03527778"
         id="path7297"
         inkscape:connector-curvature="0" />
      <path
         d="m 133.28626,104.53766 h 4.41204 l 0.0172,-0.27161 1.09626,-12.906761 c 0,0 0.20669,-0.35631 0.39177,-0.37148 0.18424,0.0152 0.35097,0.40887 0.35097,0.40887 l 1.2809,12.907121 0.0117,0.23386 h 3.99079 c 0.01,-0.18976 0.019,-0.37853 0.0276,-0.56374 0.41616,-8.729841 1.87138,-17.890421 1.87138,-18.055881 h -6.95907 c 0,0 -0.45202,0 -1.14932,0 h -6.98596 c 0,0.29563 1.51653,16.606311 1.61619,18.199031 0.008,0.13657 0.0179,0.27768 0.0275,0.42059"
         style="fill:#825b3e;fill-opacity:1;fill-rule:nonzero;stroke:none;stroke-width:0.03527778"
         id="path7299"
         inkscape:connector-curvature="0" />
      <path
         d="m 141.50513,117.70689 0.17088,3.42579 c 1.6279,0.30166 2.13113,-0.009 2.13113,-0.009 0.0103,-0.16535 0.10337,-1.48192 0.23428,-3.41655 h -2.53629"
         style="fill:#9a6747;fill-opacity:1;fill-rule:nonzero;stroke:none;stroke-width:0.03527778"
         id="path7301"
         inkscape:connector-curvature="0" />
      <path
         d="m 134.39447,117.70689 c 0.17639,1.91724 0.30317,3.25959 0.31282,3.41654 0,0 0.60355,0.24945 1.93173,0 l 0.2184,-3.41654 h -2.46295"
         style="fill:#9a6747;fill-opacity:1;fill-rule:nonzero;stroke:none;stroke-width:0.03527778"
         id="path7303"
         inkscape:connector-curvature="0" />
      <path
         d="m 143.76485,120.84371 c 0,0 0.10265,0.006 0.12637,0.1323 0.0241,0.12636 1.24575,3.13654 1.57095,3.712 0.32522,0.57605 0.0351,1.86009 -1.50481,1.89053 -1.54094,0.0317 -2.5528,-0.82267 -2.63991,-1.87219 0,0 -0.0496,-2.751 0.31584,-3.96173 0,0 0.13339,-0.13656 0.514,0 0.38036,0.13656 1.61756,0.0991 1.61756,0.0991"
         style="fill:#9a6747;fill-opacity:1;fill-rule:nonzero;stroke:none;stroke-width:0.03527778"
         id="path7305"
         inkscape:connector-curvature="0" />
      <path
         d="m 141.14064,126.91079 c 0.0152,0.0466 0.0314,0.09 0.0496,0.13024 -0.0182,-0.0402 -0.0345,-0.0844 -0.0496,-0.13024"
         style="fill:#419991;fill-opacity:1;fill-rule:nonzero;stroke:none;stroke-width:0.03527778"
         id="path7307"
         inkscape:connector-curvature="0" />
      <path
         d="m 141.03798,126.39651 c 0.007,0.0634 0.0152,0.12418 0.0252,0.18203 -0.01,-0.0579 -0.0183,-0.11864 -0.0252,-0.18203"
         style="fill:#419991;fill-opacity:1;fill-rule:nonzero;stroke:none;stroke-width:0.03527778"
         id="path7309"
         inkscape:connector-curvature="0" />
      <path
         d="m 141.09862,126.75839 c 0.0108,0.0456 0.0225,0.0875 0.0351,0.12883 -0.0127,-0.0406 -0.0244,-0.0832 -0.0351,-0.12883"
         style="fill:#419991;fill-opacity:1;fill-rule:nonzero;stroke:none;stroke-width:0.03527778"
         id="path7311"
         inkscape:connector-curvature="0" />
      <path
         d="m 141.06349,126.58489 c 0.009,0.055 0.02,0.10651 0.0317,0.15695 -0.0117,-0.0497 -0.0223,-0.10195 -0.0317,-0.15695"
         style="fill:#419991;fill-opacity:1;fill-rule:nonzero;stroke:none;stroke-width:0.03527778"
         id="path7313"
         inkscape:connector-curvature="0" />
      <path
         d="m 141.03731,126.39471 v 0 l 6.6e-4,0.002 -6.6e-4,-0.002"
         style="fill:#171717;fill-opacity:1;fill-rule:nonzero;stroke:none;stroke-width:0.03527778"
         id="path7315"
         inkscape:connector-curvature="0" />
      <path
         d="m 141.13376,126.88722 0.007,0.0236 -0.007,-0.0236"
         style="fill:#171717;fill-opacity:1;fill-rule:nonzero;stroke:none;stroke-width:0.03527778"
         id="path7317"
         inkscape:connector-curvature="0" />
      <path
         d="m 141.09516,126.74184 0.003,0.0165 -0.003,-0.0165"
         style="fill:#171717;fill-opacity:1;fill-rule:nonzero;stroke:none;stroke-width:0.03527778"
         id="path7319"
         inkscape:connector-curvature="0" />
      <path
         d="m 141.0632,126.57854 3e-4,0.006 -3e-4,-0.006"
         style="fill:#171717;fill-opacity:1;fill-rule:nonzero;stroke:none;stroke-width:0.03527778"
         id="path7321"
         inkscape:connector-curvature="0" />
      <path
         d="m 141.85723,127.24071 c 0.66326,0.40181 1.48277,0.61447 2.32407,0.66283 1.28707,0.0724 2.45636,-0.42651 2.70302,-1.25871 l 0.001,0.005 c 0.009,0.0484 0.0159,0.0981 0.0193,0.14746 l 0.002,0.0283 c 0.003,0.0526 0.003,0.10471 -0.002,0.15667 l -0.001,0.006 c -0.005,0.0484 -0.0145,0.0967 -0.0269,0.14538 l -0.0103,0.0374 c -0.0152,0.0508 -0.0338,0.10195 -0.0579,0.15212 -0.45819,0.94752 -1.75313,0.97649 -3.01057,0.92562 -1.16142,-0.17777 -2.20941,-0.32879 -2.60766,-1.20714 -0.0182,-0.0403 -0.0345,-0.0836 -0.0496,-0.13025 l -0.007,-0.0236 c -0.0127,-0.0414 -0.0244,-0.0832 -0.0351,-0.12883 l -0.004,-0.0165 c -0.0117,-0.0504 -0.0223,-0.10195 -0.0317,-0.15695 l -2.9e-4,-0.006 c -0.01,-0.0579 -0.0183,-0.11864 -0.0252,-0.18204 l -6.7e-4,-0.002 c 0.18119,0.32565 0.44648,0.61987 0.81993,0.846"
         style="fill:#171717;fill-opacity:1;fill-rule:nonzero;stroke:none;stroke-width:0.03527778"
         id="path7323"
         inkscape:connector-curvature="0" />
      <path
         d="m 146.91533,126.58489 c 0.0121,0.05 0.0204,0.10114 0.0255,0.15201 -0.005,-0.0509 -0.0134,-0.10131 -0.0255,-0.15201"
         style="fill:#419991;fill-opacity:1;fill-rule:nonzero;stroke:none;stroke-width:0.03527778"
         id="path7325"
         inkscape:connector-curvature="0" />
      <path
         d="m 146.94496,126.92568 c -0.003,0.0491 -0.012,0.0973 -0.0223,0.14636 0.0104,-0.0491 0.0189,-0.0973 0.0223,-0.14636"
         style="fill:#419991;fill-opacity:1;fill-rule:nonzero;stroke:none;stroke-width:0.03527778"
         id="path7327"
         inkscape:connector-curvature="0" />
      <path
         d="m 146.91297,127.11046 c -0.0135,0.0509 -0.03,0.10128 -0.0528,0.15244 0.0228,-0.0512 0.0393,-0.10157 0.0528,-0.15244"
         style="fill:#419991;fill-opacity:1;fill-rule:nonzero;stroke:none;stroke-width:0.03527778"
         id="path7329"
         inkscape:connector-curvature="0" />
      <path
         d="m 146.9436,126.76336 c 0.004,0.0522 0.005,0.10443 0.002,0.15762 0.003,-0.0532 0.002,-0.10541 -0.002,-0.15762"
         style="fill:#419991;fill-opacity:1;fill-rule:nonzero;stroke:none;stroke-width:0.03527778"
         id="path7331"
         inkscape:connector-curvature="0" />
      <path
         d="m 143.93711,121.14509 c 0.0981,0.60001 0.35965,1.17257 0.62935,1.74445 0.30314,0.64135 0.79167,1.4767 0.74179,2.17523 -0.11617,1.61107 -2.72412,1.20082 -3.47927,0.26667 -0.27383,-0.5183 -0.39578,-1.52538 -0.39342,-2.06763 10e-4,-0.36269 0.0469,-0.72207 0.0847,-1.08342 0.0496,-0.47057 0.13504,-0.96241 0.11299,-1.43577 -0.30797,0.68157 -0.81304,4.03091 -0.57118,5.69214 0.19128,0.3223 0.46507,0.61239 0.84543,0.83136 0.67522,0.39027 1.50069,0.58857 2.34333,0.62163 1.28891,0.0497 2.44327,-0.4699 2.66446,-1.30623 -0.0898,-0.38601 -0.35278,-0.75957 -0.59739,-1.09376 -0.38104,-0.522 -0.74415,-1.03889 -1.05559,-1.5882 -0.51911,-0.91818 -0.88399,-1.84147 -1.20466,-2.79601 -0.0799,-0.10129 -0.15064,-0.17819 -0.21124,-0.23746 0.0131,0.0356 0.0282,0.0724 0.0448,0.10792 0.001,0.0353 0.022,0.1524 0.0459,0.16908"
         style="fill:#2f2f31;fill-opacity:1;fill-rule:nonzero;stroke:none;stroke-width:0.03527778"
         id="path7333"
         inkscape:connector-curvature="0" />
      <path
         d="m 146.92264,127.07204 -0.01,0.0384 0.01,-0.0384"
         style="fill:#171717;fill-opacity:1;fill-rule:nonzero;stroke:none;stroke-width:0.03527778"
         id="path7335"
         inkscape:connector-curvature="0" />
      <path
         d="m 146.94605,126.92098 -0.001,0.005 0.001,-0.005"
         style="fill:#171717;fill-opacity:1;fill-rule:nonzero;stroke:none;stroke-width:0.03527778"
         id="path7337"
         inkscape:connector-curvature="0" />
      <path
         d="m 146.91533,126.58352 v 0.001 -0.001"
         style="fill:#171717;fill-opacity:1;fill-rule:nonzero;stroke:none;stroke-width:0.03527778"
         id="path7339"
         inkscape:connector-curvature="0" />
      <path
         d="m 146.9408,126.7369 0.003,0.0265 -0.003,-0.0265"
         style="fill:#171717;fill-opacity:1;fill-rule:nonzero;stroke:none;stroke-width:0.03527778"
         id="path7341"
         inkscape:connector-curvature="0" />
      <path
         d="m 144.25087,127.88975 c -0.84265,-0.0331 -1.66811,-0.23136 -2.34333,-0.62163 -0.38036,-0.21897 -0.65416,-0.50906 -0.84543,-0.83136 l 6.7e-4,0.002 c 0.009,0.0624 0.0193,0.12238 0.0303,0.17956 l 0.001,0.008 c 0.0103,0.0536 0.0227,0.10488 0.0351,0.15353 l 0.005,0.0195 c 0.0117,0.0441 0.0248,0.0853 0.0379,0.12552 l 0.009,0.0262 c 0.0165,0.0461 0.0338,0.0896 0.0534,0.12799 0.42471,0.87174 1.47726,1.00404 2.64379,1.16169 1.25814,0.0289 2.55171,-0.0233 2.98164,-0.97825 0.0228,-0.0511 0.0393,-0.10156 0.0528,-0.15244 l 0.01,-0.0384 c 0.0104,-0.0491 0.0189,-0.0973 0.0223,-0.14636 l 0.001,-0.005 c 0.003,-0.0532 0.002,-0.10541 -0.002,-0.15763 l -0.003,-0.0265 c -0.005,-0.0509 -0.0134,-0.10198 -0.0255,-0.15201 v -10e-4 c -0.22119,0.83633 -1.37555,1.35597 -2.66447,1.30623"
         style="fill:#171717;fill-opacity:1;fill-rule:nonzero;stroke:none;stroke-width:0.03527778"
         id="path7343"
         inkscape:connector-curvature="0" />
      <path
         d="m 141.31745,124.36624 c 0,0 1.60817,-1.45066 3.87396,-0.41561 l -0.37719,-0.71504 c 0,0 -2.14052,-0.82092 -3.49677,0.39479 v 0.73586"
         style="fill:#2f2f31;fill-opacity:1;fill-rule:nonzero;stroke:none;stroke-width:0.03527778"
         id="path7345"
         inkscape:connector-curvature="0" />
      <path
         d="m 134.68385,120.84371 c 0,0 -0.10266,0.006 -0.12679,0.1323 -0.0241,0.12636 -1.24505,3.13654 -1.57024,3.712 -0.32523,0.57605 -0.0358,1.86009 1.5048,1.89053 1.54065,0.0317 2.55254,-0.82267 2.64005,-1.87219 0,0 0.0492,-2.751 -0.31598,-3.96173 0,0 -0.13367,-0.13656 -0.51404,0 -0.381,0.13656 -1.61779,0.0991 -1.61779,0.0991"
         style="fill:#9a6747;fill-opacity:1;fill-rule:nonzero;stroke:none;stroke-width:0.03527778"
         id="path7347"
         inkscape:connector-curvature="0" />
      <path
         d="m 137.30834,126.91079 c -0.0152,0.0466 -0.0313,0.09 -0.0496,0.13024 0.0183,-0.0402 0.0345,-0.0844 0.0496,-0.13024"
         style="fill:#419991;fill-opacity:1;fill-rule:nonzero;stroke:none;stroke-width:0.03527778"
         id="path7349"
         inkscape:connector-curvature="0" />
      <path
         d="m 137.411,126.39651 c -0.007,0.0634 -0.0159,0.12418 -0.0251,0.18203 0.009,-0.0579 0.0182,-0.11864 0.0251,-0.18203"
         style="fill:#419991;fill-opacity:1;fill-rule:nonzero;stroke:none;stroke-width:0.03527778"
         id="path7351"
         inkscape:connector-curvature="0" />
      <path
         d="m 137.35036,126.75839 c -0.0106,0.0456 -0.0227,0.0875 -0.0351,0.12883 0.0124,-0.0406 0.0245,-0.0832 0.0351,-0.12883"
         style="fill:#419991;fill-opacity:1;fill-rule:nonzero;stroke:none;stroke-width:0.03527778"
         id="path7353"
         inkscape:connector-curvature="0" />
      <path
         d="m 137.38479,126.58489 c -0.009,0.055 -0.0193,0.10651 -0.031,0.15695 0.0117,-0.0497 0.0221,-0.10195 0.031,-0.15695"
         style="fill:#419991;fill-opacity:1;fill-rule:nonzero;stroke:none;stroke-width:0.03527778"
         id="path7355"
         inkscape:connector-curvature="0" />
      <path
         d="m 137.41167,126.39471 h -6.6e-4 v 0.002 l 6.6e-4,-0.002"
         style="fill:#171717;fill-opacity:1;fill-rule:nonzero;stroke:none;stroke-width:0.03527778"
         id="path7357"
         inkscape:connector-curvature="0" />
      <path
         d="m 137.31522,126.88722 -0.007,0.0236 0.007,-0.0236"
         style="fill:#171717;fill-opacity:1;fill-rule:nonzero;stroke:none;stroke-width:0.03527778"
         id="path7359"
         inkscape:connector-curvature="0" />
      <path
         d="m 137.35381,126.74184 -0.004,0.0165 0.004,-0.0165"
         style="fill:#171717;fill-opacity:1;fill-rule:nonzero;stroke:none;stroke-width:0.03527778"
         id="path7361"
         inkscape:connector-curvature="0" />
      <path
         d="m 137.38593,126.57854 -0.001,0.006 0.001,-0.006"
         style="fill:#171717;fill-opacity:1;fill-rule:nonzero;stroke:none;stroke-width:0.03527778"
         id="path7363"
         inkscape:connector-curvature="0" />
      <path
         d="m 136.59146,127.24071 c -0.66325,0.40181 -1.48247,0.61447 -2.32378,0.66283 -1.28707,0.0724 -2.45663,-0.42651 -2.7033,-1.25871 l -0.001,0.005 c -0.009,0.0484 -0.0158,0.0981 -0.0193,0.14746 l -0.002,0.0283 c -0.003,0.0526 -0.003,0.10471 0.002,0.15667 l 7.2e-4,0.006 c 0.005,0.0484 0.0151,0.0967 0.0275,0.14538 l 0.0101,0.0374 c 0.0152,0.0508 0.0333,0.10195 0.0579,0.15212 0.45847,0.94752 1.75355,0.97649 3.01057,0.92562 1.16103,-0.17777 2.20903,-0.32879 2.60795,-1.20714 0.0183,-0.0403 0.0345,-0.0836 0.0496,-0.13025 l 0.007,-0.0236 c 0.0124,-0.0414 0.0245,-0.0832 0.0351,-0.12883 l 0.004,-0.0165 c 0.0117,-0.0504 0.022,-0.10195 0.031,-0.15695 l 10e-4,-0.006 c 0.009,-0.0579 0.0182,-0.11864 0.0251,-0.18204 v -0.002 c -0.18055,0.32565 -0.44581,0.61987 -0.81954,0.846"
         style="fill:#171717;fill-opacity:1;fill-rule:nonzero;stroke:none;stroke-width:0.03527778"
         id="path7365"
         inkscape:connector-curvature="0" />
      <path
         d="m 131.53299,126.58489 c -0.0117,0.05 -0.0196,0.10114 -0.0248,0.15201 0.005,-0.0509 0.0131,-0.10131 0.0248,-0.15201"
         style="fill:#419991;fill-opacity:1;fill-rule:nonzero;stroke:none;stroke-width:0.03527778"
         id="path7367"
         inkscape:connector-curvature="0" />
      <path
         d="m 131.50402,126.92568 c 0.004,0.0491 0.0117,0.0973 0.0225,0.14636 -0.0108,-0.0491 -0.019,-0.0973 -0.0225,-0.14636"
         style="fill:#419991;fill-opacity:1;fill-rule:nonzero;stroke:none;stroke-width:0.03527778"
         id="path7369"
         inkscape:connector-curvature="0" />
      <path
         d="m 131.53613,127.11046 c 0.0134,0.0509 0.0296,0.10128 0.0527,0.15244 -0.023,-0.0512 -0.0393,-0.10157 -0.0527,-0.15244"
         style="fill:#419991;fill-opacity:1;fill-rule:nonzero;stroke:none;stroke-width:0.03527778"
         id="path7371"
         inkscape:connector-curvature="0" />
      <path
         d="m 131.5054,126.76336 c -0.004,0.0522 -0.006,0.10443 -0.003,0.15762 -0.003,-0.0532 -0.001,-0.10541 0.003,-0.15762"
         style="fill:#419991;fill-opacity:1;fill-rule:nonzero;stroke:none;stroke-width:0.03527778"
         id="path7373"
         inkscape:connector-curvature="0" />
      <path
         d="m 134.51159,121.14509 c -0.0981,0.60001 -0.35966,1.17257 -0.62974,1.74445 -0.3025,0.64135 -0.7917,1.4767 -0.7414,2.17523 0.11617,1.61107 2.7244,1.20082 3.47928,0.26667 0.2742,-0.5183 0.39578,-1.52538 0.39369,-2.06763 -0.001,-0.36269 -0.0468,-0.72207 -0.085,-1.08342 -0.0493,-0.47057 -0.13476,-0.96241 -0.11271,-1.43577 0.30797,0.68157 0.81235,4.03091 0.5709,5.69214 -0.19086,0.3223 -0.46507,0.61239 -0.84515,0.83136 -0.67522,0.39027 -1.50068,0.58857 -2.34336,0.62163 -1.28873,0.0497 -2.44351,-0.4699 -2.66471,-1.30623 0.0903,-0.38601 0.35306,-0.75957 0.5974,-1.09376 0.38128,-0.522 0.74439,-1.03889 1.05516,-1.5882 0.51992,-0.91818 0.88402,-1.84147 1.20508,-2.79601 0.0799,-0.10129 0.15092,-0.17819 0.21086,-0.23746 -0.0124,0.0356 -0.0276,0.0724 -0.0448,0.10792 -10e-4,0.0353 -0.0216,0.1524 -0.0455,0.16908"
         style="fill:#2f2f31;fill-opacity:1;fill-rule:nonzero;stroke:none;stroke-width:0.03527778"
         id="path7375"
         inkscape:connector-curvature="0" />
      <path
         d="m 131.52649,127.07204 0.01,0.0384 -0.01,-0.0384"
         style="fill:#171717;fill-opacity:1;fill-rule:nonzero;stroke:none;stroke-width:0.03527778"
         id="path7377"
         inkscape:connector-curvature="0" />
      <path
         d="m 131.50265,126.92098 0.001,0.005 -0.001,-0.005"
         style="fill:#171717;fill-opacity:1;fill-rule:nonzero;stroke:none;stroke-width:0.03527778"
         id="path7379"
         inkscape:connector-curvature="0" />
      <path
         d="m 131.53337,126.58352 v 0 l -3.9e-4,0.001 3.9e-4,-0.001"
         style="fill:#171717;fill-opacity:1;fill-rule:nonzero;stroke:none;stroke-width:0.03527778"
         id="path7381"
         inkscape:connector-curvature="0" />
      <path
         d="m 131.50815,126.7369 -0.003,0.0265 0.003,-0.0265"
         style="fill:#171717;fill-opacity:1;fill-rule:nonzero;stroke:none;stroke-width:0.03527778"
         id="path7383"
         inkscape:connector-curvature="0" />
      <path
         d="m 134.19808,127.88975 c 0.84268,-0.0331 1.66814,-0.23136 2.34336,-0.62163 0.38008,-0.21897 0.6543,-0.50906 0.84515,-0.83136 l -3.9e-4,0.002 c -0.009,0.0624 -0.0193,0.12238 -0.0303,0.17956 l -0.002,0.008 c -0.0103,0.0536 -0.022,0.10488 -0.0352,0.15353 l -0.004,0.0195 c -0.0117,0.0441 -0.0255,0.0853 -0.0386,0.12552 l -0.009,0.0262 c -0.0163,0.0461 -0.0341,0.0896 -0.0531,0.12799 -0.42485,0.87174 -1.47726,1.00404 -2.64375,1.16169 -1.25814,0.0289 -2.55185,-0.0233 -2.98178,-0.97825 -0.023,-0.0511 -0.0393,-0.10156 -0.0527,-0.15244 l -0.01,-0.0384 c -0.0108,-0.0491 -0.019,-0.0973 -0.0225,-0.14636 l -10e-4,-0.005 c -0.003,-0.0532 -0.001,-0.10541 0.003,-0.15763 l 0.003,-0.0265 c 0.005,-0.0509 0.0131,-0.10198 0.0248,-0.15201 l 4e-4,-10e-4 c 0.22119,0.83633 1.37597,1.35597 2.6647,1.30623"
         style="fill:#171717;fill-opacity:1;fill-rule:nonzero;stroke:none;stroke-width:0.03527778"
         id="path7385"
         inkscape:connector-curvature="0" />
      <path
         d="m 137.13167,124.36624 c 0,0 -1.6086,-1.45066 -3.87409,-0.41561 l 0.37732,-0.71504 c 0,0 2.1401,-0.82092 3.49677,0.39479 v 0.73586"
         style="fill:#2f2f31;fill-opacity:1;fill-rule:nonzero;stroke:none;stroke-width:0.03527778"
         id="path7387"
         inkscape:connector-curvature="0" />
      <path
         d="m 149.67938,89.266609 c -1.0994,0.0829 -1.39704,1.78118 -1.63919,2.61232 -0.19056,0.65088 -0.31115,1.06574 -0.49237,2.02918 -0.0489,0.26317 -0.16809,0.91546 0.13092,1.08303 0.38516,0.21413 0.59327,-0.67804 0.67635,-0.90594 0.0465,-0.1277 0.37785,-1.19344 0.51124,-0.67874 0.11053,0.4251 0.0244,0.59337 -0.0599,1.01776 -0.13476,0.67381 -0.83235,1.78294 -0.55093,2.26131 0.2825,0.47801 0.72139,-0.23213 0.72139,-0.23213 0,0 -0.0513,0.11712 0.20465,0.18874 0.25495,0.0716 0.60219,-0.29422 0.61048,-0.30128 0.008,-0.007 -0.005,0.13371 0.20048,0.0586 0.20535,-0.0759 0.53192,-0.39264 0.64329,-0.50023 0,0 0.25383,-0.0399 0.49982,-0.35419 0.24567,-0.31398 1.32306,-2.75379 -0.0586,-5.73794 -0.19981,-0.43144 -0.57944,-0.39616 -1.01215,-0.50447 -0.136,-0.0346 -0.26459,-0.0448 -0.38545,-0.036"
         style="fill:#9a6747;fill-opacity:1;fill-rule:nonzero;stroke:none;stroke-width:0.03527778"
         id="path7389"
         inkscape:connector-curvature="0" />
      <path
         d="m 149.52366,95.136479 c 0.22214,-0.62018 0.35377,-1.27952 0.46676,-1.92581 l 0.006,0.002 c -0.0845,0.66639 -0.20369,1.3148 -0.41134,1.95756 -0.14375,0.44379 -0.37387,1.05692 -0.69222,1.41111 l -0.0145,-0.0124 c 0.26871,-0.42933 0.47473,-0.9585 0.64534,-1.43263"
         style="fill:#83522a;fill-opacity:1;fill-rule:nonzero;stroke:none;stroke-width:0.03527778"
         id="path7391"
         inkscape:connector-curvature="0" />
      <path
         d="m 150.45069,94.963619 c 0.1954,-0.52282 0.225,-1.08056 0.36587,-1.61361 l 0.005,0.002 c -0.11025,0.60078 -0.1633,1.18287 -0.38171,1.7646 -0.1633,0.43391 -0.36407,1.0167 -0.74965,1.31868 l -0.005,-0.007 c 0.39687,-0.3556 0.58635,-0.98601 0.7662,-1.46473"
         style="fill:#83522a;fill-opacity:1;fill-rule:nonzero;stroke:none;stroke-width:0.03527778"
         id="path7393"
         inkscape:connector-curvature="0" />
      <path
         d="m 151.37783,93.701379 0.006,0.002 c -0.0375,0.44027 -0.1312,0.89076 -0.28113,1.30916 -0.14193,0.39758 -0.3762,0.9024 -0.73106,1.15958 l -0.01,-0.0113 c 0.64149,-0.60396 0.90635,-1.62595 1.01631,-2.45957"
         style="fill:#83522a;fill-opacity:1;fill-rule:nonzero;stroke:none;stroke-width:0.03527778"
         id="path7395"
         inkscape:connector-curvature="0" />
      <path
         d="m 147.89027,79.543349 -1.24161,-6.40151 c -0.005,-0.73483 -0.007,-5.82048 0.001,-7.85283 0,0 2.70069,0.16581 3.16467,1.83832 l 1.68673,11.60851 c -0.32797,1.53106 -3.0372,1.95263 -3.61117,0.80751"
         style="fill:#825b3e;fill-opacity:1;fill-rule:nonzero;stroke:none;stroke-width:0.03527778"
         id="path7397"
         inkscape:connector-curvature="0" />
      <path
         d="m 151.51495,78.735839 c 0,0.64841 0.002,3.35774 0,3.93912 -0.006,1.54128 -0.15021,3.56693 -0.33048,5.09729 -0.18948,1.61113 -0.36312,2.6356 -0.55217,2.83139 l -1.05876,-0.0402 c -0.68417,-0.006 -0.27103,-1.60655 -1.64771,-10.13672 l -0.1389,-1.25553 c 0.42719,-1.29858 3.20573,-1.96215 3.72802,-0.43533"
         style="fill:#9a6747;fill-opacity:1;fill-rule:nonzero;stroke:none;stroke-width:0.03527778"
         id="path7399"
         inkscape:connector-curvature="0" />
      <path
         d="m 150.31907,70.872779 c 0.17226,-0.12559 0.3459,-0.24871 0.51953,-0.37218 l -0.99014,-3.61598 c -0.46439,-1.54552 -3.19842,-1.59561 -3.19842,-1.59561 -0.002,0.6036 -0.36933,7.91669 -0.36476,8.56015 l 0.0375,0.0959 c 1.3571,-0.99095 2.63687,-2.08421 3.9963,-3.07234"
         style="fill:#408fd4;fill-opacity:1;fill-rule:nonzero;stroke:none;stroke-width:0.03527778"
         id="path7401"
         inkscape:connector-curvature="0" />
      <path
         d="m 130.39789,79.543349 1.24188,-6.21559 c 0.004,-0.73519 0.007,-6.0064 -0.001,-8.03875 0,0 -2.70097,0.16581 -3.16466,1.83832 l -1.68696,11.60851 c 0.32822,1.53106 3.03787,1.95263 3.61114,0.80751"
         style="fill:#825b3e;fill-opacity:1;fill-rule:nonzero;stroke:none;stroke-width:0.03527778"
         id="path7403"
         inkscape:connector-curvature="0" />
      <path
         d="m 126.77363,78.735839 c 0,0.64841 -0.003,3.35774 0,3.93912 0.006,1.54128 0.15021,3.56693 0.33034,5.09729 0.18947,1.61113 0.36241,2.6356 0.55231,2.83139 l 1.05861,-0.0402 c 0.68418,-0.006 0.27118,-1.60655 1.64786,-10.13672 l 0.13875,-1.25553 c -0.42718,-1.29858 -3.20601,-1.96215 -3.72787,-0.43533"
         style="fill:#9a6747;fill-opacity:1;fill-rule:nonzero;stroke:none;stroke-width:0.03527778"
         id="path7405"
         inkscape:connector-curvature="0" />
      <path
         d="m 128.52884,89.266609 c 1.09967,0.0829 1.39664,1.78118 1.6396,2.61232 0.19043,0.65088 0.31034,1.06574 0.49195,2.02918 0.0496,0.26317 0.16842,0.91546 -0.1313,1.08303 -0.38517,0.21413 -0.59327,-0.67804 -0.67596,-0.90594 -0.0461,-0.1277 -0.37786,-1.19344 -0.51153,-0.67874 -0.11024,0.4251 -0.0245,0.59337 0.0602,1.01776 0.13437,0.67381 0.83235,1.78294 0.55055,2.26131 -0.28209,0.47801 -0.72101,-0.23213 -0.72101,-0.23213 0,0 0.0513,0.11712 -0.20437,0.18874 -0.2552,0.0716 -0.60286,-0.29422 -0.61072,-0.30128 -0.008,-0.007 0.005,0.13371 -0.20091,0.0586 -0.20535,-0.0759 -0.53196,-0.39264 -0.64315,-0.50023 0,0 -0.25354,-0.0399 -0.49953,-0.35419 -0.246,-0.31398 -1.32334,-2.75379 0.0588,-5.73794 0.19953,-0.43144 0.57919,-0.39616 1.0119,-0.50447 0.13572,-0.0346 0.26459,-0.0448 0.38541,-0.036"
         style="fill:#9a6747;fill-opacity:1;fill-rule:nonzero;stroke:none;stroke-width:0.03527778"
         id="path7407"
         inkscape:connector-curvature="0" />
      <path
         d="m 128.68526,95.136479 c -0.22324,-0.62018 -0.35444,-1.27952 -0.46743,-1.92581 l -0.006,0.002 c 0.0843,0.66639 0.20422,1.3148 0.41162,1.95756 0.14333,0.44379 0.37415,1.05692 0.69218,1.41111 l 0.0141,-0.0124 c -0.26874,-0.42931 -0.47473,-0.95848 -0.64424,-1.43261"
         style="fill:#83522a;fill-opacity:1;fill-rule:nonzero;stroke:none;stroke-width:0.03527778"
         id="path7409"
         inkscape:connector-curvature="0" />
      <path
         d="m 127.75784,94.963619 c -0.19597,-0.52282 -0.22532,-1.08056 -0.36657,-1.61361 l -0.005,0.002 c 0.11024,0.60078 0.16326,1.18287 0.38171,1.7646 0.1633,0.43391 0.3642,1.0167 0.75032,1.31868 l 0.005,-0.007 c -0.39688,-0.3556 -0.58593,-0.98601 -0.76549,-1.46473"
         style="fill:#83522a;fill-opacity:1;fill-rule:nonzero;stroke:none;stroke-width:0.03527778"
         id="path7411"
         inkscape:connector-curvature="0" />
      <path
         d="m 126.83014,93.701379 -0.006,0.002 c 0.0376,0.44027 0.13159,0.89076 0.28152,1.30916 0.14196,0.39758 0.37648,0.9024 0.73106,1.15958 l 0.01,-0.0113 c -0.64121,-0.60394 -0.90608,-1.62593 -1.01632,-2.45955"
         style="fill:#83522a;fill-opacity:1;fill-rule:nonzero;stroke:none;stroke-width:0.03527778"
         id="path7413"
         inkscape:connector-curvature="0" />
      <path
         d="m 148.87804,89.492739 h 2.35466 v -1.05268 h -2.35466 z"
         style="fill:#ee2e7f;fill-opacity:1;fill-rule:nonzero;stroke:none;stroke-width:0.03527778"
         id="path7415"
         inkscape:connector-curvature="0" />
      <path
         d="m 149.48715,89.492739 h 1.74556 v -1.05268 h -1.74556 z"
         style="fill:#ae307a;fill-opacity:1;fill-rule:nonzero;stroke:none;stroke-width:0.03527778"
         id="path7417"
         inkscape:connector-curvature="0" />
      <path
         d="m 150.05103,88.861619 c 0.0276,-0.47272 0.29079,-0.84878 0.61048,-0.90522 l -0.0372,-0.008 c -0.36682,-0.0204 -0.68858,0.38805 -0.71889,0.91299 -0.0308,0.52493 0.24183,0.96802 0.60865,0.98954 0.0366,0.002 0.0731,-10e-4 0.10887,-0.008 -0.34685,-0.048 -0.60082,-0.47519 -0.57189,-0.98178"
         style="fill:#4b0f24;fill-opacity:1;fill-rule:nonzero;stroke:none;stroke-width:0.03527778"
         id="path7419"
         inkscape:connector-curvature="0" />
      <path
         d="m 151.23273,88.938169 c 0.0296,-0.50658 -0.22465,-0.93309 -0.57122,-0.98177 -0.31969,0.0564 -0.58289,0.4325 -0.61048,0.90522 -0.0289,0.50659 0.22504,0.9338 0.57189,0.98178 0.31972,-0.0564 0.58293,-0.4325 0.60981,-0.90523"
         style="fill:#ee2e7f;fill-opacity:1;fill-rule:nonzero;stroke:none;stroke-width:0.03527778"
         id="path7421"
         inkscape:connector-curvature="0" />
      <path
         d="m 150.79973,88.932529 -0.0335,0.0339 h -0.54709 l -0.0338,-0.0339 0.0338,-0.0332 h 0.54709 l 0.0335,0.0332"
         style="fill:#1c1c1c;fill-opacity:1;fill-rule:nonzero;stroke:none;stroke-width:0.03527778"
         id="path7423"
         inkscape:connector-curvature="0" />
      <path
         d="m 150.77313,88.966399 -0.0262,-0.0268 v -0.43286 l 0.0262,-0.0268 0.0266,0.0268 v 0.43286 l -0.0266,0.0268"
         style="fill:#1c1c1c;fill-opacity:1;fill-rule:nonzero;stroke:none;stroke-width:0.03527778"
         id="path7425"
         inkscape:connector-curvature="0" />
      <path
         d="m 150.62747,89.596809 c -0.26705,-0.037 -0.46232,-0.36512 -0.4396,-0.756 0.021,-0.36301 0.22324,-0.65299 0.46923,-0.69568 0.26667,0.037 0.46193,0.36513 0.4396,0.75565 -0.0211,0.36336 -0.22367,0.65264 -0.46923,0.69603 z m 0.034,-1.64041 c -0.31969,0.0564 -0.5829,0.4325 -0.61049,0.90522 -0.0289,0.50659 0.22504,0.9338 0.57189,0.98178 0.31972,-0.0564 0.58293,-0.4325 0.60981,-0.90523 0.0296,-0.50658 -0.22465,-0.93309 -0.57121,-0.98177"
         style="fill:#ae307a;fill-opacity:1;fill-rule:nonzero;stroke:none;stroke-width:0.03527778"
         id="path7427"
         inkscape:connector-curvature="0" />
      <path
         d="m 128.08169,70.872779 c -0.17226,-0.12559 -0.3459,-0.24871 -0.51954,-0.37218 l 0.99011,-3.61598 c 0.46415,-1.54552 3.19842,-1.59561 3.19842,-1.59561 0.002,0.6036 0.36905,7.91669 0.36449,8.56015 l -0.0372,0.0959 c -1.35738,-0.99094 -2.63687,-2.0842 -3.9963,-3.07233"
         style="fill:#408fd4;fill-opacity:1;fill-rule:nonzero;stroke:none;stroke-width:0.03527778"
         id="path7429"
         inkscape:connector-curvature="0" />
      <path
         d="m 139.88524,110.97832 c 4.65159,-0.22504 8.57596,-1.29646 8.57596,-1.29646 -0.44581,-4.38291 -1.63682,-24.984081 -1.63682,-24.984081 l -0.006,-0.002 c -0.20811,-1.72578 -1.0046,-4.81965 -1.0046,-5.21581 0,0 1.10656,-12.9466 0.94809,-14.19084 l -7.56432,-1.74802 -7.56444,1.74802 c -0.1585,1.24424 0.9912,14.19084 0.9912,14.19084 0,0.40322 -0.81414,3.63466 -1.00087,5.35799 -0.15709,1.32573 -1.20537,20.766261 -1.61713,24.815791 0,0 3.92441,1.07209 8.57554,1.29713 l 1.30361,0.0275"
         style="fill:#44a1df;fill-opacity:1;fill-rule:nonzero;stroke:none;stroke-width:0.03527778"
         id="path7431"
         inkscape:connector-curvature="0"
         sodipodi:nodetypes="ccccccccccccc" />
      <path
         d="m 146.81817,84.695669 c -0.2081,-1.72579 -1.00459,-4.81965 -1.00459,-5.21582 0,0 0.22323,-2.61056 0.45475,-5.60035 h -14.11731 c 0.24116,2.98979 0.47307,5.60035 0.47307,5.60035 0,0.40322 -0.81414,3.63467 -1.00086,5.35799 -0.1571,1.32574 -1.20537,20.766261 -1.61714,24.815801 0,0 3.9244,1.07209 8.57553,1.29712 l 1.30362,0.0275 c 4.65159,-0.22503 8.57596,-1.29645 8.57596,-1.29645 -0.44581,-4.38292 -1.63682,-24.984081 -1.63682,-24.984081 l -0.006,-0.002"
         style="fill:#408fd4;fill-opacity:1;fill-rule:nonzero;stroke:none;stroke-width:0.03527778"
         id="path7433"
         inkscape:connector-curvature="0"
         sodipodi:nodetypes="cccccccccccc" />
      <path
         d="m 137.23917,63.534649 -2.02065,0.99236 c 0,0 0.0176,4.25027 1.7315,4.85951 1.7143,0.60925 2.24555,-1.91064 2.24555,-1.91064 0,0 -1.89138,-0.65793 -1.9564,-3.94123"
         style="fill:#eff25a;fill-opacity:1;fill-rule:nonzero;stroke:none;stroke-width:0.03527778"
         id="path7435"
         inkscape:connector-curvature="0" />
      <path
         d="m 141.1696,63.543459 2.01605,1.00119 c 0,0 -0.0358,4.24921 -1.75284,4.8514 -1.71704,0.60148 -2.23725,-1.92017 -2.23725,-1.92017 0,0 1.8941,-0.64982 1.97404,-3.93242"
         style="fill:#eff25a;fill-opacity:1;fill-rule:nonzero;stroke:none;stroke-width:0.03527778"
         id="path7437"
         inkscape:connector-curvature="0" />
      <path
         inkscape:connector-curvature="0"
         id="path7120-9"
         d="m 133.56897,64.897889 c -0.48296,-0.30628 -0.60313,-0.34027 -0.66187,-0.18722 -0.1113,0.29004 -0.49339,0.2209 -0.72397,-0.13101 l -0.20837,-0.31802 -0.39887,0.24349 c -0.97228,0.59354 -1.80696,0.55791 -2.3956,-0.10227 -0.33694,-0.37788 -0.84851,-0.62852 -1.28289,-0.62852 -0.47995,0 -0.86884,-0.43726 -0.97405,-1.09523 -0.0704,-0.44023 -0.14065,-0.54297 -0.41188,-0.60236 -1.09689,-0.24019 -1.6583,-0.46419 -1.98684,-0.79272 -0.392,-0.392 -0.64927,-1.17719 -0.64927,-1.98155 0,-0.39075 -0.0661,-0.53532 -0.32095,-0.70233 -0.26727,-0.17512 -0.31509,-0.29149 -0.28591,-0.69567 0.0312,-0.43173 -0.0127,-0.51743 -0.39673,-0.77539 -0.5088,-0.34175 -0.6223,-0.91954 -0.32187,-1.63856 l 0.18594,-0.44501 -0.7544,-0.45827 c -1.15962,-0.70443 -1.3263,-1.42058 -0.87172,-3.74523 l 0.2224,-1.13728 -0.35914,-0.51842 c -0.19753,-0.28513 -0.3909,-0.71419 -0.42973,-0.95345 -0.0633,-0.39035 -0.013,-0.49265 0.49041,-0.99603 0.49426,-0.49427 0.54121,-0.58706 0.39476,-0.78002 -0.23844,-0.31414 -0.21201,-0.62662 0.0887,-1.04896 0.25121,-0.3528 0.25318,-0.37996 0.0442,-0.61087 -0.12029,-0.13292 -0.24539,-0.51947 -0.27802,-0.85902 -0.0712,-0.74126 0.24246,-1.34594 0.91331,-1.76055 0.39578,-0.2446 0.43057,-0.31535 0.43057,-0.87565 0,-0.50336 0.0673,-0.68615 0.38602,-1.04921 0.21801,-0.24829 0.59828,-0.50325 0.87371,-0.58577 0.26822,-0.0804 0.48768,-0.17573 0.48768,-0.21192 0,-0.0362 -0.1245,-0.19833 -0.27666,-0.3603 -0.35655,-0.37953 -0.19643,-0.66679 0.47734,-0.85636 l 0.48581,-0.13669 -0.043,-0.64758 c -0.0587,-0.88457 0.19155,-1.26376 0.83401,-1.26376 0.41824,0 0.49756,-0.0509 0.68218,-0.43809 0.28706,-0.60196 1.16762,-1.5321 1.71459,-1.81116 0.82885,-0.42284 1.58594,-0.37678 2.1651,0.13172 l 0.43139,0.37878 0.57108,-0.40253 0.57108,-0.40254 0.37192,0.27498 0.37192,0.27497 0.31932,-0.63014 c 0.88362,-1.74371 2.60533,-2.64426 3.96737,-2.07515 0.39498,0.16503 1.21101,0.97567 1.21101,1.20301 0,0.0631 0.13785,-0.0231 0.30636,-0.19157 0.36787,-0.36788 1.22287,-0.4163 2.07046,-0.11726 l 0.53599,0.18911 0.71681,-0.56315 c 0.94151,-0.7397 1.85286,-1.18803 2.41497,-1.18803 0.60433,0 1.51648,0.48192 2.13079,1.12577 0.27459,0.28779 0.71203,0.65978 0.97208,0.82665 0.63534,0.40768 0.78876,0.7707 0.62612,1.48145 -0.0705,0.30812 -0.11087,0.56021 -0.0897,0.56021 0.0212,0 0.30257,-0.14041 0.62536,-0.31203 0.61409,-0.32652 1.2757,-0.39986 1.67575,-0.18576 0.3141,0.1681 0.49774,0.87507 0.37206,1.43233 -0.0952,0.42223 -0.0857,0.44201 0.16778,0.34939 0.14779,-0.054 0.55594,-0.094 0.907,-0.0888 1.66983,0.0245 3.22431,1.93002 2.99356,3.66949 l -0.0778,0.58677 0.48992,0.14679 c 0.32848,0.0984 0.69831,0.37478 1.12222,0.8386 1.29556,1.41755 1.23173,2.90289 -0.15635,3.63814 -0.20364,0.10787 -0.18192,0.13322 0.17533,0.20467 0.75984,0.15197 0.92769,0.53538 0.55078,1.25816 -0.16874,0.32359 -0.16942,0.37901 -0.006,0.47057 0.40894,0.22886 0.9213,0.73391 0.98269,0.96869 0.0358,0.13685 -0.0303,0.43591 -0.1469,0.66459 -0.20441,0.40093 -0.2018,0.43781 0.0731,1.03202 0.62517,1.35148 0.18569,2.76138 -1.15544,3.7067 l -0.53406,0.37643 0.33361,0.50412 c 0.67595,1.02144 0.31602,2.21073 -0.94264,3.11463 -0.30187,0.21678 -0.71067,0.68242 -0.91936,1.04717 -0.48014,0.8392 -1.28558,1.66622 -1.9233,1.97483 -0.30007,0.14522 -0.8564,0.26138 -1.39447,0.29117 -0.86025,0.0476 -0.90133,0.0643 -1.05174,0.42744 -0.29825,0.72005 -0.71567,1.09402 -1.21571,1.08918 -0.25135,-0.002 -0.59739,-0.0847 -0.76902,-0.1828 -0.482,-0.27554 -0.58582,-0.2269 -0.67246,0.31507 -0.0975,0.60982 -0.62985,0.99431 -1.37759,0.99503 -0.26944,2.5e-4 -0.89524,0.14038 -1.39069,0.31138 -1.78954,0.61766 -2.51395,0.70389 -5.57055,0.66304 l -2.83297,-0.0379 -0.47464,0.45331 c -0.89449,0.85425 -1.31225,0.92223 -2.20162,0.35821 z"
         style="fill:#222324;fill-opacity:1;stroke-width:0.12481521" />
      <path
         d="m 141.16406,65.129199 c 0,0.40922 -0.98047,2.33292 -1.9619,2.33292 -0.98115,0 -1.96205,-1.9237 -1.96205,-2.33292 v -3.66148 c 0,-0.8195 0.66421,-1.48343 1.48319,-1.48343 h 0.958 c 0.81926,0 1.48276,0.66393 1.48276,1.48343 v 3.66148"
         style="fill:#825b3e;fill-opacity:1;fill-rule:nonzero;stroke:none;stroke-width:0.03527778"
         id="path7439"
         inkscape:connector-curvature="0" />
      <path
         d="m 149.59318,52.720699 c -0.13828,-0.21484 -0.31714,-0.40357 -0.53409,-0.54962 -0.5401,-0.36336 -1.4277,-0.63183 -2.49696,0.29809 -0.79657,0.69251 -1.15288,1.78118 -1.26965,2.7933 -0.0815,0.70979 -0.18026,2.05352 0.76024,2.25037 0.56338,0.11853 1.19838,-0.266 1.65805,-0.54575 0.94051,-0.57185 2.08068,-1.69898 2.20556,-2.85327 0.0526,-0.48507 -0.0628,-0.98566 -0.32315,-1.39312"
         style="fill:#845b3e;fill-opacity:1;fill-rule:nonzero;stroke:none;stroke-width:0.03527778"
         id="path3349-5"
         inkscape:connector-curvature="0" />
      <path
         d="m 128.80188,52.720699 c 0.13864,-0.21484 0.31786,-0.40357 0.53481,-0.54962 0.5394,-0.36336 1.42805,-0.63183 2.49626,0.29809 0.79657,0.69251 1.15288,1.78118 1.27,2.7933 0.0815,0.70979 0.17992,2.05352 -0.76094,2.25037 -0.56268,0.11853 -1.19804,-0.266 -1.65771,-0.54575 -0.9405,-0.57185 -2.08068,-1.69898 -2.20556,-2.85327 -0.0533,-0.48507 0.0624,-0.98566 0.32314,-1.39312"
         style="fill:#845b3e;fill-opacity:1;fill-rule:nonzero;stroke:none;stroke-width:0.03527778"
         id="path3351-4"
         inkscape:connector-curvature="0" />
      <path
         sodipodi:nodetypes="cccccc"
         d="m 129.3442,48.680389 c 0,0 2.18571,9.49532 2.20582,9.59057 0.63077,2.86067 4.68983,5.38374 7.64752,5.27015 2.95804,0.11359 7.01604,-2.40948 7.64822,-5.27015 0.21107,-0.16698 1.91039,-11.28751 1.16498,-11.00798 -4.69013,-3.80606 -9.69752,-7.34518 -16.06795,-2.03162"
         style="fill:#9a6747;fill-opacity:1;fill-rule:nonzero;stroke:none;stroke-width:0.03527778"
         id="path3353-4"
         inkscape:connector-curvature="0" />
      <path
         d="m 130.67443,50.559939 -0.006,0.025 0.006,-0.025"
         style="fill:#3d3d3f;fill-opacity:1;fill-rule:nonzero;stroke:none;stroke-width:0.03527778"
         id="path3355-1"
         inkscape:connector-curvature="0" />
      <path
         d="m 121.07288,51.956589 c 0.63605,-0.50765 1.01705,-1.19239 0.88264,-2.12055 10e-4,10e-4 0.002,0.002 0.003,0.003 0.13299,0.9271 -0.24942,1.61008 -0.88547,2.11702 m 35.02588,-6.46712 c -0.002,-0.002 -0.004,-0.004 -0.006,-0.007 0.002,0.002 0.004,0.005 0.006,0.007 m -0.009,-0.01 c -0.001,-10e-4 -0.002,-0.002 -0.003,-0.003 0.001,0.001 0.002,0.002 0.003,0.003 m -0.007,-0.007 c -7.9e-4,-10e-4 -0.002,-0.002 -0.002,-0.003 8e-4,10e-4 0.002,0.002 0.002,0.003 m -0.006,-0.007 c -7.9e-4,-7.2e-4 -0.002,-10e-4 -0.002,-0.003 8e-4,10e-4 0.001,0.002 0.002,0.003 m -0.006,-0.007 c -2.6e-4,-3.5e-4 -7.9e-4,-7.2e-4 -0.001,-7.2e-4 2.7e-4,0 8e-4,3.5e-4 0.001,7.2e-4 m -0.0229,-0.024 h -2.6e-4 2.6e-4 m -0.14922,-0.14464 c -2.6e-4,-3.5e-4 -7.9e-4,-7.2e-4 -0.001,-10e-4 2.7e-4,3.4e-4 8e-4,7.1e-4 0.001,10e-4 m -0.006,-0.005 c -2.6e-4,-3.5e-4 -0.001,-7.2e-4 -0.001,-10e-4 2.7e-4,7.1e-4 0.001,10e-4 0.001,10e-4 m -0.006,-0.005 c -0.001,-7.2e-4 -0.002,-0.001 -0.002,-0.002 8e-4,7.1e-4 0.001,10e-4 0.002,0.002 m -0.006,-0.005 c -0.001,-10e-4 -0.003,-0.002 -0.004,-0.004 0.001,10e-4 0.003,0.002 0.004,0.004 m -0.006,-0.005 c -0.002,-0.002 -0.004,-0.004 -0.006,-0.006 0.002,0.002 0.004,0.004 0.006,0.006 m -0.008,-0.007 c -0.002,-10e-4 -0.004,-0.003 -0.006,-0.005 0.002,0.002 0.004,0.003 0.006,0.005 m -0.006,-0.006 c -0.002,-0.002 -0.004,-0.004 -0.006,-0.005 0.002,0.002 0.004,0.004 0.006,0.005 m -0.007,-0.006 c -0.41733,-0.35984 -0.87065,-0.5394 -1.35149,-0.78846 v -3.4e-4 c 0.48084,0.2487 0.93451,0.42897 1.35149,0.78881"
         style="fill:#b8bab8;fill-opacity:1;fill-rule:nonzero;stroke:none;stroke-width:0.03527778"
         id="path3359-4"
         inkscape:connector-curvature="0" />
      <path
         d="m 130.66032,54.423919 c 0,0 -1.85491,-7.17445 2.94887,-10.05558 4.80378,-2.88184 16.33113,-1.17193 13.9767,9.69539 0,0 2.60596,-6.6608 -1.55152,-10.67647 -4.15677,-4.01637 -11.97786,-3.94193 -15.22517,0.62724 -3.24662,4.56953 -0.14888,10.40942 -0.14888,10.40942"
         style="fill:#eff25a;fill-opacity:1;fill-rule:nonzero;stroke:none;stroke-width:0.03527778"
         id="path3363-0"
         inkscape:connector-curvature="0" />
      <path
         d="m 138.51315,54.554799 c 0,0 0.0635,0.0561 0.11078,0.15875 0.0533,0.0998 0.0868,0.248 0.085,0.39828 -0.0113,0.0751 -0.0141,0.15205 -0.0409,0.21837 -0.0261,0.0695 -0.0508,0.13088 -0.0875,0.1771 -0.0755,0.0949 -0.14287,0.13511 -0.14287,0.13511 0,0 -0.0116,-0.0882 -0.004,-0.18486 l -0.002,-0.0818 0.002,-0.0875 0.002,-0.0924 0.004,-0.0938 c 0.001,-0.0646 0.005,-0.12876 0.012,-0.19014 0.004,-0.0628 0.0138,-0.12136 0.0205,-0.17357 0.0173,-0.10477 0.042,-0.18344 0.042,-0.18344"
         style="fill:#522619;fill-opacity:1;fill-rule:nonzero;stroke:none;stroke-width:0.03527778"
         id="path3381-6"
         inkscape:connector-curvature="0" />
      <path
         d="m 139.08747,56.199089 c 0,0 -0.0423,-0.0504 -0.121,-0.13229 -0.0762,-0.0822 -0.1979,-0.19297 -0.35207,-0.28963 -0.079,-0.042 -0.16546,-0.0907 -0.25788,-0.0991 -0.0907,-0.0124 -0.18239,-0.005 -0.2674,0.0462 -0.0871,0.0427 -0.16158,0.12735 -0.23601,0.21343 -0.0236,0.0243 -0.0653,0.10019 -0.0974,0.14817 -0.0247,0.0519 -0.0342,0.0917 -0.0519,0.13935 -0.018,0.0998 -0.0169,0.20037 0.0265,0.29562 0.0434,0.0928 0.10407,0.18521 0.18485,0.26106 0.079,0.0765 0.16581,0.14393 0.25646,0.19897 0.0885,0.0568 0.17852,0.10548 0.26423,0.14217 0.17145,0.0751 0.32457,0.12664 0.43462,0.13899 0.0564,0.0113 0.10019,0.0123 0.13089,0.0152 l 0.0469,0.002 -0.0459,0.0123 c -0.0296,0.006 -0.0744,0.0222 -0.13334,0.0229 -0.11572,0.0116 -0.28858,0.006 -0.48472,-0.0448 -0.0981,-0.0229 -0.20462,-0.0593 -0.30974,-0.11042 -0.10795,-0.0487 -0.21767,-0.11289 -0.31891,-0.20179 -0.10266,-0.0833 -0.20073,-0.19367 -0.26529,-0.33196 -0.0667,-0.13794 -0.0797,-0.30692 -0.049,-0.46249 0.0226,-0.0751 0.0575,-0.1577 0.0903,-0.22049 0.042,-0.0586 0.0596,-0.0984 0.11889,-0.17074 0.0928,-0.10619 0.20108,-0.20532 0.33655,-0.26177 0.13158,-0.0691 0.29175,-0.0628 0.41486,-0.0296 0.12983,0.0314 0.22261,0.10725 0.30516,0.17216 0.15734,0.13829 0.2413,0.28504 0.30198,0.38312 0.0572,0.10054 0.0783,0.16333 0.0783,0.16333"
         style="fill:#522619;fill-opacity:1;fill-rule:nonzero;stroke:none;stroke-width:0.03527778"
         id="path3383-6"
         inkscape:connector-curvature="0" />
      <path
         d="m 133.38129,50.942349 c 0,0 0.009,-0.0646 0.0384,-0.17498 0.0325,-0.10759 0.0787,-0.26387 0.16052,-0.44097 0.0808,-0.1785 0.19261,-0.38312 0.36195,-0.57467 0.0861,-0.0935 0.18097,-0.19227 0.3048,-0.26176 l 0.0935,-0.0529 0.10337,-0.0395 c 0.0674,-0.0296 0.14534,-0.0349 0.21978,-0.0455 0.0751,-0.009 0.15028,0.012 0.22436,0.0173 0.0857,0.0201 0.12878,0.0395 0.19298,0.0579 0.13793,0.0571 0.25541,0.12982 0.35418,0.21448 0.1009,0.0811 0.18345,0.17851 0.24907,0.27411 0.0692,0.0945 0.11748,0.19227 0.15875,0.28258 0.0822,0.18238 0.11184,0.34643 0.13229,0.45614 0.0183,0.11289 0.0169,0.17851 0.0169,0.17851 0,0 -0.0219,-0.0607 -0.067,-0.16334 -0.0423,-0.10266 -0.11678,-0.24271 -0.21872,-0.39829 -0.0529,-0.0744 -0.11148,-0.15522 -0.18062,-0.23142 -0.0684,-0.0759 -0.14888,-0.14746 -0.23673,-0.21025 -0.0875,-0.0674 -0.19084,-0.11042 -0.28397,-0.1517 -0.12842,-0.0427 -0.2205,-0.0614 -0.32563,-0.0564 -0.0508,0.008 -0.10371,0.008 -0.1531,0.0289 l -0.0751,0.0261 -0.072,0.0395 c -0.0956,0.0522 -0.18521,0.12241 -0.266,0.20038 -0.16086,0.15452 -0.29068,0.3309 -0.39863,0.48436 -0.10442,0.15628 -0.19297,0.28857 -0.24624,0.38806 -0.0557,0.097 -0.0871,0.15346 -0.0871,0.15346"
         style="fill:#522619;fill-opacity:1;fill-rule:nonzero;stroke:none;stroke-width:0.03527778"
         id="path3385-1"
         inkscape:connector-curvature="0" />
      <path
         d="m 141.87653,50.353919 c 0,0 0.0762,-0.20109 0.28928,-0.44415 0.0568,-0.0582 0.11218,-0.12629 0.18909,-0.18344 0.0713,-0.0614 0.15452,-0.11783 0.2473,-0.16898 0.0437,-0.0296 0.097,-0.0434 0.14746,-0.066 0.0508,-0.0215 0.10301,-0.0434 0.16122,-0.0483 0.0561,-0.009 0.11289,-0.0212 0.17074,-0.0282 l 0.17639,0.008 c 0.06,-10e-4 0.11465,0.0212 0.17039,0.0363 0.0554,0.018 0.11466,0.0282 0.16475,0.0543 0.0949,0.0582 0.19932,0.10477 0.27481,0.17638 0.0766,0.0706 0.15487,0.13512 0.21308,0.20673 0.0579,0.0744 0.1083,0.1457 0.15417,0.21167 0.0935,0.13017 0.13793,0.25894 0.17991,0.34114 0.0381,0.0847 0.0561,0.13299 0.0561,0.13299 0,0 -0.0367,-0.0381 -0.1023,-0.10477 -0.0653,-0.0642 -0.14217,-0.16828 -0.25435,-0.27094 -0.0557,-0.0515 -0.11536,-0.10583 -0.17604,-0.16651 -0.0635,-0.0571 -0.14076,-0.10019 -0.21096,-0.15663 -0.0702,-0.06 -0.16087,-0.079 -0.23848,-0.12947 -0.0409,-0.0205 -0.0868,-0.024 -0.12841,-0.037 -0.0438,-0.012 -0.0875,-0.0289 -0.13229,-0.0272 l -0.13371,-0.008 c -0.0445,0.004 -0.0893,0.0123 -0.13264,0.0173 -0.0882,0.0123 -0.17639,0.0427 -0.25753,0.0737 -0.0811,0.0378 -0.16122,0.0723 -0.23318,0.11783 -0.0737,0.0406 -0.13723,0.0917 -0.20038,0.133 -0.24201,0.18097 -0.39441,0.33055 -0.39441,0.33055"
         style="fill:#522619;fill-opacity:1;fill-rule:nonzero;stroke:none;stroke-width:0.03527778"
         id="path3387-7"
         inkscape:connector-curvature="0" />
      <path
         d="m 134.51935,53.055489 c 0.0265,0.49001 0.20744,0.85443 0.40499,0.81104 0.19685,-0.0413 0.33302,-0.47378 0.30621,-0.96379 -0.0254,-0.49283 -0.20849,-0.85514 -0.40428,-0.81316 -0.19791,0.0413 -0.3362,0.47484 -0.30692,0.96591"
         style="fill:#592620;fill-opacity:1;fill-rule:nonzero;stroke:none;stroke-width:0.03527778"
         id="path3389-2"
         inkscape:connector-curvature="0" />
      <path
         d="m 134.906,52.594759 c 0.0173,0.14746 0.0815,0.24942 0.14076,0.23213 0.0603,-0.0187 0.0921,-0.15169 0.073,-0.29845 -0.0187,-0.14393 -0.0822,-0.248 -0.14217,-0.23072 -0.0596,0.018 -0.0914,0.1517 -0.0716,0.29704"
         style="fill:#ffffff;fill-opacity:1;fill-rule:nonzero;stroke:none;stroke-width:0.03527778"
         id="path3391-9"
         inkscape:connector-curvature="0" />
      <path
         d="m 142.72955,53.085119 c 0.0279,0.49142 0.20955,0.85514 0.40534,0.81175 0.19862,-0.0427 0.33514,-0.47379 0.30657,-0.96379 -0.0251,-0.49283 -0.20779,-0.85514 -0.40499,-0.81245 -0.19791,0.0413 -0.33479,0.47413 -0.30692,0.96449"
         style="fill:#592620;fill-opacity:1;fill-rule:nonzero;stroke:none;stroke-width:0.03527778"
         id="path3393-1"
         inkscape:connector-curvature="0" />
      <path
         d="m 143.11655,52.624399 c 0.0183,0.14746 0.0818,0.24941 0.14146,0.23142 0.06,-0.0173 0.0924,-0.15029 0.0727,-0.29634 -0.0198,-0.14605 -0.0818,-0.25011 -0.14217,-0.23071 -0.0593,0.018 -0.0914,0.15099 -0.072,0.29563"
         style="fill:#ffffff;fill-opacity:1;fill-rule:nonzero;stroke:none;stroke-width:0.03527778"
         id="path3395-0"
         inkscape:connector-curvature="0" />
      <path
         d="m 138.87545,59.865159 c 1.62172,-0.12136 2.37561,-0.85972 2.68358,-1.76742 -2.29658,0.6657 -3.86997,0.60043 -4.84681,0.38876 0.26494,0.5768 0.88759,1.47673 2.16323,1.37866"
         style="fill:#ffffff;fill-opacity:1;fill-rule:nonzero;stroke:none;stroke-width:0.03527778"
         id="path3397-3"
         inkscape:connector-curvature="0" />
      <path
         d="m 142.93663,57.640539 c -0.48683,0.18098 -0.94439,0.33197 -1.3776,0.4572 -0.30797,0.9077 -1.06186,1.64606 -2.68358,1.76742 -1.27564,0.0981 -1.89829,-0.80186 -2.16323,-1.37866 -0.87806,-0.19085 -1.27423,-0.49812 -1.27423,-0.49812 0.0586,0.57679 0.63253,2.93723 2.45145,3.6001 0.54822,-0.51259 1.58962,-1.15888 2.70722,-0.1524 1.2266,-0.58984 1.99319,-1.92828 2.33997,-3.79554"
         style="fill:#861625;fill-opacity:1;fill-rule:nonzero;stroke:none;stroke-width:0.03527778"
         id="path3399-4"
         inkscape:connector-curvature="0" />
      <path
         d="m 134.31933,54.871239 c -0.0617,0.37288 -0.83926,0.55809 -1.73814,0.41063 -0.90099,-0.14887 -1.58044,-0.57326 -1.52153,-0.94685 0.0635,-0.37324 0.84243,-0.55739 1.74061,-0.40993 0.90099,0.14746 1.58185,0.57185 1.51906,0.94615"
         style="fill:#995139;fill-opacity:1;fill-rule:nonzero;stroke:none;stroke-width:0.03527778"
         id="path3403-3"
         inkscape:connector-curvature="0" />
      <path
         d="m 146.86552,54.468009 c 0.0681,0.37289 -0.6029,0.80822 -1.49931,0.96944 -0.89816,0.16333 -1.68134,-0.008 -1.75013,-0.38171 -0.0663,-0.37253 0.60501,-0.8068 1.50178,-0.96873 0.89817,-0.16333 1.68169,0.008 1.74766,0.381"
         style="fill:#995139;fill-opacity:1;fill-rule:nonzero;stroke:none;stroke-width:0.03527778"
         id="path3405-7"
         inkscape:connector-curvature="0" />
      <path
         d="m 147.98602,55.444639 c 0,0 -0.004,-0.0222 -0.009,-0.06 -0.004,-0.0392 -0.0116,-0.096 0.003,-0.16299 0.006,-0.0342 0.008,-0.072 0.0275,-0.10936 0.0155,-0.036 0.0268,-0.0797 0.0564,-0.11395 0.0258,-0.037 0.0504,-0.0797 0.0893,-0.1083 0.0339,-0.0339 0.0737,-0.0621 0.11499,-0.0878 0.0847,-0.0459 0.17675,-0.0755 0.26353,-0.0836 0.0289,-0.004 0.0568,-0.006 0.084,-0.006 0.0536,0 0.10301,0.007 0.14641,0.0141 0.13335,0.0247 0.20919,0.0755 0.20919,0.0755 0,0 -0.0829,0.0159 -0.20814,0.0402 -0.0593,0.0152 -0.12841,0.0272 -0.1965,0.0501 -0.0349,0.007 -0.0663,0.0275 -0.10123,0.0363 -0.0321,0.0169 -0.0684,0.0286 -0.0963,0.0494 -0.0646,0.0328 -0.11712,0.079 -0.16369,0.12806 l -0.0642,0.0762 -0.0522,0.078 -0.0427,0.072 -0.03,0.0589 c -0.018,0.0335 -0.0307,0.0533 -0.0307,0.0533"
         style="fill:#522619;fill-opacity:1;fill-rule:nonzero;stroke:none;stroke-width:0.03527778"
         id="path3141-4-6"
         inkscape:connector-curvature="0" />
      <path
         d="m 130.12554,55.124249 c 0,0 -0.01,-0.0208 -0.0233,-0.0568 l -0.0226,-0.0628 -0.0332,-0.0758 -0.0416,-0.0843 -0.0536,-0.0836 c -0.0413,-0.054 -0.0868,-0.10795 -0.1464,-0.14852 l -0.0892,-0.0617 c -0.0328,-0.0134 -0.0617,-0.0356 -0.096,-0.048 -0.0646,-0.0321 -0.13053,-0.0529 -0.18803,-0.0755 -0.121,-0.0395 -0.20179,-0.066 -0.20179,-0.066 0,0 0.0815,-0.0402 0.21731,-0.049 0.0131,-3.5e-4 0.0265,-3.5e-4 0.0402,-3.5e-4 0.0579,0 0.12312,0.004 0.19015,0.0229 0.085,0.0183 0.17145,0.0596 0.24976,0.11712 0.0378,0.03 0.0741,0.0632 0.10372,0.10055 0.0346,0.0349 0.0526,0.079 0.0741,0.11853 0.0243,0.0384 0.0296,0.0825 0.042,0.121 0.0131,0.0392 0.0117,0.0776 0.0123,0.11183 0.008,0.0684 -0.009,0.12348 -0.0173,0.16228 -0.009,0.0378 -0.0166,0.0582 -0.0166,0.0582"
         style="fill:#522619;fill-opacity:1;fill-rule:nonzero;stroke:none;stroke-width:0.03527778"
         id="path3145-6-2"
         inkscape:connector-curvature="0" />
      <path
         d="m 141.19094,86.423929 h 5.09434 c 0,0 0.63693,4.62315 -2.54703,4.69759 -3.18396,0.0744 -2.54731,-4.69759 -2.54731,-4.69759"
         style="fill:#eff25a;fill-opacity:1;fill-rule:nonzero;stroke:none;stroke-width:0.03527778"
         id="path7441"
         inkscape:connector-curvature="0" />
    </g>
  </g>
</svg>
