<?xml version="1.0" encoding="UTF-8" standalone="no"?>
<!-- Created with Inkscape (http://www.inkscape.org/) -->

<svg
   xmlns:dc="http://purl.org/dc/elements/1.1/"
   xmlns:cc="http://creativecommons.org/ns#"
   xmlns:rdf="http://www.w3.org/1999/02/22-rdf-syntax-ns#"
   xmlns:svg="http://www.w3.org/2000/svg"
   xmlns="http://www.w3.org/2000/svg"
   xmlns:sodipodi="http://sodipodi.sourceforge.net/DTD/sodipodi-0.dtd"
   xmlns:inkscape="http://www.inkscape.org/namespaces/inkscape"
   width="94.062279mm"
   height="44.940876mm"
   viewBox="0 0 94.062279 44.940876"
   version="1.1"
   id="svg540"
   inkscape:version="0.92.1 r15371"
   sodipodi:docname="truck_with_fish_1.svg">
  <defs
     id="defs534" />
  <sodipodi:namedview
     id="base"
     pagecolor="#ffffff"
     bordercolor="#666666"
     borderopacity="1.0"
     inkscape:pageopacity="0.0"
     inkscape:pageshadow="2"
     inkscape:zoom="0.98994949"
     inkscape:cx="35.149596"
     inkscape:cy="231.87"
     inkscape:document-units="mm"
     inkscape:current-layer="master-artboard"
     showgrid="false"
     inkscape:window-width="1600"
     inkscape:window-height="877"
     inkscape:window-x="1358"
     inkscape:window-y="-8"
     inkscape:window-maximized="1"
     fit-margin-top="0"
     fit-margin-left="0"
     fit-margin-right="0"
     fit-margin-bottom="0" />
  <metadata
     id="metadata537">
    <rdf:RDF>
      <cc:Work
         rdf:about="">
        <dc:format>image/svg+xml</dc:format>
        <dc:type
           rdf:resource="http://purl.org/dc/dcmitype/StillImage" />
        <dc:title></dc:title>
      </cc:Work>
    </rdf:RDF>
  </metadata>
  <g
     inkscape:label="Layer 1"
     inkscape:groupmode="layer"
     id="layer1"
     transform="translate(-50.902334,-67.342374)">
    <g
       transform="matrix(0.17714177,0,0,0.17714177,-41.889166,60.093281)"
       id="master-artboard"
       viewBox="0 0 1096 780"
       version="1.1"
       x="0px"
       y="0px">
      <g
         id="g1365"
         transform="matrix(-1,0,0,1,1102.8262,-396.87744)">
        <path
           id="path273"
           style="fill:#d1d3d4"
           d="m 527.1,508.2 h -9 c -0.8,0 -1.4,0.6 -1.4,1.4 v 25.1 c 0,0.8 0.6,1.4 1.4,1.4 h 9 c 0.8,0 1.4,-0.6 1.4,-1.4 v -25.1 c 0,-0.8 -0.6,-1.4 -1.4,-1.4 z"
           class="st1"
           inkscape:connector-curvature="0" />
        <path
           id="path275"
           style="fill:#58595b"
           class="st2"
           d="m 150.5,653.29999 295.39999,4.10003 V 605.20001 H 59.400002 v 39.89997 z"
           inkscape:connector-curvature="0" />
        <path
           id="path277"
           style="fill:#4d4d4f"
           class="st3"
           d="m 445.89999,606.40002 h 79.7 v 55.3 h -79.7 z"
           inkscape:connector-curvature="0" />
        <path
           id="path279"
           style="fill:#f1f2f2"
           class="st18"
           d="M 49.700001,437.79999 H 434.80001 v 184.5 H 49.700001 Z"
           inkscape:connector-curvature="0" />
        <path
           id="path281"
           style="fill:#e6e7e8"
           class="st19"
           d="M 49.700001,437.79999 H 434.80001 v 7.5 H 49.700001 Z"
           inkscape:connector-curvature="0" />
        <path
           id="path283"
           style="fill:#e6e7e8"
           class="st19"
           d="m 427.29999,437.79999 h 7.5 v 184.5 h -7.5 z"
           inkscape:connector-curvature="0" />
        <path
           id="path285"
           style="fill:#e6e7e8"
           class="st19"
           d="m 49.700001,437.79999 h 7.5 v 184.5 h -7.5 z"
           inkscape:connector-curvature="0" />
        <path
           id="path287"
           style="fill:#e6e7e8"
           class="st19"
           d="M 49.700001,614.90002 H 434.80001 v 7.5 H 49.700001 Z"
           inkscape:connector-curvature="0" />
        <path
           id="path289"
           style="fill:#d1d3d4"
           class="st1"
           d="m 48,579.20001 h 3.4 v 21.2 H 48 Z"
           inkscape:connector-curvature="0" />
        <path
           id="path291"
           style="fill:#bcbec0"
           class="st12"
           d="m 48,585 h 3.4 v 9.8 H 48 Z"
           inkscape:connector-curvature="0" />
        <path
           id="path293"
           style="fill:#d1d3d4"
           class="st1"
           d="m 48,518.20001 h 3.4 v 21.2 H 48 Z"
           inkscape:connector-curvature="0" />
        <path
           id="path295"
           style="fill:#bcbec0"
           class="st12"
           d="m 48,524 h 3.4 v 9.8 H 48 Z"
           inkscape:connector-curvature="0" />
        <path
           id="path297"
           style="fill:#d1d3d4"
           class="st1"
           d="m 48,457.20001 h 3.4 v 21.2 H 48 Z"
           inkscape:connector-curvature="0" />
        <path
           id="path299"
           style="fill:#bcbec0"
           class="st12"
           d="m 48,463 h 3.4 v 9.8 H 48 Z"
           inkscape:connector-curvature="0" />
        <path
           id="path301"
           style="fill:#e6e7e8"
           class="st19"
           d="m 441.29999,498.5 h 4.6 v 106.7 h -4.6 z"
           inkscape:connector-curvature="0" />
        <path
           id="path303"
           style="fill:#d1d3d4"
           class="st1"
           d="m 51.400002,622.40002 h 8 v 39.90001 h -8 z"
           inkscape:connector-curvature="0" />
        <path
           id="path305"
           style="fill:#ed1c24"
           d="m 51.4,634.5 c -1.3,0 -2,-2.3 -2,-5.1 0,-2.8 0.6,-5.1 2,-5.1 z"
           class="st8"
           inkscape:connector-curvature="0" />
        <path
           id="path307"
           style="fill:#ffcb05"
           d="m 51.4,647 c -1.3,0 -2,-2.3 -2,-5.1 0,-2.8 0.6,-5.1 2,-5.1 z"
           class="st5"
           inkscape:connector-curvature="0" />
        <path
           id="path309"
           style="fill:#ed1c24"
           d="m 51.4,659.5 c -1.3,0 -2,-2.3 -2,-5.1 0,-2.8 0.6,-5.1 2,-5.1 z"
           class="st8"
           inkscape:connector-curvature="0" />
        <path
           id="path311"
           style="fill:#414042"
           class="st9"
           d="m 510.89999,661.40002 a 30.1,30.1 0 0 1 -30.1,30.10001 30.1,30.1 0 0 1 -30.1,-30.10001 30.1,30.1 0 0 1 30.1,-30.1 30.1,30.1 0 0 1 30.1,30.1 z"
           inkscape:connector-curvature="0" />
        <path
           id="path313"
           style="fill:#d1d3d4"
           class="st1"
           d="m 500.39999,661.40002 a 19.6,19.6 0 0 1 -19.6,19.60001 19.6,19.6 0 0 1 -19.6,-19.60001 19.6,19.6 0 0 1 19.6,-19.6 19.6,19.6 0 0 1 19.6,19.6 z"
           inkscape:connector-curvature="0" />
        <path
           id="path315"
           style="fill:#a7a9ac"
           class="st10"
           d="m 498.09999,661.40002 a 17.299999,17.299999 0 0 1 -17.3,17.3 17.299999,17.299999 0 0 1 -17.3,-17.3 17.299999,17.299999 0 0 1 17.3,-17.3 17.299999,17.299999 0 0 1 17.3,17.3 z"
           inkscape:connector-curvature="0" />
        <path
           id="path317"
           style="fill:#d1d3d4"
           class="st1"
           d="m 496.99999,661.40002 a 16.200001,16.200001 0 0 1 -16.2,16.2 16.200001,16.200001 0 0 1 -16.2,-16.2 16.200001,16.200001 0 0 1 16.2,-16.2 16.200001,16.200001 0 0 1 16.2,16.2 z"
           inkscape:connector-curvature="0" />
        <path
           id="path319"
           style="fill:#a7a9ac"
           class="st10"
           d="m 491.29999,661.40002 a 10.5,10.5 0 0 1 -10.5,10.5 10.5,10.5 0 0 1 -10.5,-10.5 10.5,10.5 0 0 1 10.5,-10.5 10.5,10.5 0 0 1 10.5,10.5 z"
           inkscape:connector-curvature="0" />
        <path
           id="path321"
           style="fill:#d1d3d4"
           class="st1"
           d="m 489.09999,661.40002 a 8.3,8.3 0 0 1 -8.3,8.3 8.3,8.3 0 0 1 -8.3,-8.3 8.3,8.3 0 0 1 8.3,-8.3 8.3,8.3 0 0 1 8.3,8.3 z"
           inkscape:connector-curvature="0" />
        <path
           id="path323"
           style="fill:#a7a9ac"
           d="m 480.8,649.3 c 0.8,0 1.4,-0.6 1.4,-1.4 0,-0.8 -0.6,-1.4 -1.4,-1.4 -0.8,0 -1.4,0.6 -1.4,1.4 0,0.8 0.6,1.4 1.4,1.4 z m -10.5,20.6 c -0.6,0.6 -0.6,1.4 0,2 0.6,0.6 1.4,0.6 2,0 0.6,-0.6 0.6,-1.4 0,-2 -0.6,-0.5 -1.5,-0.5 -2,0 z m 2,-17.1 c 0.6,-0.6 0.6,-1.4 0,-2 -0.6,-0.6 -1.4,-0.6 -2,0 -0.6,0.6 -0.6,1.4 0,2 0.5,0.6 1.4,0.6 2,0 z m -5,7.2 c -0.8,0 -1.4,0.6 -1.4,1.4 0,0.8 0.6,1.4 1.4,1.4 0.8,0 1.4,-0.6 1.4,-1.4 0,-0.8 -0.6,-1.4 -1.4,-1.4 z m 22,9.9 c -0.6,0.6 -0.6,1.4 0,2 0.6,0.6 1.4,0.6 2,0 0.6,-0.5 0.6,-1.4 0,-2 -0.5,-0.5 -1.4,-0.5 -2,0 z m 5,-9.9 c -0.8,0 -1.4,0.6 -1.4,1.4 0,0.8 0.6,1.4 1.4,1.4 0.8,0 1.4,-0.6 1.4,-1.4 0,-0.8 -0.6,-1.4 -1.4,-1.4 z m -3,-7.2 c 0.6,-0.6 0.6,-1.4 0,-2 -0.6,-0.6 -1.4,-0.6 -2,0 -0.6,0.6 -0.6,1.4 0,2 0.6,0.6 1.5,0.6 2,0 z m -10.5,20.7 c -0.8,0 -1.4,0.6 -1.4,1.4 0,0.8 0.6,1.4 1.4,1.4 0.8,0 1.4,-0.6 1.4,-1.4 0,-0.8 -0.6,-1.4 -1.4,-1.4 z"
           class="st10"
           inkscape:connector-curvature="0" />
        <path
           id="path325"
           style="fill:#414042"
           class="st9"
           d="m 260.8,661.40002 a 30.1,30.1 0 0 1 -30.1,30.10001 30.1,30.1 0 0 1 -30.1,-30.10001 30.1,30.1 0 0 1 30.1,-30.1 30.1,30.1 0 0 1 30.1,30.1 z"
           inkscape:connector-curvature="0" />
        <path
           id="path327"
           style="fill:#d1d3d4"
           class="st1"
           d="m 250.3,661.40002 a 19.6,19.6 0 0 1 -19.6,19.60001 19.6,19.6 0 0 1 -19.6,-19.60001 19.6,19.6 0 0 1 19.6,-19.6 19.6,19.6 0 0 1 19.6,19.6 z"
           inkscape:connector-curvature="0" />
        <path
           id="path329"
           style="fill:#a7a9ac"
           class="st10"
           d="m 248,661.40002 a 17.299999,17.299999 0 0 1 -17.3,17.3 17.299999,17.299999 0 0 1 -17.3,-17.3 17.299999,17.299999 0 0 1 17.3,-17.3 17.299999,17.299999 0 0 1 17.3,17.3 z"
           inkscape:connector-curvature="0" />
        <path
           id="path331"
           style="fill:#d1d3d4"
           class="st1"
           d="m 246.9,661.40002 a 16.200001,16.200001 0 0 1 -16.2,16.2 16.200001,16.200001 0 0 1 -16.2,-16.2 16.200001,16.200001 0 0 1 16.2,-16.2 16.200001,16.200001 0 0 1 16.2,16.2 z"
           inkscape:connector-curvature="0" />
        <path
           id="path333"
           style="fill:#a7a9ac"
           class="st10"
           d="m 241.2,661.40002 a 10.5,10.5 0 0 1 -10.5,10.5 10.5,10.5 0 0 1 -10.5,-10.5 10.5,10.5 0 0 1 10.5,-10.5 10.5,10.5 0 0 1 10.5,10.5 z"
           inkscape:connector-curvature="0" />
        <path
           id="path335"
           style="fill:#d1d3d4"
           class="st1"
           d="m 239,661.40002 a 8.3,8.3 0 0 1 -8.3,8.3 8.3,8.3 0 0 1 -8.3,-8.3 8.3,8.3 0 0 1 8.3,-8.3 8.3,8.3 0 0 1 8.3,8.3 z"
           inkscape:connector-curvature="0" />
        <path
           id="path337"
           style="fill:#a7a9ac"
           d="m 230.7,649.3 c 0.8,0 1.4,-0.6 1.4,-1.4 0,-0.8 -0.6,-1.4 -1.4,-1.4 -0.8,0 -1.4,0.6 -1.4,1.4 0,0.8 0.6,1.4 1.4,1.4 z m -10.5,20.6 c -0.6,0.6 -0.6,1.4 0,2 0.6,0.6 1.4,0.6 2,0 0.6,-0.6 0.6,-1.4 0,-2 -0.6,-0.5 -1.5,-0.5 -2,0 z m 2,-17.1 c 0.6,-0.6 0.6,-1.4 0,-2 -0.6,-0.6 -1.4,-0.6 -2,0 -0.6,0.6 -0.6,1.4 0,2 0.5,0.6 1.4,0.6 2,0 z m -5,7.2 c -0.8,0 -1.4,0.6 -1.4,1.4 0,0.8 0.6,1.4 1.4,1.4 0.8,0 1.4,-0.6 1.4,-1.4 0,-0.8 -0.6,-1.4 -1.4,-1.4 z m 22,9.9 c -0.6,0.6 -0.6,1.4 0,2 0.6,0.6 1.4,0.6 2,0 0.6,-0.5 0.6,-1.4 0,-2 -0.5,-0.5 -1.4,-0.5 -2,0 z m 5,-9.9 c -0.8,0 -1.4,0.6 -1.4,1.4 0,0.8 0.6,1.4 1.4,1.4 0.8,0 1.4,-0.6 1.4,-1.4 0,-0.8 -0.6,-1.4 -1.4,-1.4 z m -3,-7.2 c 0.6,-0.6 0.6,-1.4 0,-2 -0.6,-0.6 -1.4,-0.6 -2,0 -0.6,0.6 -0.6,1.4 0,2 0.6,0.6 1.5,0.6 2,0 z m -10.5,20.7 c -0.8,0 -1.4,0.6 -1.4,1.4 0,0.8 0.6,1.4 1.4,1.4 0.8,0 1.4,-0.6 1.4,-1.4 0,-0.8 -0.6,-1.4 -1.4,-1.4 z"
           class="st10"
           inkscape:connector-curvature="0" />
        <path
           id="path339"
           style="fill:#414042"
           class="st9"
           d="m 195.70001,661.40002 a 30.1,30.1 0 0 1 -30.1,30.10001 30.1,30.1 0 0 1 -30.1,-30.10001 30.1,30.1 0 0 1 30.1,-30.1 30.1,30.1 0 0 1 30.1,30.1 z"
           inkscape:connector-curvature="0" />
        <path
           id="path341"
           style="fill:#d1d3d4"
           class="st1"
           d="m 185.20001,661.40002 a 19.6,19.6 0 0 1 -19.6,19.60001 19.6,19.6 0 0 1 -19.6,-19.60001 19.6,19.6 0 0 1 19.6,-19.6 19.6,19.6 0 0 1 19.6,19.6 z"
           inkscape:connector-curvature="0" />
        <path
           id="path343"
           style="fill:#a7a9ac"
           class="st10"
           d="m 182.9,661.40002 a 17.299999,17.299999 0 0 1 -17.29999,17.3 17.299999,17.299999 0 0 1 -17.3,-17.3 17.299999,17.299999 0 0 1 17.3,-17.3 17.299999,17.299999 0 0 1 17.29999,17.3 z"
           inkscape:connector-curvature="0" />
        <path
           id="path345"
           style="fill:#d1d3d4"
           class="st1"
           d="m 181.80001,661.40002 a 16.200001,16.200001 0 0 1 -16.2,16.2 16.200001,16.200001 0 0 1 -16.20001,-16.2 16.200001,16.200001 0 0 1 16.20001,-16.2 16.200001,16.200001 0 0 1 16.2,16.2 z"
           inkscape:connector-curvature="0" />
        <path
           id="path347"
           style="fill:#a7a9ac"
           class="st10"
           d="m 176.10001,661.40002 a 10.5,10.5 0 0 1 -10.5,10.5 10.5,10.5 0 0 1 -10.5,-10.5 10.5,10.5 0 0 1 10.5,-10.5 10.5,10.5 0 0 1 10.5,10.5 z"
           inkscape:connector-curvature="0" />
        <path
           id="path349"
           style="fill:#d1d3d4"
           class="st1"
           d="m 173.90001,661.40002 a 8.3,8.3 0 0 1 -8.3,8.3 8.3,8.3 0 0 1 -8.3,-8.3 8.3,8.3 0 0 1 8.3,-8.3 8.3,8.3 0 0 1 8.3,8.3 z"
           inkscape:connector-curvature="0" />
        <path
           id="path351"
           style="fill:#a7a9ac"
           d="m 165.6,649.3 c 0.8,0 1.4,-0.6 1.4,-1.4 0,-0.8 -0.6,-1.4 -1.4,-1.4 -0.8,0 -1.4,0.6 -1.4,1.4 0,0.8 0.6,1.4 1.4,1.4 z m -10.5,20.6 c -0.6,0.6 -0.6,1.4 0,2 0.6,0.6 1.4,0.6 2,0 0.6,-0.6 0.6,-1.4 0,-2 -0.6,-0.5 -1.5,-0.5 -2,0 z m 1.9,-17.1 c 0.6,-0.6 0.6,-1.4 0,-2 -0.6,-0.6 -1.4,-0.6 -2,0 -0.6,0.6 -0.6,1.4 0,2 0.6,0.6 1.5,0.6 2,0 z m -4.9,7.2 c -0.8,0 -1.4,0.6 -1.4,1.4 0,0.8 0.6,1.4 1.4,1.4 0.8,0 1.4,-0.6 1.4,-1.4 0,-0.8 -0.6,-1.4 -1.4,-1.4 z m 22,9.9 c -0.6,0.6 -0.6,1.4 0,2 0.6,0.6 1.4,0.6 2,0 0.5,-0.5 0.6,-1.4 0,-2 -0.5,-0.5 -1.4,-0.5 -2,0 z m 5,-9.9 c -0.8,0 -1.4,0.6 -1.4,1.4 0,0.8 0.6,1.4 1.4,1.4 0.8,0 1.4,-0.6 1.4,-1.4 0,-0.8 -0.6,-1.4 -1.4,-1.4 z m -3,-7.2 c 0.6,-0.6 0.6,-1.4 0,-2 -0.6,-0.6 -1.4,-0.6 -2,0 -0.6,0.6 -0.6,1.4 0,2 0.6,0.6 1.5,0.6 2,0 z m -10.5,20.7 c -0.8,0 -1.4,0.6 -1.4,1.4 0,0.8 0.6,1.4 1.4,1.4 0.8,0 1.4,-0.6 1.4,-1.4 0,-0.8 -0.6,-1.4 -1.4,-1.4 z"
           class="st10"
           inkscape:connector-curvature="0" />
        <path
           id="path353"
           style="fill:none;stroke:#000000;stroke-width:4;stroke-linecap:round;stroke-linejoin:round;stroke-miterlimit:10"
           d="m 130.6,655.2 c 0,-14.4 13.2,-27.6 27.7,-27.6 h 79.8 c 14.4,0 27.7,13.2 27.7,27.6"
           class="st11"
           inkscape:connector-curvature="0" />
        <path
           id="path355"
           style="fill:#d1d3d4"
           class="st1"
           d="m 271.79999,627.5 h 68.19999 v 30.9 h -68.19999 z"
           inkscape:connector-curvature="0" />
        <path
           id="path357"
           style="fill:#bcbec0"
           class="st12"
           d="m 279.89999,626.70001 h 1.2 v 32.6 h -1.2 z"
           inkscape:connector-curvature="0" />
        <path
           id="path359"
           style="fill:#bcbec0"
           class="st12"
           d="m 330.5,626.70001 h 1.2 v 32.6 h -1.2 z"
           inkscape:connector-curvature="0" />
        <path
           id="path361"
           style="fill:#bcbec0"
           d="m 541.7,525.9 c -8.6,-10 -20.3,-15.1 -34.8,-15.1 h -42.2 c -1.4,0 -2.5,1.1 -2.5,2.5 v 0.8 h 38.1 c 14.5,0 26.2,5.1 34.8,15.1 11.2,13.1 16.9,34 16.9,62.1 0,1.1 0,2.1 0,2.7 h 4.1 c 1.4,0 2.5,-1.1 2.5,-2.5 0,0 0,-1.5 0,-3.5 0,-28.2 -5.7,-49.1 -16.9,-62.1 z"
           class="st12"
           inkscape:connector-curvature="0" />
        <path
           id="path363"
           style="fill:#a7a9ac"
           d="m 534.2,593.8 c 0.5,0.1 0.9,0.2 1.3,0.2 H 556 c 1.4,0 2.5,-1.1 2.5,-2.5 0,0 0,-1.5 0,-3.5 0,-5.8 -0.2,-11.2 -0.7,-16.3 -14.3,1.1 -22.4,9.8 -23.6,22.1 z"
           class="st10"
           inkscape:connector-curvature="0" />
        <path
           id="path365"
           style="fill:#6d6e71"
           d="m 556.9,590.7 h -20.5 c -1.4,0 -3.2,-0.8 -4.2,-1.7 l -26.5,-26.5 c -1,-1 -2.8,-1.7 -4.2,-1.7 h -36 c -0.1,0 -0.2,0 -0.4,0 v -49.9 h -0.5 c -1.4,0 -2.5,1.1 -2.5,2.5 v 48.3 c 0,0 0,0 0,0 v 0 c 0,1.3 1.1,2.5 2.5,2.5 h 36 c 1.4,0 3.2,0.8 4.2,1.7 l 26.5,26.5 c 1,1 2.8,1.7 4.2,1.7 H 556 c 1.4,0 2.5,-1.1 2.5,-2.5 0,0 0,-0.6 0,-1.5 -0.4,0.3 -0.9,0.6 -1.6,0.6 z"
           class="st13"
           inkscape:connector-curvature="0" />
        <path
           id="path367"
           style="fill:none;stroke:#000000;stroke-miterlimit:10"
           d="m 464.5,589.5 c -1.3,0 -2.4,-1.1 -2.4,-2.4 0,-1.3 1.1,-2.4 2.4,-2.4 H 476 c 1.3,0 2.4,1.1 2.4,2.4 0,1.3 -1.1,2.4 -2.4,2.4 z"
           class="st14"
           inkscape:connector-curvature="0" />
        <path
           id="path369"
           style="fill:#f1f2f2"
           d="M 552.9,516.3 C 541.5,503 525.6,496 506.9,496 h -63.5 v 123.2 h 46 c 17.5,0 31.8,14.3 31.8,31.8 v 13.2 h 48.9 l 0.2,-2.2 c 0,-0.3 3,-28.7 3,-74 0,-31.8 -6.8,-55.9 -20.4,-71.7 z m 5.7,75.2 c 0,1.4 -1.1,2.5 -2.5,2.5 h -20.5 c -1.4,0 -3.2,-0.8 -4.2,-1.7 l -26.5,-26.5 c -1,-1 -2.8,-1.7 -4.2,-1.7 h -36 c -1.4,0 -2.5,-1.1 -2.5,-2.5 v -48.3 c 0,-1.3 1.1,-2.5 2.5,-2.5 h 42.2 c 14.5,0 26.2,5.1 34.8,15.1 11.2,13.1 16.9,34 16.9,62.1 0,2 0,3.5 0,3.5 z"
           class="st18"
           inkscape:connector-curvature="0" />
        <path
           id="path371"
           style="fill:#e6e7e8"
           d="m 543,524.8 c -8.9,-10.4 -21,-15.7 -36,-15.7 h -42.2 c -2.3,0 -4.1,1.8 -4.1,4.1 v 48.3 c 0,2.3 1.8,4.1 4.1,4.1 h 36 c 0.9,0 2.4,0.6 3,1.3 l 26.5,26.5 c 1.3,1.3 3.6,2.2 5.3,2.2 h 20.5 c 2.3,0 4.1,-1.8 4.1,-4.1 0,0 0,-1.5 0,-3.6 0,-28.5 -5.8,-49.7 -17.2,-63.1 z m 15.6,66.7 c 0,1.4 -1.1,2.5 -2.5,2.5 h -20.5 c -1.4,0 -3.2,-0.8 -4.2,-1.7 l -26.5,-26.5 c -1,-1 -2.8,-1.7 -4.2,-1.7 h -36 c -1.4,0 -2.5,-1.1 -2.5,-2.5 v -48.3 c 0,-1.4 1.1,-2.5 2.5,-2.5 h 42.2 c 14.5,0 26.2,5.1 34.8,15.1 11.2,13.1 16.9,34 16.9,62.1 0,2 0,3.5 0,3.5 z"
           class="st19"
           inkscape:connector-curvature="0" />
        <path
           id="path373"
           style="fill:#e6e7e8"
           d="m 506.9,498.5 c -23.6,0 -12.3,0 -61.1,0 v 118.3 h 43.5 c 18.9,0 34.2,15.3 34.2,34.2 v 10.7 h 44.2 c 0,0 3,-28 3,-73.7 0.2,-67.6 -31.4,-89.5 -63.8,-89.5 z m 58,159.9 h -38 V 651 c 0,-20.7 -16.8,-37.5 -37.5,-37.5 H 449.1 V 501.7 h 57.8 c 11.9,0 28.7,3.2 41.6,18.3 12.6,14.7 19,37.6 19,68 0.1,36.7 -1.9,62.1 -2.6,70.4 z"
           class="st19"
           inkscape:connector-curvature="0" />
        <path
           id="path375"
           style="fill:#e6e7e8"
           d="m 568.3,638.1 c 3.3,0 10.7,0 10.7,8.5 0,17.2 -2.7,25.2 -12.6,25.2 -5.7,0 -8.4,-0.4 -8.4,-8.9 0.1,-8.4 0.9,-24.8 10.3,-24.8 z"
           class="st19"
           inkscape:connector-curvature="0" />
        <path
           id="path377"
           style="fill:#414042"
           d="m 574.4,621.2 c 0,0 -4,-1.6 -10.2,-1.6 -1.9,0 -3.4,1.6 -3.4,4.2 v 16.4 c 0,2.6 1.5,4.2 3.4,4.2 2.8,0 9.5,-0.4 9.5,-0.4 0.4,0 0.8,-0.4 0.8,-0.9 l 0.6,-20.9 c 0,-0.3 -0.3,-0.8 -0.7,-1 z"
           class="st9"
           inkscape:connector-curvature="0" />
        <path
           id="path379"
           style="fill:#ffffff"
           d="m 572.1,626.7 c 0,2.8 -0.6,5.1 -2,5.1 -2,0 -3.6,-2.3 -3.6,-5.1 0,-2.8 1.6,-5.1 3.6,-5.1 1.3,0 2,2.3 2,5.1 z"
           class="st15"
           inkscape:connector-curvature="0" />
        <path
           id="path381"
           style="fill:#ffffff"
           d="m 571.1,638.1 c 0,2.8 -0.6,5.1 -2,5.1 -2,0 -3.6,-2.3 -3.6,-5.1 0,-2.8 1.6,-5.1 3.6,-5.1 1.3,0 2,2.3 2,5.1 z"
           class="st15"
           inkscape:connector-curvature="0" />
        <path
           id="path383"
           style="opacity:0.3;fill:#c7eafb"
           d="m 558.6,591.5 c 0,1.4 -1.1,2.5 -2.5,2.5 h -20.5 c -1.4,0 -3.2,-0.8 -4.2,-1.7 l -26.5,-26.5 c -1,-1 -2.8,-1.7 -4.2,-1.7 h -36 c -1.4,0 -2.5,-1.1 -2.5,-2.5 v -48.3 c 0,-1.4 1.1,-2.5 2.5,-2.5 h 42.2 c 14.5,0 26.2,5.1 34.8,15.1 11.2,13.1 16.9,34 16.9,62.1 0,2 0,3.5 0,3.5 z"
           class="st16"
           inkscape:connector-curvature="0" />
        <path
           id="path385"
           d="m 539.1,519.6 h -10.6 c -0.9,0 -1.6,0.7 -1.6,1.6 v 29.4 c 0,0.9 0.7,1.6 1.6,1.6 h 10.6 c 0.9,0 1.6,-0.7 1.6,-1.6 v -29.4 c 0,-0.9 -0.7,-1.6 -1.6,-1.6 z"
           inkscape:connector-curvature="0" />
        <path
           id="path387"
           d="m 533.8,519.6 h -1.6 c 0,-3.3 2.7,-6.1 6.1,-6.1 v 1.6 c -2.5,0.1 -4.5,2 -4.5,4.5 z"
           inkscape:connector-curvature="0" />
      </g>
      <g
         id="g3147"
         transform="translate(-1.0429895)">
        <ellipse
           ry="56.413967"
           rx="88.953644"
           style="fill:#ffffff;fill-opacity:1;stroke:#134a87;stroke-width:2.25807834;stroke-miterlimit:4;stroke-dasharray:none;stroke-opacity:1"
           id="path2939"
           cx="859.07593"
           cy="129.60065" />
        <text
           id="text1565-3"
           y="174.93745"
           x="827.43744"
           style="font-style:normal;font-weight:normal;font-size:27.12250137px;line-height:1.25;font-family:sans-serif;letter-spacing:0px;word-spacing:0px;fill:#88aadb;fill-opacity:1;stroke:none;stroke-width:0.6780625"
           xml:space="preserve"><tspan
             style="font-style:normal;font-variant:normal;font-weight:normal;font-stretch:normal;font-family:'Eras Bold ITC';-inkscape-font-specification:'Eras Bold ITC';fill:#88aadb;fill-opacity:1;stroke-width:0.6780625"
             y="174.93745"
             x="827.43744"
             id="tspan1563-0"
             sodipodi:role="line">FISH</tspan></text>
        <g
           id="g2937"
           transform="matrix(0.20706853,0,0,0.20706853,704.97368,245.07091)">
          <path
             inkscape:connector-curvature="0"
             class="st0"
             d="m 466.55893,-553.49276 c 46.1,25.4 93.8,39.2 140.5,45.3 l 44.6,57.7 14.5,-54 c 33.6,0 66,-3.3 96.1,-8.6 30.4,12.8 94.4,25.3 94.4,25.3 l -34.7,-38.8 c 73.4,-20.2 122.3,-46.9 122.3,-46.9 0,0 74.39997,77.6 83.09997,81.9 8.6,4.3 10.8,1.1 10.8,1.1 l -40.49997,-95.6 c 0,0 31.89997,-87 33.49997,-97.8 1.6,-10.8 -2.2,-15.7 -2.2,-15.7 l -85.39997,112.3 c -22.9,-9.3 -44.7,-17.5 -65.7,-24.5 -5.2,-1.8 -10.4,-3.5 -15.5,-5.1 -5.1,-1.6 -10.2,-3.2 -15.1,-4.7 -5,-1.5 -9.9,-2.9 -14.8,-4.3 -9.7,-2.8 -19.2,-5.3 -28.5,-7.5 -2.6,-0.6 -5.2,-1.3 -7.8,-1.9 l 24.9,-28 c -8.8,4.2 -43.9,13.4 -67.5,19.4 -5.1,-0.9 -10.1,-1.7 -15,-2.4 -4.1,-0.6 -8.1,-1.1 -12.1,-1.6 -4,-0.5 -7.9,-0.9 -11.7,-1.3 -3.5,-0.4 -7,-0.7 -10.5,-1 l -96.8,-52.5 c -3.5,5.1 -20.3,40.6 -29.3,59.9 -0.9,0.2 -1.9,0.4 -2.8,0.7 -1.2,0.3 -2.4,0.6 -3.5,0.9 -2.3,0.6 -4.6,1.2 -6.9,1.9 -2.2,0.6 -4.4,1.3 -6.6,2 -2.2,0.7 -4.3,1.4 -6.3,2.1 -5.2,1.8 -10.1,3.6 -14.7,5.5 -2.8,1.1 -5.5,2.3 -8.1,3.5 -0.9,0.4 -1.7,0.8 -2.6,1.2 -2.5,1.2 -5,2.4 -7.3,3.6 -8.6,4.5 -16,9 -22.3,13.4 -1.1,0.8 -2.3,1.6 -3.3,2.4 -5.4,3.9 -9.8,7.6 -13.4,10.9 -0.7,0.7 -1.4,1.3 -2.1,1.9 -1,0.9 -1.9,1.8 -2.7,2.7 -0.6,0.6 -1.1,1.1 -1.6,1.6 -4.2,4.4 -6.1,7.1 -6.1,7.1 l 28,21.2 -24.9,-2.7 c -2.5,0.6 -4.4,9.4 -4.4,9.4 z"
             style="fill:#dddddd"
             id="path17-1" />
          <path
             id="path223-3"
             style="fill:#e75e3e"
             class="st1"
             d="m 806.95893,-412.59275 a 5.1,5.1 0 0 1 -5.1,5.1 5.1,5.1 0 0 1 -5.1,-5.1 5.1,5.1 0 0 1 5.1,-5.1 5.1,5.1 0 0 1 5.1,5.1 z"
             inkscape:connector-curvature="0" />
          <path
             id="path77-5"
             style="fill:#134a87"
             d="m 556.25893,-635.39276 c 0,0 30.3,-65.4 35.1,-72.4 l 147.5,80 z"
             class="st8"
             inkscape:connector-curvature="0" />
          <path
             id="path79-7"
             style="fill:#134a87"
             class="st8"
             d="m 652.45891,-518.49276 -17,63.09999 -55.09998,-71.39999 z"
             inkscape:connector-curvature="0" />
          <path
             id="path81-2"
             style="fill:#134a87"
             d="m 799.35893,-538.59276 41.1,45.9 c 0,0 -85.9,-16.8 -105.9,-31.3 -20,-14.6 64.8,-14.6 64.8,-14.6 z"
             class="st8"
             inkscape:connector-curvature="0" />
          <path
             id="path83-9"
             style="fill:#134a87"
             d="m 715.05893,-643.49276 c 0,0 76.2,-18.4 89.7,-24.9 l -35.1,39.4 z"
             class="st8"
             inkscape:connector-curvature="0" />
          <path
             id="path85-6"
             style="fill:#88aadb"
             d="m 927.25893,-592.29276 c -366,-149.1 -475.5,5.8 -475.5,5.8 l 28,21.2 -24.9,-2.7 c -2.7,0.8 -4.6,9.6 -4.6,9.6 219.7,121 477.8,-19.9 477.8,-19.9 l 13.5,-8.8 z"
             class="st9"
             inkscape:connector-curvature="0" />
          <path
             id="path87-4"
             style="fill:#134a87"
             d="m 981.45893,-591.09276 c 0,0 31.89997,-87 33.49997,-97.8 1.6,-10.8 -2.2,-15.7 -2.2,-15.7 l -85.49997,112.3 14.3,5.2 -13.5,8.8 c 0,0 74.39997,77.6 83.09997,81.9 8.6,4.3 10.8,1.1 10.8,1.1 z"
             class="st8"
             inkscape:connector-curvature="0" />
          <path
             id="path165-0"
             style="fill:#134a87"
             class="st8"
             d="m 605.55894,-590.39277 -7.5,26.40001 26.20001,30.7 71.59998,-17.7 z"
             inkscape:connector-curvature="0" />
          <path
             id="path225-2"
             style="fill:#134a87"
             d="m 545.95893,-625.79276 c 0,0 18.9,63.2 -2.6,91.3 0,-0.1 40.4,-21.6 2.6,-91.3 z"
             class="st8"
             inkscape:connector-curvature="0" />
          <path
             id="path227-6"
             style="fill:#134a87"
             d="m 451.75893,-586.59276 c 0,0 163.2,-85.7 489.8,-0.6 l -14.3,-5.2 c -366,-149.1 -475.5,5.8 -475.5,5.8 z"
             class="st8"
             inkscape:connector-curvature="0" />
          <path
             id="path229-4"
             style="fill:#ffffff"
             class="st11"
             d="m 511.65894,-599.59276 a 10.6,10.6 0 0 1 -10.6,10.6 10.6,10.6 0 0 1 -10.6,-10.6 10.6,10.6 0 0 1 10.6,-10.6 10.6,10.6 0 0 1 10.6,10.6 z"
             inkscape:connector-curvature="0" />
          <path
             id="path231-0"
             style="fill:#134a87"
             class="st8"
             d="m 505.45894,-599.59276 a 4.4,4.4 0 0 1 -4.4,4.4 4.4,4.4 0 0 1 -4.4,-4.4 4.4,4.4 0 0 1 4.4,-4.4 4.4,4.4 0 0 1 4.4,4.4 z"
             inkscape:connector-curvature="0" />
        </g>
      </g>
    </g>
  </g>
</svg>
