<?xml version="1.0" encoding="UTF-8" standalone="no"?>
<!-- Created with Inkscape (http://www.inkscape.org/) -->

<svg
   xmlns:dc="http://purl.org/dc/elements/1.1/"
   xmlns:cc="http://creativecommons.org/ns#"
   xmlns:rdf="http://www.w3.org/1999/02/22-rdf-syntax-ns#"
   xmlns:svg="http://www.w3.org/2000/svg"
   xmlns="http://www.w3.org/2000/svg"
   xmlns:sodipodi="http://sodipodi.sourceforge.net/DTD/sodipodi-0.dtd"
   xmlns:inkscape="http://www.inkscape.org/namespaces/inkscape"
   width="94.062279mm"
   height="44.940876mm"
   viewBox="0 0 94.062279 44.940876"
   version="1.1"
   id="svg540"
   inkscape:version="0.92.1 r15371"
   sodipodi:docname="truck_with_chilli.svg">
  <defs
     id="defs534" />
  <sodipodi:namedview
     id="base"
     pagecolor="#ffffff"
     bordercolor="#666666"
     borderopacity="1.0"
     inkscape:pageopacity="0.0"
     inkscape:pageshadow="2"
     inkscape:zoom="0.7"
     inkscape:cx="119.89626"
     inkscape:cy="188.89758"
     inkscape:document-units="mm"
     inkscape:current-layer="master-artboard"
     showgrid="false"
     inkscape:window-width="1600"
     inkscape:window-height="877"
     inkscape:window-x="1358"
     inkscape:window-y="-8"
     inkscape:window-maximized="1"
     fit-margin-top="0"
     fit-margin-left="0"
     fit-margin-right="0"
     fit-margin-bottom="0" />
  <metadata
     id="metadata537">
    <rdf:RDF>
      <cc:Work
         rdf:about="">
        <dc:format>image/svg+xml</dc:format>
        <dc:type
           rdf:resource="http://purl.org/dc/dcmitype/StillImage" />
        <dc:title></dc:title>
      </cc:Work>
    </rdf:RDF>
  </metadata>
  <g
     inkscape:label="Layer 1"
     inkscape:groupmode="layer"
     id="layer1"
     transform="translate(-50.902334,-67.342374)">
    <g
       transform="matrix(0.17714177,0,0,0.17714177,-41.889166,60.093281)"
       id="master-artboard"
       viewBox="0 0 1096 780"
       version="1.1"
       x="0px"
       y="0px">
      <g
         id="g1365"
         transform="matrix(-1,0,0,1,1102.8262,-396.87744)">
        <path
           id="path273"
           style="fill:#d1d3d4"
           d="m 527.1,508.2 h -9 c -0.8,0 -1.4,0.6 -1.4,1.4 v 25.1 c 0,0.8 0.6,1.4 1.4,1.4 h 9 c 0.8,0 1.4,-0.6 1.4,-1.4 v -25.1 c 0,-0.8 -0.6,-1.4 -1.4,-1.4 z"
           class="st1"
           inkscape:connector-curvature="0" />
        <path
           id="path275"
           style="fill:#58595b"
           class="st2"
           d="m 150.5,653.29999 295.39999,4.10003 V 605.20001 H 59.400002 v 39.89997 z"
           inkscape:connector-curvature="0" />
        <path
           id="path277"
           style="fill:#4d4d4f"
           class="st3"
           d="m 445.89999,606.40002 h 79.7 v 55.3 h -79.7 z"
           inkscape:connector-curvature="0" />
        <path
           id="path279"
           style="fill:#f1f2f2"
           class="st18"
           d="M 49.700001,437.79999 H 434.80001 v 184.5 H 49.700001 Z"
           inkscape:connector-curvature="0" />
        <path
           id="path281"
           style="fill:#e6e7e8"
           class="st19"
           d="M 49.700001,437.79999 H 434.80001 v 7.5 H 49.700001 Z"
           inkscape:connector-curvature="0" />
        <path
           id="path283"
           style="fill:#e6e7e8"
           class="st19"
           d="m 427.29999,437.79999 h 7.5 v 184.5 h -7.5 z"
           inkscape:connector-curvature="0" />
        <path
           id="path285"
           style="fill:#e6e7e8"
           class="st19"
           d="m 49.700001,437.79999 h 7.5 v 184.5 h -7.5 z"
           inkscape:connector-curvature="0" />
        <path
           id="path287"
           style="fill:#e6e7e8"
           class="st19"
           d="M 49.700001,614.90002 H 434.80001 v 7.5 H 49.700001 Z"
           inkscape:connector-curvature="0" />
        <path
           id="path289"
           style="fill:#d1d3d4"
           class="st1"
           d="m 48,579.20001 h 3.4 v 21.2 H 48 Z"
           inkscape:connector-curvature="0" />
        <path
           id="path291"
           style="fill:#bcbec0"
           class="st12"
           d="m 48,585 h 3.4 v 9.8 H 48 Z"
           inkscape:connector-curvature="0" />
        <path
           id="path293"
           style="fill:#d1d3d4"
           class="st1"
           d="m 48,518.20001 h 3.4 v 21.2 H 48 Z"
           inkscape:connector-curvature="0" />
        <path
           id="path295"
           style="fill:#bcbec0"
           class="st12"
           d="m 48,524 h 3.4 v 9.8 H 48 Z"
           inkscape:connector-curvature="0" />
        <path
           id="path297"
           style="fill:#d1d3d4"
           class="st1"
           d="m 48,457.20001 h 3.4 v 21.2 H 48 Z"
           inkscape:connector-curvature="0" />
        <path
           id="path299"
           style="fill:#bcbec0"
           class="st12"
           d="m 48,463 h 3.4 v 9.8 H 48 Z"
           inkscape:connector-curvature="0" />
        <path
           id="path301"
           style="fill:#e6e7e8"
           class="st19"
           d="m 441.29999,498.5 h 4.6 v 106.7 h -4.6 z"
           inkscape:connector-curvature="0" />
        <path
           id="path303"
           style="fill:#d1d3d4"
           class="st1"
           d="m 51.400002,622.40002 h 8 v 39.90001 h -8 z"
           inkscape:connector-curvature="0" />
        <path
           id="path305"
           style="fill:#ed1c24"
           d="m 51.4,634.5 c -1.3,0 -2,-2.3 -2,-5.1 0,-2.8 0.6,-5.1 2,-5.1 z"
           class="st8"
           inkscape:connector-curvature="0" />
        <path
           id="path307"
           style="fill:#ffcb05"
           d="m 51.4,647 c -1.3,0 -2,-2.3 -2,-5.1 0,-2.8 0.6,-5.1 2,-5.1 z"
           class="st5"
           inkscape:connector-curvature="0" />
        <path
           id="path309"
           style="fill:#ed1c24"
           d="m 51.4,659.5 c -1.3,0 -2,-2.3 -2,-5.1 0,-2.8 0.6,-5.1 2,-5.1 z"
           class="st8"
           inkscape:connector-curvature="0" />
        <path
           id="path311"
           style="fill:#414042"
           class="st9"
           d="m 510.89999,661.40002 a 30.1,30.1 0 0 1 -30.1,30.10001 30.1,30.1 0 0 1 -30.1,-30.10001 30.1,30.1 0 0 1 30.1,-30.1 30.1,30.1 0 0 1 30.1,30.1 z"
           inkscape:connector-curvature="0" />
        <path
           id="path313"
           style="fill:#d1d3d4"
           class="st1"
           d="m 500.39999,661.40002 a 19.6,19.6 0 0 1 -19.6,19.60001 19.6,19.6 0 0 1 -19.6,-19.60001 19.6,19.6 0 0 1 19.6,-19.6 19.6,19.6 0 0 1 19.6,19.6 z"
           inkscape:connector-curvature="0" />
        <path
           id="path315"
           style="fill:#a7a9ac"
           class="st10"
           d="m 498.09999,661.40002 a 17.299999,17.299999 0 0 1 -17.3,17.3 17.299999,17.299999 0 0 1 -17.3,-17.3 17.299999,17.299999 0 0 1 17.3,-17.3 17.299999,17.299999 0 0 1 17.3,17.3 z"
           inkscape:connector-curvature="0" />
        <path
           id="path317"
           style="fill:#d1d3d4"
           class="st1"
           d="m 496.99999,661.40002 a 16.200001,16.200001 0 0 1 -16.2,16.2 16.200001,16.200001 0 0 1 -16.2,-16.2 16.200001,16.200001 0 0 1 16.2,-16.2 16.200001,16.200001 0 0 1 16.2,16.2 z"
           inkscape:connector-curvature="0" />
        <path
           id="path319"
           style="fill:#a7a9ac"
           class="st10"
           d="m 491.29999,661.40002 a 10.5,10.5 0 0 1 -10.5,10.5 10.5,10.5 0 0 1 -10.5,-10.5 10.5,10.5 0 0 1 10.5,-10.5 10.5,10.5 0 0 1 10.5,10.5 z"
           inkscape:connector-curvature="0" />
        <path
           id="path321"
           style="fill:#d1d3d4"
           class="st1"
           d="m 489.09999,661.40002 a 8.3,8.3 0 0 1 -8.3,8.3 8.3,8.3 0 0 1 -8.3,-8.3 8.3,8.3 0 0 1 8.3,-8.3 8.3,8.3 0 0 1 8.3,8.3 z"
           inkscape:connector-curvature="0" />
        <path
           id="path323"
           style="fill:#a7a9ac"
           d="m 480.8,649.3 c 0.8,0 1.4,-0.6 1.4,-1.4 0,-0.8 -0.6,-1.4 -1.4,-1.4 -0.8,0 -1.4,0.6 -1.4,1.4 0,0.8 0.6,1.4 1.4,1.4 z m -10.5,20.6 c -0.6,0.6 -0.6,1.4 0,2 0.6,0.6 1.4,0.6 2,0 0.6,-0.6 0.6,-1.4 0,-2 -0.6,-0.5 -1.5,-0.5 -2,0 z m 2,-17.1 c 0.6,-0.6 0.6,-1.4 0,-2 -0.6,-0.6 -1.4,-0.6 -2,0 -0.6,0.6 -0.6,1.4 0,2 0.5,0.6 1.4,0.6 2,0 z m -5,7.2 c -0.8,0 -1.4,0.6 -1.4,1.4 0,0.8 0.6,1.4 1.4,1.4 0.8,0 1.4,-0.6 1.4,-1.4 0,-0.8 -0.6,-1.4 -1.4,-1.4 z m 22,9.9 c -0.6,0.6 -0.6,1.4 0,2 0.6,0.6 1.4,0.6 2,0 0.6,-0.5 0.6,-1.4 0,-2 -0.5,-0.5 -1.4,-0.5 -2,0 z m 5,-9.9 c -0.8,0 -1.4,0.6 -1.4,1.4 0,0.8 0.6,1.4 1.4,1.4 0.8,0 1.4,-0.6 1.4,-1.4 0,-0.8 -0.6,-1.4 -1.4,-1.4 z m -3,-7.2 c 0.6,-0.6 0.6,-1.4 0,-2 -0.6,-0.6 -1.4,-0.6 -2,0 -0.6,0.6 -0.6,1.4 0,2 0.6,0.6 1.5,0.6 2,0 z m -10.5,20.7 c -0.8,0 -1.4,0.6 -1.4,1.4 0,0.8 0.6,1.4 1.4,1.4 0.8,0 1.4,-0.6 1.4,-1.4 0,-0.8 -0.6,-1.4 -1.4,-1.4 z"
           class="st10"
           inkscape:connector-curvature="0" />
        <path
           id="path325"
           style="fill:#414042"
           class="st9"
           d="m 260.8,661.40002 a 30.1,30.1 0 0 1 -30.1,30.10001 30.1,30.1 0 0 1 -30.1,-30.10001 30.1,30.1 0 0 1 30.1,-30.1 30.1,30.1 0 0 1 30.1,30.1 z"
           inkscape:connector-curvature="0" />
        <path
           id="path327"
           style="fill:#d1d3d4"
           class="st1"
           d="m 250.3,661.40002 a 19.6,19.6 0 0 1 -19.6,19.60001 19.6,19.6 0 0 1 -19.6,-19.60001 19.6,19.6 0 0 1 19.6,-19.6 19.6,19.6 0 0 1 19.6,19.6 z"
           inkscape:connector-curvature="0" />
        <path
           id="path329"
           style="fill:#a7a9ac"
           class="st10"
           d="m 248,661.40002 a 17.299999,17.299999 0 0 1 -17.3,17.3 17.299999,17.299999 0 0 1 -17.3,-17.3 17.299999,17.299999 0 0 1 17.3,-17.3 17.299999,17.299999 0 0 1 17.3,17.3 z"
           inkscape:connector-curvature="0" />
        <path
           id="path331"
           style="fill:#d1d3d4"
           class="st1"
           d="m 246.9,661.40002 a 16.200001,16.200001 0 0 1 -16.2,16.2 16.200001,16.200001 0 0 1 -16.2,-16.2 16.200001,16.200001 0 0 1 16.2,-16.2 16.200001,16.200001 0 0 1 16.2,16.2 z"
           inkscape:connector-curvature="0" />
        <path
           id="path333"
           style="fill:#a7a9ac"
           class="st10"
           d="m 241.2,661.40002 a 10.5,10.5 0 0 1 -10.5,10.5 10.5,10.5 0 0 1 -10.5,-10.5 10.5,10.5 0 0 1 10.5,-10.5 10.5,10.5 0 0 1 10.5,10.5 z"
           inkscape:connector-curvature="0" />
        <path
           id="path335"
           style="fill:#d1d3d4"
           class="st1"
           d="m 239,661.40002 a 8.3,8.3 0 0 1 -8.3,8.3 8.3,8.3 0 0 1 -8.3,-8.3 8.3,8.3 0 0 1 8.3,-8.3 8.3,8.3 0 0 1 8.3,8.3 z"
           inkscape:connector-curvature="0" />
        <path
           id="path337"
           style="fill:#a7a9ac"
           d="m 230.7,649.3 c 0.8,0 1.4,-0.6 1.4,-1.4 0,-0.8 -0.6,-1.4 -1.4,-1.4 -0.8,0 -1.4,0.6 -1.4,1.4 0,0.8 0.6,1.4 1.4,1.4 z m -10.5,20.6 c -0.6,0.6 -0.6,1.4 0,2 0.6,0.6 1.4,0.6 2,0 0.6,-0.6 0.6,-1.4 0,-2 -0.6,-0.5 -1.5,-0.5 -2,0 z m 2,-17.1 c 0.6,-0.6 0.6,-1.4 0,-2 -0.6,-0.6 -1.4,-0.6 -2,0 -0.6,0.6 -0.6,1.4 0,2 0.5,0.6 1.4,0.6 2,0 z m -5,7.2 c -0.8,0 -1.4,0.6 -1.4,1.4 0,0.8 0.6,1.4 1.4,1.4 0.8,0 1.4,-0.6 1.4,-1.4 0,-0.8 -0.6,-1.4 -1.4,-1.4 z m 22,9.9 c -0.6,0.6 -0.6,1.4 0,2 0.6,0.6 1.4,0.6 2,0 0.6,-0.5 0.6,-1.4 0,-2 -0.5,-0.5 -1.4,-0.5 -2,0 z m 5,-9.9 c -0.8,0 -1.4,0.6 -1.4,1.4 0,0.8 0.6,1.4 1.4,1.4 0.8,0 1.4,-0.6 1.4,-1.4 0,-0.8 -0.6,-1.4 -1.4,-1.4 z m -3,-7.2 c 0.6,-0.6 0.6,-1.4 0,-2 -0.6,-0.6 -1.4,-0.6 -2,0 -0.6,0.6 -0.6,1.4 0,2 0.6,0.6 1.5,0.6 2,0 z m -10.5,20.7 c -0.8,0 -1.4,0.6 -1.4,1.4 0,0.8 0.6,1.4 1.4,1.4 0.8,0 1.4,-0.6 1.4,-1.4 0,-0.8 -0.6,-1.4 -1.4,-1.4 z"
           class="st10"
           inkscape:connector-curvature="0" />
        <path
           id="path339"
           style="fill:#414042"
           class="st9"
           d="m 195.70001,661.40002 a 30.1,30.1 0 0 1 -30.1,30.10001 30.1,30.1 0 0 1 -30.1,-30.10001 30.1,30.1 0 0 1 30.1,-30.1 30.1,30.1 0 0 1 30.1,30.1 z"
           inkscape:connector-curvature="0" />
        <path
           id="path341"
           style="fill:#d1d3d4"
           class="st1"
           d="m 185.20001,661.40002 a 19.6,19.6 0 0 1 -19.6,19.60001 19.6,19.6 0 0 1 -19.6,-19.60001 19.6,19.6 0 0 1 19.6,-19.6 19.6,19.6 0 0 1 19.6,19.6 z"
           inkscape:connector-curvature="0" />
        <path
           id="path343"
           style="fill:#a7a9ac"
           class="st10"
           d="m 182.9,661.40002 a 17.299999,17.299999 0 0 1 -17.29999,17.3 17.299999,17.299999 0 0 1 -17.3,-17.3 17.299999,17.299999 0 0 1 17.3,-17.3 17.299999,17.299999 0 0 1 17.29999,17.3 z"
           inkscape:connector-curvature="0" />
        <path
           id="path345"
           style="fill:#d1d3d4"
           class="st1"
           d="m 181.80001,661.40002 a 16.200001,16.200001 0 0 1 -16.2,16.2 16.200001,16.200001 0 0 1 -16.20001,-16.2 16.200001,16.200001 0 0 1 16.20001,-16.2 16.200001,16.200001 0 0 1 16.2,16.2 z"
           inkscape:connector-curvature="0" />
        <path
           id="path347"
           style="fill:#a7a9ac"
           class="st10"
           d="m 176.10001,661.40002 a 10.5,10.5 0 0 1 -10.5,10.5 10.5,10.5 0 0 1 -10.5,-10.5 10.5,10.5 0 0 1 10.5,-10.5 10.5,10.5 0 0 1 10.5,10.5 z"
           inkscape:connector-curvature="0" />
        <path
           id="path349"
           style="fill:#d1d3d4"
           class="st1"
           d="m 173.90001,661.40002 a 8.3,8.3 0 0 1 -8.3,8.3 8.3,8.3 0 0 1 -8.3,-8.3 8.3,8.3 0 0 1 8.3,-8.3 8.3,8.3 0 0 1 8.3,8.3 z"
           inkscape:connector-curvature="0" />
        <path
           id="path351"
           style="fill:#a7a9ac"
           d="m 165.6,649.3 c 0.8,0 1.4,-0.6 1.4,-1.4 0,-0.8 -0.6,-1.4 -1.4,-1.4 -0.8,0 -1.4,0.6 -1.4,1.4 0,0.8 0.6,1.4 1.4,1.4 z m -10.5,20.6 c -0.6,0.6 -0.6,1.4 0,2 0.6,0.6 1.4,0.6 2,0 0.6,-0.6 0.6,-1.4 0,-2 -0.6,-0.5 -1.5,-0.5 -2,0 z m 1.9,-17.1 c 0.6,-0.6 0.6,-1.4 0,-2 -0.6,-0.6 -1.4,-0.6 -2,0 -0.6,0.6 -0.6,1.4 0,2 0.6,0.6 1.5,0.6 2,0 z m -4.9,7.2 c -0.8,0 -1.4,0.6 -1.4,1.4 0,0.8 0.6,1.4 1.4,1.4 0.8,0 1.4,-0.6 1.4,-1.4 0,-0.8 -0.6,-1.4 -1.4,-1.4 z m 22,9.9 c -0.6,0.6 -0.6,1.4 0,2 0.6,0.6 1.4,0.6 2,0 0.5,-0.5 0.6,-1.4 0,-2 -0.5,-0.5 -1.4,-0.5 -2,0 z m 5,-9.9 c -0.8,0 -1.4,0.6 -1.4,1.4 0,0.8 0.6,1.4 1.4,1.4 0.8,0 1.4,-0.6 1.4,-1.4 0,-0.8 -0.6,-1.4 -1.4,-1.4 z m -3,-7.2 c 0.6,-0.6 0.6,-1.4 0,-2 -0.6,-0.6 -1.4,-0.6 -2,0 -0.6,0.6 -0.6,1.4 0,2 0.6,0.6 1.5,0.6 2,0 z m -10.5,20.7 c -0.8,0 -1.4,0.6 -1.4,1.4 0,0.8 0.6,1.4 1.4,1.4 0.8,0 1.4,-0.6 1.4,-1.4 0,-0.8 -0.6,-1.4 -1.4,-1.4 z"
           class="st10"
           inkscape:connector-curvature="0" />
        <path
           id="path353"
           style="fill:none;stroke:#000000;stroke-width:4;stroke-linecap:round;stroke-linejoin:round;stroke-miterlimit:10"
           d="m 130.6,655.2 c 0,-14.4 13.2,-27.6 27.7,-27.6 h 79.8 c 14.4,0 27.7,13.2 27.7,27.6"
           class="st11"
           inkscape:connector-curvature="0" />
        <path
           id="path355"
           style="fill:#d1d3d4"
           class="st1"
           d="m 271.79999,627.5 h 68.19999 v 30.9 h -68.19999 z"
           inkscape:connector-curvature="0" />
        <path
           id="path357"
           style="fill:#bcbec0"
           class="st12"
           d="m 279.89999,626.70001 h 1.2 v 32.6 h -1.2 z"
           inkscape:connector-curvature="0" />
        <path
           id="path359"
           style="fill:#bcbec0"
           class="st12"
           d="m 330.5,626.70001 h 1.2 v 32.6 h -1.2 z"
           inkscape:connector-curvature="0" />
        <path
           id="path361"
           style="fill:#bcbec0"
           d="m 541.7,525.9 c -8.6,-10 -20.3,-15.1 -34.8,-15.1 h -42.2 c -1.4,0 -2.5,1.1 -2.5,2.5 v 0.8 h 38.1 c 14.5,0 26.2,5.1 34.8,15.1 11.2,13.1 16.9,34 16.9,62.1 0,1.1 0,2.1 0,2.7 h 4.1 c 1.4,0 2.5,-1.1 2.5,-2.5 0,0 0,-1.5 0,-3.5 0,-28.2 -5.7,-49.1 -16.9,-62.1 z"
           class="st12"
           inkscape:connector-curvature="0" />
        <path
           id="path363"
           style="fill:#a7a9ac"
           d="m 534.2,593.8 c 0.5,0.1 0.9,0.2 1.3,0.2 H 556 c 1.4,0 2.5,-1.1 2.5,-2.5 0,0 0,-1.5 0,-3.5 0,-5.8 -0.2,-11.2 -0.7,-16.3 -14.3,1.1 -22.4,9.8 -23.6,22.1 z"
           class="st10"
           inkscape:connector-curvature="0" />
        <path
           id="path365"
           style="fill:#6d6e71"
           d="m 556.9,590.7 h -20.5 c -1.4,0 -3.2,-0.8 -4.2,-1.7 l -26.5,-26.5 c -1,-1 -2.8,-1.7 -4.2,-1.7 h -36 c -0.1,0 -0.2,0 -0.4,0 v -49.9 h -0.5 c -1.4,0 -2.5,1.1 -2.5,2.5 v 48.3 c 0,0 0,0 0,0 v 0 c 0,1.3 1.1,2.5 2.5,2.5 h 36 c 1.4,0 3.2,0.8 4.2,1.7 l 26.5,26.5 c 1,1 2.8,1.7 4.2,1.7 H 556 c 1.4,0 2.5,-1.1 2.5,-2.5 0,0 0,-0.6 0,-1.5 -0.4,0.3 -0.9,0.6 -1.6,0.6 z"
           class="st13"
           inkscape:connector-curvature="0" />
        <path
           id="path367"
           style="fill:none;stroke:#000000;stroke-miterlimit:10"
           d="m 464.5,589.5 c -1.3,0 -2.4,-1.1 -2.4,-2.4 0,-1.3 1.1,-2.4 2.4,-2.4 H 476 c 1.3,0 2.4,1.1 2.4,2.4 0,1.3 -1.1,2.4 -2.4,2.4 z"
           class="st14"
           inkscape:connector-curvature="0" />
        <path
           id="path369"
           style="fill:#f1f2f2"
           d="M 552.9,516.3 C 541.5,503 525.6,496 506.9,496 h -63.5 v 123.2 h 46 c 17.5,0 31.8,14.3 31.8,31.8 v 13.2 h 48.9 l 0.2,-2.2 c 0,-0.3 3,-28.7 3,-74 0,-31.8 -6.8,-55.9 -20.4,-71.7 z m 5.7,75.2 c 0,1.4 -1.1,2.5 -2.5,2.5 h -20.5 c -1.4,0 -3.2,-0.8 -4.2,-1.7 l -26.5,-26.5 c -1,-1 -2.8,-1.7 -4.2,-1.7 h -36 c -1.4,0 -2.5,-1.1 -2.5,-2.5 v -48.3 c 0,-1.3 1.1,-2.5 2.5,-2.5 h 42.2 c 14.5,0 26.2,5.1 34.8,15.1 11.2,13.1 16.9,34 16.9,62.1 0,2 0,3.5 0,3.5 z"
           class="st18"
           inkscape:connector-curvature="0" />
        <path
           id="path371"
           style="fill:#e6e7e8"
           d="m 543,524.8 c -8.9,-10.4 -21,-15.7 -36,-15.7 h -42.2 c -2.3,0 -4.1,1.8 -4.1,4.1 v 48.3 c 0,2.3 1.8,4.1 4.1,4.1 h 36 c 0.9,0 2.4,0.6 3,1.3 l 26.5,26.5 c 1.3,1.3 3.6,2.2 5.3,2.2 h 20.5 c 2.3,0 4.1,-1.8 4.1,-4.1 0,0 0,-1.5 0,-3.6 0,-28.5 -5.8,-49.7 -17.2,-63.1 z m 15.6,66.7 c 0,1.4 -1.1,2.5 -2.5,2.5 h -20.5 c -1.4,0 -3.2,-0.8 -4.2,-1.7 l -26.5,-26.5 c -1,-1 -2.8,-1.7 -4.2,-1.7 h -36 c -1.4,0 -2.5,-1.1 -2.5,-2.5 v -48.3 c 0,-1.4 1.1,-2.5 2.5,-2.5 h 42.2 c 14.5,0 26.2,5.1 34.8,15.1 11.2,13.1 16.9,34 16.9,62.1 0,2 0,3.5 0,3.5 z"
           class="st19"
           inkscape:connector-curvature="0" />
        <path
           id="path373"
           style="fill:#e6e7e8"
           d="m 506.9,498.5 c -23.6,0 -12.3,0 -61.1,0 v 118.3 h 43.5 c 18.9,0 34.2,15.3 34.2,34.2 v 10.7 h 44.2 c 0,0 3,-28 3,-73.7 0.2,-67.6 -31.4,-89.5 -63.8,-89.5 z m 58,159.9 h -38 V 651 c 0,-20.7 -16.8,-37.5 -37.5,-37.5 H 449.1 V 501.7 h 57.8 c 11.9,0 28.7,3.2 41.6,18.3 12.6,14.7 19,37.6 19,68 0.1,36.7 -1.9,62.1 -2.6,70.4 z"
           class="st19"
           inkscape:connector-curvature="0" />
        <path
           id="path375"
           style="fill:#e6e7e8"
           d="m 568.3,638.1 c 3.3,0 10.7,0 10.7,8.5 0,17.2 -2.7,25.2 -12.6,25.2 -5.7,0 -8.4,-0.4 -8.4,-8.9 0.1,-8.4 0.9,-24.8 10.3,-24.8 z"
           class="st19"
           inkscape:connector-curvature="0" />
        <path
           id="path377"
           style="fill:#414042"
           d="m 574.4,621.2 c 0,0 -4,-1.6 -10.2,-1.6 -1.9,0 -3.4,1.6 -3.4,4.2 v 16.4 c 0,2.6 1.5,4.2 3.4,4.2 2.8,0 9.5,-0.4 9.5,-0.4 0.4,0 0.8,-0.4 0.8,-0.9 l 0.6,-20.9 c 0,-0.3 -0.3,-0.8 -0.7,-1 z"
           class="st9"
           inkscape:connector-curvature="0" />
        <path
           id="path379"
           style="fill:#ffffff"
           d="m 572.1,626.7 c 0,2.8 -0.6,5.1 -2,5.1 -2,0 -3.6,-2.3 -3.6,-5.1 0,-2.8 1.6,-5.1 3.6,-5.1 1.3,0 2,2.3 2,5.1 z"
           class="st15"
           inkscape:connector-curvature="0" />
        <path
           id="path381"
           style="fill:#ffffff"
           d="m 571.1,638.1 c 0,2.8 -0.6,5.1 -2,5.1 -2,0 -3.6,-2.3 -3.6,-5.1 0,-2.8 1.6,-5.1 3.6,-5.1 1.3,0 2,2.3 2,5.1 z"
           class="st15"
           inkscape:connector-curvature="0" />
        <path
           id="path383"
           style="opacity:0.3;fill:#c7eafb"
           d="m 558.6,591.5 c 0,1.4 -1.1,2.5 -2.5,2.5 h -20.5 c -1.4,0 -3.2,-0.8 -4.2,-1.7 l -26.5,-26.5 c -1,-1 -2.8,-1.7 -4.2,-1.7 h -36 c -1.4,0 -2.5,-1.1 -2.5,-2.5 v -48.3 c 0,-1.4 1.1,-2.5 2.5,-2.5 h 42.2 c 14.5,0 26.2,5.1 34.8,15.1 11.2,13.1 16.9,34 16.9,62.1 0,2 0,3.5 0,3.5 z"
           class="st16"
           inkscape:connector-curvature="0" />
        <path
           id="path385"
           d="m 539.1,519.6 h -10.6 c -0.9,0 -1.6,0.7 -1.6,1.6 v 29.4 c 0,0.9 0.7,1.6 1.6,1.6 h 10.6 c 0.9,0 1.6,-0.7 1.6,-1.6 v -29.4 c 0,-0.9 -0.7,-1.6 -1.6,-1.6 z"
           inkscape:connector-curvature="0" />
        <path
           id="path387"
           d="m 533.8,519.6 h -1.6 c 0,-3.3 2.7,-6.1 6.1,-6.1 v 1.6 c -2.5,0.1 -4.5,2 -4.5,4.5 z"
           inkscape:connector-curvature="0" />
      </g>
      <g
         transform="matrix(0.26180116,0.19304949,-0.19304949,0.26180116,805.52729,-233.20764)"
         id="g405">
        <g
           id="g395">
          <g
             id="g221">
            <g
               id="g219">
              <path
                 style="fill:#f1862c"
                 inkscape:connector-curvature="0"
                 d="m 1218.143,670.379 c -1.486,17.2 -3.668,35.982 -10.193,52.102 -4.555,11.312 -13.493,19.671 -18.107,31.021 -9.94,24.457 -18.473,47.256 -34.979,68.375 -27.547,35.23 -66.31,59.572 -107.735,75.324 -20.771,7.895 -41.851,15.48 -63.684,19.884 -9.634,1.931 -35.597,9.575 -46.696,2.026 h -0.02 c -2.625,-1.796 -4.42,-4.439 -4.961,-8.225 -2.471,-17.334 16.138,-31.041 23.841,-43.356 9.399,-15.019 10.559,-32.527 2.431,-48.396 -10.674,-20.847 -9.246,-46.792 -7.644,-72.466 0.812,-13.031 1.66,-25.983 0.983,-38.163 -0.481,-9.383 -1.891,-18.281 -4.922,-26.429 -3.726,-9.999 -9.207,-17.741 -14.902,-24.284 h -0.02 c -16.795,-19.322 -35.423,-28.436 -15.963,-55.827 26.059,-36.677 78.179,-48.26 78.179,-48.26 49.845,-7.876 105.846,-16.62 155.804,-4.344 31.137,7.646 62.468,38.106 70.865,69.649 3.937,14.827 -0.965,36.234 -2.277,51.369 z"
                 id="path217" />
            </g>
          </g>
          <g
             id="g225">
            <path
               style="fill:#ef712c"
               inkscape:connector-curvature="0"
               d="m 931.555,657.793 c 0,0 -18.787,-30.887 -0.012,-31.774 18.775,-0.887 80.125,15.888 91.205,10.694 11.079,-5.192 94.551,-55.016 142.811,-15.443 48.26,39.574 -1.713,101.252 -1.713,101.252 l -156.078,-15.754 z"
               id="path223" />
          </g>
          <g
             id="g229">
            <path
               style="fill:#ef712c"
               inkscape:connector-curvature="0"
               d="m 950.396,746.669 c 0.812,-13.031 1.66,-25.983 0.983,-38.163 -0.481,-9.383 -1.891,-18.281 -4.922,-26.429 -3.726,-9.999 -9.207,-17.741 -14.902,-24.284 l 91.193,17.121 -4.162,54.748 z"
               id="path227" />
          </g>
          <g
             id="g233">
            <path
               style="fill:#ef712c"
               inkscape:connector-curvature="0"
               d="m 1157.547,737.827 c 0,0 -3.688,131.653 -220.799,181.284 h -0.02 c -2.625,-1.796 -4.42,-4.439 -4.961,-8.225 -2.471,-17.334 16.138,-31.041 23.841,-43.356 9.399,-15.019 10.559,-32.527 2.431,-48.396 -16.099,-31.424 -4.67,-74.455 -6.66,-110.629 l 72.855,-13.205 z"
               id="path231" />
          </g>
          <g
             id="g237">
            <path
               style="fill:#e03a26"
               inkscape:connector-curvature="0"
               d="m 935.375,580.141 c -3.984,-4.176 -11.5,-5.198 -15.779,-9.007 -10.053,-8.96 -14.205,-21.678 -10.75,-34.802 9.651,-36.678 13.242,-60.808 -1.584,-69.494 0,0 31.506,-5.792 43.087,13.513 0,0 -12.548,-14.478 0,-47.295 12.548,-32.817 34.55,-45.868 24.996,-58.645 0,0 23.264,7.489 22.299,42.238 0,0 -4.827,-73.356 71.425,-90.729 0,0 -21.234,27.991 42.469,77.216 63.703,49.226 74.32,75.286 70.459,94.589 0,0 35.712,-29.92 12.548,-77.215 0,0 58.878,44.4 32.816,115.824 0,0 8.687,-16.065 31.849,-20.098 -11.036,1.922 -18.656,27.389 -22.65,35.041 -7.136,13.673 -19.098,22.939 -33.261,28.548 -5.622,2.228 -14.301,1.619 -19.028,4.405 -1.843,1.087 -11.832,15.52 -9.254,16.647 -13.109,-5.735 -22.59,-11.838 -38.345,-12.423 -13.521,-0.501 -27.036,-2.226 -40.585,-1.527 -12.153,0.627 -23.018,4.868 -34.852,6.389 -11.372,1.46 -23.855,2.99 -33.706,9.408 -2.539,1.654 -19.712,19.914 -12.69,23.296 -8.487,-4.088 -17.369,-12.003 -20.399,-21.437 -4.259,-13.265 -7.593,-22.742 -24.284,-21.861 -4.643,0.244 -38.329,15.697 -29.68,22.063 -7.906,-5.818 -0.4,-15.38 -3.286,-21.948 -0.456,-1.035 -1.075,-1.919 -1.815,-2.696 z"
               id="path235" />
          </g>
          <g
             id="g241">
            <path
               style="fill:#ef712c"
               inkscape:connector-curvature="0"
               d="m 1007.768,695.89899 a 33.762001,33.762001 0 0 1 -33.76202,33.762 33.762001,33.762001 0 0 1 -33.762,-33.762 33.762001,33.762001 0 0 1 33.762,-33.762 33.762001,33.762001 0 0 1 33.76202,33.762 z"
               id="path239" />
          </g>
          <g
             id="g263">
            <g
               id="g245">
              <path
                 style="fill:#ce4425"
                 inkscape:connector-curvature="0"
                 d="m 1007.768,703.62097 a 33.762001,33.762001 0 0 1 -33.76202,33.762 33.762001,33.762001 0 0 1 -33.762,-33.762 33.762001,33.762001 0 0 1 33.762,-33.762 33.762001,33.762001 0 0 1 33.76202,33.762 z"
                 id="path243" />
            </g>
            <g
               id="g249">
              <path
                 style="fill:#e8d8d1"
                 inkscape:connector-curvature="0"
                 d="m 1007.763,699.756 c 0,2.798 -0.336,5.523 -0.996,8.132 -3.635,14.729 -16.913,25.634 -32.755,25.634 -17.133,0 -31.291,-12.752 -33.459,-29.297 -0.205,-1.467 -0.309,-2.961 -0.309,-4.469 0,-18.643 15.11,-33.753 33.768,-33.753 18.641,0 33.751,15.11 33.751,33.753 z"
                 id="path247" />
            </g>
            <g
               id="g253">
              <path
                 style="fill:#ffffff"
                 inkscape:connector-curvature="0"
                 d="m 980.548,675.557 c -0.21,-0.556 -0.522,-1.152 -0.95,-1.793 -6.367,-9.549 -26.613,3.059 -30.857,9.711 -10.979,17.199 9.268,2.607 14.138,0.828 3.76,-1.374 20.567,-1.077 17.669,-8.746 z"
                 id="path251" />
            </g>
            <g
               id="g257">
              <path
                 style="fill:#ffffff"
                 inkscape:connector-curvature="0"
                 d="m 989.932,674.916 c -7.396,0 -7.396,11.467 0,11.467 7.394,0 7.394,-11.467 0,-11.467 z"
                 id="path255" />
            </g>
            <g
               id="g261">
              <path
                 inkscape:connector-curvature="0"
                 d="m 989.932,690.165 c -7.396,0 -7.396,11.468 0,11.468 7.392,0 7.392,-11.468 0,-11.468 z"
                 id="path259" />
            </g>
          </g>
          <g
             id="g267">
            <path
               style="fill:#ef712c"
               inkscape:connector-curvature="0"
               d="m 1165.558,707.17297 a 75.276001,72.389999 0 0 1 -75.276,72.39 75.276001,72.389999 0 0 1 -75.276,-72.39 75.276001,72.389999 0 0 1 75.276,-72.39 75.276001,72.389999 0 0 1 75.276,72.39 z"
               id="path265" />
          </g>
          <g
             id="g277">
            <g
               id="g271">
              <path
                 style="fill:#ec4e2c"
                 inkscape:connector-curvature="0"
                 d="m 1152.973,699.451 c 0,2.413 -0.117,4.787 -0.367,7.123 -3.03,-27.779 -23.436,-50.346 -50.133,-56.58 -3.456,-0.811 -7.026,-1.332 -10.675,-1.545 -1.391,-0.115 -2.8,-0.154 -4.229,-0.154 -10.771,0 -20.925,2.606 -29.882,7.22 -5.676,2.915 -10.868,6.642 -15.425,11.022 l -13.203,3.629 c 1.795,-3.531 3.86,-6.892 6.235,-10.018 11.93,-15.85 30.904,-26.1 52.274,-26.1 11.795,0 22.837,3.107 32.374,8.57 1.003,0.561 1.969,1.16 2.934,1.777 18.108,11.621 30.097,31.949 30.097,55.056 z"
                 id="path269" />
            </g>
            <g
               id="g275">
              <path
                 style="fill:#ec4e2c"
                 inkscape:connector-curvature="0"
                 d="m 1058.805,640.701 c -5.676,2.914 -16.592,22.721 -21.146,27.102 0,0 -18.811,31.957 -28.463,2.519 l -68.951,-12.528 74.762,3.738 c 0,0 7.09,21.956 13.533,0.008 z"
                 id="path273-5" />
            </g>
          </g>
          <g
             id="g299">
            <g
               id="g281">
              <path
                 style="fill:#ce4425"
                 inkscape:connector-curvature="0"
                 d="m 1152.044,714.89398 a 64.648003,64.648003 0 0 1 -64.648,64.648 64.648003,64.648003 0 0 1 -64.648,-64.648 64.648003,64.648003 0 0 1 64.648,-64.648 64.648003,64.648003 0 0 1 64.648,64.648 z"
                 id="path279-9" />
            </g>
            <g
               id="g285">
              <path
                 style="fill:#e8d8d1"
                 inkscape:connector-curvature="0"
                 d="m 1152.045,709.102 c 0,35.705 -28.945,64.65 -64.648,64.65 -35.703,0 -64.648,-28.945 -64.648,-64.65 0,-35.702 28.945,-64.647 64.648,-64.647 35.703,0 64.648,28.944 64.648,64.647 z"
                 id="path283-8" />
            </g>
            <g
               id="g289">
              <path
                 style="fill:#ffffff"
                 inkscape:connector-curvature="0"
                 d="m 1099.924,662.755 c -0.402,-1.062 -1,-2.202 -1.818,-3.433 -12.195,-18.282 -50.96,5.858 -59.087,18.595 -21.021,32.935 17.745,4.997 27.07,1.589 7.2,-2.63 39.386,-2.063 33.835,-16.751 z"
                 id="path287-5" />
            </g>
            <g
               id="g293">
              <path
                 style="fill:#ffffff"
                 inkscape:connector-curvature="0"
                 d="m 1117.892,661.531 c -14.159,0 -14.159,21.956 0,21.956 14.157,0 14.157,-21.956 0,-21.956 z"
                 id="path291-3" />
            </g>
            <g
               id="g297">
              <path
                 inkscape:connector-curvature="0"
                 d="m 1086.177,700.564 c -14.159,0 -14.159,21.957 0,21.957 14.159,0 14.159,-21.957 0,-21.957 z"
                 id="path295-1" />
            </g>
          </g>
          <g
             id="g303">
            <path
               style="fill:#e03a26"
               inkscape:connector-curvature="0"
               d="m 1087.396,781.492 c 0,0 -0.038,5.482 -3.069,12.721 -0.31,0.793 -0.677,1.604 -1.082,2.434 l -0.019,0.02 c -6.139,12.624 -28.783,29.42 -69.244,32.7 -8.995,0.733 -18.84,0.791 -29.593,0 l -16.524,-70.962 c 0.271,0.502 1.834,3.32 5.502,6.97 11.12,11.099 41.62,30.018 114.029,16.117 z"
               id="path301-7" />
          </g>
          <g
             id="g307">
            <path
               style="fill:#c3321f"
               inkscape:connector-curvature="0"
               d="m 999.565,831.868 c -4.958,0 -10.111,-0.193 -15.317,-0.577 -0.843,-0.062 -1.547,-0.664 -1.738,-1.487 l -16.524,-70.962 c -0.22,-0.941 0.292,-1.9 1.195,-2.242 0.906,-0.345 1.923,0.036 2.383,0.887 0.379,0.7 1.872,3.242 5.165,6.52 7.657,7.643 26.379,20.461 65.76,20.463 0,0 0.01,0 0.01,0 14.038,0 29.694,-1.64 46.535,-4.872 0.568,-0.111 1.154,0.042 1.599,0.412 0.444,0.369 0.7,0.919 0.696,1.497 0,0.239 -0.077,5.949 -3.22,13.453 -0.286,0.735 -0.661,1.579 -1.128,2.534 -0.026,0.054 -0.055,0.106 -0.086,0.157 -7.155,14.492 -31.762,30.479 -70.755,33.64 -4.705,0.383 -9.609,0.577 -14.574,0.577 z m -13.619,-4.328 c 9.727,0.652 19.098,0.618 27.879,-0.098 42.971,-3.484 62.752,-21.516 67.665,-31.62 0.026,-0.054 0.055,-0.105 0.085,-0.156 0.39,-0.804 0.702,-1.51 0.954,-2.155 1.685,-4.024 2.404,-7.485 2.71,-9.649 -16.124,2.965 -31.166,4.468 -44.742,4.468 0,0 -0.01,0 -0.01,0 -40.771,-0.002 -60.408,-13.526 -68.484,-21.589 -0.096,-0.095 -0.188,-0.188 -0.281,-0.281 z"
               id="path305-2" />
          </g>
          <g
             id="g329">
            <g
               id="g317">
              <g
                 id="g311">
                <path
                   style="fill:#edf4d8"
                   inkscape:connector-curvature="0"
                   d="m 984.391,796.471 c 0,0 0,0.002 -10e-4,0.002 v 32.894 h 29.593 c 40.461,-3.28 63.105,-20.076 69.244,-32.7 -33.403,11.47 -78.337,4.192 -98.836,-0.196 z"
                   id="path309-1" />
              </g>
              <g
                 id="g315">
                <path
                   style="fill:#d1d3d4"
                   inkscape:connector-curvature="0"
                   d="M 1013.982,830.331 H 984.39 c -0.533,0 -0.965,-0.432 -0.965,-0.965 v -32.894 c 0,-0.179 0.048,-0.347 0.133,-0.49 0.059,-0.099 0.135,-0.188 0.227,-0.263 0.227,-0.183 0.523,-0.253 0.809,-0.192 13.477,2.885 34.076,6.324 55.677,6.324 16.513,0 30.859,-2.052 42.644,-6.099 0.369,-0.126 0.777,-0.02 1.036,0.273 0.259,0.292 0.316,0.711 0.146,1.062 -6.945,14.282 -31.294,30.1 -70.034,33.24 -0.029,0.003 -0.054,0.004 -0.081,0.004 z m -28.628,-1.93 h 28.589 c 40.55,-3.298 60.704,-19.544 67.244,-30.051 -11.521,3.605 -25.271,5.432 -40.918,5.432 -21.154,0 -41.341,-3.271 -54.915,-6.12 z"
                   id="path313-1" />
              </g>
            </g>
            <g
               id="g327">
              <g
                 id="g321">
                <path
                   style="fill:#edf4d8"
                   inkscape:connector-curvature="0"
                   d="m 973.367,765.374 v 28.474 c 0,0 4.135,1.148 11.023,2.623 20.499,4.389 65.434,11.666 98.836,0.195 l 0.019,-0.02 c 4.093,-8.417 4.151,-15.154 4.151,-15.154 -72.409,13.901 -102.909,-5.018 -114.029,-16.118 z"
                   id="path319-3" />
              </g>
              <g
                 id="g325">
                <path
                   style="fill:#d1d3d4"
                   inkscape:connector-curvature="0"
                   d="m 1040.27,803.782 c -21.77,0 -42.513,-3.463 -56.081,-6.368 -6.838,-1.463 -11.038,-2.625 -11.08,-2.637 -0.417,-0.115 -0.706,-0.496 -0.706,-0.93 v -28.474 c 0,-0.391 0.234,-0.742 0.595,-0.892 0.362,-0.149 0.776,-0.067 1.052,0.208 7.762,7.747 26.713,20.743 66.439,20.743 14.105,0 29.826,-1.645 46.727,-4.89 0.282,-0.055 0.577,0.022 0.8,0.207 0.222,0.186 0.35,0.46 0.347,0.75 0,0.283 -0.107,7.053 -4.248,15.567 -0.044,0.089 -0.101,0.171 -0.169,0.243 -0.106,0.112 -0.258,0.217 -0.404,0.268 -11.988,4.118 -26.546,6.205 -43.272,6.205 z m -65.938,-10.675 c 1.458,0.385 5.097,1.314 10.261,2.42 13.477,2.885 34.076,6.324 55.677,6.324 16.34,0 30.56,-2.009 42.273,-5.973 2.827,-5.944 3.6,-10.998 3.811,-13.206 -16.556,3.113 -31.98,4.691 -45.865,4.691 -37.873,0 -57.3,-11.719 -66.156,-19.742 v 25.486 z"
                   id="path323-0" />
              </g>
            </g>
          </g>
          <g
             id="g333">
            <path
               style="fill:#c3321f"
               inkscape:connector-curvature="0"
               d="m 1081.644,776.445 c 0,0 0.072,-0.076 0.268,-0.126 0.188,-0.055 0.49,-0.101 0.851,-0.055 0.364,0.034 0.816,0.113 1.277,0.286 0.484,0.154 0.97,0.398 1.513,0.676 0.498,0.303 1.077,0.631 1.595,1.04 0.537,0.4 1.09,0.842 1.604,1.337 0.538,0.482 1.054,1.011 1.542,1.57 0.513,0.547 0.98,1.138 1.435,1.733 0.443,0.606 0.904,1.203 1.284,1.832 0.402,0.616 0.769,1.242 1.115,1.851 0.662,1.235 1.21,2.429 1.616,3.486 0.393,1.064 0.655,1.986 0.811,2.648 0.162,0.657 0.215,1.055 0.215,1.055 0,0 -0.34,-0.221 -0.865,-0.646 -0.532,-0.422 -1.251,-1.046 -2.037,-1.838 -0.802,-0.779 -1.686,-1.715 -2.558,-2.76 -0.448,-0.513 -0.902,-1.045 -1.335,-1.606 -0.435,-0.556 -0.876,-1.12 -1.317,-1.685 -0.423,-0.572 -0.847,-1.146 -1.263,-1.709 -0.407,-0.566 -0.807,-1.124 -1.194,-1.664 -0.381,-0.54 -0.75,-1.063 -1.1,-1.559 -0.339,-0.516 -0.688,-0.941 -0.99,-1.391 -0.318,-0.405 -0.604,-0.813 -0.881,-1.129 -0.134,-0.178 -0.269,-0.317 -0.392,-0.454 -0.124,-0.142 -0.242,-0.271 -0.357,-0.365 -0.229,-0.204 -0.426,-0.367 -0.58,-0.434 -0.151,-0.083 -0.257,-0.093 -0.257,-0.093 z"
               id="path331-5" />
          </g>
          <g
             id="g337">
            <path
               style="fill:#ec4e2c"
               inkscape:connector-curvature="0"
               d="m 1028.5389,661.539 5.7531,-32.40399 -2.8781,38.14301 z"
               id="path335-4" />
          </g>
          <g
             id="g341">
            <path
               style="fill:#ec4e2c"
               inkscape:connector-curvature="0"
               d="m 1015.006,661.53101 -2.221,-22.13501 -1.338,25.388 z"
               id="path339-5" />
          </g>
          <g
             id="g345">
            <path
               style="fill:#f7a01d"
               inkscape:connector-curvature="0"
               d="m 1044.545,351.982 c -1.733,7.958 -25.852,37.974 -29.539,46.325 -12.75,28.885 23.658,53.713 0,77.663 0,0 -29.219,-17.056 -30.616,-57.07 0,0 -29.859,14.158 -21.188,63.061 0,0 -0.337,32.172 -8.058,37.32 0,0 -6.93,-33.616 -23.59,-38.608 0,0 18.873,23.271 -0.012,52.763 -18.885,29.495 20.414,41.183 31.659,24.453 0,0 41.407,2.212 36.321,24.451 0,0 98.47,-52.764 166.035,-9.008 0,0 37.813,-8.152 32.815,-48.903 0,0 -10.296,19.304 -32.815,12.869 0,0 28.957,-20.592 -27.668,-79.79 -56.623,-59.198 -101.749,-66.921 -93.344,-105.526 z"
               id="path343-8" />
          </g>
          <g
             id="g349">
            <path
               style="fill:#ffffff"
               inkscape:connector-curvature="0"
               d="m 926.488,599.071 c -0.27,-0.132 -15.742,12.869 -12.525,23.808 0,0 2.236,7.124 6.042,11.903 0,0 -9.304,-17.695 6.483,-20.269 15.787,-2.574 10.594,-10.294 0,-15.442 z"
               id="path347-9" />
          </g>
          <g
             id="g353">
            <path
               style="fill:#fdee8b"
               inkscape:connector-curvature="0"
               d="m 1044.545,407.317 c 0,0 -12.268,23.165 0,50.191 12.268,27.025 -11.686,45.043 -11.686,45.043 0,0 -41.148,16.516 -51.977,-26.582 0,0 -12.301,40.738 3.502,52.32 15.803,11.582 35.023,23.497 60.16,14.966 0,0 50.774,-17.54 73.347,-9.819 0,0 39.302,-7.722 22.57,-37.32 0,0 -11.683,-14.156 -22.57,-34.747 0,0 1.231,27.026 -10.62,23.164 0,0 3.468,-33.252 -31.713,-48.903 10e-4,0 -31.699,-11.583 -31.013,-28.313 z"
               id="path351-0" />
          </g>
          <g
             id="g357">
            <path
               style="fill:#ef712c"
               inkscape:connector-curvature="0"
               d="m 1179.948,715.582 c 0,0 -11.772,3.58 -16.509,51.83 -4.737,48.252 -21.234,55.586 -23.81,58.159 -2.574,2.573 2.575,-2.573 2.575,-2.573 0,0 18.658,-10.298 29.599,-58.557 10.94,-48.262 18.927,-32.818 20.403,-48.262 0,10e-4 -6.165,-7.697 -12.258,-0.597 z"
               id="path355-3" />
          </g>
          <g
             id="g361">
            <path
               style="fill:#ec4e2c"
               inkscape:connector-curvature="0"
               d="m 980.9,829.953 c 0.016,-0.018 0.03,-0.033 0.043,-0.053 -9.386,11.821 7.168,14.893 15.431,16.199 13.803,2.182 50.201,-8.924 62.431,-16.161 -8.289,9.017 -45.682,24.185 -58.014,24.162 -6.088,-0.013 -20.408,-1.649 -24.743,-6.419 -6.33,-6.962 0.666,-12.538 4.852,-17.728 z"
               id="path359-3" />
          </g>
          <g
             id="g365">
            <path
               style="fill:#d1d3d4"
               inkscape:connector-curvature="0"
               d="m 989.933,797.436 c -0.024,0 -0.05,-0.001 -0.074,-0.003 -0.532,-0.04 -0.93,-0.504 -0.889,-1.035 l 1.457,-19.085 c 0.04,-0.531 0.51,-0.928 1.035,-0.889 0.532,0.04 0.93,0.504 0.889,1.035 l -1.457,19.085 c -0.039,0.507 -0.461,0.892 -0.961,0.892 z"
               id="path363-0" />
          </g>
          <g
             id="g369">
            <path
               style="fill:#d1d3d4"
               inkscape:connector-curvature="0"
               d="m 1013.228,802.162 c -0.025,0 -0.05,-0.001 -0.075,-0.003 -0.532,-0.041 -0.93,-0.505 -0.888,-1.036 l 1.31,-16.902 c 0.041,-0.532 0.514,-0.928 1.036,-0.888 0.532,0.041 0.93,0.505 0.888,1.036 l -1.31,16.902 c -0.04,0.507 -0.462,0.891 -0.961,0.891 z"
               id="path367-5" />
          </g>
          <g
             id="g373">
            <path
               style="fill:#d1d3d4"
               inkscape:connector-curvature="0"
               d="m 1039.369,803.781 c -0.533,0 -0.965,-0.432 -0.965,-0.965 v -16.424 c 0,-0.533 0.432,-0.965 0.965,-0.965 0.533,0 0.965,0.432 0.965,0.965 v 16.424 c 0,0.534 -0.432,0.965 -0.965,0.965 z"
               id="path371-1" />
          </g>
          <g
             id="g377">
            <path
               style="fill:#d1d3d4"
               inkscape:connector-curvature="0"
               d="m 1066.862,801.716 c -0.383,0 -0.745,-0.229 -0.896,-0.607 l -6.146,-15.366 c -0.197,-0.495 0.043,-1.057 0.538,-1.255 0.495,-0.196 1.057,0.043 1.255,0.538 l 6.146,15.366 c 0.197,0.495 -0.043,1.057 -0.538,1.255 -0.117,0.046 -0.24,0.069 -0.359,0.069 z"
               id="path375-5" />
          </g>
          <g
             id="g381">
            <path
               style="fill:#d1d3d4"
               inkscape:connector-curvature="0"
               d="m 995.847,830.865 c -0.013,0 -0.025,0 -0.038,0 -0.532,-0.021 -0.947,-0.469 -0.928,-1.002 l 1.18,-31.01 c 0.021,-0.532 0.448,-0.925 1.002,-0.928 0.532,0.021 0.947,0.469 0.928,1.002 l -1.18,31.01 c -0.021,0.52 -0.449,0.928 -0.964,0.928 z"
               id="path379-5" />
          </g>
          <g
             id="g385">
            <path
               style="fill:#d1d3d4"
               inkscape:connector-curvature="0"
               d="m 1013.982,830.332 c -0.11,0 -0.224,-0.02 -0.333,-0.06 -0.5,-0.185 -0.757,-0.739 -0.573,-1.239 l 9.986,-27.169 c 0.184,-0.501 0.739,-0.756 1.239,-0.573 0.5,0.185 0.757,0.739 0.573,1.239 l -9.986,27.169 c -0.143,0.391 -0.513,0.633 -0.906,0.633 z"
               id="path383-9" />
          </g>
          <g
             id="g389">
            <path
               style="fill:#d1d3d4"
               inkscape:connector-curvature="0"
               d="m 1044.546,824.552 c -0.059,0 -0.119,-0.006 -0.18,-0.018 -0.523,-0.098 -0.868,-0.603 -0.77,-1.127 l 3.902,-20.77 c 0.099,-0.522 0.599,-0.869 1.127,-0.77 0.523,0.098 0.868,0.603 0.77,1.127 l -3.902,20.77 c -0.087,0.464 -0.492,0.788 -0.947,0.788 z"
               id="path387-9" />
          </g>
          <g
             id="g393">
            <path
               style="fill:#fbf9d8"
               inkscape:connector-curvature="0"
               d="m 959.488,868.845 c 0,0 -1.24,10.967 -13.995,21.233 -12.757,10.267 -10.54,21.085 -7.722,24.612 0.514,-5.64 3.869,-11.05 7.614,-15.089 4.825,-5.207 13.417,-7.249 17.232,-13.051 4.037,-6.136 1.766,-12.812 -3.129,-17.705 z"
               id="path391" />
          </g>
        </g>
        <g
           id="g399">
          <path
             style="fill:#ec4e2c"
             inkscape:connector-curvature="0"
             d="m 1006.767,707.888 c -3.635,14.729 -16.913,25.634 -32.755,25.634 -17.133,0 -31.291,-12.752 -33.459,-29.297 14.831,-3.708 44.627,-9.278 66.214,3.663 z"
             id="path397" />
        </g>
        <g
           id="g403">
          <path
             style="fill:#f1882c"
             inkscape:connector-curvature="0"
             d="m 1003.12,709.246 c -3.233,13.105 -15.049,22.81 -29.147,22.81 -15.246,0 -27.844,-11.347 -29.774,-26.069 0.313,-0.08 0.64,-0.157 0.965,-0.236 3.274,13.043 15.076,22.681 29.122,22.681 12.898,0 23.893,-8.138 28.144,-19.575 0.234,0.115 0.468,0.258 0.69,0.389 z"
             id="path401" />
        </g>
      </g>
      <g
         id="g2450"
         transform="translate(18.243561,84.77676)">
        <text
           id="text1565-9"
           y="106.49444"
           x="687.50867"
           style="font-style:normal;font-weight:normal;font-size:39.45819473px;line-height:1.25;font-family:sans-serif;letter-spacing:0px;word-spacing:0px;fill:#fdee8b;fill-opacity:1;stroke:none;stroke-width:0.98645484"
           xml:space="preserve"><tspan
             style="font-style:normal;font-variant:normal;font-weight:normal;font-stretch:normal;font-family:'Eras Bold ITC';-inkscape-font-specification:'Eras Bold ITC';fill:#fdee8b;fill-opacity:1;stroke-width:0.98645484"
             y="106.49444"
             x="687.50867"
             id="tspan1563-1"
             sodipodi:role="line">CHILLI</tspan></text>
        <text
           id="text1565"
           y="108.53057"
           x="686.00336"
           style="font-style:normal;font-weight:normal;font-size:39.45819473px;line-height:1.25;font-family:sans-serif;letter-spacing:0px;word-spacing:0px;fill:#f7a01d;fill-opacity:1;stroke:none;stroke-width:0.98645484"
           xml:space="preserve"><tspan
             style="font-style:normal;font-variant:normal;font-weight:normal;font-stretch:normal;font-family:'Eras Bold ITC';-inkscape-font-specification:'Eras Bold ITC';fill:#f7a01d;fill-opacity:1;stroke-width:0.98645484"
             y="108.53057"
             x="686.00336"
             id="tspan1563"
             sodipodi:role="line">CHILLI</tspan></text>
        <text
           id="text1565-3"
           y="110.1147"
           x="684.40009"
           style="font-style:normal;font-weight:normal;font-size:39.45819473px;line-height:1.25;font-family:sans-serif;letter-spacing:0px;word-spacing:0px;fill:#e03a26;fill-opacity:1;stroke:none;stroke-width:0.98645484"
           xml:space="preserve"><tspan
             style="font-style:normal;font-variant:normal;font-weight:normal;font-stretch:normal;font-family:'Eras Bold ITC';-inkscape-font-specification:'Eras Bold ITC';fill:#e03a26;fill-opacity:1;stroke-width:0.98645484"
             y="110.1147"
             x="684.40009"
             id="tspan1563-0"
             sodipodi:role="line">CHILLI</tspan></text>
      </g>
    </g>
  </g>
</svg>
